G04 #@! TF.GenerationSoftware,KiCad,Pcbnew,(5.1.6)-1*
G04 #@! TF.CreationDate,2020-09-01T14:50:53+09:00*
G04 #@! TF.ProjectId,General_8th_MFB_LPF,47656e65-7261-46c5-9f38-74685f4d4642,Ver. 1.0*
G04 #@! TF.SameCoordinates,Original*
G04 #@! TF.FileFunction,Legend,Top*
G04 #@! TF.FilePolarity,Positive*
%FSLAX46Y46*%
G04 Gerber Fmt 4.6, Leading zero omitted, Abs format (unit mm)*
G04 Created by KiCad (PCBNEW (5.1.6)-1) date 2020-09-01 14:50:53*
%MOMM*%
%LPD*%
G01*
G04 APERTURE LIST*
%ADD10C,0.150000*%
%ADD11C,0.100000*%
%ADD12C,0.010000*%
%ADD13C,0.120000*%
G04 APERTURE END LIST*
D10*
X164885714Y-90407809D02*
X165552380Y-90407809D01*
X164504761Y-90645904D02*
X165219047Y-90884000D01*
X165219047Y-90264952D01*
X164552380Y-90026857D02*
X164552380Y-89455428D01*
X165552380Y-89741142D02*
X164552380Y-89741142D01*
X165552380Y-89122095D02*
X164552380Y-89122095D01*
X165028571Y-89122095D02*
X165028571Y-88550666D01*
X165552380Y-88550666D02*
X164552380Y-88550666D01*
X165647619Y-88312571D02*
X165647619Y-87550666D01*
X164552380Y-87122095D02*
X164552380Y-86931619D01*
X164600000Y-86836380D01*
X164695238Y-86741142D01*
X164885714Y-86693523D01*
X165219047Y-86693523D01*
X165409523Y-86741142D01*
X165504761Y-86836380D01*
X165552380Y-86931619D01*
X165552380Y-87122095D01*
X165504761Y-87217333D01*
X165409523Y-87312571D01*
X165219047Y-87360190D01*
X164885714Y-87360190D01*
X164695238Y-87312571D01*
X164600000Y-87217333D01*
X164552380Y-87122095D01*
X164552380Y-86264952D02*
X165361904Y-86264952D01*
X165457142Y-86217333D01*
X165504761Y-86169714D01*
X165552380Y-86074476D01*
X165552380Y-85884000D01*
X165504761Y-85788761D01*
X165457142Y-85741142D01*
X165361904Y-85693523D01*
X164552380Y-85693523D01*
X164552380Y-85360190D02*
X164552380Y-84788761D01*
X165552380Y-85074476D02*
X164552380Y-85074476D01*
X164980952Y-76469523D02*
X164933333Y-76564761D01*
X164885714Y-76612380D01*
X164790476Y-76660000D01*
X164742857Y-76660000D01*
X164647619Y-76612380D01*
X164600000Y-76564761D01*
X164552380Y-76469523D01*
X164552380Y-76279047D01*
X164600000Y-76183809D01*
X164647619Y-76136190D01*
X164742857Y-76088571D01*
X164790476Y-76088571D01*
X164885714Y-76136190D01*
X164933333Y-76183809D01*
X164980952Y-76279047D01*
X164980952Y-76469523D01*
X165028571Y-76564761D01*
X165076190Y-76612380D01*
X165171428Y-76660000D01*
X165361904Y-76660000D01*
X165457142Y-76612380D01*
X165504761Y-76564761D01*
X165552380Y-76469523D01*
X165552380Y-76279047D01*
X165504761Y-76183809D01*
X165457142Y-76136190D01*
X165361904Y-76088571D01*
X165171428Y-76088571D01*
X165076190Y-76136190D01*
X165028571Y-76183809D01*
X164980952Y-76279047D01*
X164552380Y-75802857D02*
X164552380Y-75231428D01*
X165552380Y-75517142D02*
X164552380Y-75517142D01*
X165552380Y-74898095D02*
X164552380Y-74898095D01*
X165028571Y-74898095D02*
X165028571Y-74326666D01*
X165552380Y-74326666D02*
X164552380Y-74326666D01*
X165647619Y-74088571D02*
X165647619Y-73326666D01*
X164552380Y-72898095D02*
X164552380Y-72707619D01*
X164600000Y-72612380D01*
X164695238Y-72517142D01*
X164885714Y-72469523D01*
X165219047Y-72469523D01*
X165409523Y-72517142D01*
X165504761Y-72612380D01*
X165552380Y-72707619D01*
X165552380Y-72898095D01*
X165504761Y-72993333D01*
X165409523Y-73088571D01*
X165219047Y-73136190D01*
X164885714Y-73136190D01*
X164695238Y-73088571D01*
X164600000Y-72993333D01*
X164552380Y-72898095D01*
X164552380Y-72040952D02*
X165361904Y-72040952D01*
X165457142Y-71993333D01*
X165504761Y-71945714D01*
X165552380Y-71850476D01*
X165552380Y-71660000D01*
X165504761Y-71564761D01*
X165457142Y-71517142D01*
X165361904Y-71469523D01*
X164552380Y-71469523D01*
X164552380Y-71136190D02*
X164552380Y-70564761D01*
X165552380Y-70850476D02*
X164552380Y-70850476D01*
X176022095Y-87892000D02*
X175926857Y-87844380D01*
X175784000Y-87844380D01*
X175641142Y-87892000D01*
X175545904Y-87987238D01*
X175498285Y-88082476D01*
X175450666Y-88272952D01*
X175450666Y-88415809D01*
X175498285Y-88606285D01*
X175545904Y-88701523D01*
X175641142Y-88796761D01*
X175784000Y-88844380D01*
X175879238Y-88844380D01*
X176022095Y-88796761D01*
X176069714Y-88749142D01*
X176069714Y-88415809D01*
X175879238Y-88415809D01*
X176498285Y-88844380D02*
X176498285Y-87844380D01*
X177069714Y-88844380D01*
X177069714Y-87844380D01*
X177545904Y-88844380D02*
X177545904Y-87844380D01*
X177784000Y-87844380D01*
X177926857Y-87892000D01*
X178022095Y-87987238D01*
X178069714Y-88082476D01*
X178117333Y-88272952D01*
X178117333Y-88415809D01*
X178069714Y-88606285D01*
X178022095Y-88701523D01*
X177926857Y-88796761D01*
X177784000Y-88844380D01*
X177545904Y-88844380D01*
X121673904Y-91448000D02*
X121578666Y-91400380D01*
X121435809Y-91400380D01*
X121292952Y-91448000D01*
X121197714Y-91543238D01*
X121150095Y-91638476D01*
X121102476Y-91828952D01*
X121102476Y-91971809D01*
X121150095Y-92162285D01*
X121197714Y-92257523D01*
X121292952Y-92352761D01*
X121435809Y-92400380D01*
X121531047Y-92400380D01*
X121673904Y-92352761D01*
X121721523Y-92305142D01*
X121721523Y-91971809D01*
X121531047Y-91971809D01*
X122412190Y-103068380D02*
X122412190Y-102068380D01*
X122888380Y-103068380D02*
X122888380Y-102068380D01*
X123459809Y-103068380D01*
X123459809Y-102068380D01*
X137581142Y-118832380D02*
X137914476Y-119832380D01*
X138247809Y-118832380D01*
X138581142Y-119451428D02*
X139343047Y-119451428D01*
X141104952Y-118880000D02*
X141009714Y-118832380D01*
X140866857Y-118832380D01*
X140724000Y-118880000D01*
X140628761Y-118975238D01*
X140581142Y-119070476D01*
X140533523Y-119260952D01*
X140533523Y-119403809D01*
X140581142Y-119594285D01*
X140628761Y-119689523D01*
X140724000Y-119784761D01*
X140866857Y-119832380D01*
X140962095Y-119832380D01*
X141104952Y-119784761D01*
X141152571Y-119737142D01*
X141152571Y-119403809D01*
X140962095Y-119403809D01*
X142962095Y-118832380D02*
X143295428Y-119832380D01*
X143628761Y-118832380D01*
X143962095Y-119451428D02*
X144724000Y-119451428D01*
X144343047Y-119832380D02*
X144343047Y-119070476D01*
D11*
X137612857Y-111351190D02*
X137612857Y-110851190D01*
X137850952Y-110851190D01*
X137993809Y-110875000D01*
X138089047Y-110922619D01*
X138136666Y-110970238D01*
X138184285Y-111065476D01*
X138184285Y-111136904D01*
X138136666Y-111232142D01*
X138089047Y-111279761D01*
X137993809Y-111327380D01*
X137850952Y-111351190D01*
X137612857Y-111351190D01*
X138374761Y-111398809D02*
X139136666Y-111398809D01*
X139374761Y-111351190D02*
X139374761Y-110851190D01*
X139755714Y-110851190D01*
X139850952Y-110875000D01*
X139898571Y-110898809D01*
X139946190Y-110946428D01*
X139946190Y-111017857D01*
X139898571Y-111065476D01*
X139850952Y-111089285D01*
X139755714Y-111113095D01*
X139374761Y-111113095D01*
X140279523Y-110851190D02*
X140517619Y-111351190D01*
X140708095Y-110994047D01*
X140898571Y-111351190D01*
X141136666Y-110851190D01*
X142089047Y-111351190D02*
X141755714Y-111113095D01*
X141517619Y-111351190D02*
X141517619Y-110851190D01*
X141898571Y-110851190D01*
X141993809Y-110875000D01*
X142041428Y-110898809D01*
X142089047Y-110946428D01*
X142089047Y-111017857D01*
X142041428Y-111065476D01*
X141993809Y-111089285D01*
X141898571Y-111113095D01*
X141517619Y-111113095D01*
X142279523Y-111398809D02*
X143041428Y-111398809D01*
X143279523Y-111351190D02*
X143279523Y-110851190D01*
X143755714Y-111351190D02*
X143755714Y-110851190D01*
X144327142Y-111351190D01*
X144327142Y-110851190D01*
D10*
X160822142Y-118832380D02*
X161155476Y-119832380D01*
X161488809Y-118832380D01*
X161822142Y-119451428D02*
X162584047Y-119451428D01*
X164345952Y-118880000D02*
X164250714Y-118832380D01*
X164107857Y-118832380D01*
X163965000Y-118880000D01*
X163869761Y-118975238D01*
X163822142Y-119070476D01*
X163774523Y-119260952D01*
X163774523Y-119403809D01*
X163822142Y-119594285D01*
X163869761Y-119689523D01*
X163965000Y-119784761D01*
X164107857Y-119832380D01*
X164203095Y-119832380D01*
X164345952Y-119784761D01*
X164393571Y-119737142D01*
X164393571Y-119403809D01*
X164203095Y-119403809D01*
X166203095Y-118832380D02*
X166536428Y-119832380D01*
X166869761Y-118832380D01*
X167203095Y-119451428D02*
X167965000Y-119451428D01*
X167584047Y-119832380D02*
X167584047Y-119070476D01*
X172244047Y-118832380D02*
X172577380Y-119832380D01*
X172910714Y-118832380D01*
X173244047Y-119451428D02*
X174005952Y-119451428D01*
X175101190Y-118832380D02*
X175434523Y-119832380D01*
X175767857Y-118832380D01*
X176101190Y-119451428D02*
X176863095Y-119451428D01*
X176482142Y-119832380D02*
X176482142Y-119070476D01*
D11*
X159806190Y-111351190D02*
X159806190Y-110851190D01*
X160044285Y-110851190D01*
X160187142Y-110875000D01*
X160282380Y-110922619D01*
X160330000Y-110970238D01*
X160377619Y-111065476D01*
X160377619Y-111136904D01*
X160330000Y-111232142D01*
X160282380Y-111279761D01*
X160187142Y-111327380D01*
X160044285Y-111351190D01*
X159806190Y-111351190D01*
X160568095Y-111398809D02*
X161330000Y-111398809D01*
X161568095Y-111351190D02*
X161568095Y-110851190D01*
X161949047Y-110851190D01*
X162044285Y-110875000D01*
X162091904Y-110898809D01*
X162139523Y-110946428D01*
X162139523Y-111017857D01*
X162091904Y-111065476D01*
X162044285Y-111089285D01*
X161949047Y-111113095D01*
X161568095Y-111113095D01*
X162472857Y-110851190D02*
X162710952Y-111351190D01*
X162901428Y-110994047D01*
X163091904Y-111351190D01*
X163330000Y-110851190D01*
X164282380Y-111351190D02*
X163949047Y-111113095D01*
X163710952Y-111351190D02*
X163710952Y-110851190D01*
X164091904Y-110851190D01*
X164187142Y-110875000D01*
X164234761Y-110898809D01*
X164282380Y-110946428D01*
X164282380Y-111017857D01*
X164234761Y-111065476D01*
X164187142Y-111089285D01*
X164091904Y-111113095D01*
X163710952Y-111113095D01*
X164472857Y-111398809D02*
X165234761Y-111398809D01*
X165663333Y-110851190D02*
X165853809Y-110851190D01*
X165949047Y-110875000D01*
X166044285Y-110922619D01*
X166091904Y-111017857D01*
X166091904Y-111184523D01*
X166044285Y-111279761D01*
X165949047Y-111327380D01*
X165853809Y-111351190D01*
X165663333Y-111351190D01*
X165568095Y-111327380D01*
X165472857Y-111279761D01*
X165425238Y-111184523D01*
X165425238Y-111017857D01*
X165472857Y-110922619D01*
X165568095Y-110875000D01*
X165663333Y-110851190D01*
X166520476Y-110851190D02*
X166520476Y-111255952D01*
X166568095Y-111303571D01*
X166615714Y-111327380D01*
X166710952Y-111351190D01*
X166901428Y-111351190D01*
X166996666Y-111327380D01*
X167044285Y-111303571D01*
X167091904Y-111255952D01*
X167091904Y-110851190D01*
X167425238Y-110851190D02*
X167996666Y-110851190D01*
X167710952Y-111351190D02*
X167710952Y-110851190D01*
X170609047Y-111327380D02*
X170751904Y-111351190D01*
X170990000Y-111351190D01*
X171085238Y-111327380D01*
X171132857Y-111303571D01*
X171180476Y-111255952D01*
X171180476Y-111208333D01*
X171132857Y-111160714D01*
X171085238Y-111136904D01*
X170990000Y-111113095D01*
X170799523Y-111089285D01*
X170704285Y-111065476D01*
X170656666Y-111041666D01*
X170609047Y-110994047D01*
X170609047Y-110946428D01*
X170656666Y-110898809D01*
X170704285Y-110875000D01*
X170799523Y-110851190D01*
X171037619Y-110851190D01*
X171180476Y-110875000D01*
X171370952Y-111398809D02*
X172132857Y-111398809D01*
X172370952Y-111351190D02*
X172370952Y-110851190D01*
X172751904Y-110851190D01*
X172847142Y-110875000D01*
X172894761Y-110898809D01*
X172942380Y-110946428D01*
X172942380Y-111017857D01*
X172894761Y-111065476D01*
X172847142Y-111089285D01*
X172751904Y-111113095D01*
X172370952Y-111113095D01*
X173275714Y-110851190D02*
X173513809Y-111351190D01*
X173704285Y-110994047D01*
X173894761Y-111351190D01*
X174132857Y-110851190D01*
X175085238Y-111351190D02*
X174751904Y-111113095D01*
X174513809Y-111351190D02*
X174513809Y-110851190D01*
X174894761Y-110851190D01*
X174990000Y-110875000D01*
X175037619Y-110898809D01*
X175085238Y-110946428D01*
X175085238Y-111017857D01*
X175037619Y-111065476D01*
X174990000Y-111089285D01*
X174894761Y-111113095D01*
X174513809Y-111113095D01*
X175275714Y-111398809D02*
X176037619Y-111398809D01*
X176275714Y-111351190D02*
X176275714Y-110851190D01*
X176751904Y-111351190D02*
X176751904Y-110851190D01*
X177323333Y-111351190D01*
X177323333Y-110851190D01*
D10*
X183332380Y-96407380D02*
X182332380Y-96407380D01*
X183332380Y-95978809D02*
X182808571Y-95978809D01*
X182713333Y-96026428D01*
X182665714Y-96121666D01*
X182665714Y-96264523D01*
X182713333Y-96359761D01*
X182760952Y-96407380D01*
X182665714Y-95645476D02*
X182665714Y-95264523D01*
X182332380Y-95502619D02*
X183189523Y-95502619D01*
X183284761Y-95455000D01*
X183332380Y-95359761D01*
X183332380Y-95264523D01*
X182665714Y-95074047D02*
X182665714Y-94693095D01*
X182332380Y-94931190D02*
X183189523Y-94931190D01*
X183284761Y-94883571D01*
X183332380Y-94788333D01*
X183332380Y-94693095D01*
X182665714Y-94359761D02*
X183665714Y-94359761D01*
X182713333Y-94359761D02*
X182665714Y-94264523D01*
X182665714Y-94074047D01*
X182713333Y-93978809D01*
X182760952Y-93931190D01*
X182856190Y-93883571D01*
X183141904Y-93883571D01*
X183237142Y-93931190D01*
X183284761Y-93978809D01*
X183332380Y-94074047D01*
X183332380Y-94264523D01*
X183284761Y-94359761D01*
X183284761Y-93502619D02*
X183332380Y-93407380D01*
X183332380Y-93216904D01*
X183284761Y-93121666D01*
X183189523Y-93074047D01*
X183141904Y-93074047D01*
X183046666Y-93121666D01*
X182999047Y-93216904D01*
X182999047Y-93359761D01*
X182951428Y-93455000D01*
X182856190Y-93502619D01*
X182808571Y-93502619D01*
X182713333Y-93455000D01*
X182665714Y-93359761D01*
X182665714Y-93216904D01*
X182713333Y-93121666D01*
X183237142Y-92645476D02*
X183284761Y-92597857D01*
X183332380Y-92645476D01*
X183284761Y-92693095D01*
X183237142Y-92645476D01*
X183332380Y-92645476D01*
X182713333Y-92645476D02*
X182760952Y-92597857D01*
X182808571Y-92645476D01*
X182760952Y-92693095D01*
X182713333Y-92645476D01*
X182808571Y-92645476D01*
X182284761Y-91455000D02*
X183570476Y-92312142D01*
X182284761Y-90407380D02*
X183570476Y-91264523D01*
X183332380Y-89645476D02*
X182332380Y-89645476D01*
X183284761Y-89645476D02*
X183332380Y-89740714D01*
X183332380Y-89931190D01*
X183284761Y-90026428D01*
X183237142Y-90074047D01*
X183141904Y-90121666D01*
X182856190Y-90121666D01*
X182760952Y-90074047D01*
X182713333Y-90026428D01*
X182665714Y-89931190D01*
X182665714Y-89740714D01*
X182713333Y-89645476D01*
X183332380Y-88740714D02*
X182808571Y-88740714D01*
X182713333Y-88788333D01*
X182665714Y-88883571D01*
X182665714Y-89074047D01*
X182713333Y-89169285D01*
X183284761Y-88740714D02*
X183332380Y-88835952D01*
X183332380Y-89074047D01*
X183284761Y-89169285D01*
X183189523Y-89216904D01*
X183094285Y-89216904D01*
X182999047Y-89169285D01*
X182951428Y-89074047D01*
X182951428Y-88835952D01*
X182903809Y-88740714D01*
X183332380Y-87835952D02*
X182332380Y-87835952D01*
X183284761Y-87835952D02*
X183332380Y-87931190D01*
X183332380Y-88121666D01*
X183284761Y-88216904D01*
X183237142Y-88264523D01*
X183141904Y-88312142D01*
X182856190Y-88312142D01*
X182760952Y-88264523D01*
X182713333Y-88216904D01*
X182665714Y-88121666D01*
X182665714Y-87931190D01*
X182713333Y-87835952D01*
X182760952Y-87216904D02*
X182713333Y-87312142D01*
X182665714Y-87359761D01*
X182570476Y-87407380D01*
X182522857Y-87407380D01*
X182427619Y-87359761D01*
X182380000Y-87312142D01*
X182332380Y-87216904D01*
X182332380Y-87026428D01*
X182380000Y-86931190D01*
X182427619Y-86883571D01*
X182522857Y-86835952D01*
X182570476Y-86835952D01*
X182665714Y-86883571D01*
X182713333Y-86931190D01*
X182760952Y-87026428D01*
X182760952Y-87216904D01*
X182808571Y-87312142D01*
X182856190Y-87359761D01*
X182951428Y-87407380D01*
X183141904Y-87407380D01*
X183237142Y-87359761D01*
X183284761Y-87312142D01*
X183332380Y-87216904D01*
X183332380Y-87026428D01*
X183284761Y-86931190D01*
X183237142Y-86883571D01*
X183141904Y-86835952D01*
X182951428Y-86835952D01*
X182856190Y-86883571D01*
X182808571Y-86931190D01*
X182760952Y-87026428D01*
X182760952Y-86264523D02*
X182713333Y-86359761D01*
X182665714Y-86407380D01*
X182570476Y-86455000D01*
X182522857Y-86455000D01*
X182427619Y-86407380D01*
X182380000Y-86359761D01*
X182332380Y-86264523D01*
X182332380Y-86074047D01*
X182380000Y-85978809D01*
X182427619Y-85931190D01*
X182522857Y-85883571D01*
X182570476Y-85883571D01*
X182665714Y-85931190D01*
X182713333Y-85978809D01*
X182760952Y-86074047D01*
X182760952Y-86264523D01*
X182808571Y-86359761D01*
X182856190Y-86407380D01*
X182951428Y-86455000D01*
X183141904Y-86455000D01*
X183237142Y-86407380D01*
X183284761Y-86359761D01*
X183332380Y-86264523D01*
X183332380Y-86074047D01*
X183284761Y-85978809D01*
X183237142Y-85931190D01*
X183141904Y-85883571D01*
X182951428Y-85883571D01*
X182856190Y-85931190D01*
X182808571Y-85978809D01*
X182760952Y-86074047D01*
X183332380Y-85407380D02*
X183332380Y-85216904D01*
X183284761Y-85121666D01*
X183237142Y-85074047D01*
X183094285Y-84978809D01*
X182903809Y-84931190D01*
X182522857Y-84931190D01*
X182427619Y-84978809D01*
X182380000Y-85026428D01*
X182332380Y-85121666D01*
X182332380Y-85312142D01*
X182380000Y-85407380D01*
X182427619Y-85455000D01*
X182522857Y-85502619D01*
X182760952Y-85502619D01*
X182856190Y-85455000D01*
X182903809Y-85407380D01*
X182951428Y-85312142D01*
X182951428Y-85121666D01*
X182903809Y-85026428D01*
X182856190Y-84978809D01*
X182760952Y-84931190D01*
X182332380Y-84597857D02*
X182332380Y-83978809D01*
X182713333Y-84312142D01*
X182713333Y-84169285D01*
X182760952Y-84074047D01*
X182808571Y-84026428D01*
X182903809Y-83978809D01*
X183141904Y-83978809D01*
X183237142Y-84026428D01*
X183284761Y-84074047D01*
X183332380Y-84169285D01*
X183332380Y-84455000D01*
X183284761Y-84550238D01*
X183237142Y-84597857D01*
X183237142Y-83550238D02*
X183284761Y-83502619D01*
X183332380Y-83550238D01*
X183284761Y-83597857D01*
X183237142Y-83550238D01*
X183332380Y-83550238D01*
X183332380Y-83074047D02*
X182332380Y-83074047D01*
X182713333Y-83074047D02*
X182665714Y-82978809D01*
X182665714Y-82788333D01*
X182713333Y-82693095D01*
X182760952Y-82645476D01*
X182856190Y-82597857D01*
X183141904Y-82597857D01*
X183237142Y-82645476D01*
X183284761Y-82693095D01*
X183332380Y-82788333D01*
X183332380Y-82978809D01*
X183284761Y-83074047D01*
X183332380Y-82026428D02*
X183284761Y-82121666D01*
X183189523Y-82169285D01*
X182332380Y-82169285D01*
X183332380Y-81502619D02*
X183284761Y-81597857D01*
X183237142Y-81645476D01*
X183141904Y-81693095D01*
X182856190Y-81693095D01*
X182760952Y-81645476D01*
X182713333Y-81597857D01*
X182665714Y-81502619D01*
X182665714Y-81359761D01*
X182713333Y-81264523D01*
X182760952Y-81216904D01*
X182856190Y-81169285D01*
X183141904Y-81169285D01*
X183237142Y-81216904D01*
X183284761Y-81264523D01*
X183332380Y-81359761D01*
X183332380Y-81502619D01*
X182665714Y-80312142D02*
X183475238Y-80312142D01*
X183570476Y-80359761D01*
X183618095Y-80407380D01*
X183665714Y-80502619D01*
X183665714Y-80645476D01*
X183618095Y-80740714D01*
X183284761Y-80312142D02*
X183332380Y-80407380D01*
X183332380Y-80597857D01*
X183284761Y-80693095D01*
X183237142Y-80740714D01*
X183141904Y-80788333D01*
X182856190Y-80788333D01*
X182760952Y-80740714D01*
X182713333Y-80693095D01*
X182665714Y-80597857D01*
X182665714Y-80407380D01*
X182713333Y-80312142D01*
X183284761Y-79883571D02*
X183332380Y-79788333D01*
X183332380Y-79597857D01*
X183284761Y-79502619D01*
X183189523Y-79455000D01*
X183141904Y-79455000D01*
X183046666Y-79502619D01*
X182999047Y-79597857D01*
X182999047Y-79740714D01*
X182951428Y-79835952D01*
X182856190Y-79883571D01*
X182808571Y-79883571D01*
X182713333Y-79835952D01*
X182665714Y-79740714D01*
X182665714Y-79597857D01*
X182713333Y-79502619D01*
X182665714Y-79026428D02*
X183665714Y-79026428D01*
X182713333Y-79026428D02*
X182665714Y-78931190D01*
X182665714Y-78740714D01*
X182713333Y-78645476D01*
X182760952Y-78597857D01*
X182856190Y-78550238D01*
X183141904Y-78550238D01*
X183237142Y-78597857D01*
X183284761Y-78645476D01*
X183332380Y-78740714D01*
X183332380Y-78931190D01*
X183284761Y-79026428D01*
X183332380Y-77978809D02*
X183284761Y-78074047D01*
X183237142Y-78121666D01*
X183141904Y-78169285D01*
X182856190Y-78169285D01*
X182760952Y-78121666D01*
X182713333Y-78074047D01*
X182665714Y-77978809D01*
X182665714Y-77835952D01*
X182713333Y-77740714D01*
X182760952Y-77693095D01*
X182856190Y-77645476D01*
X183141904Y-77645476D01*
X183237142Y-77693095D01*
X183284761Y-77740714D01*
X183332380Y-77835952D01*
X183332380Y-77978809D01*
X182665714Y-77359761D02*
X182665714Y-76978809D01*
X182332380Y-77216904D02*
X183189523Y-77216904D01*
X183284761Y-77169285D01*
X183332380Y-77074047D01*
X183332380Y-76978809D01*
X183237142Y-76645476D02*
X183284761Y-76597857D01*
X183332380Y-76645476D01*
X183284761Y-76693095D01*
X183237142Y-76645476D01*
X183332380Y-76645476D01*
X183284761Y-75740714D02*
X183332380Y-75835952D01*
X183332380Y-76026428D01*
X183284761Y-76121666D01*
X183237142Y-76169285D01*
X183141904Y-76216904D01*
X182856190Y-76216904D01*
X182760952Y-76169285D01*
X182713333Y-76121666D01*
X182665714Y-76026428D01*
X182665714Y-75835952D01*
X182713333Y-75740714D01*
X183332380Y-75169285D02*
X183284761Y-75264523D01*
X183237142Y-75312142D01*
X183141904Y-75359761D01*
X182856190Y-75359761D01*
X182760952Y-75312142D01*
X182713333Y-75264523D01*
X182665714Y-75169285D01*
X182665714Y-75026428D01*
X182713333Y-74931190D01*
X182760952Y-74883571D01*
X182856190Y-74835952D01*
X183141904Y-74835952D01*
X183237142Y-74883571D01*
X183284761Y-74931190D01*
X183332380Y-75026428D01*
X183332380Y-75169285D01*
X183332380Y-74407380D02*
X182665714Y-74407380D01*
X182760952Y-74407380D02*
X182713333Y-74359761D01*
X182665714Y-74264523D01*
X182665714Y-74121666D01*
X182713333Y-74026428D01*
X182808571Y-73978809D01*
X183332380Y-73978809D01*
X182808571Y-73978809D02*
X182713333Y-73931190D01*
X182665714Y-73835952D01*
X182665714Y-73693095D01*
X182713333Y-73597857D01*
X182808571Y-73550238D01*
X183332380Y-73550238D01*
X182284761Y-72359761D02*
X183570476Y-73216904D01*
X157112142Y-66496428D02*
X156969285Y-66425000D01*
X156897857Y-66353571D01*
X156826428Y-66210714D01*
X156826428Y-66139285D01*
X156897857Y-65996428D01*
X156969285Y-65925000D01*
X157112142Y-65853571D01*
X157397857Y-65853571D01*
X157540714Y-65925000D01*
X157612142Y-65996428D01*
X157683571Y-66139285D01*
X157683571Y-66210714D01*
X157612142Y-66353571D01*
X157540714Y-66425000D01*
X157397857Y-66496428D01*
X157112142Y-66496428D01*
X156969285Y-66567857D01*
X156897857Y-66639285D01*
X156826428Y-66782142D01*
X156826428Y-67067857D01*
X156897857Y-67210714D01*
X156969285Y-67282142D01*
X157112142Y-67353571D01*
X157397857Y-67353571D01*
X157540714Y-67282142D01*
X157612142Y-67210714D01*
X157683571Y-67067857D01*
X157683571Y-66782142D01*
X157612142Y-66639285D01*
X157540714Y-66567857D01*
X157397857Y-66496428D01*
X158112142Y-65853571D02*
X158969285Y-65853571D01*
X158540714Y-67353571D02*
X158540714Y-65853571D01*
X159469285Y-67353571D02*
X159469285Y-65853571D01*
X159469285Y-66567857D02*
X160326428Y-66567857D01*
X160326428Y-67353571D02*
X160326428Y-65853571D01*
X162183571Y-67353571D02*
X162183571Y-65853571D01*
X162683571Y-66925000D01*
X163183571Y-65853571D01*
X163183571Y-67353571D01*
X164397857Y-66567857D02*
X163897857Y-66567857D01*
X163897857Y-67353571D02*
X163897857Y-65853571D01*
X164612142Y-65853571D01*
X165683571Y-66567857D02*
X165897857Y-66639285D01*
X165969285Y-66710714D01*
X166040714Y-66853571D01*
X166040714Y-67067857D01*
X165969285Y-67210714D01*
X165897857Y-67282142D01*
X165754999Y-67353571D01*
X165183571Y-67353571D01*
X165183571Y-65853571D01*
X165683571Y-65853571D01*
X165826428Y-65925000D01*
X165897857Y-65996428D01*
X165969285Y-66139285D01*
X165969285Y-66282142D01*
X165897857Y-66425000D01*
X165826428Y-66496428D01*
X165683571Y-66567857D01*
X165183571Y-66567857D01*
X168540714Y-67353571D02*
X167826428Y-67353571D01*
X167826428Y-65853571D01*
X169040714Y-67353571D02*
X169040714Y-65853571D01*
X169612142Y-65853571D01*
X169754999Y-65925000D01*
X169826428Y-65996428D01*
X169897857Y-66139285D01*
X169897857Y-66353571D01*
X169826428Y-66496428D01*
X169754999Y-66567857D01*
X169612142Y-66639285D01*
X169040714Y-66639285D01*
X171040714Y-66567857D02*
X170540714Y-66567857D01*
X170540714Y-67353571D02*
X170540714Y-65853571D01*
X171254999Y-65853571D01*
X172754999Y-65853571D02*
X173254999Y-67353571D01*
X173754999Y-65853571D01*
X175040714Y-67353571D02*
X174183571Y-67353571D01*
X174612142Y-67353571D02*
X174612142Y-65853571D01*
X174469285Y-66067857D01*
X174326428Y-66210714D01*
X174183571Y-66282142D01*
X175683571Y-67210714D02*
X175754999Y-67282142D01*
X175683571Y-67353571D01*
X175612142Y-67282142D01*
X175683571Y-67210714D01*
X175683571Y-67353571D01*
X176683571Y-65853571D02*
X176826428Y-65853571D01*
X176969285Y-65925000D01*
X177040714Y-65996428D01*
X177112142Y-66139285D01*
X177183571Y-66425000D01*
X177183571Y-66782142D01*
X177112142Y-67067857D01*
X177040714Y-67210714D01*
X176969285Y-67282142D01*
X176826428Y-67353571D01*
X176683571Y-67353571D01*
X176540714Y-67282142D01*
X176469285Y-67210714D01*
X176397857Y-67067857D01*
X176326428Y-66782142D01*
X176326428Y-66425000D01*
X176397857Y-66139285D01*
X176469285Y-65996428D01*
X176540714Y-65925000D01*
X176683571Y-65853571D01*
D12*
G04 #@! TO.C,G\u002A\u002A\u002A*
G36*
X180062306Y-72184001D02*
G01*
X180114400Y-72133623D01*
X180194210Y-72161763D01*
X180252690Y-72217035D01*
X180364915Y-72306591D01*
X180537738Y-72398991D01*
X180676076Y-72456097D01*
X180938724Y-72576897D01*
X181132910Y-72716815D01*
X181254461Y-72870773D01*
X181299205Y-73033692D01*
X181271511Y-73180982D01*
X181204362Y-73275853D01*
X181147691Y-73319536D01*
X181070081Y-73341043D01*
X180997358Y-73300375D01*
X180975970Y-73279970D01*
X180904110Y-73189622D01*
X180906677Y-73120298D01*
X180985601Y-73049294D01*
X180996167Y-73042274D01*
X181080099Y-72971722D01*
X181097194Y-72919928D01*
X181044242Y-72898114D01*
X181037443Y-72898000D01*
X180960548Y-72918177D01*
X180833913Y-72971046D01*
X180680022Y-73045114D01*
X180521356Y-73128890D01*
X180380399Y-73210879D01*
X180279635Y-73279589D01*
X180262505Y-73294126D01*
X180191937Y-73353656D01*
X180150568Y-73356910D01*
X180105932Y-73305634D01*
X180103755Y-73302659D01*
X180068484Y-73208970D01*
X180048750Y-73068089D01*
X180045958Y-72915636D01*
X180061511Y-72787233D01*
X180081363Y-72734720D01*
X180148596Y-72697473D01*
X180199352Y-72703168D01*
X180287279Y-72703459D01*
X180367168Y-72664610D01*
X180411156Y-72605741D01*
X180405119Y-72561953D01*
X180336180Y-72528427D01*
X180234230Y-72535361D01*
X180128618Y-72539412D01*
X180069493Y-72493092D01*
X180045758Y-72383297D01*
X180043667Y-72310337D01*
X180062306Y-72184001D01*
G37*
X180062306Y-72184001D02*
X180114400Y-72133623D01*
X180194210Y-72161763D01*
X180252690Y-72217035D01*
X180364915Y-72306591D01*
X180537738Y-72398991D01*
X180676076Y-72456097D01*
X180938724Y-72576897D01*
X181132910Y-72716815D01*
X181254461Y-72870773D01*
X181299205Y-73033692D01*
X181271511Y-73180982D01*
X181204362Y-73275853D01*
X181147691Y-73319536D01*
X181070081Y-73341043D01*
X180997358Y-73300375D01*
X180975970Y-73279970D01*
X180904110Y-73189622D01*
X180906677Y-73120298D01*
X180985601Y-73049294D01*
X180996167Y-73042274D01*
X181080099Y-72971722D01*
X181097194Y-72919928D01*
X181044242Y-72898114D01*
X181037443Y-72898000D01*
X180960548Y-72918177D01*
X180833913Y-72971046D01*
X180680022Y-73045114D01*
X180521356Y-73128890D01*
X180380399Y-73210879D01*
X180279635Y-73279589D01*
X180262505Y-73294126D01*
X180191937Y-73353656D01*
X180150568Y-73356910D01*
X180105932Y-73305634D01*
X180103755Y-73302659D01*
X180068484Y-73208970D01*
X180048750Y-73068089D01*
X180045958Y-72915636D01*
X180061511Y-72787233D01*
X180081363Y-72734720D01*
X180148596Y-72697473D01*
X180199352Y-72703168D01*
X180287279Y-72703459D01*
X180367168Y-72664610D01*
X180411156Y-72605741D01*
X180405119Y-72561953D01*
X180336180Y-72528427D01*
X180234230Y-72535361D01*
X180128618Y-72539412D01*
X180069493Y-72493092D01*
X180045758Y-72383297D01*
X180043667Y-72310337D01*
X180062306Y-72184001D01*
G36*
X179711472Y-83738126D02*
G01*
X179727379Y-83642965D01*
X179730696Y-83632962D01*
X179789973Y-83575619D01*
X179879644Y-83574818D01*
X179952682Y-83618916D01*
X180028082Y-83649562D01*
X180162330Y-83666529D01*
X180330861Y-83670664D01*
X180509110Y-83662811D01*
X180672512Y-83643816D01*
X180796503Y-83614525D01*
X180846927Y-83588138D01*
X180908754Y-83541324D01*
X180946106Y-83558663D01*
X180971631Y-83602038D01*
X181000996Y-83700943D01*
X181014984Y-83838847D01*
X181013967Y-83985930D01*
X180998315Y-84112373D01*
X180968397Y-84188356D01*
X180964296Y-84192316D01*
X180893592Y-84209872D01*
X180829205Y-84176333D01*
X180743692Y-84137217D01*
X180639303Y-84118117D01*
X180543478Y-84119584D01*
X180483660Y-84142172D01*
X180477339Y-84169250D01*
X180522276Y-84214229D01*
X180621813Y-84278306D01*
X180734867Y-84337854D01*
X180859736Y-84404391D01*
X180946572Y-84462855D01*
X180975000Y-84496999D01*
X180939724Y-84535617D01*
X180846742Y-84596946D01*
X180715327Y-84668439D01*
X180699833Y-84676148D01*
X180565642Y-84746570D01*
X180467684Y-84806079D01*
X180425140Y-84842898D01*
X180424667Y-84845086D01*
X180460776Y-84872316D01*
X180549035Y-84881709D01*
X180659339Y-84875495D01*
X180761585Y-84855908D01*
X180825667Y-84825179D01*
X180832691Y-84814833D01*
X180886664Y-84757534D01*
X180954262Y-84767810D01*
X180991637Y-84818296D01*
X181015759Y-84931111D01*
X181017283Y-85059548D01*
X180998893Y-85172505D01*
X180963274Y-85238881D01*
X180954921Y-85243607D01*
X180878490Y-85235888D01*
X180824897Y-85199945D01*
X180742674Y-85162156D01*
X180601946Y-85138000D01*
X180427761Y-85127429D01*
X180245169Y-85130395D01*
X180079217Y-85146851D01*
X179954955Y-85176750D01*
X179910211Y-85201676D01*
X179824093Y-85247159D01*
X179759114Y-85216221D01*
X179720454Y-85115588D01*
X179713294Y-84951988D01*
X179713607Y-84946394D01*
X179723172Y-84831985D01*
X179746496Y-84756008D01*
X179800346Y-84695188D01*
X179901487Y-84626251D01*
X179977601Y-84579912D01*
X180105424Y-84498062D01*
X180200711Y-84428307D01*
X180243210Y-84385497D01*
X180243388Y-84385001D01*
X180217220Y-84343786D01*
X180134498Y-84288738D01*
X180081428Y-84262438D01*
X179897040Y-84169098D01*
X179781722Y-84081094D01*
X179722151Y-83984277D01*
X179705002Y-83864499D01*
X179705000Y-83862723D01*
X179711472Y-83738126D01*
G37*
X179711472Y-83738126D02*
X179727379Y-83642965D01*
X179730696Y-83632962D01*
X179789973Y-83575619D01*
X179879644Y-83574818D01*
X179952682Y-83618916D01*
X180028082Y-83649562D01*
X180162330Y-83666529D01*
X180330861Y-83670664D01*
X180509110Y-83662811D01*
X180672512Y-83643816D01*
X180796503Y-83614525D01*
X180846927Y-83588138D01*
X180908754Y-83541324D01*
X180946106Y-83558663D01*
X180971631Y-83602038D01*
X181000996Y-83700943D01*
X181014984Y-83838847D01*
X181013967Y-83985930D01*
X180998315Y-84112373D01*
X180968397Y-84188356D01*
X180964296Y-84192316D01*
X180893592Y-84209872D01*
X180829205Y-84176333D01*
X180743692Y-84137217D01*
X180639303Y-84118117D01*
X180543478Y-84119584D01*
X180483660Y-84142172D01*
X180477339Y-84169250D01*
X180522276Y-84214229D01*
X180621813Y-84278306D01*
X180734867Y-84337854D01*
X180859736Y-84404391D01*
X180946572Y-84462855D01*
X180975000Y-84496999D01*
X180939724Y-84535617D01*
X180846742Y-84596946D01*
X180715327Y-84668439D01*
X180699833Y-84676148D01*
X180565642Y-84746570D01*
X180467684Y-84806079D01*
X180425140Y-84842898D01*
X180424667Y-84845086D01*
X180460776Y-84872316D01*
X180549035Y-84881709D01*
X180659339Y-84875495D01*
X180761585Y-84855908D01*
X180825667Y-84825179D01*
X180832691Y-84814833D01*
X180886664Y-84757534D01*
X180954262Y-84767810D01*
X180991637Y-84818296D01*
X181015759Y-84931111D01*
X181017283Y-85059548D01*
X180998893Y-85172505D01*
X180963274Y-85238881D01*
X180954921Y-85243607D01*
X180878490Y-85235888D01*
X180824897Y-85199945D01*
X180742674Y-85162156D01*
X180601946Y-85138000D01*
X180427761Y-85127429D01*
X180245169Y-85130395D01*
X180079217Y-85146851D01*
X179954955Y-85176750D01*
X179910211Y-85201676D01*
X179824093Y-85247159D01*
X179759114Y-85216221D01*
X179720454Y-85115588D01*
X179713294Y-84951988D01*
X179713607Y-84946394D01*
X179723172Y-84831985D01*
X179746496Y-84756008D01*
X179800346Y-84695188D01*
X179901487Y-84626251D01*
X179977601Y-84579912D01*
X180105424Y-84498062D01*
X180200711Y-84428307D01*
X180243210Y-84385497D01*
X180243388Y-84385001D01*
X180217220Y-84343786D01*
X180134498Y-84288738D01*
X180081428Y-84262438D01*
X179897040Y-84169098D01*
X179781722Y-84081094D01*
X179722151Y-83984277D01*
X179705002Y-83864499D01*
X179705000Y-83862723D01*
X179711472Y-83738126D01*
G36*
X180082260Y-82727801D02*
G01*
X180141783Y-82604106D01*
X180255010Y-82534694D01*
X180433281Y-82508670D01*
X180490753Y-82507666D01*
X180639702Y-82499337D01*
X180725955Y-82470573D01*
X180761109Y-82433583D01*
X180795625Y-82391426D01*
X180835569Y-82401219D01*
X180903747Y-82469746D01*
X180911379Y-82478277D01*
X180994596Y-82610487D01*
X181014019Y-82737440D01*
X180967681Y-82836718D01*
X180939218Y-82896992D01*
X180964613Y-82988522D01*
X180967681Y-82995343D01*
X181014372Y-83175037D01*
X180979855Y-83330861D01*
X180913424Y-83419757D01*
X180820837Y-83499592D01*
X180747023Y-83514824D01*
X180718873Y-83498964D01*
X180718873Y-83091470D01*
X180787141Y-83048292D01*
X180805667Y-82995828D01*
X180769008Y-82943381D01*
X180699833Y-82931000D01*
X180618263Y-82956904D01*
X180591972Y-83015228D01*
X180632925Y-83076890D01*
X180638360Y-83080419D01*
X180718873Y-83091470D01*
X180718873Y-83498964D01*
X180660736Y-83466208D01*
X180613363Y-83427020D01*
X180527995Y-83321156D01*
X180484142Y-83173171D01*
X180478496Y-83130686D01*
X180459619Y-83008752D01*
X180430169Y-82949662D01*
X180376612Y-82931649D01*
X180354332Y-82931000D01*
X180257731Y-82956052D01*
X180227968Y-83023386D01*
X180266682Y-83121269D01*
X180318833Y-83185000D01*
X180394761Y-83291820D01*
X180408630Y-83377595D01*
X180362351Y-83427217D01*
X180287669Y-83431386D01*
X180189195Y-83376639D01*
X180116235Y-83251456D01*
X180073860Y-83067561D01*
X180065101Y-82916676D01*
X180082260Y-82727801D01*
G37*
X180082260Y-82727801D02*
X180141783Y-82604106D01*
X180255010Y-82534694D01*
X180433281Y-82508670D01*
X180490753Y-82507666D01*
X180639702Y-82499337D01*
X180725955Y-82470573D01*
X180761109Y-82433583D01*
X180795625Y-82391426D01*
X180835569Y-82401219D01*
X180903747Y-82469746D01*
X180911379Y-82478277D01*
X180994596Y-82610487D01*
X181014019Y-82737440D01*
X180967681Y-82836718D01*
X180939218Y-82896992D01*
X180964613Y-82988522D01*
X180967681Y-82995343D01*
X181014372Y-83175037D01*
X180979855Y-83330861D01*
X180913424Y-83419757D01*
X180820837Y-83499592D01*
X180747023Y-83514824D01*
X180718873Y-83498964D01*
X180718873Y-83091470D01*
X180787141Y-83048292D01*
X180805667Y-82995828D01*
X180769008Y-82943381D01*
X180699833Y-82931000D01*
X180618263Y-82956904D01*
X180591972Y-83015228D01*
X180632925Y-83076890D01*
X180638360Y-83080419D01*
X180718873Y-83091470D01*
X180718873Y-83498964D01*
X180660736Y-83466208D01*
X180613363Y-83427020D01*
X180527995Y-83321156D01*
X180484142Y-83173171D01*
X180478496Y-83130686D01*
X180459619Y-83008752D01*
X180430169Y-82949662D01*
X180376612Y-82931649D01*
X180354332Y-82931000D01*
X180257731Y-82956052D01*
X180227968Y-83023386D01*
X180266682Y-83121269D01*
X180318833Y-83185000D01*
X180394761Y-83291820D01*
X180408630Y-83377595D01*
X180362351Y-83427217D01*
X180287669Y-83431386D01*
X180189195Y-83376639D01*
X180116235Y-83251456D01*
X180073860Y-83067561D01*
X180065101Y-82916676D01*
X180082260Y-82727801D01*
G36*
X180081050Y-81321970D02*
G01*
X180186426Y-81217292D01*
X180349635Y-81160771D01*
X180452902Y-81153000D01*
X180609612Y-81138155D01*
X180759994Y-81101483D01*
X180785587Y-81091774D01*
X180884135Y-81055533D01*
X180936218Y-81058829D01*
X180971705Y-81104566D01*
X180974727Y-81110157D01*
X181003257Y-81210887D01*
X181015159Y-81350741D01*
X181010057Y-81492040D01*
X180987577Y-81597102D01*
X180979735Y-81612454D01*
X180931441Y-81647776D01*
X180856167Y-81623037D01*
X180744008Y-81588488D01*
X180602812Y-81577027D01*
X180465337Y-81587704D01*
X180364341Y-81619568D01*
X180341539Y-81637979D01*
X180305771Y-81711995D01*
X180345166Y-81759765D01*
X180461908Y-81782379D01*
X180630462Y-81782333D01*
X180782363Y-81780447D01*
X180903521Y-81788106D01*
X180964417Y-81802416D01*
X180996104Y-81863010D01*
X181013086Y-81975358D01*
X181014640Y-82107713D01*
X181000044Y-82228326D01*
X180975643Y-82296000D01*
X180930876Y-82336697D01*
X180865376Y-82315896D01*
X180849866Y-82306583D01*
X180743463Y-82269360D01*
X180602115Y-82254291D01*
X180457779Y-82260735D01*
X180342406Y-82288047D01*
X180297233Y-82317689D01*
X180231989Y-82355397D01*
X180169928Y-82310628D01*
X180113187Y-82185565D01*
X180090703Y-82106640D01*
X180056555Y-81959974D01*
X180048560Y-81876857D01*
X180069131Y-81839569D01*
X180120682Y-81830388D01*
X180128333Y-81830333D01*
X180197164Y-81815329D01*
X180213000Y-81794561D01*
X180184693Y-81742306D01*
X180128333Y-81682166D01*
X180059646Y-81569356D01*
X180043667Y-81467011D01*
X180081050Y-81321970D01*
G37*
X180081050Y-81321970D02*
X180186426Y-81217292D01*
X180349635Y-81160771D01*
X180452902Y-81153000D01*
X180609612Y-81138155D01*
X180759994Y-81101483D01*
X180785587Y-81091774D01*
X180884135Y-81055533D01*
X180936218Y-81058829D01*
X180971705Y-81104566D01*
X180974727Y-81110157D01*
X181003257Y-81210887D01*
X181015159Y-81350741D01*
X181010057Y-81492040D01*
X180987577Y-81597102D01*
X180979735Y-81612454D01*
X180931441Y-81647776D01*
X180856167Y-81623037D01*
X180744008Y-81588488D01*
X180602812Y-81577027D01*
X180465337Y-81587704D01*
X180364341Y-81619568D01*
X180341539Y-81637979D01*
X180305771Y-81711995D01*
X180345166Y-81759765D01*
X180461908Y-81782379D01*
X180630462Y-81782333D01*
X180782363Y-81780447D01*
X180903521Y-81788106D01*
X180964417Y-81802416D01*
X180996104Y-81863010D01*
X181013086Y-81975358D01*
X181014640Y-82107713D01*
X181000044Y-82228326D01*
X180975643Y-82296000D01*
X180930876Y-82336697D01*
X180865376Y-82315896D01*
X180849866Y-82306583D01*
X180743463Y-82269360D01*
X180602115Y-82254291D01*
X180457779Y-82260735D01*
X180342406Y-82288047D01*
X180297233Y-82317689D01*
X180231989Y-82355397D01*
X180169928Y-82310628D01*
X180113187Y-82185565D01*
X180090703Y-82106640D01*
X180056555Y-81959974D01*
X180048560Y-81876857D01*
X180069131Y-81839569D01*
X180120682Y-81830388D01*
X180128333Y-81830333D01*
X180197164Y-81815329D01*
X180213000Y-81794561D01*
X180184693Y-81742306D01*
X180128333Y-81682166D01*
X180059646Y-81569356D01*
X180043667Y-81467011D01*
X180081050Y-81321970D01*
G36*
X179760609Y-79066551D02*
G01*
X179805284Y-78927995D01*
X179884150Y-78846770D01*
X179972259Y-78832656D01*
X180052129Y-78878199D01*
X180078114Y-78971240D01*
X180047171Y-79091576D01*
X180018823Y-79141837D01*
X179973691Y-79241968D01*
X179989835Y-79295768D01*
X180039116Y-79296476D01*
X180102978Y-79239580D01*
X180165262Y-79146370D01*
X180209810Y-79038130D01*
X180219325Y-78993445D01*
X180258419Y-78907288D01*
X180325923Y-78869921D01*
X180393288Y-78885871D01*
X180431966Y-78959664D01*
X180431976Y-78959735D01*
X180456983Y-79027855D01*
X180522879Y-79051316D01*
X180583726Y-79051224D01*
X180733167Y-79006698D01*
X180805948Y-78945391D01*
X180867378Y-78879403D01*
X180906437Y-78875141D01*
X180953805Y-78928008D01*
X180992864Y-79026153D01*
X181013746Y-79174741D01*
X181016161Y-79341455D01*
X180999815Y-79493982D01*
X180964417Y-79600006D01*
X180959930Y-79606654D01*
X180924559Y-79678695D01*
X180941174Y-79756807D01*
X180959669Y-79794662D01*
X181003791Y-79921525D01*
X181015802Y-80051850D01*
X180996211Y-80157175D01*
X180952314Y-80206941D01*
X180910885Y-80233176D01*
X180920773Y-80279786D01*
X180952314Y-80331123D01*
X181008997Y-80478659D01*
X181005381Y-80632888D01*
X180942927Y-80761041D01*
X180932667Y-80772000D01*
X180857476Y-80824101D01*
X180749128Y-80850104D01*
X180597024Y-80856666D01*
X180414492Y-80868408D01*
X180302745Y-80905158D01*
X180278436Y-80924278D01*
X180196355Y-80970650D01*
X180127679Y-80939807D01*
X180076843Y-80838723D01*
X180048280Y-80674374D01*
X180043667Y-80555041D01*
X180043667Y-80433333D01*
X180377150Y-80433333D01*
X180590995Y-80423467D01*
X180728098Y-80394443D01*
X180786454Y-80347124D01*
X180764056Y-80282371D01*
X180753859Y-80271459D01*
X180670846Y-80235212D01*
X180542185Y-80222587D01*
X180403219Y-80232539D01*
X180289295Y-80264024D01*
X180254153Y-80286234D01*
X180193247Y-80328590D01*
X180147421Y-80306865D01*
X180128054Y-80284830D01*
X180091841Y-80205164D01*
X180062244Y-80078092D01*
X180053098Y-80008595D01*
X180032894Y-79798333D01*
X180392930Y-79798333D01*
X180610375Y-79790923D01*
X180751337Y-79766312D01*
X180822893Y-79720929D01*
X180832123Y-79651203D01*
X180807115Y-79589373D01*
X180739957Y-79528101D01*
X180639578Y-79497703D01*
X180534566Y-79498381D01*
X180453509Y-79530336D01*
X180424667Y-79586666D01*
X180394732Y-79657419D01*
X180340000Y-79671333D01*
X180271213Y-79653398D01*
X180255333Y-79628500D01*
X180217791Y-79605160D01*
X180117242Y-79608037D01*
X180096009Y-79611143D01*
X179949123Y-79606873D01*
X179845686Y-79536613D01*
X179781386Y-79395758D01*
X179757007Y-79249117D01*
X179760609Y-79066551D01*
G37*
X179760609Y-79066551D02*
X179805284Y-78927995D01*
X179884150Y-78846770D01*
X179972259Y-78832656D01*
X180052129Y-78878199D01*
X180078114Y-78971240D01*
X180047171Y-79091576D01*
X180018823Y-79141837D01*
X179973691Y-79241968D01*
X179989835Y-79295768D01*
X180039116Y-79296476D01*
X180102978Y-79239580D01*
X180165262Y-79146370D01*
X180209810Y-79038130D01*
X180219325Y-78993445D01*
X180258419Y-78907288D01*
X180325923Y-78869921D01*
X180393288Y-78885871D01*
X180431966Y-78959664D01*
X180431976Y-78959735D01*
X180456983Y-79027855D01*
X180522879Y-79051316D01*
X180583726Y-79051224D01*
X180733167Y-79006698D01*
X180805948Y-78945391D01*
X180867378Y-78879403D01*
X180906437Y-78875141D01*
X180953805Y-78928008D01*
X180992864Y-79026153D01*
X181013746Y-79174741D01*
X181016161Y-79341455D01*
X180999815Y-79493982D01*
X180964417Y-79600006D01*
X180959930Y-79606654D01*
X180924559Y-79678695D01*
X180941174Y-79756807D01*
X180959669Y-79794662D01*
X181003791Y-79921525D01*
X181015802Y-80051850D01*
X180996211Y-80157175D01*
X180952314Y-80206941D01*
X180910885Y-80233176D01*
X180920773Y-80279786D01*
X180952314Y-80331123D01*
X181008997Y-80478659D01*
X181005381Y-80632888D01*
X180942927Y-80761041D01*
X180932667Y-80772000D01*
X180857476Y-80824101D01*
X180749128Y-80850104D01*
X180597024Y-80856666D01*
X180414492Y-80868408D01*
X180302745Y-80905158D01*
X180278436Y-80924278D01*
X180196355Y-80970650D01*
X180127679Y-80939807D01*
X180076843Y-80838723D01*
X180048280Y-80674374D01*
X180043667Y-80555041D01*
X180043667Y-80433333D01*
X180377150Y-80433333D01*
X180590995Y-80423467D01*
X180728098Y-80394443D01*
X180786454Y-80347124D01*
X180764056Y-80282371D01*
X180753859Y-80271459D01*
X180670846Y-80235212D01*
X180542185Y-80222587D01*
X180403219Y-80232539D01*
X180289295Y-80264024D01*
X180254153Y-80286234D01*
X180193247Y-80328590D01*
X180147421Y-80306865D01*
X180128054Y-80284830D01*
X180091841Y-80205164D01*
X180062244Y-80078092D01*
X180053098Y-80008595D01*
X180032894Y-79798333D01*
X180392930Y-79798333D01*
X180610375Y-79790923D01*
X180751337Y-79766312D01*
X180822893Y-79720929D01*
X180832123Y-79651203D01*
X180807115Y-79589373D01*
X180739957Y-79528101D01*
X180639578Y-79497703D01*
X180534566Y-79498381D01*
X180453509Y-79530336D01*
X180424667Y-79586666D01*
X180394732Y-79657419D01*
X180340000Y-79671333D01*
X180271213Y-79653398D01*
X180255333Y-79628500D01*
X180217791Y-79605160D01*
X180117242Y-79608037D01*
X180096009Y-79611143D01*
X179949123Y-79606873D01*
X179845686Y-79536613D01*
X179781386Y-79395758D01*
X179757007Y-79249117D01*
X179760609Y-79066551D01*
G36*
X180082260Y-77986468D02*
G01*
X180141783Y-77862773D01*
X180255010Y-77793361D01*
X180433281Y-77767337D01*
X180490753Y-77766333D01*
X180639702Y-77758004D01*
X180725955Y-77729239D01*
X180761109Y-77692250D01*
X180795625Y-77650092D01*
X180835569Y-77659886D01*
X180903747Y-77728413D01*
X180911379Y-77736944D01*
X180994596Y-77869153D01*
X181014019Y-77996107D01*
X180967681Y-78095385D01*
X180939218Y-78155659D01*
X180964613Y-78247189D01*
X180967681Y-78254010D01*
X181014372Y-78433704D01*
X180979855Y-78589528D01*
X180913424Y-78678424D01*
X180820837Y-78758259D01*
X180747023Y-78773490D01*
X180718873Y-78757630D01*
X180718873Y-78350137D01*
X180787141Y-78306958D01*
X180805667Y-78254495D01*
X180769008Y-78202048D01*
X180699833Y-78189666D01*
X180618263Y-78215571D01*
X180591972Y-78273895D01*
X180632925Y-78335556D01*
X180638360Y-78339086D01*
X180718873Y-78350137D01*
X180718873Y-78757630D01*
X180660736Y-78724874D01*
X180613363Y-78685686D01*
X180527995Y-78579823D01*
X180484142Y-78431838D01*
X180478496Y-78389353D01*
X180459619Y-78267418D01*
X180430169Y-78208329D01*
X180376612Y-78190316D01*
X180354332Y-78189666D01*
X180257731Y-78214719D01*
X180227968Y-78282053D01*
X180266682Y-78379935D01*
X180318833Y-78443666D01*
X180394761Y-78550486D01*
X180408630Y-78636262D01*
X180362351Y-78685883D01*
X180287669Y-78690052D01*
X180189195Y-78635306D01*
X180116235Y-78510123D01*
X180073860Y-78326228D01*
X180065101Y-78175343D01*
X180082260Y-77986468D01*
G37*
X180082260Y-77986468D02*
X180141783Y-77862773D01*
X180255010Y-77793361D01*
X180433281Y-77767337D01*
X180490753Y-77766333D01*
X180639702Y-77758004D01*
X180725955Y-77729239D01*
X180761109Y-77692250D01*
X180795625Y-77650092D01*
X180835569Y-77659886D01*
X180903747Y-77728413D01*
X180911379Y-77736944D01*
X180994596Y-77869153D01*
X181014019Y-77996107D01*
X180967681Y-78095385D01*
X180939218Y-78155659D01*
X180964613Y-78247189D01*
X180967681Y-78254010D01*
X181014372Y-78433704D01*
X180979855Y-78589528D01*
X180913424Y-78678424D01*
X180820837Y-78758259D01*
X180747023Y-78773490D01*
X180718873Y-78757630D01*
X180718873Y-78350137D01*
X180787141Y-78306958D01*
X180805667Y-78254495D01*
X180769008Y-78202048D01*
X180699833Y-78189666D01*
X180618263Y-78215571D01*
X180591972Y-78273895D01*
X180632925Y-78335556D01*
X180638360Y-78339086D01*
X180718873Y-78350137D01*
X180718873Y-78757630D01*
X180660736Y-78724874D01*
X180613363Y-78685686D01*
X180527995Y-78579823D01*
X180484142Y-78431838D01*
X180478496Y-78389353D01*
X180459619Y-78267418D01*
X180430169Y-78208329D01*
X180376612Y-78190316D01*
X180354332Y-78189666D01*
X180257731Y-78214719D01*
X180227968Y-78282053D01*
X180266682Y-78379935D01*
X180318833Y-78443666D01*
X180394761Y-78550486D01*
X180408630Y-78636262D01*
X180362351Y-78685883D01*
X180287669Y-78690052D01*
X180189195Y-78635306D01*
X180116235Y-78510123D01*
X180073860Y-78326228D01*
X180065101Y-78175343D01*
X180082260Y-77986468D01*
G36*
X180059475Y-76910255D02*
G01*
X180107766Y-76747931D01*
X180191862Y-76636381D01*
X180253270Y-76602821D01*
X180368510Y-76597877D01*
X180454956Y-76648214D01*
X180502382Y-76731395D01*
X180500567Y-76824985D01*
X180439286Y-76906547D01*
X180401562Y-76928252D01*
X180317650Y-76995540D01*
X180306312Y-77064928D01*
X180352207Y-77140320D01*
X180446054Y-77166753D01*
X180564454Y-77140845D01*
X180620802Y-77110367D01*
X180686726Y-77055008D01*
X180714469Y-76984034D01*
X180715056Y-76865764D01*
X180713604Y-76843697D01*
X180720470Y-76699671D01*
X180760839Y-76629657D01*
X180826595Y-76636846D01*
X180909621Y-76724431D01*
X180931375Y-76758031D01*
X180999497Y-76939673D01*
X181010303Y-77143111D01*
X180962532Y-77330258D01*
X180951065Y-77353051D01*
X180830150Y-77497821D01*
X180672047Y-77576581D01*
X180495825Y-77586595D01*
X180320554Y-77525126D01*
X180228095Y-77456791D01*
X180127839Y-77349371D01*
X180076541Y-77239883D01*
X180054671Y-77103968D01*
X180059475Y-76910255D01*
G37*
X180059475Y-76910255D02*
X180107766Y-76747931D01*
X180191862Y-76636381D01*
X180253270Y-76602821D01*
X180368510Y-76597877D01*
X180454956Y-76648214D01*
X180502382Y-76731395D01*
X180500567Y-76824985D01*
X180439286Y-76906547D01*
X180401562Y-76928252D01*
X180317650Y-76995540D01*
X180306312Y-77064928D01*
X180352207Y-77140320D01*
X180446054Y-77166753D01*
X180564454Y-77140845D01*
X180620802Y-77110367D01*
X180686726Y-77055008D01*
X180714469Y-76984034D01*
X180715056Y-76865764D01*
X180713604Y-76843697D01*
X180720470Y-76699671D01*
X180760839Y-76629657D01*
X180826595Y-76636846D01*
X180909621Y-76724431D01*
X180931375Y-76758031D01*
X180999497Y-76939673D01*
X181010303Y-77143111D01*
X180962532Y-77330258D01*
X180951065Y-77353051D01*
X180830150Y-77497821D01*
X180672047Y-77576581D01*
X180495825Y-77586595D01*
X180320554Y-77525126D01*
X180228095Y-77456791D01*
X180127839Y-77349371D01*
X180076541Y-77239883D01*
X180054671Y-77103968D01*
X180059475Y-76910255D01*
G36*
X179856649Y-75968871D02*
G01*
X179935151Y-75946000D01*
X180009147Y-75930889D01*
X180042858Y-75869207D01*
X180051568Y-75808416D01*
X180074803Y-75708768D01*
X180127408Y-75672402D01*
X180149500Y-75670833D01*
X180212533Y-75692583D01*
X180242690Y-75771307D01*
X180247583Y-75810445D01*
X180261000Y-75950056D01*
X180501583Y-75937445D01*
X180637482Y-75928001D01*
X180709238Y-75910299D01*
X180737312Y-75872795D01*
X180742166Y-75803946D01*
X180742167Y-75801712D01*
X180760488Y-75695976D01*
X180809196Y-75665855D01*
X180878902Y-75712221D01*
X180931242Y-75784144D01*
X181005958Y-75967362D01*
X181006343Y-76139734D01*
X180932895Y-76286677D01*
X180913424Y-76307757D01*
X180842824Y-76365947D01*
X180760522Y-76397532D01*
X180638703Y-76410099D01*
X180532424Y-76411666D01*
X180382879Y-76414270D01*
X180299285Y-76425878D01*
X180262990Y-76452191D01*
X180255333Y-76496333D01*
X180234938Y-76572112D01*
X180180603Y-76580860D01*
X180102607Y-76527753D01*
X180011227Y-76417963D01*
X179968890Y-76352134D01*
X179871730Y-76168845D01*
X179834402Y-76042119D01*
X179856649Y-75968871D01*
G37*
X179856649Y-75968871D02*
X179935151Y-75946000D01*
X180009147Y-75930889D01*
X180042858Y-75869207D01*
X180051568Y-75808416D01*
X180074803Y-75708768D01*
X180127408Y-75672402D01*
X180149500Y-75670833D01*
X180212533Y-75692583D01*
X180242690Y-75771307D01*
X180247583Y-75810445D01*
X180261000Y-75950056D01*
X180501583Y-75937445D01*
X180637482Y-75928001D01*
X180709238Y-75910299D01*
X180737312Y-75872795D01*
X180742166Y-75803946D01*
X180742167Y-75801712D01*
X180760488Y-75695976D01*
X180809196Y-75665855D01*
X180878902Y-75712221D01*
X180931242Y-75784144D01*
X181005958Y-75967362D01*
X181006343Y-76139734D01*
X180932895Y-76286677D01*
X180913424Y-76307757D01*
X180842824Y-76365947D01*
X180760522Y-76397532D01*
X180638703Y-76410099D01*
X180532424Y-76411666D01*
X180382879Y-76414270D01*
X180299285Y-76425878D01*
X180262990Y-76452191D01*
X180255333Y-76496333D01*
X180234938Y-76572112D01*
X180180603Y-76580860D01*
X180102607Y-76527753D01*
X180011227Y-76417963D01*
X179968890Y-76352134D01*
X179871730Y-76168845D01*
X179834402Y-76042119D01*
X179856649Y-75968871D01*
G36*
X180058637Y-74864891D02*
G01*
X180130570Y-74690189D01*
X180254352Y-74556658D01*
X180422227Y-74478600D01*
X180543855Y-74464333D01*
X180701921Y-74502820D01*
X180835439Y-74606296D01*
X180936756Y-74756790D01*
X180998218Y-74936326D01*
X181012173Y-75126931D01*
X180970966Y-75310632D01*
X180934774Y-75382381D01*
X180814557Y-75526083D01*
X180668472Y-75593340D01*
X180499945Y-75594510D01*
X180382986Y-75557540D01*
X180382986Y-75140617D01*
X180502349Y-75139286D01*
X180622999Y-75116045D01*
X180712289Y-75075270D01*
X180778900Y-75007413D01*
X180765251Y-74958197D01*
X180674631Y-74932554D01*
X180615424Y-74930000D01*
X180457497Y-74945847D01*
X180333245Y-74987730D01*
X180263444Y-75047161D01*
X180255333Y-75077119D01*
X180291714Y-75119931D01*
X180382986Y-75140617D01*
X180382986Y-75557540D01*
X180311402Y-75534912D01*
X180172745Y-75409729D01*
X180101324Y-75280610D01*
X180046304Y-75066465D01*
X180058637Y-74864891D01*
G37*
X180058637Y-74864891D02*
X180130570Y-74690189D01*
X180254352Y-74556658D01*
X180422227Y-74478600D01*
X180543855Y-74464333D01*
X180701921Y-74502820D01*
X180835439Y-74606296D01*
X180936756Y-74756790D01*
X180998218Y-74936326D01*
X181012173Y-75126931D01*
X180970966Y-75310632D01*
X180934774Y-75382381D01*
X180814557Y-75526083D01*
X180668472Y-75593340D01*
X180499945Y-75594510D01*
X180382986Y-75557540D01*
X180382986Y-75140617D01*
X180502349Y-75139286D01*
X180622999Y-75116045D01*
X180712289Y-75075270D01*
X180778900Y-75007413D01*
X180765251Y-74958197D01*
X180674631Y-74932554D01*
X180615424Y-74930000D01*
X180457497Y-74945847D01*
X180333245Y-74987730D01*
X180263444Y-75047161D01*
X180255333Y-75077119D01*
X180291714Y-75119931D01*
X180382986Y-75140617D01*
X180382986Y-75557540D01*
X180311402Y-75534912D01*
X180172745Y-75409729D01*
X180101324Y-75280610D01*
X180046304Y-75066465D01*
X180058637Y-74864891D01*
G36*
X180096134Y-73879096D02*
G01*
X180135712Y-73871666D01*
X180227758Y-73871666D01*
X180135712Y-73773688D01*
X180057022Y-73647627D01*
X180058484Y-73529601D01*
X180139636Y-73430091D01*
X180151234Y-73422137D01*
X180250186Y-73376387D01*
X180342615Y-73390345D01*
X180361733Y-73398555D01*
X180457054Y-73479450D01*
X180497504Y-73592035D01*
X180474967Y-73705259D01*
X180450758Y-73739224D01*
X180406411Y-73809833D01*
X180432886Y-73851999D01*
X180535148Y-73870144D01*
X180599566Y-73871666D01*
X180726694Y-73855428D01*
X180797803Y-73800295D01*
X180805667Y-73787000D01*
X180872568Y-73715367D01*
X180944119Y-73712040D01*
X180991637Y-73769296D01*
X181013650Y-73876570D01*
X181019777Y-74019826D01*
X181011740Y-74169897D01*
X180991263Y-74297620D01*
X180960071Y-74373827D01*
X180955652Y-74378157D01*
X180892352Y-74405677D01*
X180814538Y-74373362D01*
X180798066Y-74362174D01*
X180681422Y-74312701D01*
X180541524Y-74295882D01*
X180411316Y-74311527D01*
X180323740Y-74359442D01*
X180319339Y-74364967D01*
X180253504Y-74409631D01*
X180183945Y-74370844D01*
X180112312Y-74249650D01*
X180102847Y-74227692D01*
X180049946Y-74060660D01*
X180047971Y-73941616D01*
X180096134Y-73879096D01*
G37*
X180096134Y-73879096D02*
X180135712Y-73871666D01*
X180227758Y-73871666D01*
X180135712Y-73773688D01*
X180057022Y-73647627D01*
X180058484Y-73529601D01*
X180139636Y-73430091D01*
X180151234Y-73422137D01*
X180250186Y-73376387D01*
X180342615Y-73390345D01*
X180361733Y-73398555D01*
X180457054Y-73479450D01*
X180497504Y-73592035D01*
X180474967Y-73705259D01*
X180450758Y-73739224D01*
X180406411Y-73809833D01*
X180432886Y-73851999D01*
X180535148Y-73870144D01*
X180599566Y-73871666D01*
X180726694Y-73855428D01*
X180797803Y-73800295D01*
X180805667Y-73787000D01*
X180872568Y-73715367D01*
X180944119Y-73712040D01*
X180991637Y-73769296D01*
X181013650Y-73876570D01*
X181019777Y-74019826D01*
X181011740Y-74169897D01*
X180991263Y-74297620D01*
X180960071Y-74373827D01*
X180955652Y-74378157D01*
X180892352Y-74405677D01*
X180814538Y-74373362D01*
X180798066Y-74362174D01*
X180681422Y-74312701D01*
X180541524Y-74295882D01*
X180411316Y-74311527D01*
X180323740Y-74359442D01*
X180319339Y-74364967D01*
X180253504Y-74409631D01*
X180183945Y-74370844D01*
X180112312Y-74249650D01*
X180102847Y-74227692D01*
X180049946Y-74060660D01*
X180047971Y-73941616D01*
X180096134Y-73879096D01*
G36*
X176160914Y-83495953D02*
G01*
X176168180Y-83353611D01*
X176181503Y-83242392D01*
X176201386Y-83148934D01*
X176213244Y-83106999D01*
X176326803Y-82856774D01*
X176490179Y-82664442D01*
X176690163Y-82531377D01*
X176913541Y-82458951D01*
X177147101Y-82448539D01*
X177377632Y-82501512D01*
X177591921Y-82619246D01*
X177776758Y-82803112D01*
X177862524Y-82935563D01*
X177923422Y-83057242D01*
X177962638Y-83170758D01*
X177986185Y-83303277D01*
X178000079Y-83481964D01*
X178004452Y-83576583D01*
X178021514Y-83989333D01*
X178245961Y-83989333D01*
X178421712Y-83983157D01*
X178535930Y-83958355D01*
X178611245Y-83905521D01*
X178670286Y-83815245D01*
X178671819Y-83812292D01*
X178755997Y-83717290D01*
X178858323Y-83696519D01*
X178959267Y-83748383D01*
X179025936Y-83841166D01*
X179060751Y-83959822D01*
X179085640Y-84138449D01*
X179100091Y-84352878D01*
X179103586Y-84578938D01*
X179095612Y-84792459D01*
X179075653Y-84969272D01*
X179052013Y-85064601D01*
X178976679Y-85220181D01*
X178894733Y-85291939D01*
X178802817Y-85280659D01*
X178697573Y-85187123D01*
X178670703Y-85153500D01*
X178557691Y-85005333D01*
X177268928Y-85005333D01*
X177268928Y-83982966D01*
X177409139Y-83975334D01*
X177487421Y-83956436D01*
X177510103Y-83938035D01*
X177544567Y-83810321D01*
X177504015Y-83670130D01*
X177422256Y-83562743D01*
X177328249Y-83484297D01*
X177228614Y-83447855D01*
X177085950Y-83439000D01*
X176880297Y-83467305D01*
X176737057Y-83551397D01*
X176657750Y-83690039D01*
X176641412Y-83800952D01*
X176635833Y-83968166D01*
X177055668Y-83980368D01*
X177268928Y-83982966D01*
X177268928Y-85005333D01*
X176652680Y-85005333D01*
X176593786Y-85146286D01*
X176507318Y-85299021D01*
X176409405Y-85368981D01*
X176320463Y-85365842D01*
X176283900Y-85351220D01*
X176255267Y-85326700D01*
X176233228Y-85282290D01*
X176216449Y-85207998D01*
X176203593Y-85093831D01*
X176193325Y-84929799D01*
X176184309Y-84705908D01*
X176175209Y-84412166D01*
X176170417Y-84243333D01*
X176162536Y-83927452D01*
X176159200Y-83682779D01*
X176160914Y-83495953D01*
G37*
X176160914Y-83495953D02*
X176168180Y-83353611D01*
X176181503Y-83242392D01*
X176201386Y-83148934D01*
X176213244Y-83106999D01*
X176326803Y-82856774D01*
X176490179Y-82664442D01*
X176690163Y-82531377D01*
X176913541Y-82458951D01*
X177147101Y-82448539D01*
X177377632Y-82501512D01*
X177591921Y-82619246D01*
X177776758Y-82803112D01*
X177862524Y-82935563D01*
X177923422Y-83057242D01*
X177962638Y-83170758D01*
X177986185Y-83303277D01*
X178000079Y-83481964D01*
X178004452Y-83576583D01*
X178021514Y-83989333D01*
X178245961Y-83989333D01*
X178421712Y-83983157D01*
X178535930Y-83958355D01*
X178611245Y-83905521D01*
X178670286Y-83815245D01*
X178671819Y-83812292D01*
X178755997Y-83717290D01*
X178858323Y-83696519D01*
X178959267Y-83748383D01*
X179025936Y-83841166D01*
X179060751Y-83959822D01*
X179085640Y-84138449D01*
X179100091Y-84352878D01*
X179103586Y-84578938D01*
X179095612Y-84792459D01*
X179075653Y-84969272D01*
X179052013Y-85064601D01*
X178976679Y-85220181D01*
X178894733Y-85291939D01*
X178802817Y-85280659D01*
X178697573Y-85187123D01*
X178670703Y-85153500D01*
X178557691Y-85005333D01*
X177268928Y-85005333D01*
X177268928Y-83982966D01*
X177409139Y-83975334D01*
X177487421Y-83956436D01*
X177510103Y-83938035D01*
X177544567Y-83810321D01*
X177504015Y-83670130D01*
X177422256Y-83562743D01*
X177328249Y-83484297D01*
X177228614Y-83447855D01*
X177085950Y-83439000D01*
X176880297Y-83467305D01*
X176737057Y-83551397D01*
X176657750Y-83690039D01*
X176641412Y-83800952D01*
X176635833Y-83968166D01*
X177055668Y-83980368D01*
X177268928Y-83982966D01*
X177268928Y-85005333D01*
X176652680Y-85005333D01*
X176593786Y-85146286D01*
X176507318Y-85299021D01*
X176409405Y-85368981D01*
X176320463Y-85365842D01*
X176283900Y-85351220D01*
X176255267Y-85326700D01*
X176233228Y-85282290D01*
X176216449Y-85207998D01*
X176203593Y-85093831D01*
X176193325Y-84929799D01*
X176184309Y-84705908D01*
X176175209Y-84412166D01*
X176170417Y-84243333D01*
X176162536Y-83927452D01*
X176159200Y-83682779D01*
X176160914Y-83495953D01*
G36*
X176153379Y-81482692D02*
G01*
X176165907Y-81334677D01*
X176188099Y-81243755D01*
X176188902Y-81242208D01*
X176227716Y-81188120D01*
X176312638Y-81080853D01*
X176434621Y-80931466D01*
X176584620Y-80751018D01*
X176753589Y-80550567D01*
X176782891Y-80516071D01*
X176950759Y-80314898D01*
X177096959Y-80132459D01*
X177213375Y-79979486D01*
X177291891Y-79866711D01*
X177324390Y-79804867D01*
X177324675Y-79799663D01*
X177287344Y-79756731D01*
X177186963Y-79731076D01*
X177082199Y-79721749D01*
X176883006Y-79718743D01*
X176747472Y-79740926D01*
X176656716Y-79794627D01*
X176591888Y-79886118D01*
X176531263Y-79975343D01*
X176455469Y-80004246D01*
X176391000Y-80001921D01*
X176291839Y-79977270D01*
X176222939Y-79918151D01*
X176180182Y-79812984D01*
X176159448Y-79650189D01*
X176156618Y-79418184D01*
X176158238Y-79347581D01*
X176166760Y-79140158D01*
X176180793Y-78999176D01*
X176203583Y-78906438D01*
X176238379Y-78843749D01*
X176250811Y-78828997D01*
X176336248Y-78762816D01*
X176407892Y-78740000D01*
X176458466Y-78745954D01*
X176505248Y-78774290D01*
X176566442Y-78840718D01*
X176653172Y-78951666D01*
X176733981Y-79057500D01*
X177785574Y-79079545D01*
X178152543Y-79088386D01*
X178443711Y-79099041D01*
X178667946Y-79113360D01*
X178834113Y-79133191D01*
X178951079Y-79160384D01*
X179027711Y-79196786D01*
X179072874Y-79244248D01*
X179095435Y-79304617D01*
X179102404Y-79354128D01*
X179099652Y-79402340D01*
X179078976Y-79460451D01*
X179034027Y-79537122D01*
X178958456Y-79641012D01*
X178845913Y-79780779D01*
X178690049Y-79965084D01*
X178484514Y-80202585D01*
X178457737Y-80233320D01*
X178270072Y-80449817D01*
X178099892Y-80648416D01*
X177955569Y-80819163D01*
X177845475Y-80952104D01*
X177777981Y-81037286D01*
X177761537Y-81061101D01*
X177739975Y-81151860D01*
X177790402Y-81215900D01*
X177916761Y-81256131D01*
X178046150Y-81271235D01*
X178262040Y-81270621D01*
X178441802Y-81238715D01*
X178569384Y-81180036D01*
X178626344Y-81108006D01*
X178683557Y-81022214D01*
X178739487Y-80979303D01*
X178819086Y-80957038D01*
X178902958Y-80991113D01*
X178936695Y-81014914D01*
X179024643Y-81105342D01*
X179075356Y-81199149D01*
X179089927Y-81298343D01*
X179098829Y-81452326D01*
X179101791Y-81631393D01*
X179098542Y-81805839D01*
X179088810Y-81945959D01*
X179082568Y-81988240D01*
X179039327Y-82073816D01*
X178957466Y-82165201D01*
X178866360Y-82233983D01*
X178808133Y-82253666D01*
X178759257Y-82224836D01*
X178677962Y-82151380D01*
X178627413Y-82098734D01*
X178485476Y-81943801D01*
X177935869Y-81923955D01*
X177695983Y-81918644D01*
X177456041Y-81919089D01*
X177244835Y-81924913D01*
X177098428Y-81934933D01*
X176938606Y-81956076D01*
X176830671Y-81987460D01*
X176741984Y-82044199D01*
X176639907Y-82141407D01*
X176629543Y-82152045D01*
X176530494Y-82250007D01*
X176454926Y-82317484D01*
X176422963Y-82338333D01*
X176327432Y-82301400D01*
X176239160Y-82207650D01*
X176195786Y-82121243D01*
X176171717Y-82007075D01*
X176156489Y-81845113D01*
X176150308Y-81661578D01*
X176153379Y-81482692D01*
G37*
X176153379Y-81482692D02*
X176165907Y-81334677D01*
X176188099Y-81243755D01*
X176188902Y-81242208D01*
X176227716Y-81188120D01*
X176312638Y-81080853D01*
X176434621Y-80931466D01*
X176584620Y-80751018D01*
X176753589Y-80550567D01*
X176782891Y-80516071D01*
X176950759Y-80314898D01*
X177096959Y-80132459D01*
X177213375Y-79979486D01*
X177291891Y-79866711D01*
X177324390Y-79804867D01*
X177324675Y-79799663D01*
X177287344Y-79756731D01*
X177186963Y-79731076D01*
X177082199Y-79721749D01*
X176883006Y-79718743D01*
X176747472Y-79740926D01*
X176656716Y-79794627D01*
X176591888Y-79886118D01*
X176531263Y-79975343D01*
X176455469Y-80004246D01*
X176391000Y-80001921D01*
X176291839Y-79977270D01*
X176222939Y-79918151D01*
X176180182Y-79812984D01*
X176159448Y-79650189D01*
X176156618Y-79418184D01*
X176158238Y-79347581D01*
X176166760Y-79140158D01*
X176180793Y-78999176D01*
X176203583Y-78906438D01*
X176238379Y-78843749D01*
X176250811Y-78828997D01*
X176336248Y-78762816D01*
X176407892Y-78740000D01*
X176458466Y-78745954D01*
X176505248Y-78774290D01*
X176566442Y-78840718D01*
X176653172Y-78951666D01*
X176733981Y-79057500D01*
X177785574Y-79079545D01*
X178152543Y-79088386D01*
X178443711Y-79099041D01*
X178667946Y-79113360D01*
X178834113Y-79133191D01*
X178951079Y-79160384D01*
X179027711Y-79196786D01*
X179072874Y-79244248D01*
X179095435Y-79304617D01*
X179102404Y-79354128D01*
X179099652Y-79402340D01*
X179078976Y-79460451D01*
X179034027Y-79537122D01*
X178958456Y-79641012D01*
X178845913Y-79780779D01*
X178690049Y-79965084D01*
X178484514Y-80202585D01*
X178457737Y-80233320D01*
X178270072Y-80449817D01*
X178099892Y-80648416D01*
X177955569Y-80819163D01*
X177845475Y-80952104D01*
X177777981Y-81037286D01*
X177761537Y-81061101D01*
X177739975Y-81151860D01*
X177790402Y-81215900D01*
X177916761Y-81256131D01*
X178046150Y-81271235D01*
X178262040Y-81270621D01*
X178441802Y-81238715D01*
X178569384Y-81180036D01*
X178626344Y-81108006D01*
X178683557Y-81022214D01*
X178739487Y-80979303D01*
X178819086Y-80957038D01*
X178902958Y-80991113D01*
X178936695Y-81014914D01*
X179024643Y-81105342D01*
X179075356Y-81199149D01*
X179089927Y-81298343D01*
X179098829Y-81452326D01*
X179101791Y-81631393D01*
X179098542Y-81805839D01*
X179088810Y-81945959D01*
X179082568Y-81988240D01*
X179039327Y-82073816D01*
X178957466Y-82165201D01*
X178866360Y-82233983D01*
X178808133Y-82253666D01*
X178759257Y-82224836D01*
X178677962Y-82151380D01*
X178627413Y-82098734D01*
X178485476Y-81943801D01*
X177935869Y-81923955D01*
X177695983Y-81918644D01*
X177456041Y-81919089D01*
X177244835Y-81924913D01*
X177098428Y-81934933D01*
X176938606Y-81956076D01*
X176830671Y-81987460D01*
X176741984Y-82044199D01*
X176639907Y-82141407D01*
X176629543Y-82152045D01*
X176530494Y-82250007D01*
X176454926Y-82317484D01*
X176422963Y-82338333D01*
X176327432Y-82301400D01*
X176239160Y-82207650D01*
X176195786Y-82121243D01*
X176171717Y-82007075D01*
X176156489Y-81845113D01*
X176150308Y-81661578D01*
X176153379Y-81482692D01*
G36*
X176160914Y-76764953D02*
G01*
X176168180Y-76622611D01*
X176181503Y-76511392D01*
X176201386Y-76417934D01*
X176213244Y-76375999D01*
X176326803Y-76125774D01*
X176490179Y-75933442D01*
X176690163Y-75800377D01*
X176913541Y-75727951D01*
X177147101Y-75717539D01*
X177377632Y-75770512D01*
X177591921Y-75888246D01*
X177776758Y-76072112D01*
X177862524Y-76204563D01*
X177923422Y-76326242D01*
X177962638Y-76439758D01*
X177986185Y-76572277D01*
X178000079Y-76750964D01*
X178004452Y-76845583D01*
X178021514Y-77258333D01*
X178245961Y-77258333D01*
X178421712Y-77252157D01*
X178535930Y-77227355D01*
X178611245Y-77174521D01*
X178670286Y-77084245D01*
X178671819Y-77081292D01*
X178755997Y-76986290D01*
X178858323Y-76965519D01*
X178959267Y-77017383D01*
X179025936Y-77110166D01*
X179060751Y-77228822D01*
X179085640Y-77407449D01*
X179100091Y-77621878D01*
X179103586Y-77847938D01*
X179095612Y-78061459D01*
X179075653Y-78238272D01*
X179052013Y-78333601D01*
X178976679Y-78489181D01*
X178894733Y-78560939D01*
X178802817Y-78549659D01*
X178697573Y-78456123D01*
X178670703Y-78422500D01*
X178557691Y-78274333D01*
X177268928Y-78274333D01*
X177268928Y-77251966D01*
X177409139Y-77244334D01*
X177487421Y-77225436D01*
X177510103Y-77207035D01*
X177544567Y-77079321D01*
X177504015Y-76939130D01*
X177422256Y-76831743D01*
X177328249Y-76753297D01*
X177228614Y-76716855D01*
X177085950Y-76708000D01*
X176880297Y-76736305D01*
X176737057Y-76820397D01*
X176657750Y-76959039D01*
X176641412Y-77069952D01*
X176635833Y-77237166D01*
X177055668Y-77249368D01*
X177268928Y-77251966D01*
X177268928Y-78274333D01*
X176652680Y-78274333D01*
X176593786Y-78415286D01*
X176507318Y-78568021D01*
X176409405Y-78637981D01*
X176320463Y-78634842D01*
X176283900Y-78620220D01*
X176255267Y-78595700D01*
X176233228Y-78551290D01*
X176216449Y-78476998D01*
X176203593Y-78362831D01*
X176193325Y-78198799D01*
X176184309Y-77974908D01*
X176175209Y-77681166D01*
X176170417Y-77512333D01*
X176162536Y-77196452D01*
X176159200Y-76951779D01*
X176160914Y-76764953D01*
G37*
X176160914Y-76764953D02*
X176168180Y-76622611D01*
X176181503Y-76511392D01*
X176201386Y-76417934D01*
X176213244Y-76375999D01*
X176326803Y-76125774D01*
X176490179Y-75933442D01*
X176690163Y-75800377D01*
X176913541Y-75727951D01*
X177147101Y-75717539D01*
X177377632Y-75770512D01*
X177591921Y-75888246D01*
X177776758Y-76072112D01*
X177862524Y-76204563D01*
X177923422Y-76326242D01*
X177962638Y-76439758D01*
X177986185Y-76572277D01*
X178000079Y-76750964D01*
X178004452Y-76845583D01*
X178021514Y-77258333D01*
X178245961Y-77258333D01*
X178421712Y-77252157D01*
X178535930Y-77227355D01*
X178611245Y-77174521D01*
X178670286Y-77084245D01*
X178671819Y-77081292D01*
X178755997Y-76986290D01*
X178858323Y-76965519D01*
X178959267Y-77017383D01*
X179025936Y-77110166D01*
X179060751Y-77228822D01*
X179085640Y-77407449D01*
X179100091Y-77621878D01*
X179103586Y-77847938D01*
X179095612Y-78061459D01*
X179075653Y-78238272D01*
X179052013Y-78333601D01*
X178976679Y-78489181D01*
X178894733Y-78560939D01*
X178802817Y-78549659D01*
X178697573Y-78456123D01*
X178670703Y-78422500D01*
X178557691Y-78274333D01*
X177268928Y-78274333D01*
X177268928Y-77251966D01*
X177409139Y-77244334D01*
X177487421Y-77225436D01*
X177510103Y-77207035D01*
X177544567Y-77079321D01*
X177504015Y-76939130D01*
X177422256Y-76831743D01*
X177328249Y-76753297D01*
X177228614Y-76716855D01*
X177085950Y-76708000D01*
X176880297Y-76736305D01*
X176737057Y-76820397D01*
X176657750Y-76959039D01*
X176641412Y-77069952D01*
X176635833Y-77237166D01*
X177055668Y-77249368D01*
X177268928Y-77251966D01*
X177268928Y-78274333D01*
X176652680Y-78274333D01*
X176593786Y-78415286D01*
X176507318Y-78568021D01*
X176409405Y-78637981D01*
X176320463Y-78634842D01*
X176283900Y-78620220D01*
X176255267Y-78595700D01*
X176233228Y-78551290D01*
X176216449Y-78476998D01*
X176203593Y-78362831D01*
X176193325Y-78198799D01*
X176184309Y-77974908D01*
X176175209Y-77681166D01*
X176170417Y-77512333D01*
X176162536Y-77196452D01*
X176159200Y-76951779D01*
X176160914Y-76764953D01*
G36*
X176153379Y-74794025D02*
G01*
X176165907Y-74646010D01*
X176188099Y-74555088D01*
X176188902Y-74553542D01*
X176227716Y-74499453D01*
X176312638Y-74392187D01*
X176434621Y-74242800D01*
X176584620Y-74062351D01*
X176753589Y-73861901D01*
X176782891Y-73827405D01*
X176950759Y-73626232D01*
X177096959Y-73443792D01*
X177213375Y-73290819D01*
X177291891Y-73178044D01*
X177324390Y-73116201D01*
X177324675Y-73110997D01*
X177287344Y-73068064D01*
X177186963Y-73042410D01*
X177082199Y-73033082D01*
X176883006Y-73030077D01*
X176747472Y-73052260D01*
X176656716Y-73105960D01*
X176591888Y-73197451D01*
X176531263Y-73286677D01*
X176455469Y-73315579D01*
X176391000Y-73313254D01*
X176291839Y-73288603D01*
X176222939Y-73229484D01*
X176180182Y-73124317D01*
X176159448Y-72961522D01*
X176156618Y-72729518D01*
X176158238Y-72658914D01*
X176166760Y-72451491D01*
X176180793Y-72310509D01*
X176203583Y-72217771D01*
X176238379Y-72155082D01*
X176250811Y-72140331D01*
X176336248Y-72074150D01*
X176407892Y-72051333D01*
X176458466Y-72057287D01*
X176505248Y-72085623D01*
X176566442Y-72152052D01*
X176653172Y-72263000D01*
X176733981Y-72368833D01*
X177785574Y-72390878D01*
X178152543Y-72399719D01*
X178443711Y-72410374D01*
X178667946Y-72424693D01*
X178834113Y-72444525D01*
X178951079Y-72471717D01*
X179027711Y-72508120D01*
X179072874Y-72555581D01*
X179095435Y-72615950D01*
X179102404Y-72665461D01*
X179099652Y-72713673D01*
X179078976Y-72771785D01*
X179034027Y-72848456D01*
X178958456Y-72952345D01*
X178845913Y-73092113D01*
X178690049Y-73276417D01*
X178484514Y-73513918D01*
X178457737Y-73544653D01*
X178270072Y-73761150D01*
X178099892Y-73959749D01*
X177955569Y-74130496D01*
X177845475Y-74263438D01*
X177777981Y-74348619D01*
X177761537Y-74372434D01*
X177739975Y-74463193D01*
X177790402Y-74527233D01*
X177916761Y-74567464D01*
X178046150Y-74582569D01*
X178262040Y-74581954D01*
X178441802Y-74550049D01*
X178569384Y-74491369D01*
X178626344Y-74419339D01*
X178683557Y-74333547D01*
X178739487Y-74290636D01*
X178819086Y-74268372D01*
X178902958Y-74302447D01*
X178936695Y-74326247D01*
X179024643Y-74416675D01*
X179075356Y-74510483D01*
X179089927Y-74609676D01*
X179098829Y-74763659D01*
X179101791Y-74942726D01*
X179098542Y-75117172D01*
X179088810Y-75257292D01*
X179082568Y-75299573D01*
X179039327Y-75385150D01*
X178957466Y-75476534D01*
X178866360Y-75545316D01*
X178808133Y-75565000D01*
X178759257Y-75536170D01*
X178677962Y-75462714D01*
X178627413Y-75410067D01*
X178485476Y-75255134D01*
X177935869Y-75235288D01*
X177695983Y-75229977D01*
X177456041Y-75230423D01*
X177244835Y-75236247D01*
X177098428Y-75246267D01*
X176938606Y-75267409D01*
X176830671Y-75298793D01*
X176741984Y-75355533D01*
X176639907Y-75452741D01*
X176629543Y-75463379D01*
X176530494Y-75561340D01*
X176454926Y-75628817D01*
X176422963Y-75649666D01*
X176327432Y-75612733D01*
X176239160Y-75518983D01*
X176195786Y-75432576D01*
X176171717Y-75318409D01*
X176156489Y-75156447D01*
X176150308Y-74972911D01*
X176153379Y-74794025D01*
G37*
X176153379Y-74794025D02*
X176165907Y-74646010D01*
X176188099Y-74555088D01*
X176188902Y-74553542D01*
X176227716Y-74499453D01*
X176312638Y-74392187D01*
X176434621Y-74242800D01*
X176584620Y-74062351D01*
X176753589Y-73861901D01*
X176782891Y-73827405D01*
X176950759Y-73626232D01*
X177096959Y-73443792D01*
X177213375Y-73290819D01*
X177291891Y-73178044D01*
X177324390Y-73116201D01*
X177324675Y-73110997D01*
X177287344Y-73068064D01*
X177186963Y-73042410D01*
X177082199Y-73033082D01*
X176883006Y-73030077D01*
X176747472Y-73052260D01*
X176656716Y-73105960D01*
X176591888Y-73197451D01*
X176531263Y-73286677D01*
X176455469Y-73315579D01*
X176391000Y-73313254D01*
X176291839Y-73288603D01*
X176222939Y-73229484D01*
X176180182Y-73124317D01*
X176159448Y-72961522D01*
X176156618Y-72729518D01*
X176158238Y-72658914D01*
X176166760Y-72451491D01*
X176180793Y-72310509D01*
X176203583Y-72217771D01*
X176238379Y-72155082D01*
X176250811Y-72140331D01*
X176336248Y-72074150D01*
X176407892Y-72051333D01*
X176458466Y-72057287D01*
X176505248Y-72085623D01*
X176566442Y-72152052D01*
X176653172Y-72263000D01*
X176733981Y-72368833D01*
X177785574Y-72390878D01*
X178152543Y-72399719D01*
X178443711Y-72410374D01*
X178667946Y-72424693D01*
X178834113Y-72444525D01*
X178951079Y-72471717D01*
X179027711Y-72508120D01*
X179072874Y-72555581D01*
X179095435Y-72615950D01*
X179102404Y-72665461D01*
X179099652Y-72713673D01*
X179078976Y-72771785D01*
X179034027Y-72848456D01*
X178958456Y-72952345D01*
X178845913Y-73092113D01*
X178690049Y-73276417D01*
X178484514Y-73513918D01*
X178457737Y-73544653D01*
X178270072Y-73761150D01*
X178099892Y-73959749D01*
X177955569Y-74130496D01*
X177845475Y-74263438D01*
X177777981Y-74348619D01*
X177761537Y-74372434D01*
X177739975Y-74463193D01*
X177790402Y-74527233D01*
X177916761Y-74567464D01*
X178046150Y-74582569D01*
X178262040Y-74581954D01*
X178441802Y-74550049D01*
X178569384Y-74491369D01*
X178626344Y-74419339D01*
X178683557Y-74333547D01*
X178739487Y-74290636D01*
X178819086Y-74268372D01*
X178902958Y-74302447D01*
X178936695Y-74326247D01*
X179024643Y-74416675D01*
X179075356Y-74510483D01*
X179089927Y-74609676D01*
X179098829Y-74763659D01*
X179101791Y-74942726D01*
X179098542Y-75117172D01*
X179088810Y-75257292D01*
X179082568Y-75299573D01*
X179039327Y-75385150D01*
X178957466Y-75476534D01*
X178866360Y-75545316D01*
X178808133Y-75565000D01*
X178759257Y-75536170D01*
X178677962Y-75462714D01*
X178627413Y-75410067D01*
X178485476Y-75255134D01*
X177935869Y-75235288D01*
X177695983Y-75229977D01*
X177456041Y-75230423D01*
X177244835Y-75236247D01*
X177098428Y-75246267D01*
X176938606Y-75267409D01*
X176830671Y-75298793D01*
X176741984Y-75355533D01*
X176639907Y-75452741D01*
X176629543Y-75463379D01*
X176530494Y-75561340D01*
X176454926Y-75628817D01*
X176422963Y-75649666D01*
X176327432Y-75612733D01*
X176239160Y-75518983D01*
X176195786Y-75432576D01*
X176171717Y-75318409D01*
X176156489Y-75156447D01*
X176150308Y-74972911D01*
X176153379Y-74794025D01*
D13*
G04 #@! TO.C,J7*
X175200000Y-92770000D02*
X175200000Y-91440000D01*
X176530000Y-92770000D02*
X175200000Y-92770000D01*
X177800000Y-92770000D02*
X177800000Y-90110000D01*
X177800000Y-90110000D02*
X180400000Y-90110000D01*
X177800000Y-92770000D02*
X180400000Y-92770000D01*
X180400000Y-92770000D02*
X180400000Y-90110000D01*
G04 #@! TO.C,U3*
X162440000Y-96350000D02*
X162440000Y-106850000D01*
X172840000Y-96350000D02*
X162440000Y-96350000D01*
X172840000Y-106850000D02*
X172840000Y-96350000D01*
X162440000Y-106850000D02*
X172840000Y-106850000D01*
X162500000Y-99350000D02*
X162500000Y-100600000D01*
X172780000Y-99350000D02*
X162500000Y-99350000D01*
X172780000Y-103850000D02*
X172780000Y-99350000D01*
X162500000Y-103850000D02*
X172780000Y-103850000D01*
X162500000Y-102600000D02*
X162500000Y-103850000D01*
X162500000Y-100600000D02*
G75*
G02*
X162500000Y-102600000I0J-1000000D01*
G01*
G04 #@! TO.C,C16*
X161580000Y-97260000D02*
X161825000Y-97260000D01*
X159485000Y-97260000D02*
X159730000Y-97260000D01*
X161580000Y-100900000D02*
X161825000Y-100900000D01*
X159485000Y-100900000D02*
X159730000Y-100900000D01*
X161825000Y-100900000D02*
X161825000Y-97260000D01*
X159485000Y-100900000D02*
X159485000Y-97260000D01*
G04 #@! TO.C,R16*
X161830000Y-107850000D02*
X161830000Y-108180000D01*
X168370000Y-107850000D02*
X161830000Y-107850000D01*
X168370000Y-108180000D02*
X168370000Y-107850000D01*
X161830000Y-110590000D02*
X161830000Y-110260000D01*
X168370000Y-110590000D02*
X161830000Y-110590000D01*
X168370000Y-110260000D02*
X168370000Y-110590000D01*
G04 #@! TO.C,R15*
X171990000Y-107850000D02*
X171990000Y-108180000D01*
X178530000Y-107850000D02*
X171990000Y-107850000D01*
X178530000Y-108180000D02*
X178530000Y-107850000D01*
X171990000Y-110590000D02*
X171990000Y-110260000D01*
X178530000Y-110590000D02*
X171990000Y-110590000D01*
X178530000Y-110260000D02*
X178530000Y-110590000D01*
G04 #@! TO.C,J6*
X169220000Y-118320000D02*
X169220000Y-117070000D01*
X167970000Y-118320000D02*
X169220000Y-118320000D01*
X159570000Y-112820000D02*
X163870000Y-112820000D01*
X159570000Y-115770000D02*
X159570000Y-112820000D01*
X158820000Y-115770000D02*
X159570000Y-115770000D01*
X168170000Y-112820000D02*
X163870000Y-112820000D01*
X168170000Y-115770000D02*
X168170000Y-112820000D01*
X168920000Y-115770000D02*
X168170000Y-115770000D01*
X158820000Y-118020000D02*
X160620000Y-118020000D01*
X158820000Y-117270000D02*
X158820000Y-118020000D01*
X160620000Y-117270000D02*
X158820000Y-117270000D01*
X160620000Y-118020000D02*
X160620000Y-117270000D01*
X167120000Y-118020000D02*
X168920000Y-118020000D01*
X167120000Y-117270000D02*
X167120000Y-118020000D01*
X168920000Y-117270000D02*
X167120000Y-117270000D01*
X168920000Y-118020000D02*
X168920000Y-117270000D01*
X162120000Y-118020000D02*
X165620000Y-118020000D01*
X162120000Y-117270000D02*
X162120000Y-118020000D01*
X165620000Y-117270000D02*
X162120000Y-117270000D01*
X165620000Y-118020000D02*
X165620000Y-117270000D01*
X158810000Y-118030000D02*
X168930000Y-118030000D01*
X158810000Y-112060000D02*
X158810000Y-118030000D01*
X168930000Y-112060000D02*
X158810000Y-112060000D01*
X168930000Y-118030000D02*
X168930000Y-112060000D01*
G04 #@! TO.C,J5*
X178110000Y-118320000D02*
X178110000Y-117070000D01*
X176860000Y-118320000D02*
X178110000Y-118320000D01*
X170960000Y-112820000D02*
X174010000Y-112820000D01*
X170960000Y-115770000D02*
X170960000Y-112820000D01*
X170210000Y-115770000D02*
X170960000Y-115770000D01*
X177060000Y-112820000D02*
X174010000Y-112820000D01*
X177060000Y-115770000D02*
X177060000Y-112820000D01*
X177810000Y-115770000D02*
X177060000Y-115770000D01*
X170210000Y-118020000D02*
X172010000Y-118020000D01*
X170210000Y-117270000D02*
X170210000Y-118020000D01*
X172010000Y-117270000D02*
X170210000Y-117270000D01*
X172010000Y-118020000D02*
X172010000Y-117270000D01*
X176010000Y-118020000D02*
X177810000Y-118020000D01*
X176010000Y-117270000D02*
X176010000Y-118020000D01*
X177810000Y-117270000D02*
X176010000Y-117270000D01*
X177810000Y-118020000D02*
X177810000Y-117270000D01*
X173510000Y-118020000D02*
X174510000Y-118020000D01*
X173510000Y-117270000D02*
X173510000Y-118020000D01*
X174510000Y-117270000D02*
X173510000Y-117270000D01*
X174510000Y-118020000D02*
X174510000Y-117270000D01*
X170200000Y-118030000D02*
X177820000Y-118030000D01*
X170200000Y-112060000D02*
X170200000Y-118030000D01*
X177820000Y-112060000D02*
X170200000Y-112060000D01*
X177820000Y-118030000D02*
X177820000Y-112060000D01*
G04 #@! TO.C,C15*
X175646000Y-104805241D02*
X176276000Y-104805241D01*
X175961000Y-105120241D02*
X175961000Y-104490241D01*
X177398000Y-98379000D02*
X178202000Y-98379000D01*
X177167000Y-98419000D02*
X178433000Y-98419000D01*
X176998000Y-98459000D02*
X178602000Y-98459000D01*
X176860000Y-98499000D02*
X178740000Y-98499000D01*
X176741000Y-98539000D02*
X178859000Y-98539000D01*
X176635000Y-98579000D02*
X178965000Y-98579000D01*
X176538000Y-98619000D02*
X179062000Y-98619000D01*
X176450000Y-98659000D02*
X179150000Y-98659000D01*
X176368000Y-98699000D02*
X179232000Y-98699000D01*
X176291000Y-98739000D02*
X179309000Y-98739000D01*
X176219000Y-98779000D02*
X179381000Y-98779000D01*
X176150000Y-98819000D02*
X179450000Y-98819000D01*
X176086000Y-98859000D02*
X179514000Y-98859000D01*
X176024000Y-98899000D02*
X179576000Y-98899000D01*
X175966000Y-98939000D02*
X179634000Y-98939000D01*
X175910000Y-98979000D02*
X179690000Y-98979000D01*
X175856000Y-99019000D02*
X179744000Y-99019000D01*
X175805000Y-99059000D02*
X179795000Y-99059000D01*
X175756000Y-99099000D02*
X179844000Y-99099000D01*
X175708000Y-99139000D02*
X179892000Y-99139000D01*
X175663000Y-99179000D02*
X179937000Y-99179000D01*
X175618000Y-99219000D02*
X179982000Y-99219000D01*
X175576000Y-99259000D02*
X180024000Y-99259000D01*
X175535000Y-99299000D02*
X180065000Y-99299000D01*
X178840000Y-99339000D02*
X180105000Y-99339000D01*
X175495000Y-99339000D02*
X176760000Y-99339000D01*
X178840000Y-99379000D02*
X180143000Y-99379000D01*
X175457000Y-99379000D02*
X176760000Y-99379000D01*
X178840000Y-99419000D02*
X180180000Y-99419000D01*
X175420000Y-99419000D02*
X176760000Y-99419000D01*
X178840000Y-99459000D02*
X180216000Y-99459000D01*
X175384000Y-99459000D02*
X176760000Y-99459000D01*
X178840000Y-99499000D02*
X180250000Y-99499000D01*
X175350000Y-99499000D02*
X176760000Y-99499000D01*
X178840000Y-99539000D02*
X180284000Y-99539000D01*
X175316000Y-99539000D02*
X176760000Y-99539000D01*
X178840000Y-99579000D02*
X180316000Y-99579000D01*
X175284000Y-99579000D02*
X176760000Y-99579000D01*
X178840000Y-99619000D02*
X180348000Y-99619000D01*
X175252000Y-99619000D02*
X176760000Y-99619000D01*
X178840000Y-99659000D02*
X180378000Y-99659000D01*
X175222000Y-99659000D02*
X176760000Y-99659000D01*
X178840000Y-99699000D02*
X180407000Y-99699000D01*
X175193000Y-99699000D02*
X176760000Y-99699000D01*
X178840000Y-99739000D02*
X180436000Y-99739000D01*
X175164000Y-99739000D02*
X176760000Y-99739000D01*
X178840000Y-99779000D02*
X180464000Y-99779000D01*
X175136000Y-99779000D02*
X176760000Y-99779000D01*
X178840000Y-99819000D02*
X180490000Y-99819000D01*
X175110000Y-99819000D02*
X176760000Y-99819000D01*
X178840000Y-99859000D02*
X180516000Y-99859000D01*
X175084000Y-99859000D02*
X176760000Y-99859000D01*
X178840000Y-99899000D02*
X180542000Y-99899000D01*
X175058000Y-99899000D02*
X176760000Y-99899000D01*
X178840000Y-99939000D02*
X180566000Y-99939000D01*
X175034000Y-99939000D02*
X176760000Y-99939000D01*
X178840000Y-99979000D02*
X180590000Y-99979000D01*
X175010000Y-99979000D02*
X176760000Y-99979000D01*
X178840000Y-100019000D02*
X180612000Y-100019000D01*
X174988000Y-100019000D02*
X176760000Y-100019000D01*
X178840000Y-100059000D02*
X180634000Y-100059000D01*
X174966000Y-100059000D02*
X176760000Y-100059000D01*
X178840000Y-100099000D02*
X180656000Y-100099000D01*
X174944000Y-100099000D02*
X176760000Y-100099000D01*
X178840000Y-100139000D02*
X180676000Y-100139000D01*
X174924000Y-100139000D02*
X176760000Y-100139000D01*
X178840000Y-100179000D02*
X180696000Y-100179000D01*
X174904000Y-100179000D02*
X176760000Y-100179000D01*
X178840000Y-100219000D02*
X180716000Y-100219000D01*
X174884000Y-100219000D02*
X176760000Y-100219000D01*
X178840000Y-100259000D02*
X180734000Y-100259000D01*
X174866000Y-100259000D02*
X176760000Y-100259000D01*
X178840000Y-100299000D02*
X180752000Y-100299000D01*
X174848000Y-100299000D02*
X176760000Y-100299000D01*
X178840000Y-100339000D02*
X180770000Y-100339000D01*
X174830000Y-100339000D02*
X176760000Y-100339000D01*
X178840000Y-100379000D02*
X180786000Y-100379000D01*
X174814000Y-100379000D02*
X176760000Y-100379000D01*
X178840000Y-100419000D02*
X180802000Y-100419000D01*
X174798000Y-100419000D02*
X176760000Y-100419000D01*
X178840000Y-100459000D02*
X180818000Y-100459000D01*
X174782000Y-100459000D02*
X176760000Y-100459000D01*
X178840000Y-100499000D02*
X180833000Y-100499000D01*
X174767000Y-100499000D02*
X176760000Y-100499000D01*
X178840000Y-100539000D02*
X180847000Y-100539000D01*
X174753000Y-100539000D02*
X176760000Y-100539000D01*
X178840000Y-100579000D02*
X180861000Y-100579000D01*
X174739000Y-100579000D02*
X176760000Y-100579000D01*
X178840000Y-100619000D02*
X180874000Y-100619000D01*
X174726000Y-100619000D02*
X176760000Y-100619000D01*
X178840000Y-100659000D02*
X180886000Y-100659000D01*
X174714000Y-100659000D02*
X176760000Y-100659000D01*
X178840000Y-100699000D02*
X180898000Y-100699000D01*
X174702000Y-100699000D02*
X176760000Y-100699000D01*
X178840000Y-100739000D02*
X180910000Y-100739000D01*
X174690000Y-100739000D02*
X176760000Y-100739000D01*
X178840000Y-100779000D02*
X180921000Y-100779000D01*
X174679000Y-100779000D02*
X176760000Y-100779000D01*
X178840000Y-100819000D02*
X180931000Y-100819000D01*
X174669000Y-100819000D02*
X176760000Y-100819000D01*
X178840000Y-100859000D02*
X180941000Y-100859000D01*
X174659000Y-100859000D02*
X176760000Y-100859000D01*
X178840000Y-100899000D02*
X180950000Y-100899000D01*
X174650000Y-100899000D02*
X176760000Y-100899000D01*
X178840000Y-100940000D02*
X180959000Y-100940000D01*
X174641000Y-100940000D02*
X176760000Y-100940000D01*
X178840000Y-100980000D02*
X180967000Y-100980000D01*
X174633000Y-100980000D02*
X176760000Y-100980000D01*
X178840000Y-101020000D02*
X180975000Y-101020000D01*
X174625000Y-101020000D02*
X176760000Y-101020000D01*
X178840000Y-101060000D02*
X180982000Y-101060000D01*
X174618000Y-101060000D02*
X176760000Y-101060000D01*
X178840000Y-101100000D02*
X180989000Y-101100000D01*
X174611000Y-101100000D02*
X176760000Y-101100000D01*
X178840000Y-101140000D02*
X180995000Y-101140000D01*
X174605000Y-101140000D02*
X176760000Y-101140000D01*
X178840000Y-101180000D02*
X181001000Y-101180000D01*
X174599000Y-101180000D02*
X176760000Y-101180000D01*
X178840000Y-101220000D02*
X181006000Y-101220000D01*
X174594000Y-101220000D02*
X176760000Y-101220000D01*
X178840000Y-101260000D02*
X181011000Y-101260000D01*
X174589000Y-101260000D02*
X176760000Y-101260000D01*
X178840000Y-101300000D02*
X181015000Y-101300000D01*
X174585000Y-101300000D02*
X176760000Y-101300000D01*
X178840000Y-101340000D02*
X181018000Y-101340000D01*
X174582000Y-101340000D02*
X176760000Y-101340000D01*
X178840000Y-101380000D02*
X181022000Y-101380000D01*
X174578000Y-101380000D02*
X176760000Y-101380000D01*
X174576000Y-101420000D02*
X181024000Y-101420000D01*
X174573000Y-101460000D02*
X181027000Y-101460000D01*
X174572000Y-101500000D02*
X181028000Y-101500000D01*
X174570000Y-101540000D02*
X181030000Y-101540000D01*
X174570000Y-101580000D02*
X181030000Y-101580000D01*
X174570000Y-101620000D02*
X181030000Y-101620000D01*
X181070000Y-101620000D02*
G75*
G03*
X181070000Y-101620000I-3270000J0D01*
G01*
G04 #@! TO.C,J3*
X163750000Y-83800000D02*
X157780000Y-83800000D01*
X157780000Y-83800000D02*
X157780000Y-91420000D01*
X157780000Y-91420000D02*
X163750000Y-91420000D01*
X163750000Y-91420000D02*
X163750000Y-83800000D01*
X163740000Y-87110000D02*
X162990000Y-87110000D01*
X162990000Y-87110000D02*
X162990000Y-88110000D01*
X162990000Y-88110000D02*
X163740000Y-88110000D01*
X163740000Y-88110000D02*
X163740000Y-87110000D01*
X163740000Y-83810000D02*
X162990000Y-83810000D01*
X162990000Y-83810000D02*
X162990000Y-85610000D01*
X162990000Y-85610000D02*
X163740000Y-85610000D01*
X163740000Y-85610000D02*
X163740000Y-83810000D01*
X163740000Y-89610000D02*
X162990000Y-89610000D01*
X162990000Y-89610000D02*
X162990000Y-91410000D01*
X162990000Y-91410000D02*
X163740000Y-91410000D01*
X163740000Y-91410000D02*
X163740000Y-89610000D01*
X161490000Y-83810000D02*
X161490000Y-84560000D01*
X161490000Y-84560000D02*
X158540000Y-84560000D01*
X158540000Y-84560000D02*
X158540000Y-87610000D01*
X161490000Y-91410000D02*
X161490000Y-90660000D01*
X161490000Y-90660000D02*
X158540000Y-90660000D01*
X158540000Y-90660000D02*
X158540000Y-87610000D01*
X164040000Y-84760000D02*
X164040000Y-83510000D01*
X164040000Y-83510000D02*
X162790000Y-83510000D01*
G04 #@! TO.C,U2*
X139970000Y-71060000D02*
X138720000Y-71060000D01*
X138720000Y-71060000D02*
X138720000Y-81340000D01*
X138720000Y-81340000D02*
X143220000Y-81340000D01*
X143220000Y-81340000D02*
X143220000Y-71060000D01*
X143220000Y-71060000D02*
X141970000Y-71060000D01*
X135720000Y-71000000D02*
X135720000Y-81400000D01*
X135720000Y-81400000D02*
X146220000Y-81400000D01*
X146220000Y-81400000D02*
X146220000Y-71000000D01*
X146220000Y-71000000D02*
X135720000Y-71000000D01*
X141970000Y-71060000D02*
G75*
G02*
X139970000Y-71060000I-1000000J0D01*
G01*
G04 #@! TO.C,U1*
X139970000Y-91380000D02*
X138720000Y-91380000D01*
X138720000Y-91380000D02*
X138720000Y-101660000D01*
X138720000Y-101660000D02*
X143220000Y-101660000D01*
X143220000Y-101660000D02*
X143220000Y-91380000D01*
X143220000Y-91380000D02*
X141970000Y-91380000D01*
X135720000Y-91320000D02*
X135720000Y-101720000D01*
X135720000Y-101720000D02*
X146220000Y-101720000D01*
X146220000Y-101720000D02*
X146220000Y-91320000D01*
X146220000Y-91320000D02*
X135720000Y-91320000D01*
X141970000Y-91380000D02*
G75*
G02*
X139970000Y-91380000I-1000000J0D01*
G01*
G04 #@! TO.C,R14*
X148495000Y-76430000D02*
X148495000Y-76100000D01*
X148495000Y-76100000D02*
X155035000Y-76100000D01*
X155035000Y-76100000D02*
X155035000Y-76430000D01*
X148495000Y-78510000D02*
X148495000Y-78840000D01*
X148495000Y-78840000D02*
X155035000Y-78840000D01*
X155035000Y-78840000D02*
X155035000Y-78510000D01*
G04 #@! TO.C,R13*
X148495000Y-73255000D02*
X148495000Y-72925000D01*
X148495000Y-72925000D02*
X155035000Y-72925000D01*
X155035000Y-72925000D02*
X155035000Y-73255000D01*
X148495000Y-75335000D02*
X148495000Y-75665000D01*
X148495000Y-75665000D02*
X155035000Y-75665000D01*
X155035000Y-75665000D02*
X155035000Y-75335000D01*
G04 #@! TO.C,R12*
X155035000Y-81685000D02*
X155035000Y-82015000D01*
X155035000Y-82015000D02*
X148495000Y-82015000D01*
X148495000Y-82015000D02*
X148495000Y-81685000D01*
X155035000Y-79605000D02*
X155035000Y-79275000D01*
X155035000Y-79275000D02*
X148495000Y-79275000D01*
X148495000Y-79275000D02*
X148495000Y-79605000D01*
G04 #@! TO.C,R11*
X133445000Y-75970000D02*
X133445000Y-76300000D01*
X133445000Y-76300000D02*
X126905000Y-76300000D01*
X126905000Y-76300000D02*
X126905000Y-75970000D01*
X133445000Y-73890000D02*
X133445000Y-73560000D01*
X133445000Y-73560000D02*
X126905000Y-73560000D01*
X126905000Y-73560000D02*
X126905000Y-73890000D01*
G04 #@! TO.C,R10*
X133445000Y-72795000D02*
X133445000Y-73125000D01*
X133445000Y-73125000D02*
X126905000Y-73125000D01*
X126905000Y-73125000D02*
X126905000Y-72795000D01*
X133445000Y-70715000D02*
X133445000Y-70385000D01*
X133445000Y-70385000D02*
X126905000Y-70385000D01*
X126905000Y-70385000D02*
X126905000Y-70715000D01*
G04 #@! TO.C,R9*
X133445000Y-79145000D02*
X133445000Y-79475000D01*
X133445000Y-79475000D02*
X126905000Y-79475000D01*
X126905000Y-79475000D02*
X126905000Y-79145000D01*
X133445000Y-77065000D02*
X133445000Y-76735000D01*
X133445000Y-76735000D02*
X126905000Y-76735000D01*
X126905000Y-76735000D02*
X126905000Y-77065000D01*
G04 #@! TO.C,R8*
X148495000Y-96750000D02*
X148495000Y-96420000D01*
X148495000Y-96420000D02*
X155035000Y-96420000D01*
X155035000Y-96420000D02*
X155035000Y-96750000D01*
X148495000Y-98830000D02*
X148495000Y-99160000D01*
X148495000Y-99160000D02*
X155035000Y-99160000D01*
X155035000Y-99160000D02*
X155035000Y-98830000D01*
G04 #@! TO.C,R7*
X148495000Y-93575000D02*
X148495000Y-93245000D01*
X148495000Y-93245000D02*
X155035000Y-93245000D01*
X155035000Y-93245000D02*
X155035000Y-93575000D01*
X148495000Y-95655000D02*
X148495000Y-95985000D01*
X148495000Y-95985000D02*
X155035000Y-95985000D01*
X155035000Y-95985000D02*
X155035000Y-95655000D01*
G04 #@! TO.C,R6*
X155035000Y-102005000D02*
X155035000Y-102335000D01*
X155035000Y-102335000D02*
X148495000Y-102335000D01*
X148495000Y-102335000D02*
X148495000Y-102005000D01*
X155035000Y-99925000D02*
X155035000Y-99595000D01*
X155035000Y-99595000D02*
X148495000Y-99595000D01*
X148495000Y-99595000D02*
X148495000Y-99925000D01*
G04 #@! TO.C,R2*
X131350000Y-108180000D02*
X131350000Y-107850000D01*
X131350000Y-107850000D02*
X137890000Y-107850000D01*
X137890000Y-107850000D02*
X137890000Y-108180000D01*
X131350000Y-110260000D02*
X131350000Y-110590000D01*
X131350000Y-110590000D02*
X137890000Y-110590000D01*
X137890000Y-110590000D02*
X137890000Y-110260000D01*
G04 #@! TO.C,R1*
X144050000Y-108180000D02*
X144050000Y-107850000D01*
X144050000Y-107850000D02*
X150590000Y-107850000D01*
X150590000Y-107850000D02*
X150590000Y-108180000D01*
X144050000Y-110260000D02*
X144050000Y-110590000D01*
X144050000Y-110590000D02*
X150590000Y-110590000D01*
X150590000Y-110590000D02*
X150590000Y-110260000D01*
G04 #@! TO.C,R5*
X133445000Y-96290000D02*
X133445000Y-96620000D01*
X133445000Y-96620000D02*
X126905000Y-96620000D01*
X126905000Y-96620000D02*
X126905000Y-96290000D01*
X133445000Y-94210000D02*
X133445000Y-93880000D01*
X133445000Y-93880000D02*
X126905000Y-93880000D01*
X126905000Y-93880000D02*
X126905000Y-94210000D01*
G04 #@! TO.C,R4*
X133445000Y-93115000D02*
X133445000Y-93445000D01*
X133445000Y-93445000D02*
X126905000Y-93445000D01*
X126905000Y-93445000D02*
X126905000Y-93115000D01*
X133445000Y-91035000D02*
X133445000Y-90705000D01*
X133445000Y-90705000D02*
X126905000Y-90705000D01*
X126905000Y-90705000D02*
X126905000Y-91035000D01*
G04 #@! TO.C,R3*
X133445000Y-99465000D02*
X133445000Y-99795000D01*
X133445000Y-99795000D02*
X126905000Y-99795000D01*
X126905000Y-99795000D02*
X126905000Y-99465000D01*
X133445000Y-97385000D02*
X133445000Y-97055000D01*
X133445000Y-97055000D02*
X126905000Y-97055000D01*
X126905000Y-97055000D02*
X126905000Y-97385000D01*
G04 #@! TO.C,J4*
X163750000Y-69830000D02*
X157780000Y-69830000D01*
X157780000Y-69830000D02*
X157780000Y-77450000D01*
X157780000Y-77450000D02*
X163750000Y-77450000D01*
X163750000Y-77450000D02*
X163750000Y-69830000D01*
X163740000Y-73140000D02*
X162990000Y-73140000D01*
X162990000Y-73140000D02*
X162990000Y-74140000D01*
X162990000Y-74140000D02*
X163740000Y-74140000D01*
X163740000Y-74140000D02*
X163740000Y-73140000D01*
X163740000Y-69840000D02*
X162990000Y-69840000D01*
X162990000Y-69840000D02*
X162990000Y-71640000D01*
X162990000Y-71640000D02*
X163740000Y-71640000D01*
X163740000Y-71640000D02*
X163740000Y-69840000D01*
X163740000Y-75640000D02*
X162990000Y-75640000D01*
X162990000Y-75640000D02*
X162990000Y-77440000D01*
X162990000Y-77440000D02*
X163740000Y-77440000D01*
X163740000Y-77440000D02*
X163740000Y-75640000D01*
X161490000Y-69840000D02*
X161490000Y-70590000D01*
X161490000Y-70590000D02*
X158540000Y-70590000D01*
X158540000Y-70590000D02*
X158540000Y-73640000D01*
X161490000Y-77440000D02*
X161490000Y-76690000D01*
X161490000Y-76690000D02*
X158540000Y-76690000D01*
X158540000Y-76690000D02*
X158540000Y-73640000D01*
X164040000Y-70790000D02*
X164040000Y-69540000D01*
X164040000Y-69540000D02*
X162790000Y-69540000D01*
G04 #@! TO.C,J1*
X146070000Y-118030000D02*
X146070000Y-112060000D01*
X146070000Y-112060000D02*
X135950000Y-112060000D01*
X135950000Y-112060000D02*
X135950000Y-118030000D01*
X135950000Y-118030000D02*
X146070000Y-118030000D01*
X142760000Y-118020000D02*
X142760000Y-117270000D01*
X142760000Y-117270000D02*
X139260000Y-117270000D01*
X139260000Y-117270000D02*
X139260000Y-118020000D01*
X139260000Y-118020000D02*
X142760000Y-118020000D01*
X146060000Y-118020000D02*
X146060000Y-117270000D01*
X146060000Y-117270000D02*
X144260000Y-117270000D01*
X144260000Y-117270000D02*
X144260000Y-118020000D01*
X144260000Y-118020000D02*
X146060000Y-118020000D01*
X137760000Y-118020000D02*
X137760000Y-117270000D01*
X137760000Y-117270000D02*
X135960000Y-117270000D01*
X135960000Y-117270000D02*
X135960000Y-118020000D01*
X135960000Y-118020000D02*
X137760000Y-118020000D01*
X146060000Y-115770000D02*
X145310000Y-115770000D01*
X145310000Y-115770000D02*
X145310000Y-112820000D01*
X145310000Y-112820000D02*
X141010000Y-112820000D01*
X135960000Y-115770000D02*
X136710000Y-115770000D01*
X136710000Y-115770000D02*
X136710000Y-112820000D01*
X136710000Y-112820000D02*
X141010000Y-112820000D01*
X145110000Y-118320000D02*
X146360000Y-118320000D01*
X146360000Y-118320000D02*
X146360000Y-117070000D01*
G04 #@! TO.C,J2*
X118190000Y-100985000D02*
X124160000Y-100985000D01*
X124160000Y-100985000D02*
X124160000Y-93365000D01*
X124160000Y-93365000D02*
X118190000Y-93365000D01*
X118190000Y-93365000D02*
X118190000Y-100985000D01*
X118200000Y-97675000D02*
X118950000Y-97675000D01*
X118950000Y-97675000D02*
X118950000Y-96675000D01*
X118950000Y-96675000D02*
X118200000Y-96675000D01*
X118200000Y-96675000D02*
X118200000Y-97675000D01*
X118200000Y-100975000D02*
X118950000Y-100975000D01*
X118950000Y-100975000D02*
X118950000Y-99175000D01*
X118950000Y-99175000D02*
X118200000Y-99175000D01*
X118200000Y-99175000D02*
X118200000Y-100975000D01*
X118200000Y-95175000D02*
X118950000Y-95175000D01*
X118950000Y-95175000D02*
X118950000Y-93375000D01*
X118950000Y-93375000D02*
X118200000Y-93375000D01*
X118200000Y-93375000D02*
X118200000Y-95175000D01*
X120450000Y-100975000D02*
X120450000Y-100225000D01*
X120450000Y-100225000D02*
X123400000Y-100225000D01*
X123400000Y-100225000D02*
X123400000Y-97175000D01*
X120450000Y-93375000D02*
X120450000Y-94125000D01*
X120450000Y-94125000D02*
X123400000Y-94125000D01*
X123400000Y-94125000D02*
X123400000Y-97175000D01*
X117900000Y-100025000D02*
X117900000Y-101275000D01*
X117900000Y-101275000D02*
X119150000Y-101275000D01*
G04 #@! TO.C,D2*
X128560000Y-110456000D02*
X128560000Y-110300000D01*
X128560000Y-108140000D02*
X128560000Y-107984000D01*
X125958870Y-108140163D02*
G75*
G02*
X128040961Y-108140000I1041130J-1079837D01*
G01*
X125958870Y-110299837D02*
G75*
G03*
X128040961Y-110300000I1041130J1079837D01*
G01*
X125327665Y-108141392D02*
G75*
G02*
X128560000Y-107984484I1672335J-1078608D01*
G01*
X125327665Y-110298608D02*
G75*
G03*
X128560000Y-110455516I1672335J1078608D01*
G01*
G04 #@! TO.C,D1*
X156500000Y-110456000D02*
X156500000Y-110300000D01*
X156500000Y-108140000D02*
X156500000Y-107984000D01*
X153898870Y-108140163D02*
G75*
G02*
X155980961Y-108140000I1041130J-1079837D01*
G01*
X153898870Y-110299837D02*
G75*
G03*
X155980961Y-110300000I1041130J1079837D01*
G01*
X153267665Y-108141392D02*
G75*
G02*
X156500000Y-107984484I1672335J-1078608D01*
G01*
X153267665Y-110298608D02*
G75*
G03*
X156500000Y-110455516I1672335J1078608D01*
G01*
G04 #@! TO.C,C14*
X148740000Y-67980000D02*
X155980000Y-67980000D01*
X148740000Y-71720000D02*
X155980000Y-71720000D01*
X148740000Y-67980000D02*
X148740000Y-71720000D01*
X155980000Y-67980000D02*
X155980000Y-71720000D01*
G04 #@! TO.C,C13*
X154790000Y-86325000D02*
X147550000Y-86325000D01*
X154790000Y-82585000D02*
X147550000Y-82585000D01*
X154790000Y-86325000D02*
X154790000Y-82585000D01*
X147550000Y-86325000D02*
X147550000Y-82585000D01*
G04 #@! TO.C,C12*
X134050000Y-82015000D02*
X137690000Y-82015000D01*
X134050000Y-84355000D02*
X137690000Y-84355000D01*
X134050000Y-82015000D02*
X134050000Y-82260000D01*
X134050000Y-84110000D02*
X134050000Y-84355000D01*
X137690000Y-82015000D02*
X137690000Y-82260000D01*
X137690000Y-84110000D02*
X137690000Y-84355000D01*
G04 #@! TO.C,C11*
X147890000Y-70385000D02*
X144250000Y-70385000D01*
X147890000Y-68045000D02*
X144250000Y-68045000D01*
X147890000Y-70385000D02*
X147890000Y-70140000D01*
X147890000Y-68290000D02*
X147890000Y-68045000D01*
X144250000Y-70385000D02*
X144250000Y-70140000D01*
X144250000Y-68290000D02*
X144250000Y-68045000D01*
G04 #@! TO.C,C10*
X135105000Y-69815000D02*
X127865000Y-69815000D01*
X135105000Y-66075000D02*
X127865000Y-66075000D01*
X135105000Y-69815000D02*
X135105000Y-66075000D01*
X127865000Y-69815000D02*
X127865000Y-66075000D01*
G04 #@! TO.C,C9*
X133200000Y-83785000D02*
X125960000Y-83785000D01*
X133200000Y-80045000D02*
X125960000Y-80045000D01*
X133200000Y-83785000D02*
X133200000Y-80045000D01*
X125960000Y-83785000D02*
X125960000Y-80045000D01*
G04 #@! TO.C,C8*
X148740000Y-88935000D02*
X155980000Y-88935000D01*
X148740000Y-92675000D02*
X155980000Y-92675000D01*
X148740000Y-88935000D02*
X148740000Y-92675000D01*
X155980000Y-88935000D02*
X155980000Y-92675000D01*
G04 #@! TO.C,C7*
X155425000Y-106645000D02*
X148185000Y-106645000D01*
X155425000Y-102905000D02*
X148185000Y-102905000D01*
X155425000Y-106645000D02*
X155425000Y-102905000D01*
X148185000Y-106645000D02*
X148185000Y-102905000D01*
G04 #@! TO.C,C6*
X134050000Y-102335000D02*
X137690000Y-102335000D01*
X134050000Y-104675000D02*
X137690000Y-104675000D01*
X134050000Y-102335000D02*
X134050000Y-102580000D01*
X134050000Y-104430000D02*
X134050000Y-104675000D01*
X137690000Y-102335000D02*
X137690000Y-102580000D01*
X137690000Y-104430000D02*
X137690000Y-104675000D01*
G04 #@! TO.C,C5*
X147890000Y-90705000D02*
X144250000Y-90705000D01*
X147890000Y-88365000D02*
X144250000Y-88365000D01*
X147890000Y-90705000D02*
X147890000Y-90460000D01*
X147890000Y-88610000D02*
X147890000Y-88365000D01*
X144250000Y-90705000D02*
X144250000Y-90460000D01*
X144250000Y-88610000D02*
X144250000Y-88365000D01*
G04 #@! TO.C,C2*
X134060000Y-115570000D02*
G75*
G03*
X134060000Y-115570000I-3270000J0D01*
G01*
X130790000Y-112340000D02*
X130790000Y-118800000D01*
X130830000Y-112340000D02*
X130830000Y-118800000D01*
X130870000Y-112340000D02*
X130870000Y-118800000D01*
X130910000Y-112342000D02*
X130910000Y-118798000D01*
X130950000Y-112343000D02*
X130950000Y-118797000D01*
X130990000Y-112346000D02*
X130990000Y-118794000D01*
X131030000Y-112348000D02*
X131030000Y-114530000D01*
X131030000Y-116610000D02*
X131030000Y-118792000D01*
X131070000Y-112352000D02*
X131070000Y-114530000D01*
X131070000Y-116610000D02*
X131070000Y-118788000D01*
X131110000Y-112355000D02*
X131110000Y-114530000D01*
X131110000Y-116610000D02*
X131110000Y-118785000D01*
X131150000Y-112359000D02*
X131150000Y-114530000D01*
X131150000Y-116610000D02*
X131150000Y-118781000D01*
X131190000Y-112364000D02*
X131190000Y-114530000D01*
X131190000Y-116610000D02*
X131190000Y-118776000D01*
X131230000Y-112369000D02*
X131230000Y-114530000D01*
X131230000Y-116610000D02*
X131230000Y-118771000D01*
X131270000Y-112375000D02*
X131270000Y-114530000D01*
X131270000Y-116610000D02*
X131270000Y-118765000D01*
X131310000Y-112381000D02*
X131310000Y-114530000D01*
X131310000Y-116610000D02*
X131310000Y-118759000D01*
X131350000Y-112388000D02*
X131350000Y-114530000D01*
X131350000Y-116610000D02*
X131350000Y-118752000D01*
X131390000Y-112395000D02*
X131390000Y-114530000D01*
X131390000Y-116610000D02*
X131390000Y-118745000D01*
X131430000Y-112403000D02*
X131430000Y-114530000D01*
X131430000Y-116610000D02*
X131430000Y-118737000D01*
X131470000Y-112411000D02*
X131470000Y-114530000D01*
X131470000Y-116610000D02*
X131470000Y-118729000D01*
X131511000Y-112420000D02*
X131511000Y-114530000D01*
X131511000Y-116610000D02*
X131511000Y-118720000D01*
X131551000Y-112429000D02*
X131551000Y-114530000D01*
X131551000Y-116610000D02*
X131551000Y-118711000D01*
X131591000Y-112439000D02*
X131591000Y-114530000D01*
X131591000Y-116610000D02*
X131591000Y-118701000D01*
X131631000Y-112449000D02*
X131631000Y-114530000D01*
X131631000Y-116610000D02*
X131631000Y-118691000D01*
X131671000Y-112460000D02*
X131671000Y-114530000D01*
X131671000Y-116610000D02*
X131671000Y-118680000D01*
X131711000Y-112472000D02*
X131711000Y-114530000D01*
X131711000Y-116610000D02*
X131711000Y-118668000D01*
X131751000Y-112484000D02*
X131751000Y-114530000D01*
X131751000Y-116610000D02*
X131751000Y-118656000D01*
X131791000Y-112496000D02*
X131791000Y-114530000D01*
X131791000Y-116610000D02*
X131791000Y-118644000D01*
X131831000Y-112509000D02*
X131831000Y-114530000D01*
X131831000Y-116610000D02*
X131831000Y-118631000D01*
X131871000Y-112523000D02*
X131871000Y-114530000D01*
X131871000Y-116610000D02*
X131871000Y-118617000D01*
X131911000Y-112537000D02*
X131911000Y-114530000D01*
X131911000Y-116610000D02*
X131911000Y-118603000D01*
X131951000Y-112552000D02*
X131951000Y-114530000D01*
X131951000Y-116610000D02*
X131951000Y-118588000D01*
X131991000Y-112568000D02*
X131991000Y-114530000D01*
X131991000Y-116610000D02*
X131991000Y-118572000D01*
X132031000Y-112584000D02*
X132031000Y-114530000D01*
X132031000Y-116610000D02*
X132031000Y-118556000D01*
X132071000Y-112600000D02*
X132071000Y-114530000D01*
X132071000Y-116610000D02*
X132071000Y-118540000D01*
X132111000Y-112618000D02*
X132111000Y-114530000D01*
X132111000Y-116610000D02*
X132111000Y-118522000D01*
X132151000Y-112636000D02*
X132151000Y-114530000D01*
X132151000Y-116610000D02*
X132151000Y-118504000D01*
X132191000Y-112654000D02*
X132191000Y-114530000D01*
X132191000Y-116610000D02*
X132191000Y-118486000D01*
X132231000Y-112674000D02*
X132231000Y-114530000D01*
X132231000Y-116610000D02*
X132231000Y-118466000D01*
X132271000Y-112694000D02*
X132271000Y-114530000D01*
X132271000Y-116610000D02*
X132271000Y-118446000D01*
X132311000Y-112714000D02*
X132311000Y-114530000D01*
X132311000Y-116610000D02*
X132311000Y-118426000D01*
X132351000Y-112736000D02*
X132351000Y-114530000D01*
X132351000Y-116610000D02*
X132351000Y-118404000D01*
X132391000Y-112758000D02*
X132391000Y-114530000D01*
X132391000Y-116610000D02*
X132391000Y-118382000D01*
X132431000Y-112780000D02*
X132431000Y-114530000D01*
X132431000Y-116610000D02*
X132431000Y-118360000D01*
X132471000Y-112804000D02*
X132471000Y-114530000D01*
X132471000Y-116610000D02*
X132471000Y-118336000D01*
X132511000Y-112828000D02*
X132511000Y-114530000D01*
X132511000Y-116610000D02*
X132511000Y-118312000D01*
X132551000Y-112854000D02*
X132551000Y-114530000D01*
X132551000Y-116610000D02*
X132551000Y-118286000D01*
X132591000Y-112880000D02*
X132591000Y-114530000D01*
X132591000Y-116610000D02*
X132591000Y-118260000D01*
X132631000Y-112906000D02*
X132631000Y-114530000D01*
X132631000Y-116610000D02*
X132631000Y-118234000D01*
X132671000Y-112934000D02*
X132671000Y-114530000D01*
X132671000Y-116610000D02*
X132671000Y-118206000D01*
X132711000Y-112963000D02*
X132711000Y-114530000D01*
X132711000Y-116610000D02*
X132711000Y-118177000D01*
X132751000Y-112992000D02*
X132751000Y-114530000D01*
X132751000Y-116610000D02*
X132751000Y-118148000D01*
X132791000Y-113022000D02*
X132791000Y-114530000D01*
X132791000Y-116610000D02*
X132791000Y-118118000D01*
X132831000Y-113054000D02*
X132831000Y-114530000D01*
X132831000Y-116610000D02*
X132831000Y-118086000D01*
X132871000Y-113086000D02*
X132871000Y-114530000D01*
X132871000Y-116610000D02*
X132871000Y-118054000D01*
X132911000Y-113120000D02*
X132911000Y-114530000D01*
X132911000Y-116610000D02*
X132911000Y-118020000D01*
X132951000Y-113154000D02*
X132951000Y-114530000D01*
X132951000Y-116610000D02*
X132951000Y-117986000D01*
X132991000Y-113190000D02*
X132991000Y-114530000D01*
X132991000Y-116610000D02*
X132991000Y-117950000D01*
X133031000Y-113227000D02*
X133031000Y-114530000D01*
X133031000Y-116610000D02*
X133031000Y-117913000D01*
X133071000Y-113265000D02*
X133071000Y-114530000D01*
X133071000Y-116610000D02*
X133071000Y-117875000D01*
X133111000Y-113305000D02*
X133111000Y-117835000D01*
X133151000Y-113346000D02*
X133151000Y-117794000D01*
X133191000Y-113388000D02*
X133191000Y-117752000D01*
X133231000Y-113433000D02*
X133231000Y-117707000D01*
X133271000Y-113478000D02*
X133271000Y-117662000D01*
X133311000Y-113526000D02*
X133311000Y-117614000D01*
X133351000Y-113575000D02*
X133351000Y-117565000D01*
X133391000Y-113626000D02*
X133391000Y-117514000D01*
X133431000Y-113680000D02*
X133431000Y-117460000D01*
X133471000Y-113736000D02*
X133471000Y-117404000D01*
X133511000Y-113794000D02*
X133511000Y-117346000D01*
X133551000Y-113856000D02*
X133551000Y-117284000D01*
X133591000Y-113920000D02*
X133591000Y-117220000D01*
X133631000Y-113989000D02*
X133631000Y-117151000D01*
X133671000Y-114061000D02*
X133671000Y-117079000D01*
X133711000Y-114138000D02*
X133711000Y-117002000D01*
X133751000Y-114220000D02*
X133751000Y-116920000D01*
X133791000Y-114308000D02*
X133791000Y-116832000D01*
X133831000Y-114405000D02*
X133831000Y-116735000D01*
X133871000Y-114511000D02*
X133871000Y-116629000D01*
X133911000Y-114630000D02*
X133911000Y-116510000D01*
X133951000Y-114768000D02*
X133951000Y-116372000D01*
X133991000Y-114937000D02*
X133991000Y-116203000D01*
X134031000Y-115168000D02*
X134031000Y-115972000D01*
X127289759Y-113731000D02*
X127919759Y-113731000D01*
X127604759Y-113416000D02*
X127604759Y-114046000D01*
G04 #@! TO.C,C1*
X154380000Y-115570000D02*
G75*
G03*
X154380000Y-115570000I-3270000J0D01*
G01*
X151110000Y-112340000D02*
X151110000Y-118800000D01*
X151150000Y-112340000D02*
X151150000Y-118800000D01*
X151190000Y-112340000D02*
X151190000Y-118800000D01*
X151230000Y-112342000D02*
X151230000Y-118798000D01*
X151270000Y-112343000D02*
X151270000Y-118797000D01*
X151310000Y-112346000D02*
X151310000Y-118794000D01*
X151350000Y-112348000D02*
X151350000Y-114530000D01*
X151350000Y-116610000D02*
X151350000Y-118792000D01*
X151390000Y-112352000D02*
X151390000Y-114530000D01*
X151390000Y-116610000D02*
X151390000Y-118788000D01*
X151430000Y-112355000D02*
X151430000Y-114530000D01*
X151430000Y-116610000D02*
X151430000Y-118785000D01*
X151470000Y-112359000D02*
X151470000Y-114530000D01*
X151470000Y-116610000D02*
X151470000Y-118781000D01*
X151510000Y-112364000D02*
X151510000Y-114530000D01*
X151510000Y-116610000D02*
X151510000Y-118776000D01*
X151550000Y-112369000D02*
X151550000Y-114530000D01*
X151550000Y-116610000D02*
X151550000Y-118771000D01*
X151590000Y-112375000D02*
X151590000Y-114530000D01*
X151590000Y-116610000D02*
X151590000Y-118765000D01*
X151630000Y-112381000D02*
X151630000Y-114530000D01*
X151630000Y-116610000D02*
X151630000Y-118759000D01*
X151670000Y-112388000D02*
X151670000Y-114530000D01*
X151670000Y-116610000D02*
X151670000Y-118752000D01*
X151710000Y-112395000D02*
X151710000Y-114530000D01*
X151710000Y-116610000D02*
X151710000Y-118745000D01*
X151750000Y-112403000D02*
X151750000Y-114530000D01*
X151750000Y-116610000D02*
X151750000Y-118737000D01*
X151790000Y-112411000D02*
X151790000Y-114530000D01*
X151790000Y-116610000D02*
X151790000Y-118729000D01*
X151831000Y-112420000D02*
X151831000Y-114530000D01*
X151831000Y-116610000D02*
X151831000Y-118720000D01*
X151871000Y-112429000D02*
X151871000Y-114530000D01*
X151871000Y-116610000D02*
X151871000Y-118711000D01*
X151911000Y-112439000D02*
X151911000Y-114530000D01*
X151911000Y-116610000D02*
X151911000Y-118701000D01*
X151951000Y-112449000D02*
X151951000Y-114530000D01*
X151951000Y-116610000D02*
X151951000Y-118691000D01*
X151991000Y-112460000D02*
X151991000Y-114530000D01*
X151991000Y-116610000D02*
X151991000Y-118680000D01*
X152031000Y-112472000D02*
X152031000Y-114530000D01*
X152031000Y-116610000D02*
X152031000Y-118668000D01*
X152071000Y-112484000D02*
X152071000Y-114530000D01*
X152071000Y-116610000D02*
X152071000Y-118656000D01*
X152111000Y-112496000D02*
X152111000Y-114530000D01*
X152111000Y-116610000D02*
X152111000Y-118644000D01*
X152151000Y-112509000D02*
X152151000Y-114530000D01*
X152151000Y-116610000D02*
X152151000Y-118631000D01*
X152191000Y-112523000D02*
X152191000Y-114530000D01*
X152191000Y-116610000D02*
X152191000Y-118617000D01*
X152231000Y-112537000D02*
X152231000Y-114530000D01*
X152231000Y-116610000D02*
X152231000Y-118603000D01*
X152271000Y-112552000D02*
X152271000Y-114530000D01*
X152271000Y-116610000D02*
X152271000Y-118588000D01*
X152311000Y-112568000D02*
X152311000Y-114530000D01*
X152311000Y-116610000D02*
X152311000Y-118572000D01*
X152351000Y-112584000D02*
X152351000Y-114530000D01*
X152351000Y-116610000D02*
X152351000Y-118556000D01*
X152391000Y-112600000D02*
X152391000Y-114530000D01*
X152391000Y-116610000D02*
X152391000Y-118540000D01*
X152431000Y-112618000D02*
X152431000Y-114530000D01*
X152431000Y-116610000D02*
X152431000Y-118522000D01*
X152471000Y-112636000D02*
X152471000Y-114530000D01*
X152471000Y-116610000D02*
X152471000Y-118504000D01*
X152511000Y-112654000D02*
X152511000Y-114530000D01*
X152511000Y-116610000D02*
X152511000Y-118486000D01*
X152551000Y-112674000D02*
X152551000Y-114530000D01*
X152551000Y-116610000D02*
X152551000Y-118466000D01*
X152591000Y-112694000D02*
X152591000Y-114530000D01*
X152591000Y-116610000D02*
X152591000Y-118446000D01*
X152631000Y-112714000D02*
X152631000Y-114530000D01*
X152631000Y-116610000D02*
X152631000Y-118426000D01*
X152671000Y-112736000D02*
X152671000Y-114530000D01*
X152671000Y-116610000D02*
X152671000Y-118404000D01*
X152711000Y-112758000D02*
X152711000Y-114530000D01*
X152711000Y-116610000D02*
X152711000Y-118382000D01*
X152751000Y-112780000D02*
X152751000Y-114530000D01*
X152751000Y-116610000D02*
X152751000Y-118360000D01*
X152791000Y-112804000D02*
X152791000Y-114530000D01*
X152791000Y-116610000D02*
X152791000Y-118336000D01*
X152831000Y-112828000D02*
X152831000Y-114530000D01*
X152831000Y-116610000D02*
X152831000Y-118312000D01*
X152871000Y-112854000D02*
X152871000Y-114530000D01*
X152871000Y-116610000D02*
X152871000Y-118286000D01*
X152911000Y-112880000D02*
X152911000Y-114530000D01*
X152911000Y-116610000D02*
X152911000Y-118260000D01*
X152951000Y-112906000D02*
X152951000Y-114530000D01*
X152951000Y-116610000D02*
X152951000Y-118234000D01*
X152991000Y-112934000D02*
X152991000Y-114530000D01*
X152991000Y-116610000D02*
X152991000Y-118206000D01*
X153031000Y-112963000D02*
X153031000Y-114530000D01*
X153031000Y-116610000D02*
X153031000Y-118177000D01*
X153071000Y-112992000D02*
X153071000Y-114530000D01*
X153071000Y-116610000D02*
X153071000Y-118148000D01*
X153111000Y-113022000D02*
X153111000Y-114530000D01*
X153111000Y-116610000D02*
X153111000Y-118118000D01*
X153151000Y-113054000D02*
X153151000Y-114530000D01*
X153151000Y-116610000D02*
X153151000Y-118086000D01*
X153191000Y-113086000D02*
X153191000Y-114530000D01*
X153191000Y-116610000D02*
X153191000Y-118054000D01*
X153231000Y-113120000D02*
X153231000Y-114530000D01*
X153231000Y-116610000D02*
X153231000Y-118020000D01*
X153271000Y-113154000D02*
X153271000Y-114530000D01*
X153271000Y-116610000D02*
X153271000Y-117986000D01*
X153311000Y-113190000D02*
X153311000Y-114530000D01*
X153311000Y-116610000D02*
X153311000Y-117950000D01*
X153351000Y-113227000D02*
X153351000Y-114530000D01*
X153351000Y-116610000D02*
X153351000Y-117913000D01*
X153391000Y-113265000D02*
X153391000Y-114530000D01*
X153391000Y-116610000D02*
X153391000Y-117875000D01*
X153431000Y-113305000D02*
X153431000Y-117835000D01*
X153471000Y-113346000D02*
X153471000Y-117794000D01*
X153511000Y-113388000D02*
X153511000Y-117752000D01*
X153551000Y-113433000D02*
X153551000Y-117707000D01*
X153591000Y-113478000D02*
X153591000Y-117662000D01*
X153631000Y-113526000D02*
X153631000Y-117614000D01*
X153671000Y-113575000D02*
X153671000Y-117565000D01*
X153711000Y-113626000D02*
X153711000Y-117514000D01*
X153751000Y-113680000D02*
X153751000Y-117460000D01*
X153791000Y-113736000D02*
X153791000Y-117404000D01*
X153831000Y-113794000D02*
X153831000Y-117346000D01*
X153871000Y-113856000D02*
X153871000Y-117284000D01*
X153911000Y-113920000D02*
X153911000Y-117220000D01*
X153951000Y-113989000D02*
X153951000Y-117151000D01*
X153991000Y-114061000D02*
X153991000Y-117079000D01*
X154031000Y-114138000D02*
X154031000Y-117002000D01*
X154071000Y-114220000D02*
X154071000Y-116920000D01*
X154111000Y-114308000D02*
X154111000Y-116832000D01*
X154151000Y-114405000D02*
X154151000Y-116735000D01*
X154191000Y-114511000D02*
X154191000Y-116629000D01*
X154231000Y-114630000D02*
X154231000Y-116510000D01*
X154271000Y-114768000D02*
X154271000Y-116372000D01*
X154311000Y-114937000D02*
X154311000Y-116203000D01*
X154351000Y-115168000D02*
X154351000Y-115972000D01*
X147609759Y-113731000D02*
X148239759Y-113731000D01*
X147924759Y-113416000D02*
X147924759Y-114046000D01*
G04 #@! TO.C,C4*
X135105000Y-90135000D02*
X127865000Y-90135000D01*
X135105000Y-86395000D02*
X127865000Y-86395000D01*
X135105000Y-90135000D02*
X135105000Y-86395000D01*
X127865000Y-90135000D02*
X127865000Y-86395000D01*
G04 #@! TO.C,C3*
X133200000Y-104105000D02*
X125960000Y-104105000D01*
X133200000Y-100365000D02*
X125960000Y-100365000D01*
X133200000Y-104105000D02*
X133200000Y-100365000D01*
X125960000Y-104105000D02*
X125960000Y-100365000D01*
G04 #@! TO.C,J7*
D10*
X173652380Y-91773333D02*
X174366666Y-91773333D01*
X174509523Y-91820952D01*
X174604761Y-91916190D01*
X174652380Y-92059047D01*
X174652380Y-92154285D01*
X173652380Y-91392380D02*
X173652380Y-90725714D01*
X174652380Y-91154285D01*
G04 #@! TO.C,U3*
X162433095Y-94702380D02*
X162433095Y-95511904D01*
X162480714Y-95607142D01*
X162528333Y-95654761D01*
X162623571Y-95702380D01*
X162814047Y-95702380D01*
X162909285Y-95654761D01*
X162956904Y-95607142D01*
X163004523Y-95511904D01*
X163004523Y-94702380D01*
X163385476Y-94702380D02*
X164004523Y-94702380D01*
X163671190Y-95083333D01*
X163814047Y-95083333D01*
X163909285Y-95130952D01*
X163956904Y-95178571D01*
X164004523Y-95273809D01*
X164004523Y-95511904D01*
X163956904Y-95607142D01*
X163909285Y-95654761D01*
X163814047Y-95702380D01*
X163528333Y-95702380D01*
X163433095Y-95654761D01*
X163385476Y-95607142D01*
G04 #@! TO.C,C16*
X161012142Y-95892857D02*
X161059761Y-95940476D01*
X161107380Y-96083333D01*
X161107380Y-96178571D01*
X161059761Y-96321428D01*
X160964523Y-96416666D01*
X160869285Y-96464285D01*
X160678809Y-96511904D01*
X160535952Y-96511904D01*
X160345476Y-96464285D01*
X160250238Y-96416666D01*
X160155000Y-96321428D01*
X160107380Y-96178571D01*
X160107380Y-96083333D01*
X160155000Y-95940476D01*
X160202619Y-95892857D01*
X161107380Y-94940476D02*
X161107380Y-95511904D01*
X161107380Y-95226190D02*
X160107380Y-95226190D01*
X160250238Y-95321428D01*
X160345476Y-95416666D01*
X160393095Y-95511904D01*
X160107380Y-94083333D02*
X160107380Y-94273809D01*
X160155000Y-94369047D01*
X160202619Y-94416666D01*
X160345476Y-94511904D01*
X160535952Y-94559523D01*
X160916904Y-94559523D01*
X161012142Y-94511904D01*
X161059761Y-94464285D01*
X161107380Y-94369047D01*
X161107380Y-94178571D01*
X161059761Y-94083333D01*
X161012142Y-94035714D01*
X160916904Y-93988095D01*
X160678809Y-93988095D01*
X160583571Y-94035714D01*
X160535952Y-94083333D01*
X160488333Y-94178571D01*
X160488333Y-94369047D01*
X160535952Y-94464285D01*
X160583571Y-94511904D01*
X160678809Y-94559523D01*
G04 #@! TO.C,R16*
X159377142Y-107132380D02*
X159043809Y-106656190D01*
X158805714Y-107132380D02*
X158805714Y-106132380D01*
X159186666Y-106132380D01*
X159281904Y-106180000D01*
X159329523Y-106227619D01*
X159377142Y-106322857D01*
X159377142Y-106465714D01*
X159329523Y-106560952D01*
X159281904Y-106608571D01*
X159186666Y-106656190D01*
X158805714Y-106656190D01*
X160329523Y-107132380D02*
X159758095Y-107132380D01*
X160043809Y-107132380D02*
X160043809Y-106132380D01*
X159948571Y-106275238D01*
X159853333Y-106370476D01*
X159758095Y-106418095D01*
X161186666Y-106132380D02*
X160996190Y-106132380D01*
X160900952Y-106180000D01*
X160853333Y-106227619D01*
X160758095Y-106370476D01*
X160710476Y-106560952D01*
X160710476Y-106941904D01*
X160758095Y-107037142D01*
X160805714Y-107084761D01*
X160900952Y-107132380D01*
X161091428Y-107132380D01*
X161186666Y-107084761D01*
X161234285Y-107037142D01*
X161281904Y-106941904D01*
X161281904Y-106703809D01*
X161234285Y-106608571D01*
X161186666Y-106560952D01*
X161091428Y-106513333D01*
X160900952Y-106513333D01*
X160805714Y-106560952D01*
X160758095Y-106608571D01*
X160710476Y-106703809D01*
G04 #@! TO.C,R15*
X174617142Y-107132380D02*
X174283809Y-106656190D01*
X174045714Y-107132380D02*
X174045714Y-106132380D01*
X174426666Y-106132380D01*
X174521904Y-106180000D01*
X174569523Y-106227619D01*
X174617142Y-106322857D01*
X174617142Y-106465714D01*
X174569523Y-106560952D01*
X174521904Y-106608571D01*
X174426666Y-106656190D01*
X174045714Y-106656190D01*
X175569523Y-107132380D02*
X174998095Y-107132380D01*
X175283809Y-107132380D02*
X175283809Y-106132380D01*
X175188571Y-106275238D01*
X175093333Y-106370476D01*
X174998095Y-106418095D01*
X176474285Y-106132380D02*
X175998095Y-106132380D01*
X175950476Y-106608571D01*
X175998095Y-106560952D01*
X176093333Y-106513333D01*
X176331428Y-106513333D01*
X176426666Y-106560952D01*
X176474285Y-106608571D01*
X176521904Y-106703809D01*
X176521904Y-106941904D01*
X176474285Y-107037142D01*
X176426666Y-107084761D01*
X176331428Y-107132380D01*
X176093333Y-107132380D01*
X175998095Y-107084761D01*
X175950476Y-107037142D01*
G04 #@! TO.C,J6*
X157146666Y-115022380D02*
X157146666Y-115736666D01*
X157099047Y-115879523D01*
X157003809Y-115974761D01*
X156860952Y-116022380D01*
X156765714Y-116022380D01*
X158051428Y-115022380D02*
X157860952Y-115022380D01*
X157765714Y-115070000D01*
X157718095Y-115117619D01*
X157622857Y-115260476D01*
X157575238Y-115450952D01*
X157575238Y-115831904D01*
X157622857Y-115927142D01*
X157670476Y-115974761D01*
X157765714Y-116022380D01*
X157956190Y-116022380D01*
X158051428Y-115974761D01*
X158099047Y-115927142D01*
X158146666Y-115831904D01*
X158146666Y-115593809D01*
X158099047Y-115498571D01*
X158051428Y-115450952D01*
X157956190Y-115403333D01*
X157765714Y-115403333D01*
X157670476Y-115450952D01*
X157622857Y-115498571D01*
X157575238Y-115593809D01*
G04 #@! TO.C,J5*
X178736666Y-111847380D02*
X178736666Y-112561666D01*
X178689047Y-112704523D01*
X178593809Y-112799761D01*
X178450952Y-112847380D01*
X178355714Y-112847380D01*
X179689047Y-111847380D02*
X179212857Y-111847380D01*
X179165238Y-112323571D01*
X179212857Y-112275952D01*
X179308095Y-112228333D01*
X179546190Y-112228333D01*
X179641428Y-112275952D01*
X179689047Y-112323571D01*
X179736666Y-112418809D01*
X179736666Y-112656904D01*
X179689047Y-112752142D01*
X179641428Y-112799761D01*
X179546190Y-112847380D01*
X179308095Y-112847380D01*
X179212857Y-112799761D01*
X179165238Y-112752142D01*
G04 #@! TO.C,C15*
X180697142Y-97797857D02*
X180744761Y-97845476D01*
X180792380Y-97988333D01*
X180792380Y-98083571D01*
X180744761Y-98226428D01*
X180649523Y-98321666D01*
X180554285Y-98369285D01*
X180363809Y-98416904D01*
X180220952Y-98416904D01*
X180030476Y-98369285D01*
X179935238Y-98321666D01*
X179840000Y-98226428D01*
X179792380Y-98083571D01*
X179792380Y-97988333D01*
X179840000Y-97845476D01*
X179887619Y-97797857D01*
X180792380Y-96845476D02*
X180792380Y-97416904D01*
X180792380Y-97131190D02*
X179792380Y-97131190D01*
X179935238Y-97226428D01*
X180030476Y-97321666D01*
X180078095Y-97416904D01*
X179792380Y-95940714D02*
X179792380Y-96416904D01*
X180268571Y-96464523D01*
X180220952Y-96416904D01*
X180173333Y-96321666D01*
X180173333Y-96083571D01*
X180220952Y-95988333D01*
X180268571Y-95940714D01*
X180363809Y-95893095D01*
X180601904Y-95893095D01*
X180697142Y-95940714D01*
X180744761Y-95988333D01*
X180792380Y-96083571D01*
X180792380Y-96321666D01*
X180744761Y-96416904D01*
X180697142Y-96464523D01*
G04 #@! TO.C,J3*
X162647380Y-82248333D02*
X163361666Y-82248333D01*
X163504523Y-82295952D01*
X163599761Y-82391190D01*
X163647380Y-82534047D01*
X163647380Y-82629285D01*
X162647380Y-81867380D02*
X162647380Y-81248333D01*
X163028333Y-81581666D01*
X163028333Y-81438809D01*
X163075952Y-81343571D01*
X163123571Y-81295952D01*
X163218809Y-81248333D01*
X163456904Y-81248333D01*
X163552142Y-81295952D01*
X163599761Y-81343571D01*
X163647380Y-81438809D01*
X163647380Y-81724523D01*
X163599761Y-81819761D01*
X163552142Y-81867380D01*
G04 #@! TO.C,U2*
X140208095Y-69512380D02*
X140208095Y-70321904D01*
X140255714Y-70417142D01*
X140303333Y-70464761D01*
X140398571Y-70512380D01*
X140589047Y-70512380D01*
X140684285Y-70464761D01*
X140731904Y-70417142D01*
X140779523Y-70321904D01*
X140779523Y-69512380D01*
X141208095Y-69607619D02*
X141255714Y-69560000D01*
X141350952Y-69512380D01*
X141589047Y-69512380D01*
X141684285Y-69560000D01*
X141731904Y-69607619D01*
X141779523Y-69702857D01*
X141779523Y-69798095D01*
X141731904Y-69940952D01*
X141160476Y-70512380D01*
X141779523Y-70512380D01*
G04 #@! TO.C,U1*
X140208095Y-89832380D02*
X140208095Y-90641904D01*
X140255714Y-90737142D01*
X140303333Y-90784761D01*
X140398571Y-90832380D01*
X140589047Y-90832380D01*
X140684285Y-90784761D01*
X140731904Y-90737142D01*
X140779523Y-90641904D01*
X140779523Y-89832380D01*
X141779523Y-90832380D02*
X141208095Y-90832380D01*
X141493809Y-90832380D02*
X141493809Y-89832380D01*
X141398571Y-89975238D01*
X141303333Y-90070476D01*
X141208095Y-90118095D01*
G04 #@! TO.C,R14*
X157472142Y-79192380D02*
X157138809Y-78716190D01*
X156900714Y-79192380D02*
X156900714Y-78192380D01*
X157281666Y-78192380D01*
X157376904Y-78240000D01*
X157424523Y-78287619D01*
X157472142Y-78382857D01*
X157472142Y-78525714D01*
X157424523Y-78620952D01*
X157376904Y-78668571D01*
X157281666Y-78716190D01*
X156900714Y-78716190D01*
X158424523Y-79192380D02*
X157853095Y-79192380D01*
X158138809Y-79192380D02*
X158138809Y-78192380D01*
X158043571Y-78335238D01*
X157948333Y-78430476D01*
X157853095Y-78478095D01*
X159281666Y-78525714D02*
X159281666Y-79192380D01*
X159043571Y-78144761D02*
X158805476Y-78859047D01*
X159424523Y-78859047D01*
G04 #@! TO.C,R13*
X147947142Y-72842380D02*
X147613809Y-72366190D01*
X147375714Y-72842380D02*
X147375714Y-71842380D01*
X147756666Y-71842380D01*
X147851904Y-71890000D01*
X147899523Y-71937619D01*
X147947142Y-72032857D01*
X147947142Y-72175714D01*
X147899523Y-72270952D01*
X147851904Y-72318571D01*
X147756666Y-72366190D01*
X147375714Y-72366190D01*
X148899523Y-72842380D02*
X148328095Y-72842380D01*
X148613809Y-72842380D02*
X148613809Y-71842380D01*
X148518571Y-71985238D01*
X148423333Y-72080476D01*
X148328095Y-72128095D01*
X149232857Y-71842380D02*
X149851904Y-71842380D01*
X149518571Y-72223333D01*
X149661428Y-72223333D01*
X149756666Y-72270952D01*
X149804285Y-72318571D01*
X149851904Y-72413809D01*
X149851904Y-72651904D01*
X149804285Y-72747142D01*
X149756666Y-72794761D01*
X149661428Y-72842380D01*
X149375714Y-72842380D01*
X149280476Y-72794761D01*
X149232857Y-72747142D01*
G04 #@! TO.C,R12*
X157472142Y-81097380D02*
X157138809Y-80621190D01*
X156900714Y-81097380D02*
X156900714Y-80097380D01*
X157281666Y-80097380D01*
X157376904Y-80145000D01*
X157424523Y-80192619D01*
X157472142Y-80287857D01*
X157472142Y-80430714D01*
X157424523Y-80525952D01*
X157376904Y-80573571D01*
X157281666Y-80621190D01*
X156900714Y-80621190D01*
X158424523Y-81097380D02*
X157853095Y-81097380D01*
X158138809Y-81097380D02*
X158138809Y-80097380D01*
X158043571Y-80240238D01*
X157948333Y-80335476D01*
X157853095Y-80383095D01*
X158805476Y-80192619D02*
X158853095Y-80145000D01*
X158948333Y-80097380D01*
X159186428Y-80097380D01*
X159281666Y-80145000D01*
X159329285Y-80192619D01*
X159376904Y-80287857D01*
X159376904Y-80383095D01*
X159329285Y-80525952D01*
X158757857Y-81097380D01*
X159376904Y-81097380D01*
G04 #@! TO.C,R11*
X123182142Y-75382380D02*
X122848809Y-74906190D01*
X122610714Y-75382380D02*
X122610714Y-74382380D01*
X122991666Y-74382380D01*
X123086904Y-74430000D01*
X123134523Y-74477619D01*
X123182142Y-74572857D01*
X123182142Y-74715714D01*
X123134523Y-74810952D01*
X123086904Y-74858571D01*
X122991666Y-74906190D01*
X122610714Y-74906190D01*
X124134523Y-75382380D02*
X123563095Y-75382380D01*
X123848809Y-75382380D02*
X123848809Y-74382380D01*
X123753571Y-74525238D01*
X123658333Y-74620476D01*
X123563095Y-74668095D01*
X125086904Y-75382380D02*
X124515476Y-75382380D01*
X124801190Y-75382380D02*
X124801190Y-74382380D01*
X124705952Y-74525238D01*
X124610714Y-74620476D01*
X124515476Y-74668095D01*
G04 #@! TO.C,R10*
X123182142Y-72207380D02*
X122848809Y-71731190D01*
X122610714Y-72207380D02*
X122610714Y-71207380D01*
X122991666Y-71207380D01*
X123086904Y-71255000D01*
X123134523Y-71302619D01*
X123182142Y-71397857D01*
X123182142Y-71540714D01*
X123134523Y-71635952D01*
X123086904Y-71683571D01*
X122991666Y-71731190D01*
X122610714Y-71731190D01*
X124134523Y-72207380D02*
X123563095Y-72207380D01*
X123848809Y-72207380D02*
X123848809Y-71207380D01*
X123753571Y-71350238D01*
X123658333Y-71445476D01*
X123563095Y-71493095D01*
X124753571Y-71207380D02*
X124848809Y-71207380D01*
X124944047Y-71255000D01*
X124991666Y-71302619D01*
X125039285Y-71397857D01*
X125086904Y-71588333D01*
X125086904Y-71826428D01*
X125039285Y-72016904D01*
X124991666Y-72112142D01*
X124944047Y-72159761D01*
X124848809Y-72207380D01*
X124753571Y-72207380D01*
X124658333Y-72159761D01*
X124610714Y-72112142D01*
X124563095Y-72016904D01*
X124515476Y-71826428D01*
X124515476Y-71588333D01*
X124563095Y-71397857D01*
X124610714Y-71302619D01*
X124658333Y-71255000D01*
X124753571Y-71207380D01*
G04 #@! TO.C,R9*
X123658333Y-78557380D02*
X123325000Y-78081190D01*
X123086904Y-78557380D02*
X123086904Y-77557380D01*
X123467857Y-77557380D01*
X123563095Y-77605000D01*
X123610714Y-77652619D01*
X123658333Y-77747857D01*
X123658333Y-77890714D01*
X123610714Y-77985952D01*
X123563095Y-78033571D01*
X123467857Y-78081190D01*
X123086904Y-78081190D01*
X124134523Y-78557380D02*
X124325000Y-78557380D01*
X124420238Y-78509761D01*
X124467857Y-78462142D01*
X124563095Y-78319285D01*
X124610714Y-78128809D01*
X124610714Y-77747857D01*
X124563095Y-77652619D01*
X124515476Y-77605000D01*
X124420238Y-77557380D01*
X124229761Y-77557380D01*
X124134523Y-77605000D01*
X124086904Y-77652619D01*
X124039285Y-77747857D01*
X124039285Y-77985952D01*
X124086904Y-78081190D01*
X124134523Y-78128809D01*
X124229761Y-78176428D01*
X124420238Y-78176428D01*
X124515476Y-78128809D01*
X124563095Y-78081190D01*
X124610714Y-77985952D01*
G04 #@! TO.C,R8*
X157313333Y-98242380D02*
X156980000Y-97766190D01*
X156741904Y-98242380D02*
X156741904Y-97242380D01*
X157122857Y-97242380D01*
X157218095Y-97290000D01*
X157265714Y-97337619D01*
X157313333Y-97432857D01*
X157313333Y-97575714D01*
X157265714Y-97670952D01*
X157218095Y-97718571D01*
X157122857Y-97766190D01*
X156741904Y-97766190D01*
X157884761Y-97670952D02*
X157789523Y-97623333D01*
X157741904Y-97575714D01*
X157694285Y-97480476D01*
X157694285Y-97432857D01*
X157741904Y-97337619D01*
X157789523Y-97290000D01*
X157884761Y-97242380D01*
X158075238Y-97242380D01*
X158170476Y-97290000D01*
X158218095Y-97337619D01*
X158265714Y-97432857D01*
X158265714Y-97480476D01*
X158218095Y-97575714D01*
X158170476Y-97623333D01*
X158075238Y-97670952D01*
X157884761Y-97670952D01*
X157789523Y-97718571D01*
X157741904Y-97766190D01*
X157694285Y-97861428D01*
X157694285Y-98051904D01*
X157741904Y-98147142D01*
X157789523Y-98194761D01*
X157884761Y-98242380D01*
X158075238Y-98242380D01*
X158170476Y-98194761D01*
X158218095Y-98147142D01*
X158265714Y-98051904D01*
X158265714Y-97861428D01*
X158218095Y-97766190D01*
X158170476Y-97718571D01*
X158075238Y-97670952D01*
G04 #@! TO.C,R7*
X157313333Y-95067380D02*
X156980000Y-94591190D01*
X156741904Y-95067380D02*
X156741904Y-94067380D01*
X157122857Y-94067380D01*
X157218095Y-94115000D01*
X157265714Y-94162619D01*
X157313333Y-94257857D01*
X157313333Y-94400714D01*
X157265714Y-94495952D01*
X157218095Y-94543571D01*
X157122857Y-94591190D01*
X156741904Y-94591190D01*
X157646666Y-94067380D02*
X158313333Y-94067380D01*
X157884761Y-95067380D01*
G04 #@! TO.C,R6*
X157313333Y-101417380D02*
X156980000Y-100941190D01*
X156741904Y-101417380D02*
X156741904Y-100417380D01*
X157122857Y-100417380D01*
X157218095Y-100465000D01*
X157265714Y-100512619D01*
X157313333Y-100607857D01*
X157313333Y-100750714D01*
X157265714Y-100845952D01*
X157218095Y-100893571D01*
X157122857Y-100941190D01*
X156741904Y-100941190D01*
X158170476Y-100417380D02*
X157980000Y-100417380D01*
X157884761Y-100465000D01*
X157837142Y-100512619D01*
X157741904Y-100655476D01*
X157694285Y-100845952D01*
X157694285Y-101226904D01*
X157741904Y-101322142D01*
X157789523Y-101369761D01*
X157884761Y-101417380D01*
X158075238Y-101417380D01*
X158170476Y-101369761D01*
X158218095Y-101322142D01*
X158265714Y-101226904D01*
X158265714Y-100988809D01*
X158218095Y-100893571D01*
X158170476Y-100845952D01*
X158075238Y-100798333D01*
X157884761Y-100798333D01*
X157789523Y-100845952D01*
X157741904Y-100893571D01*
X157694285Y-100988809D01*
G04 #@! TO.C,R2*
X134453333Y-107302380D02*
X134120000Y-106826190D01*
X133881904Y-107302380D02*
X133881904Y-106302380D01*
X134262857Y-106302380D01*
X134358095Y-106350000D01*
X134405714Y-106397619D01*
X134453333Y-106492857D01*
X134453333Y-106635714D01*
X134405714Y-106730952D01*
X134358095Y-106778571D01*
X134262857Y-106826190D01*
X133881904Y-106826190D01*
X134834285Y-106397619D02*
X134881904Y-106350000D01*
X134977142Y-106302380D01*
X135215238Y-106302380D01*
X135310476Y-106350000D01*
X135358095Y-106397619D01*
X135405714Y-106492857D01*
X135405714Y-106588095D01*
X135358095Y-106730952D01*
X134786666Y-107302380D01*
X135405714Y-107302380D01*
G04 #@! TO.C,R1*
X147153333Y-107302380D02*
X146820000Y-106826190D01*
X146581904Y-107302380D02*
X146581904Y-106302380D01*
X146962857Y-106302380D01*
X147058095Y-106350000D01*
X147105714Y-106397619D01*
X147153333Y-106492857D01*
X147153333Y-106635714D01*
X147105714Y-106730952D01*
X147058095Y-106778571D01*
X146962857Y-106826190D01*
X146581904Y-106826190D01*
X148105714Y-107302380D02*
X147534285Y-107302380D01*
X147820000Y-107302380D02*
X147820000Y-106302380D01*
X147724761Y-106445238D01*
X147629523Y-106540476D01*
X147534285Y-106588095D01*
G04 #@! TO.C,R5*
X124801333Y-96972380D02*
X124468000Y-96496190D01*
X124229904Y-96972380D02*
X124229904Y-95972380D01*
X124610857Y-95972380D01*
X124706095Y-96020000D01*
X124753714Y-96067619D01*
X124801333Y-96162857D01*
X124801333Y-96305714D01*
X124753714Y-96400952D01*
X124706095Y-96448571D01*
X124610857Y-96496190D01*
X124229904Y-96496190D01*
X125706095Y-95972380D02*
X125229904Y-95972380D01*
X125182285Y-96448571D01*
X125229904Y-96400952D01*
X125325142Y-96353333D01*
X125563238Y-96353333D01*
X125658476Y-96400952D01*
X125706095Y-96448571D01*
X125753714Y-96543809D01*
X125753714Y-96781904D01*
X125706095Y-96877142D01*
X125658476Y-96924761D01*
X125563238Y-96972380D01*
X125325142Y-96972380D01*
X125229904Y-96924761D01*
X125182285Y-96877142D01*
G04 #@! TO.C,R4*
X124293333Y-92400380D02*
X123960000Y-91924190D01*
X123721904Y-92400380D02*
X123721904Y-91400380D01*
X124102857Y-91400380D01*
X124198095Y-91448000D01*
X124245714Y-91495619D01*
X124293333Y-91590857D01*
X124293333Y-91733714D01*
X124245714Y-91828952D01*
X124198095Y-91876571D01*
X124102857Y-91924190D01*
X123721904Y-91924190D01*
X125150476Y-91733714D02*
X125150476Y-92400380D01*
X124912380Y-91352761D02*
X124674285Y-92067047D01*
X125293333Y-92067047D01*
G04 #@! TO.C,R3*
X124801333Y-100528380D02*
X124468000Y-100052190D01*
X124229904Y-100528380D02*
X124229904Y-99528380D01*
X124610857Y-99528380D01*
X124706095Y-99576000D01*
X124753714Y-99623619D01*
X124801333Y-99718857D01*
X124801333Y-99861714D01*
X124753714Y-99956952D01*
X124706095Y-100004571D01*
X124610857Y-100052190D01*
X124229904Y-100052190D01*
X125134666Y-99528380D02*
X125753714Y-99528380D01*
X125420380Y-99909333D01*
X125563238Y-99909333D01*
X125658476Y-99956952D01*
X125706095Y-100004571D01*
X125753714Y-100099809D01*
X125753714Y-100337904D01*
X125706095Y-100433142D01*
X125658476Y-100480761D01*
X125563238Y-100528380D01*
X125277523Y-100528380D01*
X125182285Y-100480761D01*
X125134666Y-100433142D01*
G04 #@! TO.C,J4*
X162520380Y-79581333D02*
X163234666Y-79581333D01*
X163377523Y-79628952D01*
X163472761Y-79724190D01*
X163520380Y-79867047D01*
X163520380Y-79962285D01*
X162853714Y-78676571D02*
X163520380Y-78676571D01*
X162472761Y-78914666D02*
X163187047Y-79152761D01*
X163187047Y-78533714D01*
G04 #@! TO.C,J1*
X134286666Y-111847380D02*
X134286666Y-112561666D01*
X134239047Y-112704523D01*
X134143809Y-112799761D01*
X134000952Y-112847380D01*
X133905714Y-112847380D01*
X135286666Y-112847380D02*
X134715238Y-112847380D01*
X135000952Y-112847380D02*
X135000952Y-111847380D01*
X134905714Y-111990238D01*
X134810476Y-112085476D01*
X134715238Y-112133095D01*
G04 #@! TO.C,J2*
X118411666Y-91527380D02*
X118411666Y-92241666D01*
X118364047Y-92384523D01*
X118268809Y-92479761D01*
X118125952Y-92527380D01*
X118030714Y-92527380D01*
X118840238Y-91622619D02*
X118887857Y-91575000D01*
X118983095Y-91527380D01*
X119221190Y-91527380D01*
X119316428Y-91575000D01*
X119364047Y-91622619D01*
X119411666Y-91717857D01*
X119411666Y-91813095D01*
X119364047Y-91955952D01*
X118792619Y-92527380D01*
X119411666Y-92527380D01*
G04 #@! TO.C,D2*
X126261904Y-112632380D02*
X126261904Y-111632380D01*
X126500000Y-111632380D01*
X126642857Y-111680000D01*
X126738095Y-111775238D01*
X126785714Y-111870476D01*
X126833333Y-112060952D01*
X126833333Y-112203809D01*
X126785714Y-112394285D01*
X126738095Y-112489523D01*
X126642857Y-112584761D01*
X126500000Y-112632380D01*
X126261904Y-112632380D01*
X127214285Y-111727619D02*
X127261904Y-111680000D01*
X127357142Y-111632380D01*
X127595238Y-111632380D01*
X127690476Y-111680000D01*
X127738095Y-111727619D01*
X127785714Y-111822857D01*
X127785714Y-111918095D01*
X127738095Y-112060952D01*
X127166666Y-112632380D01*
X127785714Y-112632380D01*
G04 #@! TO.C,D1*
X154201904Y-112632380D02*
X154201904Y-111632380D01*
X154440000Y-111632380D01*
X154582857Y-111680000D01*
X154678095Y-111775238D01*
X154725714Y-111870476D01*
X154773333Y-112060952D01*
X154773333Y-112203809D01*
X154725714Y-112394285D01*
X154678095Y-112489523D01*
X154582857Y-112584761D01*
X154440000Y-112632380D01*
X154201904Y-112632380D01*
X155725714Y-112632380D02*
X155154285Y-112632380D01*
X155440000Y-112632380D02*
X155440000Y-111632380D01*
X155344761Y-111775238D01*
X155249523Y-111870476D01*
X155154285Y-111918095D01*
G04 #@! TO.C,C14*
X151717142Y-67207142D02*
X151669523Y-67254761D01*
X151526666Y-67302380D01*
X151431428Y-67302380D01*
X151288571Y-67254761D01*
X151193333Y-67159523D01*
X151145714Y-67064285D01*
X151098095Y-66873809D01*
X151098095Y-66730952D01*
X151145714Y-66540476D01*
X151193333Y-66445238D01*
X151288571Y-66350000D01*
X151431428Y-66302380D01*
X151526666Y-66302380D01*
X151669523Y-66350000D01*
X151717142Y-66397619D01*
X152669523Y-67302380D02*
X152098095Y-67302380D01*
X152383809Y-67302380D02*
X152383809Y-66302380D01*
X152288571Y-66445238D01*
X152193333Y-66540476D01*
X152098095Y-66588095D01*
X153526666Y-66635714D02*
X153526666Y-67302380D01*
X153288571Y-66254761D02*
X153050476Y-66969047D01*
X153669523Y-66969047D01*
G04 #@! TO.C,C13*
X145407142Y-84812142D02*
X145359523Y-84859761D01*
X145216666Y-84907380D01*
X145121428Y-84907380D01*
X144978571Y-84859761D01*
X144883333Y-84764523D01*
X144835714Y-84669285D01*
X144788095Y-84478809D01*
X144788095Y-84335952D01*
X144835714Y-84145476D01*
X144883333Y-84050238D01*
X144978571Y-83955000D01*
X145121428Y-83907380D01*
X145216666Y-83907380D01*
X145359523Y-83955000D01*
X145407142Y-84002619D01*
X146359523Y-84907380D02*
X145788095Y-84907380D01*
X146073809Y-84907380D02*
X146073809Y-83907380D01*
X145978571Y-84050238D01*
X145883333Y-84145476D01*
X145788095Y-84193095D01*
X146692857Y-83907380D02*
X147311904Y-83907380D01*
X146978571Y-84288333D01*
X147121428Y-84288333D01*
X147216666Y-84335952D01*
X147264285Y-84383571D01*
X147311904Y-84478809D01*
X147311904Y-84716904D01*
X147264285Y-84812142D01*
X147216666Y-84859761D01*
X147121428Y-84907380D01*
X146835714Y-84907380D01*
X146740476Y-84859761D01*
X146692857Y-84812142D01*
G04 #@! TO.C,C12*
X135247142Y-85447142D02*
X135199523Y-85494761D01*
X135056666Y-85542380D01*
X134961428Y-85542380D01*
X134818571Y-85494761D01*
X134723333Y-85399523D01*
X134675714Y-85304285D01*
X134628095Y-85113809D01*
X134628095Y-84970952D01*
X134675714Y-84780476D01*
X134723333Y-84685238D01*
X134818571Y-84590000D01*
X134961428Y-84542380D01*
X135056666Y-84542380D01*
X135199523Y-84590000D01*
X135247142Y-84637619D01*
X136199523Y-85542380D02*
X135628095Y-85542380D01*
X135913809Y-85542380D02*
X135913809Y-84542380D01*
X135818571Y-84685238D01*
X135723333Y-84780476D01*
X135628095Y-84828095D01*
X136580476Y-84637619D02*
X136628095Y-84590000D01*
X136723333Y-84542380D01*
X136961428Y-84542380D01*
X137056666Y-84590000D01*
X137104285Y-84637619D01*
X137151904Y-84732857D01*
X137151904Y-84828095D01*
X137104285Y-84970952D01*
X136532857Y-85542380D01*
X137151904Y-85542380D01*
G04 #@! TO.C,C11*
X145407142Y-67667142D02*
X145359523Y-67714761D01*
X145216666Y-67762380D01*
X145121428Y-67762380D01*
X144978571Y-67714761D01*
X144883333Y-67619523D01*
X144835714Y-67524285D01*
X144788095Y-67333809D01*
X144788095Y-67190952D01*
X144835714Y-67000476D01*
X144883333Y-66905238D01*
X144978571Y-66810000D01*
X145121428Y-66762380D01*
X145216666Y-66762380D01*
X145359523Y-66810000D01*
X145407142Y-66857619D01*
X146359523Y-67762380D02*
X145788095Y-67762380D01*
X146073809Y-67762380D02*
X146073809Y-66762380D01*
X145978571Y-66905238D01*
X145883333Y-67000476D01*
X145788095Y-67048095D01*
X147311904Y-67762380D02*
X146740476Y-67762380D01*
X147026190Y-67762380D02*
X147026190Y-66762380D01*
X146930952Y-66905238D01*
X146835714Y-67000476D01*
X146740476Y-67048095D01*
G04 #@! TO.C,C10*
X125722142Y-68302142D02*
X125674523Y-68349761D01*
X125531666Y-68397380D01*
X125436428Y-68397380D01*
X125293571Y-68349761D01*
X125198333Y-68254523D01*
X125150714Y-68159285D01*
X125103095Y-67968809D01*
X125103095Y-67825952D01*
X125150714Y-67635476D01*
X125198333Y-67540238D01*
X125293571Y-67445000D01*
X125436428Y-67397380D01*
X125531666Y-67397380D01*
X125674523Y-67445000D01*
X125722142Y-67492619D01*
X126674523Y-68397380D02*
X126103095Y-68397380D01*
X126388809Y-68397380D02*
X126388809Y-67397380D01*
X126293571Y-67540238D01*
X126198333Y-67635476D01*
X126103095Y-67683095D01*
X127293571Y-67397380D02*
X127388809Y-67397380D01*
X127484047Y-67445000D01*
X127531666Y-67492619D01*
X127579285Y-67587857D01*
X127626904Y-67778333D01*
X127626904Y-68016428D01*
X127579285Y-68206904D01*
X127531666Y-68302142D01*
X127484047Y-68349761D01*
X127388809Y-68397380D01*
X127293571Y-68397380D01*
X127198333Y-68349761D01*
X127150714Y-68302142D01*
X127103095Y-68206904D01*
X127055476Y-68016428D01*
X127055476Y-67778333D01*
X127103095Y-67587857D01*
X127150714Y-67492619D01*
X127198333Y-67445000D01*
X127293571Y-67397380D01*
G04 #@! TO.C,C9*
X124293333Y-82145142D02*
X124245714Y-82192761D01*
X124102857Y-82240380D01*
X124007619Y-82240380D01*
X123864761Y-82192761D01*
X123769523Y-82097523D01*
X123721904Y-82002285D01*
X123674285Y-81811809D01*
X123674285Y-81668952D01*
X123721904Y-81478476D01*
X123769523Y-81383238D01*
X123864761Y-81288000D01*
X124007619Y-81240380D01*
X124102857Y-81240380D01*
X124245714Y-81288000D01*
X124293333Y-81335619D01*
X124769523Y-82240380D02*
X124960000Y-82240380D01*
X125055238Y-82192761D01*
X125102857Y-82145142D01*
X125198095Y-82002285D01*
X125245714Y-81811809D01*
X125245714Y-81430857D01*
X125198095Y-81335619D01*
X125150476Y-81288000D01*
X125055238Y-81240380D01*
X124864761Y-81240380D01*
X124769523Y-81288000D01*
X124721904Y-81335619D01*
X124674285Y-81430857D01*
X124674285Y-81668952D01*
X124721904Y-81764190D01*
X124769523Y-81811809D01*
X124864761Y-81859428D01*
X125055238Y-81859428D01*
X125150476Y-81811809D01*
X125198095Y-81764190D01*
X125245714Y-81668952D01*
G04 #@! TO.C,C8*
X152193333Y-88622142D02*
X152145714Y-88669761D01*
X152002857Y-88717380D01*
X151907619Y-88717380D01*
X151764761Y-88669761D01*
X151669523Y-88574523D01*
X151621904Y-88479285D01*
X151574285Y-88288809D01*
X151574285Y-88145952D01*
X151621904Y-87955476D01*
X151669523Y-87860238D01*
X151764761Y-87765000D01*
X151907619Y-87717380D01*
X152002857Y-87717380D01*
X152145714Y-87765000D01*
X152193333Y-87812619D01*
X152764761Y-88145952D02*
X152669523Y-88098333D01*
X152621904Y-88050714D01*
X152574285Y-87955476D01*
X152574285Y-87907857D01*
X152621904Y-87812619D01*
X152669523Y-87765000D01*
X152764761Y-87717380D01*
X152955238Y-87717380D01*
X153050476Y-87765000D01*
X153098095Y-87812619D01*
X153145714Y-87907857D01*
X153145714Y-87955476D01*
X153098095Y-88050714D01*
X153050476Y-88098333D01*
X152955238Y-88145952D01*
X152764761Y-88145952D01*
X152669523Y-88193571D01*
X152621904Y-88241190D01*
X152574285Y-88336428D01*
X152574285Y-88526904D01*
X152621904Y-88622142D01*
X152669523Y-88669761D01*
X152764761Y-88717380D01*
X152955238Y-88717380D01*
X153050476Y-88669761D01*
X153098095Y-88622142D01*
X153145714Y-88526904D01*
X153145714Y-88336428D01*
X153098095Y-88241190D01*
X153050476Y-88193571D01*
X152955238Y-88145952D01*
G04 #@! TO.C,C7*
X156678333Y-105132142D02*
X156630714Y-105179761D01*
X156487857Y-105227380D01*
X156392619Y-105227380D01*
X156249761Y-105179761D01*
X156154523Y-105084523D01*
X156106904Y-104989285D01*
X156059285Y-104798809D01*
X156059285Y-104655952D01*
X156106904Y-104465476D01*
X156154523Y-104370238D01*
X156249761Y-104275000D01*
X156392619Y-104227380D01*
X156487857Y-104227380D01*
X156630714Y-104275000D01*
X156678333Y-104322619D01*
X157011666Y-104227380D02*
X157678333Y-104227380D01*
X157249761Y-105227380D01*
G04 #@! TO.C,C6*
X138898333Y-103862142D02*
X138850714Y-103909761D01*
X138707857Y-103957380D01*
X138612619Y-103957380D01*
X138469761Y-103909761D01*
X138374523Y-103814523D01*
X138326904Y-103719285D01*
X138279285Y-103528809D01*
X138279285Y-103385952D01*
X138326904Y-103195476D01*
X138374523Y-103100238D01*
X138469761Y-103005000D01*
X138612619Y-102957380D01*
X138707857Y-102957380D01*
X138850714Y-103005000D01*
X138898333Y-103052619D01*
X139755476Y-102957380D02*
X139565000Y-102957380D01*
X139469761Y-103005000D01*
X139422142Y-103052619D01*
X139326904Y-103195476D01*
X139279285Y-103385952D01*
X139279285Y-103766904D01*
X139326904Y-103862142D01*
X139374523Y-103909761D01*
X139469761Y-103957380D01*
X139660238Y-103957380D01*
X139755476Y-103909761D01*
X139803095Y-103862142D01*
X139850714Y-103766904D01*
X139850714Y-103528809D01*
X139803095Y-103433571D01*
X139755476Y-103385952D01*
X139660238Y-103338333D01*
X139469761Y-103338333D01*
X139374523Y-103385952D01*
X139326904Y-103433571D01*
X139279285Y-103528809D01*
G04 #@! TO.C,C5*
X144613333Y-87987142D02*
X144565714Y-88034761D01*
X144422857Y-88082380D01*
X144327619Y-88082380D01*
X144184761Y-88034761D01*
X144089523Y-87939523D01*
X144041904Y-87844285D01*
X143994285Y-87653809D01*
X143994285Y-87510952D01*
X144041904Y-87320476D01*
X144089523Y-87225238D01*
X144184761Y-87130000D01*
X144327619Y-87082380D01*
X144422857Y-87082380D01*
X144565714Y-87130000D01*
X144613333Y-87177619D01*
X145518095Y-87082380D02*
X145041904Y-87082380D01*
X144994285Y-87558571D01*
X145041904Y-87510952D01*
X145137142Y-87463333D01*
X145375238Y-87463333D01*
X145470476Y-87510952D01*
X145518095Y-87558571D01*
X145565714Y-87653809D01*
X145565714Y-87891904D01*
X145518095Y-87987142D01*
X145470476Y-88034761D01*
X145375238Y-88082380D01*
X145137142Y-88082380D01*
X145041904Y-88034761D01*
X144994285Y-87987142D01*
G04 #@! TO.C,C2*
X126833333Y-118467142D02*
X126785714Y-118514761D01*
X126642857Y-118562380D01*
X126547619Y-118562380D01*
X126404761Y-118514761D01*
X126309523Y-118419523D01*
X126261904Y-118324285D01*
X126214285Y-118133809D01*
X126214285Y-117990952D01*
X126261904Y-117800476D01*
X126309523Y-117705238D01*
X126404761Y-117610000D01*
X126547619Y-117562380D01*
X126642857Y-117562380D01*
X126785714Y-117610000D01*
X126833333Y-117657619D01*
X127214285Y-117657619D02*
X127261904Y-117610000D01*
X127357142Y-117562380D01*
X127595238Y-117562380D01*
X127690476Y-117610000D01*
X127738095Y-117657619D01*
X127785714Y-117752857D01*
X127785714Y-117848095D01*
X127738095Y-117990952D01*
X127166666Y-118562380D01*
X127785714Y-118562380D01*
G04 #@! TO.C,C1*
X154138333Y-119102142D02*
X154090714Y-119149761D01*
X153947857Y-119197380D01*
X153852619Y-119197380D01*
X153709761Y-119149761D01*
X153614523Y-119054523D01*
X153566904Y-118959285D01*
X153519285Y-118768809D01*
X153519285Y-118625952D01*
X153566904Y-118435476D01*
X153614523Y-118340238D01*
X153709761Y-118245000D01*
X153852619Y-118197380D01*
X153947857Y-118197380D01*
X154090714Y-118245000D01*
X154138333Y-118292619D01*
X155090714Y-119197380D02*
X154519285Y-119197380D01*
X154805000Y-119197380D02*
X154805000Y-118197380D01*
X154709761Y-118340238D01*
X154614523Y-118435476D01*
X154519285Y-118483095D01*
G04 #@! TO.C,C4*
X126325333Y-88241142D02*
X126277714Y-88288761D01*
X126134857Y-88336380D01*
X126039619Y-88336380D01*
X125896761Y-88288761D01*
X125801523Y-88193523D01*
X125753904Y-88098285D01*
X125706285Y-87907809D01*
X125706285Y-87764952D01*
X125753904Y-87574476D01*
X125801523Y-87479238D01*
X125896761Y-87384000D01*
X126039619Y-87336380D01*
X126134857Y-87336380D01*
X126277714Y-87384000D01*
X126325333Y-87431619D01*
X127182476Y-87669714D02*
X127182476Y-88336380D01*
X126944380Y-87288761D02*
X126706285Y-88003047D01*
X127325333Y-88003047D01*
G04 #@! TO.C,C3*
X129413333Y-105592142D02*
X129365714Y-105639761D01*
X129222857Y-105687380D01*
X129127619Y-105687380D01*
X128984761Y-105639761D01*
X128889523Y-105544523D01*
X128841904Y-105449285D01*
X128794285Y-105258809D01*
X128794285Y-105115952D01*
X128841904Y-104925476D01*
X128889523Y-104830238D01*
X128984761Y-104735000D01*
X129127619Y-104687380D01*
X129222857Y-104687380D01*
X129365714Y-104735000D01*
X129413333Y-104782619D01*
X129746666Y-104687380D02*
X130365714Y-104687380D01*
X130032380Y-105068333D01*
X130175238Y-105068333D01*
X130270476Y-105115952D01*
X130318095Y-105163571D01*
X130365714Y-105258809D01*
X130365714Y-105496904D01*
X130318095Y-105592142D01*
X130270476Y-105639761D01*
X130175238Y-105687380D01*
X129889523Y-105687380D01*
X129794285Y-105639761D01*
X129746666Y-105592142D01*
G04 #@! TD*
M02*
