G04 #@! TF.GenerationSoftware,KiCad,Pcbnew,(5.1.6)-1*
G04 #@! TF.CreationDate,2020-09-01T14:50:53+09:00*
G04 #@! TF.ProjectId,General_8th_MFB_LPF,47656e65-7261-46c5-9f38-74685f4d4642,Ver. 1.0*
G04 #@! TF.SameCoordinates,Original*
G04 #@! TF.FileFunction,Copper,L1,Top*
G04 #@! TF.FilePolarity,Positive*
%FSLAX46Y46*%
G04 Gerber Fmt 4.6, Leading zero omitted, Abs format (unit mm)*
G04 Created by KiCad (PCBNEW (5.1.6)-1) date 2020-09-01 14:50:53*
%MOMM*%
%LPD*%
G01*
G04 APERTURE LIST*
G04 #@! TA.AperFunction,ComponentPad*
%ADD10O,1.700000X1.700000*%
G04 #@! TD*
G04 #@! TA.AperFunction,ComponentPad*
%ADD11R,1.700000X1.700000*%
G04 #@! TD*
G04 #@! TA.AperFunction,ComponentPad*
%ADD12O,1.600000X2.400000*%
G04 #@! TD*
G04 #@! TA.AperFunction,ComponentPad*
%ADD13R,1.600000X2.400000*%
G04 #@! TD*
G04 #@! TA.AperFunction,ComponentPad*
%ADD14C,1.600000*%
G04 #@! TD*
G04 #@! TA.AperFunction,ComponentPad*
%ADD15O,1.600000X1.600000*%
G04 #@! TD*
G04 #@! TA.AperFunction,ComponentPad*
%ADD16O,1.700000X1.950000*%
G04 #@! TD*
G04 #@! TA.AperFunction,ComponentPad*
%ADD17O,1.700000X2.000000*%
G04 #@! TD*
G04 #@! TA.AperFunction,ComponentPad*
%ADD18R,1.600000X1.600000*%
G04 #@! TD*
G04 #@! TA.AperFunction,ComponentPad*
%ADD19O,2.000000X1.700000*%
G04 #@! TD*
G04 #@! TA.AperFunction,ComponentPad*
%ADD20O,2.400000X1.600000*%
G04 #@! TD*
G04 #@! TA.AperFunction,ComponentPad*
%ADD21R,2.400000X1.600000*%
G04 #@! TD*
G04 #@! TA.AperFunction,ComponentPad*
%ADD22C,1.800000*%
G04 #@! TD*
G04 #@! TA.AperFunction,ComponentPad*
%ADD23R,1.800000X1.800000*%
G04 #@! TD*
G04 #@! TA.AperFunction,Conductor*
%ADD24C,0.500000*%
G04 #@! TD*
G04 #@! TA.AperFunction,Conductor*
%ADD25C,0.254000*%
G04 #@! TD*
G04 APERTURE END LIST*
D10*
G04 #@! TO.P,J7,2*
G04 #@! TO.N,GND*
X179070000Y-91440000D03*
D11*
G04 #@! TO.P,J7,1*
X176530000Y-91440000D03*
G04 #@! TD*
D12*
G04 #@! TO.P,U3,8*
G04 #@! TO.N,Net-(C15-Pad1)*
X163830000Y-97790000D03*
G04 #@! TO.P,U3,4*
G04 #@! TO.N,Net-(C15-Pad2)*
X171450000Y-105410000D03*
G04 #@! TO.P,U3,7*
G04 #@! TO.N,Net-(U3-Pad6)*
X166370000Y-97790000D03*
G04 #@! TO.P,U3,3*
G04 #@! TO.N,Net-(R15-Pad2)*
X168910000Y-105410000D03*
G04 #@! TO.P,U3,6*
G04 #@! TO.N,Net-(U3-Pad6)*
X168910000Y-97790000D03*
G04 #@! TO.P,U3,2*
G04 #@! TO.N,Net-(J6-Pad2)*
X166370000Y-105410000D03*
G04 #@! TO.P,U3,5*
G04 #@! TO.N,Net-(C15-Pad2)*
X171450000Y-97790000D03*
D13*
G04 #@! TO.P,U3,1*
G04 #@! TO.N,Net-(J6-Pad2)*
X163830000Y-105410000D03*
G04 #@! TD*
D14*
G04 #@! TO.P,C16,2*
G04 #@! TO.N,Net-(C15-Pad1)*
X160655000Y-97830000D03*
G04 #@! TO.P,C16,1*
G04 #@! TO.N,Net-(C15-Pad2)*
X160655000Y-100330000D03*
G04 #@! TD*
D15*
G04 #@! TO.P,R16,2*
G04 #@! TO.N,Net-(C15-Pad2)*
X161290000Y-109220000D03*
D14*
G04 #@! TO.P,R16,1*
G04 #@! TO.N,Net-(R15-Pad2)*
X168910000Y-109220000D03*
G04 #@! TD*
D15*
G04 #@! TO.P,R15,2*
G04 #@! TO.N,Net-(R15-Pad2)*
X171450000Y-109220000D03*
D14*
G04 #@! TO.P,R15,1*
G04 #@! TO.N,Net-(C15-Pad1)*
X179070000Y-109220000D03*
G04 #@! TD*
D16*
G04 #@! TO.P,J6,3*
G04 #@! TO.N,Net-(C15-Pad2)*
X161370000Y-115570000D03*
G04 #@! TO.P,J6,2*
G04 #@! TO.N,Net-(J6-Pad2)*
X163870000Y-115570000D03*
G04 #@! TO.P,J6,1*
G04 #@! TO.N,Net-(C15-Pad1)*
G04 #@! TA.AperFunction,ComponentPad*
G36*
G01*
X167220000Y-114845000D02*
X167220000Y-116295000D01*
G75*
G02*
X166970000Y-116545000I-250000J0D01*
G01*
X165770000Y-116545000D01*
G75*
G02*
X165520000Y-116295000I0J250000D01*
G01*
X165520000Y-114845000D01*
G75*
G02*
X165770000Y-114595000I250000J0D01*
G01*
X166970000Y-114595000D01*
G75*
G02*
X167220000Y-114845000I0J-250000D01*
G01*
G37*
G04 #@! TD.AperFunction*
G04 #@! TD*
D17*
G04 #@! TO.P,J5,2*
G04 #@! TO.N,Net-(C15-Pad2)*
X172760000Y-115570000D03*
G04 #@! TO.P,J5,1*
G04 #@! TO.N,Net-(C15-Pad1)*
G04 #@! TA.AperFunction,ComponentPad*
G36*
G01*
X176110000Y-114820000D02*
X176110000Y-116320000D01*
G75*
G02*
X175860000Y-116570000I-250000J0D01*
G01*
X174660000Y-116570000D01*
G75*
G02*
X174410000Y-116320000I0J250000D01*
G01*
X174410000Y-114820000D01*
G75*
G02*
X174660000Y-114570000I250000J0D01*
G01*
X175860000Y-114570000D01*
G75*
G02*
X176110000Y-114820000I0J-250000D01*
G01*
G37*
G04 #@! TD.AperFunction*
G04 #@! TD*
D14*
G04 #@! TO.P,C15,2*
G04 #@! TO.N,Net-(C15-Pad2)*
X177800000Y-100370000D03*
D18*
G04 #@! TO.P,C15,1*
G04 #@! TO.N,Net-(C15-Pad1)*
X177800000Y-102870000D03*
G04 #@! TD*
D19*
G04 #@! TO.P,J3,2*
G04 #@! TO.N,GND*
X161290000Y-88860000D03*
G04 #@! TO.P,J3,1*
G04 #@! TO.N,Net-(C8-Pad1)*
G04 #@! TA.AperFunction,ComponentPad*
G36*
G01*
X160540000Y-85510000D02*
X162040000Y-85510000D01*
G75*
G02*
X162290000Y-85760000I0J-250000D01*
G01*
X162290000Y-86960000D01*
G75*
G02*
X162040000Y-87210000I-250000J0D01*
G01*
X160540000Y-87210000D01*
G75*
G02*
X160290000Y-86960000I0J250000D01*
G01*
X160290000Y-85760000D01*
G75*
G02*
X160540000Y-85510000I250000J0D01*
G01*
G37*
G04 #@! TD.AperFunction*
G04 #@! TD*
D20*
G04 #@! TO.P,U2,8*
G04 #@! TO.N,VCC*
X144780000Y-72390000D03*
G04 #@! TO.P,U2,4*
G04 #@! TO.N,VEE*
X137160000Y-80010000D03*
G04 #@! TO.P,U2,7*
G04 #@! TO.N,Net-(C14-Pad1)*
X144780000Y-74930000D03*
G04 #@! TO.P,U2,3*
G04 #@! TO.N,GND*
X137160000Y-77470000D03*
G04 #@! TO.P,U2,6*
G04 #@! TO.N,Net-(C14-Pad2)*
X144780000Y-77470000D03*
G04 #@! TO.P,U2,2*
G04 #@! TO.N,Net-(C10-Pad2)*
X137160000Y-74930000D03*
G04 #@! TO.P,U2,5*
G04 #@! TO.N,GND*
X144780000Y-80010000D03*
D21*
G04 #@! TO.P,U2,1*
G04 #@! TO.N,Net-(C10-Pad1)*
X137160000Y-72390000D03*
G04 #@! TD*
D20*
G04 #@! TO.P,U1,8*
G04 #@! TO.N,VCC*
X144780000Y-92710000D03*
G04 #@! TO.P,U1,4*
G04 #@! TO.N,VEE*
X137160000Y-100330000D03*
G04 #@! TO.P,U1,7*
G04 #@! TO.N,Net-(C8-Pad1)*
X144780000Y-95250000D03*
G04 #@! TO.P,U1,3*
G04 #@! TO.N,GND*
X137160000Y-97790000D03*
G04 #@! TO.P,U1,6*
G04 #@! TO.N,Net-(C8-Pad2)*
X144780000Y-97790000D03*
G04 #@! TO.P,U1,2*
G04 #@! TO.N,Net-(C4-Pad2)*
X137160000Y-95250000D03*
G04 #@! TO.P,U1,5*
G04 #@! TO.N,GND*
X144780000Y-100330000D03*
D21*
G04 #@! TO.P,U1,1*
G04 #@! TO.N,Net-(C4-Pad1)*
X137160000Y-92710000D03*
G04 #@! TD*
D15*
G04 #@! TO.P,R14,2*
G04 #@! TO.N,Net-(C13-Pad1)*
X155575000Y-77470000D03*
D14*
G04 #@! TO.P,R14,1*
G04 #@! TO.N,Net-(C14-Pad2)*
X147955000Y-77470000D03*
G04 #@! TD*
D15*
G04 #@! TO.P,R13,2*
G04 #@! TO.N,Net-(C13-Pad1)*
X155575000Y-74295000D03*
D14*
G04 #@! TO.P,R13,1*
G04 #@! TO.N,Net-(C14-Pad1)*
X147955000Y-74295000D03*
G04 #@! TD*
D15*
G04 #@! TO.P,R12,2*
G04 #@! TO.N,Net-(C10-Pad1)*
X147955000Y-80645000D03*
D14*
G04 #@! TO.P,R12,1*
G04 #@! TO.N,Net-(C13-Pad1)*
X155575000Y-80645000D03*
G04 #@! TD*
D15*
G04 #@! TO.P,R11,2*
G04 #@! TO.N,Net-(C9-Pad1)*
X126365000Y-74930000D03*
D14*
G04 #@! TO.P,R11,1*
G04 #@! TO.N,Net-(C10-Pad2)*
X133985000Y-74930000D03*
G04 #@! TD*
D15*
G04 #@! TO.P,R10,2*
G04 #@! TO.N,Net-(C9-Pad1)*
X126365000Y-71755000D03*
D14*
G04 #@! TO.P,R10,1*
G04 #@! TO.N,Net-(C10-Pad1)*
X133985000Y-71755000D03*
G04 #@! TD*
D15*
G04 #@! TO.P,R9,2*
G04 #@! TO.N,Net-(C8-Pad1)*
X126365000Y-78105000D03*
D14*
G04 #@! TO.P,R9,1*
G04 #@! TO.N,Net-(C9-Pad1)*
X133985000Y-78105000D03*
G04 #@! TD*
D15*
G04 #@! TO.P,R8,2*
G04 #@! TO.N,Net-(C7-Pad1)*
X155575000Y-97790000D03*
D14*
G04 #@! TO.P,R8,1*
G04 #@! TO.N,Net-(C8-Pad2)*
X147955000Y-97790000D03*
G04 #@! TD*
D15*
G04 #@! TO.P,R7,2*
G04 #@! TO.N,Net-(C7-Pad1)*
X155575000Y-94615000D03*
D14*
G04 #@! TO.P,R7,1*
G04 #@! TO.N,Net-(C8-Pad1)*
X147955000Y-94615000D03*
G04 #@! TD*
D15*
G04 #@! TO.P,R6,2*
G04 #@! TO.N,Net-(C4-Pad1)*
X147955000Y-100965000D03*
D14*
G04 #@! TO.P,R6,1*
G04 #@! TO.N,Net-(C7-Pad1)*
X155575000Y-100965000D03*
G04 #@! TD*
D15*
G04 #@! TO.P,R2,2*
G04 #@! TO.N,VEE*
X138430000Y-109220000D03*
D14*
G04 #@! TO.P,R2,1*
G04 #@! TO.N,Net-(D2-Pad1)*
X130810000Y-109220000D03*
G04 #@! TD*
D15*
G04 #@! TO.P,R1,2*
G04 #@! TO.N,Net-(D1-Pad2)*
X151130000Y-109220000D03*
D14*
G04 #@! TO.P,R1,1*
G04 #@! TO.N,VCC*
X143510000Y-109220000D03*
G04 #@! TD*
D15*
G04 #@! TO.P,R5,2*
G04 #@! TO.N,Net-(C3-Pad1)*
X126365000Y-95250000D03*
D14*
G04 #@! TO.P,R5,1*
G04 #@! TO.N,Net-(C4-Pad2)*
X133985000Y-95250000D03*
G04 #@! TD*
D15*
G04 #@! TO.P,R4,2*
G04 #@! TO.N,Net-(C3-Pad1)*
X126365000Y-92075000D03*
D14*
G04 #@! TO.P,R4,1*
G04 #@! TO.N,Net-(C4-Pad1)*
X133985000Y-92075000D03*
G04 #@! TD*
D15*
G04 #@! TO.P,R3,2*
G04 #@! TO.N,Net-(J2-Pad1)*
X126365000Y-98425000D03*
D14*
G04 #@! TO.P,R3,1*
G04 #@! TO.N,Net-(C3-Pad1)*
X133985000Y-98425000D03*
G04 #@! TD*
D19*
G04 #@! TO.P,J4,2*
G04 #@! TO.N,GND*
X161290000Y-74890000D03*
G04 #@! TO.P,J4,1*
G04 #@! TO.N,Net-(C14-Pad1)*
G04 #@! TA.AperFunction,ComponentPad*
G36*
G01*
X160540000Y-71540000D02*
X162040000Y-71540000D01*
G75*
G02*
X162290000Y-71790000I0J-250000D01*
G01*
X162290000Y-72990000D01*
G75*
G02*
X162040000Y-73240000I-250000J0D01*
G01*
X160540000Y-73240000D01*
G75*
G02*
X160290000Y-72990000I0J250000D01*
G01*
X160290000Y-71790000D01*
G75*
G02*
X160540000Y-71540000I250000J0D01*
G01*
G37*
G04 #@! TD.AperFunction*
G04 #@! TD*
D16*
G04 #@! TO.P,J1,3*
G04 #@! TO.N,VEE*
X138510000Y-115570000D03*
G04 #@! TO.P,J1,2*
G04 #@! TO.N,GND*
X141010000Y-115570000D03*
G04 #@! TO.P,J1,1*
G04 #@! TO.N,VCC*
G04 #@! TA.AperFunction,ComponentPad*
G36*
G01*
X144360000Y-114845000D02*
X144360000Y-116295000D01*
G75*
G02*
X144110000Y-116545000I-250000J0D01*
G01*
X142910000Y-116545000D01*
G75*
G02*
X142660000Y-116295000I0J250000D01*
G01*
X142660000Y-114845000D01*
G75*
G02*
X142910000Y-114595000I250000J0D01*
G01*
X144110000Y-114595000D01*
G75*
G02*
X144360000Y-114845000I0J-250000D01*
G01*
G37*
G04 #@! TD.AperFunction*
G04 #@! TD*
D19*
G04 #@! TO.P,J2,2*
G04 #@! TO.N,GND*
X120650000Y-95925000D03*
G04 #@! TO.P,J2,1*
G04 #@! TO.N,Net-(J2-Pad1)*
G04 #@! TA.AperFunction,ComponentPad*
G36*
G01*
X121400000Y-99275000D02*
X119900000Y-99275000D01*
G75*
G02*
X119650000Y-99025000I0J250000D01*
G01*
X119650000Y-97825000D01*
G75*
G02*
X119900000Y-97575000I250000J0D01*
G01*
X121400000Y-97575000D01*
G75*
G02*
X121650000Y-97825000I0J-250000D01*
G01*
X121650000Y-99025000D01*
G75*
G02*
X121400000Y-99275000I-250000J0D01*
G01*
G37*
G04 #@! TD.AperFunction*
G04 #@! TD*
D22*
G04 #@! TO.P,D2,2*
G04 #@! TO.N,GND*
X125730000Y-109220000D03*
D23*
G04 #@! TO.P,D2,1*
G04 #@! TO.N,Net-(D2-Pad1)*
X128270000Y-109220000D03*
G04 #@! TD*
D22*
G04 #@! TO.P,D1,2*
G04 #@! TO.N,Net-(D1-Pad2)*
X153670000Y-109220000D03*
D23*
G04 #@! TO.P,D1,1*
G04 #@! TO.N,GND*
X156210000Y-109220000D03*
G04 #@! TD*
D14*
G04 #@! TO.P,C14,2*
G04 #@! TO.N,Net-(C14-Pad2)*
X154860000Y-69850000D03*
G04 #@! TO.P,C14,1*
G04 #@! TO.N,Net-(C14-Pad1)*
X149860000Y-69850000D03*
G04 #@! TO.P,C14,2*
G04 #@! TO.N,Net-(C14-Pad2)*
X153610000Y-69850000D03*
G04 #@! TO.P,C14,1*
G04 #@! TO.N,Net-(C14-Pad1)*
X151110000Y-69850000D03*
G04 #@! TD*
G04 #@! TO.P,C13,2*
G04 #@! TO.N,GND*
X148670000Y-84455000D03*
G04 #@! TO.P,C13,1*
G04 #@! TO.N,Net-(C13-Pad1)*
X153670000Y-84455000D03*
G04 #@! TO.P,C13,2*
G04 #@! TO.N,GND*
X149920000Y-84455000D03*
G04 #@! TO.P,C13,1*
G04 #@! TO.N,Net-(C13-Pad1)*
X152420000Y-84455000D03*
G04 #@! TD*
G04 #@! TO.P,C12,2*
G04 #@! TO.N,VEE*
X137120000Y-83185000D03*
G04 #@! TO.P,C12,1*
G04 #@! TO.N,GND*
X134620000Y-83185000D03*
G04 #@! TD*
G04 #@! TO.P,C11,2*
G04 #@! TO.N,VCC*
X144820000Y-69215000D03*
G04 #@! TO.P,C11,1*
G04 #@! TO.N,GND*
X147320000Y-69215000D03*
G04 #@! TD*
G04 #@! TO.P,C10,2*
G04 #@! TO.N,Net-(C10-Pad2)*
X128985000Y-67945000D03*
G04 #@! TO.P,C10,1*
G04 #@! TO.N,Net-(C10-Pad1)*
X133985000Y-67945000D03*
G04 #@! TO.P,C10,2*
G04 #@! TO.N,Net-(C10-Pad2)*
X130235000Y-67945000D03*
G04 #@! TO.P,C10,1*
G04 #@! TO.N,Net-(C10-Pad1)*
X132735000Y-67945000D03*
G04 #@! TD*
G04 #@! TO.P,C9,2*
G04 #@! TO.N,GND*
X127080000Y-81915000D03*
G04 #@! TO.P,C9,1*
G04 #@! TO.N,Net-(C9-Pad1)*
X132080000Y-81915000D03*
G04 #@! TO.P,C9,2*
G04 #@! TO.N,GND*
X128330000Y-81915000D03*
G04 #@! TO.P,C9,1*
G04 #@! TO.N,Net-(C9-Pad1)*
X130830000Y-81915000D03*
G04 #@! TD*
G04 #@! TO.P,C8,2*
G04 #@! TO.N,Net-(C8-Pad2)*
X154860000Y-90805000D03*
G04 #@! TO.P,C8,1*
G04 #@! TO.N,Net-(C8-Pad1)*
X149860000Y-90805000D03*
G04 #@! TO.P,C8,2*
G04 #@! TO.N,Net-(C8-Pad2)*
X153610000Y-90805000D03*
G04 #@! TO.P,C8,1*
G04 #@! TO.N,Net-(C8-Pad1)*
X151110000Y-90805000D03*
G04 #@! TD*
G04 #@! TO.P,C7,2*
G04 #@! TO.N,GND*
X149305000Y-104775000D03*
G04 #@! TO.P,C7,1*
G04 #@! TO.N,Net-(C7-Pad1)*
X154305000Y-104775000D03*
G04 #@! TO.P,C7,2*
G04 #@! TO.N,GND*
X150555000Y-104775000D03*
G04 #@! TO.P,C7,1*
G04 #@! TO.N,Net-(C7-Pad1)*
X153055000Y-104775000D03*
G04 #@! TD*
G04 #@! TO.P,C6,2*
G04 #@! TO.N,VEE*
X137120000Y-103505000D03*
G04 #@! TO.P,C6,1*
G04 #@! TO.N,GND*
X134620000Y-103505000D03*
G04 #@! TD*
G04 #@! TO.P,C5,2*
G04 #@! TO.N,VCC*
X144820000Y-89535000D03*
G04 #@! TO.P,C5,1*
G04 #@! TO.N,GND*
X147320000Y-89535000D03*
G04 #@! TD*
G04 #@! TO.P,C2,2*
G04 #@! TO.N,VEE*
X132040000Y-115570000D03*
D18*
G04 #@! TO.P,C2,1*
G04 #@! TO.N,GND*
X129540000Y-115570000D03*
G04 #@! TD*
D14*
G04 #@! TO.P,C1,2*
G04 #@! TO.N,GND*
X152360000Y-115570000D03*
D18*
G04 #@! TO.P,C1,1*
G04 #@! TO.N,VCC*
X149860000Y-115570000D03*
G04 #@! TD*
D14*
G04 #@! TO.P,C4,2*
G04 #@! TO.N,Net-(C4-Pad2)*
X128985000Y-88265000D03*
G04 #@! TO.P,C4,1*
G04 #@! TO.N,Net-(C4-Pad1)*
X133985000Y-88265000D03*
G04 #@! TO.P,C4,2*
G04 #@! TO.N,Net-(C4-Pad2)*
X130235000Y-88265000D03*
G04 #@! TO.P,C4,1*
G04 #@! TO.N,Net-(C4-Pad1)*
X132735000Y-88265000D03*
G04 #@! TD*
G04 #@! TO.P,C3,2*
G04 #@! TO.N,GND*
X127080000Y-102235000D03*
G04 #@! TO.P,C3,1*
G04 #@! TO.N,Net-(C3-Pad1)*
X132080000Y-102235000D03*
G04 #@! TO.P,C3,2*
G04 #@! TO.N,GND*
X128330000Y-102235000D03*
G04 #@! TO.P,C3,1*
G04 #@! TO.N,Net-(C3-Pad1)*
X130830000Y-102235000D03*
G04 #@! TD*
D24*
G04 #@! TO.N,Net-(C7-Pad1)*
X155575000Y-94615000D02*
X155575000Y-97790000D01*
X155575000Y-97790000D02*
X155575000Y-100965000D01*
X155575000Y-100965000D02*
X154305000Y-102235000D01*
X154305000Y-102235000D02*
X154305000Y-104775000D01*
X154305000Y-104775000D02*
X153055000Y-104775000D01*
G04 #@! TO.N,Net-(C8-Pad2)*
X144780000Y-97790000D02*
X147955000Y-97790000D01*
X147955000Y-97790000D02*
X153670000Y-92075000D01*
X153670000Y-90865000D02*
X153610000Y-90805000D01*
X153670000Y-92075000D02*
X153670000Y-90865000D01*
X153610000Y-90805000D02*
X154860000Y-90805000D01*
G04 #@! TO.N,Net-(C8-Pad1)*
X144780000Y-95250000D02*
X147320000Y-95250000D01*
X147320000Y-95250000D02*
X147955000Y-94615000D01*
X147955000Y-92710000D02*
X149860000Y-90805000D01*
X147955000Y-94615000D02*
X147955000Y-92710000D01*
X149860000Y-90805000D02*
X151110000Y-90805000D01*
X125565001Y-78904999D02*
X126365000Y-78105000D01*
X125565001Y-82250003D02*
X125565001Y-78904999D01*
X129674998Y-86360000D02*
X125565001Y-82250003D01*
X149860000Y-89673630D02*
X146546370Y-86360000D01*
X149860000Y-90805000D02*
X149860000Y-89673630D01*
X146546370Y-86360000D02*
X129540000Y-86360000D01*
X153173630Y-86360000D02*
X149860000Y-89673630D01*
X161290000Y-86360000D02*
X153173630Y-86360000D01*
G04 #@! TO.N,Net-(C9-Pad1)*
X129540000Y-78105000D02*
X126365000Y-74930000D01*
X133985000Y-78105000D02*
X129540000Y-78105000D01*
X126365000Y-74930000D02*
X126365000Y-71755000D01*
X132080000Y-81915000D02*
X130830000Y-81915000D01*
X132080000Y-81915000D02*
X133985000Y-80010000D01*
X133985000Y-80010000D02*
X133985000Y-78105000D01*
G04 #@! TO.N,Net-(C10-Pad2)*
X133985000Y-74930000D02*
X137160000Y-74930000D01*
X128985000Y-67945000D02*
X130235000Y-67945000D01*
X130235000Y-71180000D02*
X133985000Y-74930000D01*
X130235000Y-67945000D02*
X130235000Y-71180000D01*
G04 #@! TO.N,Net-(C10-Pad1)*
X136525000Y-71755000D02*
X137160000Y-72390000D01*
X133985000Y-71755000D02*
X136525000Y-71755000D01*
X146069990Y-78759990D02*
X147955000Y-80645000D01*
X143529990Y-78759990D02*
X146069990Y-78759990D01*
X137160000Y-72390000D02*
X143529990Y-78759990D01*
X132735000Y-67945000D02*
X133985000Y-67945000D01*
X133985000Y-71755000D02*
X133985000Y-67945000D01*
G04 #@! TO.N,Net-(C13-Pad1)*
X155575000Y-74295000D02*
X155575000Y-77470000D01*
X155575000Y-80645000D02*
X155575000Y-77470000D01*
X152420000Y-84455000D02*
X153670000Y-84455000D01*
X153670000Y-82550000D02*
X155575000Y-80645000D01*
X153670000Y-84455000D02*
X153670000Y-82550000D01*
G04 #@! TO.N,Net-(C14-Pad2)*
X144780000Y-77470000D02*
X147955000Y-77470000D01*
X153610000Y-71815000D02*
X153610000Y-69850000D01*
X147955000Y-77470000D02*
X153610000Y-71815000D01*
X153610000Y-69850000D02*
X154860000Y-69850000D01*
G04 #@! TO.N,Net-(C14-Pad1)*
X147320000Y-74930000D02*
X147955000Y-74295000D01*
X144780000Y-74930000D02*
X147320000Y-74930000D01*
X147955000Y-71755000D02*
X149860000Y-69850000D01*
X147955000Y-74295000D02*
X147955000Y-71755000D01*
X152360001Y-68599999D02*
X151110000Y-69850000D01*
X157499999Y-68599999D02*
X152360001Y-68599999D01*
X161290000Y-72390000D02*
X157499999Y-68599999D01*
X151110000Y-69850000D02*
X149860000Y-69850000D01*
G04 #@! TO.N,Net-(C3-Pad1)*
X126365000Y-92075000D02*
X126365000Y-95250000D01*
X126365000Y-95250000D02*
X129540000Y-98425000D01*
X129540000Y-98425000D02*
X133985000Y-98425000D01*
X130830000Y-102235000D02*
X132080000Y-102235000D01*
X132080000Y-102235000D02*
X133985000Y-100330000D01*
X133985000Y-100330000D02*
X133985000Y-98425000D01*
G04 #@! TO.N,Net-(C4-Pad2)*
X137160000Y-95250000D02*
X133985000Y-95250000D01*
X128350000Y-88265000D02*
X129600000Y-88265000D01*
X130235000Y-91500000D02*
X130235000Y-88265000D01*
X133985000Y-95250000D02*
X130235000Y-91500000D01*
G04 #@! TO.N,Net-(C4-Pad1)*
X146069990Y-99079990D02*
X147955000Y-100965000D01*
X137160000Y-92710000D02*
X143529990Y-99079990D01*
X143529990Y-99079990D02*
X146069990Y-99079990D01*
X132100000Y-88265000D02*
X133350000Y-88265000D01*
X132735000Y-88265000D02*
X133985000Y-88265000D01*
X133985000Y-88265000D02*
X133985000Y-92075000D01*
X136525000Y-92075000D02*
X137160000Y-92710000D01*
X133985000Y-92075000D02*
X136525000Y-92075000D01*
G04 #@! TO.N,Net-(J2-Pad1)*
X120650000Y-98425000D02*
X126365000Y-98425000D01*
G04 #@! TO.N,Net-(J6-Pad2)*
X163830000Y-105410000D02*
X166370000Y-105410000D01*
G04 #@! TD*
D25*
G04 #@! TO.N,GND*
G36*
X179629369Y-66251331D02*
G01*
X179460890Y-66658075D01*
X179375000Y-67089872D01*
X179375000Y-67530128D01*
X179460890Y-67961925D01*
X179629369Y-68368669D01*
X179873962Y-68734729D01*
X180185271Y-69046038D01*
X180551331Y-69290631D01*
X180958075Y-69459110D01*
X181389872Y-69545000D01*
X181830128Y-69545000D01*
X182261925Y-69459110D01*
X182668669Y-69290631D01*
X182753000Y-69234283D01*
X182753000Y-116185717D01*
X182668669Y-116129369D01*
X182261925Y-115960890D01*
X181830128Y-115875000D01*
X181389872Y-115875000D01*
X180958075Y-115960890D01*
X180551331Y-116129369D01*
X180185271Y-116373962D01*
X179873962Y-116685271D01*
X179629369Y-117051331D01*
X179460890Y-117458075D01*
X179375000Y-117889872D01*
X179375000Y-118330128D01*
X179460890Y-118761925D01*
X179629369Y-119168669D01*
X179685717Y-119253000D01*
X121304283Y-119253000D01*
X121360631Y-119168669D01*
X121529110Y-118761925D01*
X121615000Y-118330128D01*
X121615000Y-117889872D01*
X121529110Y-117458075D01*
X121360631Y-117051331D01*
X121116038Y-116685271D01*
X120804729Y-116373962D01*
X120798800Y-116370000D01*
X128101928Y-116370000D01*
X128114188Y-116494482D01*
X128150498Y-116614180D01*
X128209463Y-116724494D01*
X128288815Y-116821185D01*
X128385506Y-116900537D01*
X128495820Y-116959502D01*
X128615518Y-116995812D01*
X128740000Y-117008072D01*
X129254250Y-117005000D01*
X129413000Y-116846250D01*
X129413000Y-115697000D01*
X128263750Y-115697000D01*
X128105000Y-115855750D01*
X128101928Y-116370000D01*
X120798800Y-116370000D01*
X120438669Y-116129369D01*
X120031925Y-115960890D01*
X119600128Y-115875000D01*
X119159872Y-115875000D01*
X118728075Y-115960890D01*
X118321331Y-116129369D01*
X118237000Y-116185717D01*
X118237000Y-114770000D01*
X128101928Y-114770000D01*
X128105000Y-115284250D01*
X128263750Y-115443000D01*
X129413000Y-115443000D01*
X129413000Y-114293750D01*
X129667000Y-114293750D01*
X129667000Y-115443000D01*
X129687000Y-115443000D01*
X129687000Y-115697000D01*
X129667000Y-115697000D01*
X129667000Y-116846250D01*
X129825750Y-117005000D01*
X130340000Y-117008072D01*
X130464482Y-116995812D01*
X130584180Y-116959502D01*
X130694494Y-116900537D01*
X130791185Y-116821185D01*
X130870537Y-116724494D01*
X130929502Y-116614180D01*
X130958661Y-116518057D01*
X131125241Y-116684637D01*
X131360273Y-116841680D01*
X131621426Y-116949853D01*
X131898665Y-117005000D01*
X132181335Y-117005000D01*
X132458574Y-116949853D01*
X132719727Y-116841680D01*
X132954759Y-116684637D01*
X133154637Y-116484759D01*
X133311680Y-116249727D01*
X133419853Y-115988574D01*
X133475000Y-115711335D01*
X133475000Y-115428665D01*
X133463739Y-115372050D01*
X137025000Y-115372050D01*
X137025000Y-115767949D01*
X137046487Y-115986110D01*
X137131401Y-116266033D01*
X137269294Y-116524013D01*
X137454866Y-116750134D01*
X137680986Y-116935706D01*
X137938966Y-117073599D01*
X138218889Y-117158513D01*
X138510000Y-117187185D01*
X138801110Y-117158513D01*
X139081033Y-117073599D01*
X139339013Y-116935706D01*
X139565134Y-116750134D01*
X139750706Y-116524014D01*
X139764462Y-116498278D01*
X139920951Y-116704429D01*
X140138807Y-116897496D01*
X140390142Y-117044352D01*
X140653110Y-117136476D01*
X140883000Y-117015155D01*
X140883000Y-115697000D01*
X140863000Y-115697000D01*
X140863000Y-115443000D01*
X140883000Y-115443000D01*
X140883000Y-114124845D01*
X141137000Y-114124845D01*
X141137000Y-115443000D01*
X141157000Y-115443000D01*
X141157000Y-115697000D01*
X141137000Y-115697000D01*
X141137000Y-117015155D01*
X141366890Y-117136476D01*
X141629858Y-117044352D01*
X141881193Y-116897496D01*
X142099049Y-116704429D01*
X142115286Y-116683039D01*
X142171595Y-116788386D01*
X142282038Y-116922962D01*
X142416614Y-117033405D01*
X142570150Y-117115472D01*
X142736746Y-117166008D01*
X142910000Y-117183072D01*
X144110000Y-117183072D01*
X144283254Y-117166008D01*
X144449850Y-117115472D01*
X144603386Y-117033405D01*
X144737962Y-116922962D01*
X144848405Y-116788386D01*
X144930472Y-116634850D01*
X144981008Y-116468254D01*
X144998072Y-116295000D01*
X144998072Y-114845000D01*
X144990686Y-114770000D01*
X148421928Y-114770000D01*
X148421928Y-116370000D01*
X148434188Y-116494482D01*
X148470498Y-116614180D01*
X148529463Y-116724494D01*
X148608815Y-116821185D01*
X148705506Y-116900537D01*
X148815820Y-116959502D01*
X148935518Y-116995812D01*
X149060000Y-117008072D01*
X150660000Y-117008072D01*
X150784482Y-116995812D01*
X150904180Y-116959502D01*
X151014494Y-116900537D01*
X151111185Y-116821185D01*
X151190537Y-116724494D01*
X151249502Y-116614180D01*
X151265117Y-116562702D01*
X151546903Y-116562702D01*
X151618486Y-116806671D01*
X151873996Y-116927571D01*
X152148184Y-116996300D01*
X152430512Y-117010217D01*
X152710130Y-116968787D01*
X152976292Y-116873603D01*
X153101514Y-116806671D01*
X153173097Y-116562702D01*
X152360000Y-115749605D01*
X151546903Y-116562702D01*
X151265117Y-116562702D01*
X151285812Y-116494482D01*
X151298072Y-116370000D01*
X151298072Y-116362785D01*
X151367298Y-116383097D01*
X152180395Y-115570000D01*
X152539605Y-115570000D01*
X153352702Y-116383097D01*
X153596671Y-116311514D01*
X153717571Y-116056004D01*
X153786300Y-115781816D01*
X153800217Y-115499488D01*
X153781335Y-115372050D01*
X159885000Y-115372050D01*
X159885000Y-115767949D01*
X159906487Y-115986110D01*
X159991401Y-116266033D01*
X160129294Y-116524013D01*
X160314866Y-116750134D01*
X160540986Y-116935706D01*
X160798966Y-117073599D01*
X161078889Y-117158513D01*
X161370000Y-117187185D01*
X161661110Y-117158513D01*
X161941033Y-117073599D01*
X162199013Y-116935706D01*
X162425134Y-116750134D01*
X162610706Y-116524014D01*
X162620000Y-116506626D01*
X162629294Y-116524013D01*
X162814866Y-116750134D01*
X163040986Y-116935706D01*
X163298966Y-117073599D01*
X163578889Y-117158513D01*
X163870000Y-117187185D01*
X164161110Y-117158513D01*
X164441033Y-117073599D01*
X164699013Y-116935706D01*
X164925134Y-116750134D01*
X164977223Y-116686663D01*
X165031595Y-116788386D01*
X165142038Y-116922962D01*
X165276614Y-117033405D01*
X165430150Y-117115472D01*
X165596746Y-117166008D01*
X165770000Y-117183072D01*
X166970000Y-117183072D01*
X167143254Y-117166008D01*
X167309850Y-117115472D01*
X167463386Y-117033405D01*
X167597962Y-116922962D01*
X167708405Y-116788386D01*
X167790472Y-116634850D01*
X167841008Y-116468254D01*
X167858072Y-116295000D01*
X167858072Y-115347050D01*
X171275000Y-115347050D01*
X171275000Y-115792949D01*
X171296487Y-116011110D01*
X171381401Y-116291033D01*
X171519294Y-116549013D01*
X171704866Y-116775134D01*
X171930986Y-116960706D01*
X172188966Y-117098599D01*
X172468889Y-117183513D01*
X172760000Y-117212185D01*
X173051110Y-117183513D01*
X173331033Y-117098599D01*
X173589013Y-116960706D01*
X173815134Y-116775134D01*
X173867223Y-116711663D01*
X173921595Y-116813386D01*
X174032038Y-116947962D01*
X174166614Y-117058405D01*
X174320150Y-117140472D01*
X174486746Y-117191008D01*
X174660000Y-117208072D01*
X175860000Y-117208072D01*
X176033254Y-117191008D01*
X176199850Y-117140472D01*
X176353386Y-117058405D01*
X176487962Y-116947962D01*
X176598405Y-116813386D01*
X176680472Y-116659850D01*
X176731008Y-116493254D01*
X176748072Y-116320000D01*
X176748072Y-114820000D01*
X176731008Y-114646746D01*
X176680472Y-114480150D01*
X176598405Y-114326614D01*
X176487962Y-114192038D01*
X176353386Y-114081595D01*
X176199850Y-113999528D01*
X176033254Y-113948992D01*
X175860000Y-113931928D01*
X174660000Y-113931928D01*
X174486746Y-113948992D01*
X174320150Y-113999528D01*
X174166614Y-114081595D01*
X174032038Y-114192038D01*
X173921595Y-114326614D01*
X173867223Y-114428337D01*
X173815134Y-114364866D01*
X173589014Y-114179294D01*
X173331034Y-114041401D01*
X173051111Y-113956487D01*
X172760000Y-113927815D01*
X172468890Y-113956487D01*
X172188967Y-114041401D01*
X171930987Y-114179294D01*
X171704866Y-114364866D01*
X171519294Y-114590986D01*
X171381401Y-114848966D01*
X171296487Y-115128889D01*
X171275000Y-115347050D01*
X167858072Y-115347050D01*
X167858072Y-114845000D01*
X167841008Y-114671746D01*
X167790472Y-114505150D01*
X167708405Y-114351614D01*
X167597962Y-114217038D01*
X167463386Y-114106595D01*
X167309850Y-114024528D01*
X167143254Y-113973992D01*
X166970000Y-113956928D01*
X165770000Y-113956928D01*
X165596746Y-113973992D01*
X165430150Y-114024528D01*
X165276614Y-114106595D01*
X165142038Y-114217038D01*
X165031595Y-114351614D01*
X164977223Y-114453337D01*
X164925134Y-114389866D01*
X164699014Y-114204294D01*
X164441034Y-114066401D01*
X164161111Y-113981487D01*
X163870000Y-113952815D01*
X163578890Y-113981487D01*
X163298967Y-114066401D01*
X163040987Y-114204294D01*
X162814866Y-114389866D01*
X162629294Y-114615986D01*
X162620000Y-114633374D01*
X162610706Y-114615986D01*
X162425134Y-114389866D01*
X162199014Y-114204294D01*
X161941034Y-114066401D01*
X161661111Y-113981487D01*
X161370000Y-113952815D01*
X161078890Y-113981487D01*
X160798967Y-114066401D01*
X160540987Y-114204294D01*
X160314866Y-114389866D01*
X160129294Y-114615986D01*
X159991401Y-114873966D01*
X159906487Y-115153889D01*
X159885000Y-115372050D01*
X153781335Y-115372050D01*
X153758787Y-115219870D01*
X153663603Y-114953708D01*
X153596671Y-114828486D01*
X153352702Y-114756903D01*
X152539605Y-115570000D01*
X152180395Y-115570000D01*
X151367298Y-114756903D01*
X151298072Y-114777215D01*
X151298072Y-114770000D01*
X151285812Y-114645518D01*
X151265118Y-114577298D01*
X151546903Y-114577298D01*
X152360000Y-115390395D01*
X153173097Y-114577298D01*
X153101514Y-114333329D01*
X152846004Y-114212429D01*
X152571816Y-114143700D01*
X152289488Y-114129783D01*
X152009870Y-114171213D01*
X151743708Y-114266397D01*
X151618486Y-114333329D01*
X151546903Y-114577298D01*
X151265118Y-114577298D01*
X151249502Y-114525820D01*
X151190537Y-114415506D01*
X151111185Y-114318815D01*
X151014494Y-114239463D01*
X150904180Y-114180498D01*
X150784482Y-114144188D01*
X150660000Y-114131928D01*
X149060000Y-114131928D01*
X148935518Y-114144188D01*
X148815820Y-114180498D01*
X148705506Y-114239463D01*
X148608815Y-114318815D01*
X148529463Y-114415506D01*
X148470498Y-114525820D01*
X148434188Y-114645518D01*
X148421928Y-114770000D01*
X144990686Y-114770000D01*
X144981008Y-114671746D01*
X144930472Y-114505150D01*
X144848405Y-114351614D01*
X144737962Y-114217038D01*
X144603386Y-114106595D01*
X144449850Y-114024528D01*
X144283254Y-113973992D01*
X144110000Y-113956928D01*
X142910000Y-113956928D01*
X142736746Y-113973992D01*
X142570150Y-114024528D01*
X142416614Y-114106595D01*
X142282038Y-114217038D01*
X142171595Y-114351614D01*
X142115286Y-114456961D01*
X142099049Y-114435571D01*
X141881193Y-114242504D01*
X141629858Y-114095648D01*
X141366890Y-114003524D01*
X141137000Y-114124845D01*
X140883000Y-114124845D01*
X140653110Y-114003524D01*
X140390142Y-114095648D01*
X140138807Y-114242504D01*
X139920951Y-114435571D01*
X139764462Y-114641722D01*
X139750706Y-114615986D01*
X139565134Y-114389866D01*
X139339014Y-114204294D01*
X139081034Y-114066401D01*
X138801111Y-113981487D01*
X138510000Y-113952815D01*
X138218890Y-113981487D01*
X137938967Y-114066401D01*
X137680987Y-114204294D01*
X137454866Y-114389866D01*
X137269294Y-114615986D01*
X137131401Y-114873966D01*
X137046487Y-115153889D01*
X137025000Y-115372050D01*
X133463739Y-115372050D01*
X133419853Y-115151426D01*
X133311680Y-114890273D01*
X133154637Y-114655241D01*
X132954759Y-114455363D01*
X132719727Y-114298320D01*
X132458574Y-114190147D01*
X132181335Y-114135000D01*
X131898665Y-114135000D01*
X131621426Y-114190147D01*
X131360273Y-114298320D01*
X131125241Y-114455363D01*
X130958661Y-114621943D01*
X130929502Y-114525820D01*
X130870537Y-114415506D01*
X130791185Y-114318815D01*
X130694494Y-114239463D01*
X130584180Y-114180498D01*
X130464482Y-114144188D01*
X130340000Y-114131928D01*
X129825750Y-114135000D01*
X129667000Y-114293750D01*
X129413000Y-114293750D01*
X129254250Y-114135000D01*
X128740000Y-114131928D01*
X128615518Y-114144188D01*
X128495820Y-114180498D01*
X128385506Y-114239463D01*
X128288815Y-114318815D01*
X128209463Y-114415506D01*
X128150498Y-114525820D01*
X128114188Y-114645518D01*
X128101928Y-114770000D01*
X118237000Y-114770000D01*
X118237000Y-109286553D01*
X124189009Y-109286553D01*
X124231603Y-109585907D01*
X124331778Y-109871199D01*
X124411739Y-110020792D01*
X124665920Y-110104475D01*
X125550395Y-109220000D01*
X124665920Y-108335525D01*
X124411739Y-108419208D01*
X124280842Y-108691775D01*
X124205635Y-108984642D01*
X124189009Y-109286553D01*
X118237000Y-109286553D01*
X118237000Y-108155920D01*
X124845525Y-108155920D01*
X125730000Y-109040395D01*
X125744143Y-109026253D01*
X125923748Y-109205858D01*
X125909605Y-109220000D01*
X125923748Y-109234143D01*
X125744143Y-109413748D01*
X125730000Y-109399605D01*
X124845525Y-110284080D01*
X124929208Y-110538261D01*
X125201775Y-110669158D01*
X125494642Y-110744365D01*
X125796553Y-110760991D01*
X126095907Y-110718397D01*
X126381199Y-110618222D01*
X126530792Y-110538261D01*
X126614474Y-110284082D01*
X126730422Y-110400030D01*
X126777187Y-110353265D01*
X126780498Y-110364180D01*
X126839463Y-110474494D01*
X126918815Y-110571185D01*
X127015506Y-110650537D01*
X127125820Y-110709502D01*
X127245518Y-110745812D01*
X127370000Y-110758072D01*
X129170000Y-110758072D01*
X129294482Y-110745812D01*
X129414180Y-110709502D01*
X129524494Y-110650537D01*
X129621185Y-110571185D01*
X129700537Y-110474494D01*
X129759502Y-110364180D01*
X129795812Y-110244482D01*
X129796643Y-110236039D01*
X129895241Y-110334637D01*
X130130273Y-110491680D01*
X130391426Y-110599853D01*
X130668665Y-110655000D01*
X130951335Y-110655000D01*
X131228574Y-110599853D01*
X131489727Y-110491680D01*
X131724759Y-110334637D01*
X131924637Y-110134759D01*
X132081680Y-109899727D01*
X132189853Y-109638574D01*
X132245000Y-109361335D01*
X132245000Y-109078665D01*
X136995000Y-109078665D01*
X136995000Y-109361335D01*
X137050147Y-109638574D01*
X137158320Y-109899727D01*
X137315363Y-110134759D01*
X137515241Y-110334637D01*
X137750273Y-110491680D01*
X138011426Y-110599853D01*
X138288665Y-110655000D01*
X138571335Y-110655000D01*
X138848574Y-110599853D01*
X139109727Y-110491680D01*
X139344759Y-110334637D01*
X139544637Y-110134759D01*
X139701680Y-109899727D01*
X139809853Y-109638574D01*
X139865000Y-109361335D01*
X139865000Y-109078665D01*
X142075000Y-109078665D01*
X142075000Y-109361335D01*
X142130147Y-109638574D01*
X142238320Y-109899727D01*
X142395363Y-110134759D01*
X142595241Y-110334637D01*
X142830273Y-110491680D01*
X143091426Y-110599853D01*
X143368665Y-110655000D01*
X143651335Y-110655000D01*
X143928574Y-110599853D01*
X144189727Y-110491680D01*
X144424759Y-110334637D01*
X144624637Y-110134759D01*
X144781680Y-109899727D01*
X144889853Y-109638574D01*
X144945000Y-109361335D01*
X144945000Y-109078665D01*
X149695000Y-109078665D01*
X149695000Y-109361335D01*
X149750147Y-109638574D01*
X149858320Y-109899727D01*
X150015363Y-110134759D01*
X150215241Y-110334637D01*
X150450273Y-110491680D01*
X150711426Y-110599853D01*
X150988665Y-110655000D01*
X151271335Y-110655000D01*
X151548574Y-110599853D01*
X151809727Y-110491680D01*
X152044759Y-110334637D01*
X152244637Y-110134759D01*
X152339865Y-109992239D01*
X152477688Y-110198505D01*
X152691495Y-110412312D01*
X152942905Y-110580299D01*
X153222257Y-110696011D01*
X153518816Y-110755000D01*
X153821184Y-110755000D01*
X154117743Y-110696011D01*
X154397095Y-110580299D01*
X154648505Y-110412312D01*
X154714944Y-110345873D01*
X154720498Y-110364180D01*
X154779463Y-110474494D01*
X154858815Y-110571185D01*
X154955506Y-110650537D01*
X155065820Y-110709502D01*
X155185518Y-110745812D01*
X155310000Y-110758072D01*
X155924250Y-110755000D01*
X156083000Y-110596250D01*
X156083000Y-109347000D01*
X156337000Y-109347000D01*
X156337000Y-110596250D01*
X156495750Y-110755000D01*
X157110000Y-110758072D01*
X157234482Y-110745812D01*
X157354180Y-110709502D01*
X157464494Y-110650537D01*
X157561185Y-110571185D01*
X157640537Y-110474494D01*
X157699502Y-110364180D01*
X157735812Y-110244482D01*
X157748072Y-110120000D01*
X157745000Y-109505750D01*
X157586250Y-109347000D01*
X156337000Y-109347000D01*
X156083000Y-109347000D01*
X156063000Y-109347000D01*
X156063000Y-109093000D01*
X156083000Y-109093000D01*
X156083000Y-107843750D01*
X156337000Y-107843750D01*
X156337000Y-109093000D01*
X157586250Y-109093000D01*
X157600585Y-109078665D01*
X159855000Y-109078665D01*
X159855000Y-109361335D01*
X159910147Y-109638574D01*
X160018320Y-109899727D01*
X160175363Y-110134759D01*
X160375241Y-110334637D01*
X160610273Y-110491680D01*
X160871426Y-110599853D01*
X161148665Y-110655000D01*
X161431335Y-110655000D01*
X161708574Y-110599853D01*
X161969727Y-110491680D01*
X162204759Y-110334637D01*
X162404637Y-110134759D01*
X162561680Y-109899727D01*
X162669853Y-109638574D01*
X162725000Y-109361335D01*
X162725000Y-109078665D01*
X167475000Y-109078665D01*
X167475000Y-109361335D01*
X167530147Y-109638574D01*
X167638320Y-109899727D01*
X167795363Y-110134759D01*
X167995241Y-110334637D01*
X168230273Y-110491680D01*
X168491426Y-110599853D01*
X168768665Y-110655000D01*
X169051335Y-110655000D01*
X169328574Y-110599853D01*
X169589727Y-110491680D01*
X169824759Y-110334637D01*
X170024637Y-110134759D01*
X170180000Y-109902241D01*
X170335363Y-110134759D01*
X170535241Y-110334637D01*
X170770273Y-110491680D01*
X171031426Y-110599853D01*
X171308665Y-110655000D01*
X171591335Y-110655000D01*
X171868574Y-110599853D01*
X172129727Y-110491680D01*
X172364759Y-110334637D01*
X172564637Y-110134759D01*
X172721680Y-109899727D01*
X172829853Y-109638574D01*
X172885000Y-109361335D01*
X172885000Y-109078665D01*
X177635000Y-109078665D01*
X177635000Y-109361335D01*
X177690147Y-109638574D01*
X177798320Y-109899727D01*
X177955363Y-110134759D01*
X178155241Y-110334637D01*
X178390273Y-110491680D01*
X178651426Y-110599853D01*
X178928665Y-110655000D01*
X179211335Y-110655000D01*
X179488574Y-110599853D01*
X179749727Y-110491680D01*
X179984759Y-110334637D01*
X180184637Y-110134759D01*
X180341680Y-109899727D01*
X180449853Y-109638574D01*
X180505000Y-109361335D01*
X180505000Y-109078665D01*
X180449853Y-108801426D01*
X180341680Y-108540273D01*
X180184637Y-108305241D01*
X179984759Y-108105363D01*
X179749727Y-107948320D01*
X179488574Y-107840147D01*
X179211335Y-107785000D01*
X178928665Y-107785000D01*
X178651426Y-107840147D01*
X178390273Y-107948320D01*
X178155241Y-108105363D01*
X177955363Y-108305241D01*
X177798320Y-108540273D01*
X177690147Y-108801426D01*
X177635000Y-109078665D01*
X172885000Y-109078665D01*
X172829853Y-108801426D01*
X172721680Y-108540273D01*
X172564637Y-108305241D01*
X172364759Y-108105363D01*
X172129727Y-107948320D01*
X171868574Y-107840147D01*
X171591335Y-107785000D01*
X171308665Y-107785000D01*
X171031426Y-107840147D01*
X170770273Y-107948320D01*
X170535241Y-108105363D01*
X170335363Y-108305241D01*
X170180000Y-108537759D01*
X170024637Y-108305241D01*
X169824759Y-108105363D01*
X169589727Y-107948320D01*
X169328574Y-107840147D01*
X169051335Y-107785000D01*
X168768665Y-107785000D01*
X168491426Y-107840147D01*
X168230273Y-107948320D01*
X167995241Y-108105363D01*
X167795363Y-108305241D01*
X167638320Y-108540273D01*
X167530147Y-108801426D01*
X167475000Y-109078665D01*
X162725000Y-109078665D01*
X162669853Y-108801426D01*
X162561680Y-108540273D01*
X162404637Y-108305241D01*
X162204759Y-108105363D01*
X161969727Y-107948320D01*
X161708574Y-107840147D01*
X161431335Y-107785000D01*
X161148665Y-107785000D01*
X160871426Y-107840147D01*
X160610273Y-107948320D01*
X160375241Y-108105363D01*
X160175363Y-108305241D01*
X160018320Y-108540273D01*
X159910147Y-108801426D01*
X159855000Y-109078665D01*
X157600585Y-109078665D01*
X157745000Y-108934250D01*
X157748072Y-108320000D01*
X157735812Y-108195518D01*
X157699502Y-108075820D01*
X157640537Y-107965506D01*
X157561185Y-107868815D01*
X157464494Y-107789463D01*
X157354180Y-107730498D01*
X157234482Y-107694188D01*
X157110000Y-107681928D01*
X156495750Y-107685000D01*
X156337000Y-107843750D01*
X156083000Y-107843750D01*
X155924250Y-107685000D01*
X155310000Y-107681928D01*
X155185518Y-107694188D01*
X155065820Y-107730498D01*
X154955506Y-107789463D01*
X154858815Y-107868815D01*
X154779463Y-107965506D01*
X154720498Y-108075820D01*
X154714944Y-108094127D01*
X154648505Y-108027688D01*
X154397095Y-107859701D01*
X154117743Y-107743989D01*
X153821184Y-107685000D01*
X153518816Y-107685000D01*
X153222257Y-107743989D01*
X152942905Y-107859701D01*
X152691495Y-108027688D01*
X152477688Y-108241495D01*
X152339865Y-108447761D01*
X152244637Y-108305241D01*
X152044759Y-108105363D01*
X151809727Y-107948320D01*
X151548574Y-107840147D01*
X151271335Y-107785000D01*
X150988665Y-107785000D01*
X150711426Y-107840147D01*
X150450273Y-107948320D01*
X150215241Y-108105363D01*
X150015363Y-108305241D01*
X149858320Y-108540273D01*
X149750147Y-108801426D01*
X149695000Y-109078665D01*
X144945000Y-109078665D01*
X144889853Y-108801426D01*
X144781680Y-108540273D01*
X144624637Y-108305241D01*
X144424759Y-108105363D01*
X144189727Y-107948320D01*
X143928574Y-107840147D01*
X143651335Y-107785000D01*
X143368665Y-107785000D01*
X143091426Y-107840147D01*
X142830273Y-107948320D01*
X142595241Y-108105363D01*
X142395363Y-108305241D01*
X142238320Y-108540273D01*
X142130147Y-108801426D01*
X142075000Y-109078665D01*
X139865000Y-109078665D01*
X139809853Y-108801426D01*
X139701680Y-108540273D01*
X139544637Y-108305241D01*
X139344759Y-108105363D01*
X139109727Y-107948320D01*
X138848574Y-107840147D01*
X138571335Y-107785000D01*
X138288665Y-107785000D01*
X138011426Y-107840147D01*
X137750273Y-107948320D01*
X137515241Y-108105363D01*
X137315363Y-108305241D01*
X137158320Y-108540273D01*
X137050147Y-108801426D01*
X136995000Y-109078665D01*
X132245000Y-109078665D01*
X132189853Y-108801426D01*
X132081680Y-108540273D01*
X131924637Y-108305241D01*
X131724759Y-108105363D01*
X131489727Y-107948320D01*
X131228574Y-107840147D01*
X130951335Y-107785000D01*
X130668665Y-107785000D01*
X130391426Y-107840147D01*
X130130273Y-107948320D01*
X129895241Y-108105363D01*
X129796643Y-108203961D01*
X129795812Y-108195518D01*
X129759502Y-108075820D01*
X129700537Y-107965506D01*
X129621185Y-107868815D01*
X129524494Y-107789463D01*
X129414180Y-107730498D01*
X129294482Y-107694188D01*
X129170000Y-107681928D01*
X127370000Y-107681928D01*
X127245518Y-107694188D01*
X127125820Y-107730498D01*
X127015506Y-107789463D01*
X126918815Y-107868815D01*
X126839463Y-107965506D01*
X126780498Y-108075820D01*
X126777187Y-108086735D01*
X126730422Y-108039970D01*
X126614474Y-108155918D01*
X126530792Y-107901739D01*
X126258225Y-107770842D01*
X125965358Y-107695635D01*
X125663447Y-107679009D01*
X125364093Y-107721603D01*
X125078801Y-107821778D01*
X124929208Y-107901739D01*
X124845525Y-108155920D01*
X118237000Y-108155920D01*
X118237000Y-104497702D01*
X133806903Y-104497702D01*
X133878486Y-104741671D01*
X134133996Y-104862571D01*
X134408184Y-104931300D01*
X134690512Y-104945217D01*
X134970130Y-104903787D01*
X135236292Y-104808603D01*
X135361514Y-104741671D01*
X135433097Y-104497702D01*
X134620000Y-103684605D01*
X133806903Y-104497702D01*
X118237000Y-104497702D01*
X118237000Y-97825000D01*
X119011928Y-97825000D01*
X119011928Y-99025000D01*
X119028992Y-99198254D01*
X119079528Y-99364850D01*
X119161595Y-99518386D01*
X119272038Y-99652962D01*
X119406614Y-99763405D01*
X119560150Y-99845472D01*
X119726746Y-99896008D01*
X119900000Y-99913072D01*
X121400000Y-99913072D01*
X121573254Y-99896008D01*
X121739850Y-99845472D01*
X121893386Y-99763405D01*
X122027962Y-99652962D01*
X122138405Y-99518386D01*
X122220472Y-99364850D01*
X122237110Y-99310000D01*
X125230479Y-99310000D01*
X125250363Y-99339759D01*
X125450241Y-99539637D01*
X125685273Y-99696680D01*
X125946426Y-99804853D01*
X126223665Y-99860000D01*
X126506335Y-99860000D01*
X126783574Y-99804853D01*
X127044727Y-99696680D01*
X127279759Y-99539637D01*
X127479637Y-99339759D01*
X127636680Y-99104727D01*
X127744853Y-98843574D01*
X127800000Y-98566335D01*
X127800000Y-98283665D01*
X127744853Y-98006426D01*
X127656469Y-97793047D01*
X128883470Y-99020049D01*
X128911183Y-99053817D01*
X128944951Y-99081530D01*
X128944953Y-99081532D01*
X128973216Y-99104727D01*
X129045941Y-99164411D01*
X129199687Y-99246589D01*
X129366510Y-99297195D01*
X129496523Y-99310000D01*
X129496533Y-99310000D01*
X129539999Y-99314281D01*
X129583466Y-99310000D01*
X132850479Y-99310000D01*
X132870363Y-99339759D01*
X133070241Y-99539637D01*
X133100000Y-99559522D01*
X133100000Y-99963421D01*
X132256439Y-100806983D01*
X132221335Y-100800000D01*
X131938665Y-100800000D01*
X131661426Y-100855147D01*
X131455000Y-100940651D01*
X131248574Y-100855147D01*
X130971335Y-100800000D01*
X130688665Y-100800000D01*
X130411426Y-100855147D01*
X130150273Y-100963320D01*
X129915241Y-101120363D01*
X129715363Y-101320241D01*
X129581308Y-101520869D01*
X129566671Y-101493486D01*
X129322702Y-101421903D01*
X128517111Y-102227494D01*
X128520217Y-102164488D01*
X128481592Y-101903803D01*
X129143097Y-101242298D01*
X129071514Y-100998329D01*
X128816004Y-100877429D01*
X128541816Y-100808700D01*
X128259488Y-100794783D01*
X127979870Y-100836213D01*
X127713708Y-100931397D01*
X127697908Y-100939842D01*
X127566004Y-100877429D01*
X127291816Y-100808700D01*
X127009488Y-100794783D01*
X126729870Y-100836213D01*
X126463708Y-100931397D01*
X126338486Y-100998329D01*
X126266903Y-101242298D01*
X126932579Y-101907974D01*
X126903700Y-102023184D01*
X126893594Y-102228199D01*
X126087298Y-101421903D01*
X125843329Y-101493486D01*
X125722429Y-101748996D01*
X125653700Y-102023184D01*
X125639783Y-102305512D01*
X125681213Y-102585130D01*
X125776397Y-102851292D01*
X125843329Y-102976514D01*
X126087298Y-103048097D01*
X126892889Y-102242506D01*
X126889783Y-102305512D01*
X126928408Y-102566197D01*
X126266903Y-103227702D01*
X126338486Y-103471671D01*
X126593996Y-103592571D01*
X126868184Y-103661300D01*
X127150512Y-103675217D01*
X127430130Y-103633787D01*
X127696292Y-103538603D01*
X127712092Y-103530158D01*
X127843996Y-103592571D01*
X128118184Y-103661300D01*
X128400512Y-103675217D01*
X128680130Y-103633787D01*
X128946292Y-103538603D01*
X129071514Y-103471671D01*
X129143097Y-103227702D01*
X128477421Y-102562026D01*
X128506300Y-102446816D01*
X128516406Y-102241801D01*
X129322702Y-103048097D01*
X129566671Y-102976514D01*
X129580324Y-102947659D01*
X129715363Y-103149759D01*
X129915241Y-103349637D01*
X130150273Y-103506680D01*
X130411426Y-103614853D01*
X130688665Y-103670000D01*
X130971335Y-103670000D01*
X131248574Y-103614853D01*
X131455000Y-103529349D01*
X131661426Y-103614853D01*
X131938665Y-103670000D01*
X132221335Y-103670000D01*
X132498574Y-103614853D01*
X132759727Y-103506680D01*
X132994759Y-103349637D01*
X133194637Y-103149759D01*
X133250673Y-103065895D01*
X133193700Y-103293184D01*
X133179783Y-103575512D01*
X133221213Y-103855130D01*
X133316397Y-104121292D01*
X133383329Y-104246514D01*
X133627298Y-104318097D01*
X134440395Y-103505000D01*
X134799605Y-103505000D01*
X135612702Y-104318097D01*
X135856671Y-104246514D01*
X135870324Y-104217659D01*
X136005363Y-104419759D01*
X136205241Y-104619637D01*
X136440273Y-104776680D01*
X136701426Y-104884853D01*
X136978665Y-104940000D01*
X137261335Y-104940000D01*
X137538574Y-104884853D01*
X137633551Y-104845512D01*
X147864783Y-104845512D01*
X147906213Y-105125130D01*
X148001397Y-105391292D01*
X148068329Y-105516514D01*
X148312298Y-105588097D01*
X149117889Y-104782506D01*
X149114783Y-104845512D01*
X149153408Y-105106197D01*
X148491903Y-105767702D01*
X148563486Y-106011671D01*
X148818996Y-106132571D01*
X149093184Y-106201300D01*
X149375512Y-106215217D01*
X149655130Y-106173787D01*
X149921292Y-106078603D01*
X149937092Y-106070158D01*
X150068996Y-106132571D01*
X150343184Y-106201300D01*
X150625512Y-106215217D01*
X150905130Y-106173787D01*
X151171292Y-106078603D01*
X151296514Y-106011671D01*
X151368097Y-105767702D01*
X150702421Y-105102026D01*
X150731300Y-104986816D01*
X150741406Y-104781801D01*
X151547702Y-105588097D01*
X151791671Y-105516514D01*
X151805324Y-105487659D01*
X151940363Y-105689759D01*
X152140241Y-105889637D01*
X152375273Y-106046680D01*
X152636426Y-106154853D01*
X152913665Y-106210000D01*
X153196335Y-106210000D01*
X153473574Y-106154853D01*
X153680000Y-106069349D01*
X153886426Y-106154853D01*
X154163665Y-106210000D01*
X154446335Y-106210000D01*
X154723574Y-106154853D01*
X154984727Y-106046680D01*
X155219759Y-105889637D01*
X155419637Y-105689759D01*
X155576680Y-105454727D01*
X155684853Y-105193574D01*
X155740000Y-104916335D01*
X155740000Y-104633665D01*
X155684853Y-104356426D01*
X155624202Y-104210000D01*
X162391928Y-104210000D01*
X162391928Y-106610000D01*
X162404188Y-106734482D01*
X162440498Y-106854180D01*
X162499463Y-106964494D01*
X162578815Y-107061185D01*
X162675506Y-107140537D01*
X162785820Y-107199502D01*
X162905518Y-107235812D01*
X163030000Y-107248072D01*
X164630000Y-107248072D01*
X164754482Y-107235812D01*
X164874180Y-107199502D01*
X164984494Y-107140537D01*
X165081185Y-107061185D01*
X165160537Y-106964494D01*
X165219502Y-106854180D01*
X165255812Y-106734482D01*
X165257581Y-106716517D01*
X165350393Y-106829608D01*
X165568900Y-107008932D01*
X165818193Y-107142182D01*
X166088692Y-107224236D01*
X166370000Y-107251943D01*
X166651309Y-107224236D01*
X166921808Y-107142182D01*
X167171101Y-107008932D01*
X167389608Y-106829608D01*
X167568932Y-106611101D01*
X167640000Y-106478142D01*
X167711068Y-106611101D01*
X167890393Y-106829608D01*
X168108900Y-107008932D01*
X168358193Y-107142182D01*
X168628692Y-107224236D01*
X168910000Y-107251943D01*
X169191309Y-107224236D01*
X169461808Y-107142182D01*
X169711101Y-107008932D01*
X169929608Y-106829608D01*
X170108932Y-106611101D01*
X170180000Y-106478142D01*
X170251068Y-106611101D01*
X170430393Y-106829608D01*
X170648900Y-107008932D01*
X170898193Y-107142182D01*
X171168692Y-107224236D01*
X171450000Y-107251943D01*
X171731309Y-107224236D01*
X172001808Y-107142182D01*
X172251101Y-107008932D01*
X172469608Y-106829608D01*
X172648932Y-106611101D01*
X172782182Y-106361808D01*
X172864236Y-106091309D01*
X172885000Y-105880491D01*
X172885000Y-104939508D01*
X172864236Y-104728691D01*
X172782182Y-104458192D01*
X172648932Y-104208899D01*
X172469607Y-103990392D01*
X172251100Y-103811068D01*
X172001807Y-103677818D01*
X171731308Y-103595764D01*
X171450000Y-103568057D01*
X171168691Y-103595764D01*
X170898192Y-103677818D01*
X170648899Y-103811068D01*
X170430392Y-103990393D01*
X170251068Y-104208900D01*
X170180000Y-104341858D01*
X170108932Y-104208899D01*
X169929607Y-103990392D01*
X169711100Y-103811068D01*
X169461807Y-103677818D01*
X169191308Y-103595764D01*
X168910000Y-103568057D01*
X168628691Y-103595764D01*
X168358192Y-103677818D01*
X168108899Y-103811068D01*
X167890392Y-103990393D01*
X167711068Y-104208900D01*
X167640000Y-104341858D01*
X167568932Y-104208899D01*
X167389607Y-103990392D01*
X167171100Y-103811068D01*
X166921807Y-103677818D01*
X166651308Y-103595764D01*
X166370000Y-103568057D01*
X166088691Y-103595764D01*
X165818192Y-103677818D01*
X165568899Y-103811068D01*
X165350392Y-103990393D01*
X165257581Y-104103483D01*
X165255812Y-104085518D01*
X165219502Y-103965820D01*
X165160537Y-103855506D01*
X165081185Y-103758815D01*
X164984494Y-103679463D01*
X164874180Y-103620498D01*
X164754482Y-103584188D01*
X164630000Y-103571928D01*
X163030000Y-103571928D01*
X162905518Y-103584188D01*
X162785820Y-103620498D01*
X162675506Y-103679463D01*
X162578815Y-103758815D01*
X162499463Y-103855506D01*
X162440498Y-103965820D01*
X162404188Y-104085518D01*
X162391928Y-104210000D01*
X155624202Y-104210000D01*
X155576680Y-104095273D01*
X155419637Y-103860241D01*
X155219759Y-103660363D01*
X155190000Y-103640479D01*
X155190000Y-102601578D01*
X155398561Y-102393017D01*
X155433665Y-102400000D01*
X155716335Y-102400000D01*
X155993574Y-102344853D01*
X156254727Y-102236680D01*
X156489759Y-102079637D01*
X156499396Y-102070000D01*
X176361928Y-102070000D01*
X176361928Y-103670000D01*
X176374188Y-103794482D01*
X176410498Y-103914180D01*
X176469463Y-104024494D01*
X176548815Y-104121185D01*
X176645506Y-104200537D01*
X176755820Y-104259502D01*
X176875518Y-104295812D01*
X177000000Y-104308072D01*
X178600000Y-104308072D01*
X178724482Y-104295812D01*
X178844180Y-104259502D01*
X178954494Y-104200537D01*
X179051185Y-104121185D01*
X179130537Y-104024494D01*
X179189502Y-103914180D01*
X179225812Y-103794482D01*
X179238072Y-103670000D01*
X179238072Y-102070000D01*
X179225812Y-101945518D01*
X179189502Y-101825820D01*
X179130537Y-101715506D01*
X179051185Y-101618815D01*
X178954494Y-101539463D01*
X178844180Y-101480498D01*
X178748057Y-101451339D01*
X178914637Y-101284759D01*
X179071680Y-101049727D01*
X179179853Y-100788574D01*
X179235000Y-100511335D01*
X179235000Y-100228665D01*
X179179853Y-99951426D01*
X179071680Y-99690273D01*
X178914637Y-99455241D01*
X178714759Y-99255363D01*
X178479727Y-99098320D01*
X178218574Y-98990147D01*
X177941335Y-98935000D01*
X177658665Y-98935000D01*
X177381426Y-98990147D01*
X177120273Y-99098320D01*
X176885241Y-99255363D01*
X176685363Y-99455241D01*
X176528320Y-99690273D01*
X176420147Y-99951426D01*
X176365000Y-100228665D01*
X176365000Y-100511335D01*
X176420147Y-100788574D01*
X176528320Y-101049727D01*
X176685363Y-101284759D01*
X176851943Y-101451339D01*
X176755820Y-101480498D01*
X176645506Y-101539463D01*
X176548815Y-101618815D01*
X176469463Y-101715506D01*
X176410498Y-101825820D01*
X176374188Y-101945518D01*
X176361928Y-102070000D01*
X156499396Y-102070000D01*
X156689637Y-101879759D01*
X156846680Y-101644727D01*
X156954853Y-101383574D01*
X157010000Y-101106335D01*
X157010000Y-100823665D01*
X156954853Y-100546426D01*
X156846680Y-100285273D01*
X156689637Y-100050241D01*
X156489759Y-99850363D01*
X156460000Y-99830479D01*
X156460000Y-98924521D01*
X156489759Y-98904637D01*
X156689637Y-98704759D01*
X156846680Y-98469727D01*
X156954853Y-98208574D01*
X157010000Y-97931335D01*
X157010000Y-97688665D01*
X159220000Y-97688665D01*
X159220000Y-97971335D01*
X159275147Y-98248574D01*
X159383320Y-98509727D01*
X159540363Y-98744759D01*
X159740241Y-98944637D01*
X159942827Y-99080000D01*
X159740241Y-99215363D01*
X159540363Y-99415241D01*
X159383320Y-99650273D01*
X159275147Y-99911426D01*
X159220000Y-100188665D01*
X159220000Y-100471335D01*
X159275147Y-100748574D01*
X159383320Y-101009727D01*
X159540363Y-101244759D01*
X159740241Y-101444637D01*
X159975273Y-101601680D01*
X160236426Y-101709853D01*
X160513665Y-101765000D01*
X160796335Y-101765000D01*
X161073574Y-101709853D01*
X161334727Y-101601680D01*
X161569759Y-101444637D01*
X161769637Y-101244759D01*
X161926680Y-101009727D01*
X162034853Y-100748574D01*
X162090000Y-100471335D01*
X162090000Y-100188665D01*
X162034853Y-99911426D01*
X161926680Y-99650273D01*
X161769637Y-99415241D01*
X161569759Y-99215363D01*
X161367173Y-99080000D01*
X161569759Y-98944637D01*
X161769637Y-98744759D01*
X161926680Y-98509727D01*
X162034853Y-98248574D01*
X162090000Y-97971335D01*
X162090000Y-97688665D01*
X162034853Y-97411426D01*
X161996780Y-97319509D01*
X162395000Y-97319509D01*
X162395000Y-98260492D01*
X162415764Y-98471309D01*
X162497818Y-98741808D01*
X162631068Y-98991101D01*
X162810393Y-99209608D01*
X163028900Y-99388932D01*
X163278193Y-99522182D01*
X163548692Y-99604236D01*
X163830000Y-99631943D01*
X164111309Y-99604236D01*
X164381808Y-99522182D01*
X164631101Y-99388932D01*
X164849608Y-99209608D01*
X165028932Y-98991101D01*
X165100000Y-98858142D01*
X165171068Y-98991101D01*
X165350393Y-99209608D01*
X165568900Y-99388932D01*
X165818193Y-99522182D01*
X166088692Y-99604236D01*
X166370000Y-99631943D01*
X166651309Y-99604236D01*
X166921808Y-99522182D01*
X167171101Y-99388932D01*
X167389608Y-99209608D01*
X167568932Y-98991101D01*
X167640000Y-98858142D01*
X167711068Y-98991101D01*
X167890393Y-99209608D01*
X168108900Y-99388932D01*
X168358193Y-99522182D01*
X168628692Y-99604236D01*
X168910000Y-99631943D01*
X169191309Y-99604236D01*
X169461808Y-99522182D01*
X169711101Y-99388932D01*
X169929608Y-99209608D01*
X170108932Y-98991101D01*
X170180000Y-98858142D01*
X170251068Y-98991101D01*
X170430393Y-99209608D01*
X170648900Y-99388932D01*
X170898193Y-99522182D01*
X171168692Y-99604236D01*
X171450000Y-99631943D01*
X171731309Y-99604236D01*
X172001808Y-99522182D01*
X172251101Y-99388932D01*
X172469608Y-99209608D01*
X172648932Y-98991101D01*
X172782182Y-98741808D01*
X172864236Y-98471309D01*
X172885000Y-98260491D01*
X172885000Y-97319508D01*
X172864236Y-97108691D01*
X172782182Y-96838192D01*
X172648932Y-96588899D01*
X172469607Y-96370392D01*
X172251100Y-96191068D01*
X172001807Y-96057818D01*
X171731308Y-95975764D01*
X171450000Y-95948057D01*
X171168691Y-95975764D01*
X170898192Y-96057818D01*
X170648899Y-96191068D01*
X170430392Y-96370393D01*
X170251068Y-96588900D01*
X170180000Y-96721858D01*
X170108932Y-96588899D01*
X169929607Y-96370392D01*
X169711100Y-96191068D01*
X169461807Y-96057818D01*
X169191308Y-95975764D01*
X168910000Y-95948057D01*
X168628691Y-95975764D01*
X168358192Y-96057818D01*
X168108899Y-96191068D01*
X167890392Y-96370393D01*
X167711068Y-96588900D01*
X167640000Y-96721858D01*
X167568932Y-96588899D01*
X167389607Y-96370392D01*
X167171100Y-96191068D01*
X166921807Y-96057818D01*
X166651308Y-95975764D01*
X166370000Y-95948057D01*
X166088691Y-95975764D01*
X165818192Y-96057818D01*
X165568899Y-96191068D01*
X165350392Y-96370393D01*
X165171068Y-96588900D01*
X165100000Y-96721858D01*
X165028932Y-96588899D01*
X164849607Y-96370392D01*
X164631100Y-96191068D01*
X164381807Y-96057818D01*
X164111308Y-95975764D01*
X163830000Y-95948057D01*
X163548691Y-95975764D01*
X163278192Y-96057818D01*
X163028899Y-96191068D01*
X162810392Y-96370393D01*
X162631068Y-96588900D01*
X162497818Y-96838193D01*
X162415764Y-97108692D01*
X162395000Y-97319509D01*
X161996780Y-97319509D01*
X161926680Y-97150273D01*
X161769637Y-96915241D01*
X161569759Y-96715363D01*
X161334727Y-96558320D01*
X161073574Y-96450147D01*
X160796335Y-96395000D01*
X160513665Y-96395000D01*
X160236426Y-96450147D01*
X159975273Y-96558320D01*
X159740241Y-96715363D01*
X159540363Y-96915241D01*
X159383320Y-97150273D01*
X159275147Y-97411426D01*
X159220000Y-97688665D01*
X157010000Y-97688665D01*
X157010000Y-97648665D01*
X156954853Y-97371426D01*
X156846680Y-97110273D01*
X156689637Y-96875241D01*
X156489759Y-96675363D01*
X156460000Y-96655479D01*
X156460000Y-95749521D01*
X156489759Y-95729637D01*
X156689637Y-95529759D01*
X156846680Y-95294727D01*
X156954853Y-95033574D01*
X157010000Y-94756335D01*
X157010000Y-94473665D01*
X156954853Y-94196426D01*
X156846680Y-93935273D01*
X156689637Y-93700241D01*
X156489759Y-93500363D01*
X156254727Y-93343320D01*
X155993574Y-93235147D01*
X155716335Y-93180000D01*
X155433665Y-93180000D01*
X155156426Y-93235147D01*
X154895273Y-93343320D01*
X154660241Y-93500363D01*
X154460363Y-93700241D01*
X154303320Y-93935273D01*
X154195147Y-94196426D01*
X154140000Y-94473665D01*
X154140000Y-94756335D01*
X154195147Y-95033574D01*
X154303320Y-95294727D01*
X154460363Y-95529759D01*
X154660241Y-95729637D01*
X154690000Y-95749522D01*
X154690001Y-96655478D01*
X154660241Y-96675363D01*
X154460363Y-96875241D01*
X154303320Y-97110273D01*
X154195147Y-97371426D01*
X154140000Y-97648665D01*
X154140000Y-97931335D01*
X154195147Y-98208574D01*
X154303320Y-98469727D01*
X154460363Y-98704759D01*
X154660241Y-98904637D01*
X154690000Y-98924522D01*
X154690001Y-99830478D01*
X154660241Y-99850363D01*
X154460363Y-100050241D01*
X154303320Y-100285273D01*
X154195147Y-100546426D01*
X154140000Y-100823665D01*
X154140000Y-101106335D01*
X154146983Y-101141439D01*
X153709956Y-101578466D01*
X153676183Y-101606183D01*
X153565589Y-101740942D01*
X153483411Y-101894688D01*
X153467992Y-101945518D01*
X153444432Y-102023184D01*
X153432805Y-102061511D01*
X153420000Y-102191524D01*
X153420000Y-102191531D01*
X153415719Y-102235000D01*
X153420000Y-102278469D01*
X153420000Y-103384490D01*
X153196335Y-103340000D01*
X152913665Y-103340000D01*
X152636426Y-103395147D01*
X152375273Y-103503320D01*
X152140241Y-103660363D01*
X151940363Y-103860241D01*
X151806308Y-104060869D01*
X151791671Y-104033486D01*
X151547702Y-103961903D01*
X150742111Y-104767494D01*
X150745217Y-104704488D01*
X150706592Y-104443803D01*
X151368097Y-103782298D01*
X151296514Y-103538329D01*
X151041004Y-103417429D01*
X150766816Y-103348700D01*
X150484488Y-103334783D01*
X150204870Y-103376213D01*
X149938708Y-103471397D01*
X149922908Y-103479842D01*
X149791004Y-103417429D01*
X149516816Y-103348700D01*
X149234488Y-103334783D01*
X148954870Y-103376213D01*
X148688708Y-103471397D01*
X148563486Y-103538329D01*
X148491903Y-103782298D01*
X149157579Y-104447974D01*
X149128700Y-104563184D01*
X149118594Y-104768199D01*
X148312298Y-103961903D01*
X148068329Y-104033486D01*
X147947429Y-104288996D01*
X147878700Y-104563184D01*
X147864783Y-104845512D01*
X137633551Y-104845512D01*
X137799727Y-104776680D01*
X138034759Y-104619637D01*
X138234637Y-104419759D01*
X138391680Y-104184727D01*
X138499853Y-103923574D01*
X138555000Y-103646335D01*
X138555000Y-103363665D01*
X138499853Y-103086426D01*
X138391680Y-102825273D01*
X138234637Y-102590241D01*
X138034759Y-102390363D01*
X137799727Y-102233320D01*
X137538574Y-102125147D01*
X137261335Y-102070000D01*
X136978665Y-102070000D01*
X136701426Y-102125147D01*
X136440273Y-102233320D01*
X136205241Y-102390363D01*
X136005363Y-102590241D01*
X135871308Y-102790869D01*
X135856671Y-102763486D01*
X135612702Y-102691903D01*
X134799605Y-103505000D01*
X134440395Y-103505000D01*
X133627298Y-102691903D01*
X133418614Y-102753133D01*
X133459853Y-102653574D01*
X133487954Y-102512298D01*
X133806903Y-102512298D01*
X134620000Y-103325395D01*
X135433097Y-102512298D01*
X135361514Y-102268329D01*
X135106004Y-102147429D01*
X134831816Y-102078700D01*
X134549488Y-102064783D01*
X134269870Y-102106213D01*
X134003708Y-102201397D01*
X133878486Y-102268329D01*
X133806903Y-102512298D01*
X133487954Y-102512298D01*
X133515000Y-102376335D01*
X133515000Y-102093665D01*
X133508017Y-102058561D01*
X134580050Y-100986529D01*
X134613817Y-100958817D01*
X134724411Y-100824059D01*
X134806589Y-100670313D01*
X134857195Y-100503490D01*
X134870000Y-100373477D01*
X134870000Y-100373469D01*
X134874281Y-100330000D01*
X134870000Y-100286531D01*
X134870000Y-99559521D01*
X134899759Y-99539637D01*
X135099637Y-99339759D01*
X135256680Y-99104727D01*
X135364853Y-98843574D01*
X135420000Y-98566335D01*
X135420000Y-98302517D01*
X135496285Y-98481646D01*
X135655500Y-98714895D01*
X135857161Y-98912601D01*
X136086741Y-99062735D01*
X135958899Y-99131068D01*
X135740392Y-99310392D01*
X135561068Y-99528899D01*
X135427818Y-99778192D01*
X135345764Y-100048691D01*
X135318057Y-100330000D01*
X135345764Y-100611309D01*
X135427818Y-100881808D01*
X135561068Y-101131101D01*
X135740392Y-101349608D01*
X135958899Y-101528932D01*
X136208192Y-101662182D01*
X136478691Y-101744236D01*
X136689508Y-101765000D01*
X137630492Y-101765000D01*
X137841309Y-101744236D01*
X138111808Y-101662182D01*
X138361101Y-101528932D01*
X138579608Y-101349608D01*
X138758932Y-101131101D01*
X138892182Y-100881808D01*
X138953690Y-100679039D01*
X142988096Y-100679039D01*
X143005633Y-100761818D01*
X143116285Y-101021646D01*
X143275500Y-101254895D01*
X143477161Y-101452601D01*
X143713517Y-101607166D01*
X143975486Y-101712650D01*
X144253000Y-101765000D01*
X144653000Y-101765000D01*
X144653000Y-100457000D01*
X143110085Y-100457000D01*
X142988096Y-100679039D01*
X138953690Y-100679039D01*
X138974236Y-100611309D01*
X139001943Y-100330000D01*
X138974236Y-100048691D01*
X138892182Y-99778192D01*
X138758932Y-99528899D01*
X138579608Y-99310392D01*
X138361101Y-99131068D01*
X138233259Y-99062735D01*
X138462839Y-98912601D01*
X138664500Y-98714895D01*
X138823715Y-98481646D01*
X138934367Y-98221818D01*
X138951904Y-98139039D01*
X138829915Y-97917000D01*
X137287000Y-97917000D01*
X137287000Y-97937000D01*
X137033000Y-97937000D01*
X137033000Y-97917000D01*
X135490085Y-97917000D01*
X135385082Y-98108122D01*
X135364853Y-98006426D01*
X135256680Y-97745273D01*
X135099637Y-97510241D01*
X134899759Y-97310363D01*
X134664727Y-97153320D01*
X134403574Y-97045147D01*
X134126335Y-96990000D01*
X133843665Y-96990000D01*
X133566426Y-97045147D01*
X133305273Y-97153320D01*
X133070241Y-97310363D01*
X132870363Y-97510241D01*
X132850479Y-97540000D01*
X129906579Y-97540000D01*
X127793017Y-95426439D01*
X127800000Y-95391335D01*
X127800000Y-95108665D01*
X127744853Y-94831426D01*
X127636680Y-94570273D01*
X127479637Y-94335241D01*
X127279759Y-94135363D01*
X127250000Y-94115479D01*
X127250000Y-93209521D01*
X127279759Y-93189637D01*
X127479637Y-92989759D01*
X127636680Y-92754727D01*
X127744853Y-92493574D01*
X127800000Y-92216335D01*
X127800000Y-91933665D01*
X127744853Y-91656426D01*
X127636680Y-91395273D01*
X127479637Y-91160241D01*
X127279759Y-90960363D01*
X127044727Y-90803320D01*
X126783574Y-90695147D01*
X126506335Y-90640000D01*
X126223665Y-90640000D01*
X125946426Y-90695147D01*
X125685273Y-90803320D01*
X125450241Y-90960363D01*
X125250363Y-91160241D01*
X125093320Y-91395273D01*
X124985147Y-91656426D01*
X124930000Y-91933665D01*
X124930000Y-92216335D01*
X124985147Y-92493574D01*
X125093320Y-92754727D01*
X125250363Y-92989759D01*
X125450241Y-93189637D01*
X125480000Y-93209522D01*
X125480001Y-94115478D01*
X125450241Y-94135363D01*
X125250363Y-94335241D01*
X125093320Y-94570273D01*
X124985147Y-94831426D01*
X124930000Y-95108665D01*
X124930000Y-95391335D01*
X124985147Y-95668574D01*
X125093320Y-95929727D01*
X125250363Y-96164759D01*
X125450241Y-96364637D01*
X125685273Y-96521680D01*
X125946426Y-96629853D01*
X126223665Y-96685000D01*
X126506335Y-96685000D01*
X126541439Y-96678017D01*
X126996953Y-97133531D01*
X126783574Y-97045147D01*
X126506335Y-96990000D01*
X126223665Y-96990000D01*
X125946426Y-97045147D01*
X125685273Y-97153320D01*
X125450241Y-97310363D01*
X125250363Y-97510241D01*
X125230479Y-97540000D01*
X122237110Y-97540000D01*
X122220472Y-97485150D01*
X122138405Y-97331614D01*
X122027962Y-97197038D01*
X121893386Y-97086595D01*
X121791407Y-97032086D01*
X121791795Y-97031802D01*
X121988664Y-96817046D01*
X122139854Y-96568009D01*
X122239554Y-96294261D01*
X122241476Y-96281890D01*
X122120155Y-96052000D01*
X120777000Y-96052000D01*
X120777000Y-96072000D01*
X120523000Y-96072000D01*
X120523000Y-96052000D01*
X119179845Y-96052000D01*
X119058524Y-96281890D01*
X119060446Y-96294261D01*
X119160146Y-96568009D01*
X119311336Y-96817046D01*
X119508205Y-97031802D01*
X119508593Y-97032086D01*
X119406614Y-97086595D01*
X119272038Y-97197038D01*
X119161595Y-97331614D01*
X119079528Y-97485150D01*
X119028992Y-97651746D01*
X119011928Y-97825000D01*
X118237000Y-97825000D01*
X118237000Y-95568110D01*
X119058524Y-95568110D01*
X119179845Y-95798000D01*
X120523000Y-95798000D01*
X120523000Y-94597768D01*
X120777000Y-94597768D01*
X120777000Y-95798000D01*
X122120155Y-95798000D01*
X122241476Y-95568110D01*
X122239554Y-95555739D01*
X122139854Y-95281991D01*
X121988664Y-95032954D01*
X121791795Y-94818198D01*
X121556812Y-94645975D01*
X121292745Y-94522904D01*
X121009742Y-94453715D01*
X120777000Y-94597768D01*
X120523000Y-94597768D01*
X120290258Y-94453715D01*
X120007255Y-94522904D01*
X119743188Y-94645975D01*
X119508205Y-94818198D01*
X119311336Y-95032954D01*
X119160146Y-95281991D01*
X119060446Y-95555739D01*
X119058524Y-95568110D01*
X118237000Y-95568110D01*
X118237000Y-78904999D01*
X124675720Y-78904999D01*
X124680002Y-78948478D01*
X124680001Y-82206534D01*
X124675720Y-82250003D01*
X124680001Y-82293472D01*
X124680001Y-82293479D01*
X124692806Y-82423492D01*
X124743412Y-82590315D01*
X124825590Y-82744061D01*
X124936184Y-82878820D01*
X124969957Y-82906537D01*
X128698676Y-86635257D01*
X128718411Y-86700313D01*
X128793105Y-86840057D01*
X128566426Y-86885147D01*
X128305273Y-86993320D01*
X128070241Y-87150363D01*
X127870363Y-87350241D01*
X127713320Y-87585273D01*
X127662731Y-87707407D01*
X127610589Y-87770941D01*
X127528411Y-87924687D01*
X127477805Y-88091510D01*
X127460718Y-88265000D01*
X127477805Y-88438490D01*
X127528411Y-88605313D01*
X127610589Y-88759059D01*
X127662731Y-88822593D01*
X127713320Y-88944727D01*
X127870363Y-89179759D01*
X128070241Y-89379637D01*
X128305273Y-89536680D01*
X128566426Y-89644853D01*
X128843665Y-89700000D01*
X129126335Y-89700000D01*
X129350001Y-89655510D01*
X129350000Y-91456531D01*
X129345719Y-91500000D01*
X129350000Y-91543469D01*
X129350000Y-91543476D01*
X129358186Y-91626589D01*
X129362805Y-91673490D01*
X129376841Y-91719759D01*
X129413411Y-91840312D01*
X129495589Y-91994058D01*
X129606183Y-92128817D01*
X129639956Y-92156534D01*
X132556983Y-95073561D01*
X132550000Y-95108665D01*
X132550000Y-95391335D01*
X132605147Y-95668574D01*
X132713320Y-95929727D01*
X132870363Y-96164759D01*
X133070241Y-96364637D01*
X133305273Y-96521680D01*
X133566426Y-96629853D01*
X133843665Y-96685000D01*
X134126335Y-96685000D01*
X134403574Y-96629853D01*
X134664727Y-96521680D01*
X134899759Y-96364637D01*
X135099637Y-96164759D01*
X135119521Y-96135000D01*
X135629922Y-96135000D01*
X135740392Y-96269608D01*
X135958899Y-96448932D01*
X136086741Y-96517265D01*
X135857161Y-96667399D01*
X135655500Y-96865105D01*
X135496285Y-97098354D01*
X135385633Y-97358182D01*
X135368096Y-97440961D01*
X135490085Y-97663000D01*
X137033000Y-97663000D01*
X137033000Y-97643000D01*
X137287000Y-97643000D01*
X137287000Y-97663000D01*
X138829915Y-97663000D01*
X138951904Y-97440961D01*
X138934367Y-97358182D01*
X138823715Y-97098354D01*
X138664500Y-96865105D01*
X138462839Y-96667399D01*
X138233259Y-96517265D01*
X138361101Y-96448932D01*
X138579608Y-96269608D01*
X138758932Y-96051101D01*
X138892182Y-95801808D01*
X138917329Y-95718908D01*
X142873460Y-99675039D01*
X142901173Y-99708807D01*
X142934941Y-99736520D01*
X142934943Y-99736522D01*
X142967700Y-99763405D01*
X143035931Y-99819401D01*
X143038580Y-99820817D01*
X143005633Y-99898182D01*
X142988096Y-99980961D01*
X143110085Y-100203000D01*
X144653000Y-100203000D01*
X144653000Y-100183000D01*
X144907000Y-100183000D01*
X144907000Y-100203000D01*
X144927000Y-100203000D01*
X144927000Y-100457000D01*
X144907000Y-100457000D01*
X144907000Y-101765000D01*
X145307000Y-101765000D01*
X145584514Y-101712650D01*
X145846483Y-101607166D01*
X146082839Y-101452601D01*
X146284500Y-101254895D01*
X146443715Y-101021646D01*
X146520000Y-100842517D01*
X146520000Y-101106335D01*
X146575147Y-101383574D01*
X146683320Y-101644727D01*
X146840363Y-101879759D01*
X147040241Y-102079637D01*
X147275273Y-102236680D01*
X147536426Y-102344853D01*
X147813665Y-102400000D01*
X148096335Y-102400000D01*
X148373574Y-102344853D01*
X148634727Y-102236680D01*
X148869759Y-102079637D01*
X149069637Y-101879759D01*
X149226680Y-101644727D01*
X149334853Y-101383574D01*
X149390000Y-101106335D01*
X149390000Y-100823665D01*
X149334853Y-100546426D01*
X149226680Y-100285273D01*
X149069637Y-100050241D01*
X148869759Y-99850363D01*
X148634727Y-99693320D01*
X148373574Y-99585147D01*
X148096335Y-99530000D01*
X147813665Y-99530000D01*
X147778561Y-99536983D01*
X147323047Y-99081469D01*
X147536426Y-99169853D01*
X147813665Y-99225000D01*
X148096335Y-99225000D01*
X148373574Y-99169853D01*
X148634727Y-99061680D01*
X148869759Y-98904637D01*
X149069637Y-98704759D01*
X149226680Y-98469727D01*
X149334853Y-98208574D01*
X149390000Y-97931335D01*
X149390000Y-97648665D01*
X149383017Y-97613561D01*
X154265051Y-92731528D01*
X154298817Y-92703817D01*
X154326533Y-92670046D01*
X154409411Y-92569059D01*
X154491589Y-92415314D01*
X154529602Y-92290000D01*
X175041928Y-92290000D01*
X175054188Y-92414482D01*
X175090498Y-92534180D01*
X175149463Y-92644494D01*
X175228815Y-92741185D01*
X175325506Y-92820537D01*
X175435820Y-92879502D01*
X175555518Y-92915812D01*
X175680000Y-92928072D01*
X176244250Y-92925000D01*
X176403000Y-92766250D01*
X176403000Y-91567000D01*
X176657000Y-91567000D01*
X176657000Y-92766250D01*
X176815750Y-92925000D01*
X177380000Y-92928072D01*
X177504482Y-92915812D01*
X177624180Y-92879502D01*
X177734494Y-92820537D01*
X177831185Y-92741185D01*
X177910537Y-92644494D01*
X177969502Y-92534180D01*
X177993966Y-92453534D01*
X178069731Y-92537588D01*
X178303080Y-92711641D01*
X178565901Y-92836825D01*
X178713110Y-92881476D01*
X178943000Y-92760155D01*
X178943000Y-91567000D01*
X179197000Y-91567000D01*
X179197000Y-92760155D01*
X179426890Y-92881476D01*
X179574099Y-92836825D01*
X179836920Y-92711641D01*
X180070269Y-92537588D01*
X180265178Y-92321355D01*
X180414157Y-92071252D01*
X180511481Y-91796891D01*
X180390814Y-91567000D01*
X179197000Y-91567000D01*
X178943000Y-91567000D01*
X176657000Y-91567000D01*
X176403000Y-91567000D01*
X175203750Y-91567000D01*
X175045000Y-91725750D01*
X175041928Y-92290000D01*
X154529602Y-92290000D01*
X154542195Y-92248490D01*
X154545401Y-92215941D01*
X154546406Y-92205735D01*
X154718665Y-92240000D01*
X155001335Y-92240000D01*
X155278574Y-92184853D01*
X155539727Y-92076680D01*
X155774759Y-91919637D01*
X155974637Y-91719759D01*
X156131680Y-91484727D01*
X156239853Y-91223574D01*
X156295000Y-90946335D01*
X156295000Y-90663665D01*
X156280347Y-90590000D01*
X175041928Y-90590000D01*
X175045000Y-91154250D01*
X175203750Y-91313000D01*
X176403000Y-91313000D01*
X176403000Y-90113750D01*
X176657000Y-90113750D01*
X176657000Y-91313000D01*
X178943000Y-91313000D01*
X178943000Y-90119845D01*
X179197000Y-90119845D01*
X179197000Y-91313000D01*
X180390814Y-91313000D01*
X180511481Y-91083109D01*
X180414157Y-90808748D01*
X180265178Y-90558645D01*
X180070269Y-90342412D01*
X179836920Y-90168359D01*
X179574099Y-90043175D01*
X179426890Y-89998524D01*
X179197000Y-90119845D01*
X178943000Y-90119845D01*
X178713110Y-89998524D01*
X178565901Y-90043175D01*
X178303080Y-90168359D01*
X178069731Y-90342412D01*
X177993966Y-90426466D01*
X177969502Y-90345820D01*
X177910537Y-90235506D01*
X177831185Y-90138815D01*
X177734494Y-90059463D01*
X177624180Y-90000498D01*
X177504482Y-89964188D01*
X177380000Y-89951928D01*
X176815750Y-89955000D01*
X176657000Y-90113750D01*
X176403000Y-90113750D01*
X176244250Y-89955000D01*
X175680000Y-89951928D01*
X175555518Y-89964188D01*
X175435820Y-90000498D01*
X175325506Y-90059463D01*
X175228815Y-90138815D01*
X175149463Y-90235506D01*
X175090498Y-90345820D01*
X175054188Y-90465518D01*
X175041928Y-90590000D01*
X156280347Y-90590000D01*
X156239853Y-90386426D01*
X156131680Y-90125273D01*
X155974637Y-89890241D01*
X155774759Y-89690363D01*
X155539727Y-89533320D01*
X155278574Y-89425147D01*
X155001335Y-89370000D01*
X154718665Y-89370000D01*
X154441426Y-89425147D01*
X154235000Y-89510651D01*
X154028574Y-89425147D01*
X153751335Y-89370000D01*
X153468665Y-89370000D01*
X153191426Y-89425147D01*
X152930273Y-89533320D01*
X152695241Y-89690363D01*
X152495363Y-89890241D01*
X152360000Y-90092827D01*
X152224637Y-89890241D01*
X152024759Y-89690363D01*
X151789727Y-89533320D01*
X151528574Y-89425147D01*
X151388020Y-89397189D01*
X151568319Y-89216890D01*
X159698524Y-89216890D01*
X159700446Y-89229261D01*
X159800146Y-89503009D01*
X159951336Y-89752046D01*
X160148205Y-89966802D01*
X160383188Y-90139025D01*
X160647255Y-90262096D01*
X160930258Y-90331285D01*
X161163000Y-90187232D01*
X161163000Y-88987000D01*
X161417000Y-88987000D01*
X161417000Y-90187232D01*
X161649742Y-90331285D01*
X161932745Y-90262096D01*
X162196812Y-90139025D01*
X162431795Y-89966802D01*
X162628664Y-89752046D01*
X162779854Y-89503009D01*
X162879554Y-89229261D01*
X162881476Y-89216890D01*
X162760155Y-88987000D01*
X161417000Y-88987000D01*
X161163000Y-88987000D01*
X159819845Y-88987000D01*
X159698524Y-89216890D01*
X151568319Y-89216890D01*
X153540209Y-87245000D01*
X159702890Y-87245000D01*
X159719528Y-87299850D01*
X159801595Y-87453386D01*
X159912038Y-87587962D01*
X160046614Y-87698405D01*
X160148593Y-87752914D01*
X160148205Y-87753198D01*
X159951336Y-87967954D01*
X159800146Y-88216991D01*
X159700446Y-88490739D01*
X159698524Y-88503110D01*
X159819845Y-88733000D01*
X161163000Y-88733000D01*
X161163000Y-88713000D01*
X161417000Y-88713000D01*
X161417000Y-88733000D01*
X162760155Y-88733000D01*
X162881476Y-88503110D01*
X162879554Y-88490739D01*
X162779854Y-88216991D01*
X162628664Y-87967954D01*
X162431795Y-87753198D01*
X162431407Y-87752914D01*
X162533386Y-87698405D01*
X162667962Y-87587962D01*
X162778405Y-87453386D01*
X162860472Y-87299850D01*
X162911008Y-87133254D01*
X162928072Y-86960000D01*
X162928072Y-85760000D01*
X162911008Y-85586746D01*
X162860472Y-85420150D01*
X162778405Y-85266614D01*
X162667962Y-85132038D01*
X162533386Y-85021595D01*
X162379850Y-84939528D01*
X162213254Y-84888992D01*
X162040000Y-84871928D01*
X160540000Y-84871928D01*
X160366746Y-84888992D01*
X160200150Y-84939528D01*
X160046614Y-85021595D01*
X159912038Y-85132038D01*
X159801595Y-85266614D01*
X159719528Y-85420150D01*
X159702890Y-85475000D01*
X154679396Y-85475000D01*
X154784637Y-85369759D01*
X154941680Y-85134727D01*
X155049853Y-84873574D01*
X155105000Y-84596335D01*
X155105000Y-84313665D01*
X155049853Y-84036426D01*
X154941680Y-83775273D01*
X154784637Y-83540241D01*
X154584759Y-83340363D01*
X154555000Y-83320479D01*
X154555000Y-82916578D01*
X155398561Y-82073017D01*
X155433665Y-82080000D01*
X155716335Y-82080000D01*
X155993574Y-82024853D01*
X156254727Y-81916680D01*
X156489759Y-81759637D01*
X156689637Y-81559759D01*
X156846680Y-81324727D01*
X156954853Y-81063574D01*
X157010000Y-80786335D01*
X157010000Y-80503665D01*
X156954853Y-80226426D01*
X156846680Y-79965273D01*
X156689637Y-79730241D01*
X156489759Y-79530363D01*
X156460000Y-79510479D01*
X156460000Y-78604521D01*
X156489759Y-78584637D01*
X156689637Y-78384759D01*
X156846680Y-78149727D01*
X156954853Y-77888574D01*
X157010000Y-77611335D01*
X157010000Y-77328665D01*
X156954853Y-77051426D01*
X156846680Y-76790273D01*
X156689637Y-76555241D01*
X156489759Y-76355363D01*
X156460000Y-76335479D01*
X156460000Y-75429521D01*
X156489759Y-75409637D01*
X156652506Y-75246890D01*
X159698524Y-75246890D01*
X159700446Y-75259261D01*
X159800146Y-75533009D01*
X159951336Y-75782046D01*
X160148205Y-75996802D01*
X160383188Y-76169025D01*
X160647255Y-76292096D01*
X160930258Y-76361285D01*
X161163000Y-76217232D01*
X161163000Y-75017000D01*
X161417000Y-75017000D01*
X161417000Y-76217232D01*
X161649742Y-76361285D01*
X161932745Y-76292096D01*
X162196812Y-76169025D01*
X162431795Y-75996802D01*
X162628664Y-75782046D01*
X162779854Y-75533009D01*
X162879554Y-75259261D01*
X162881476Y-75246890D01*
X162760155Y-75017000D01*
X161417000Y-75017000D01*
X161163000Y-75017000D01*
X159819845Y-75017000D01*
X159698524Y-75246890D01*
X156652506Y-75246890D01*
X156689637Y-75209759D01*
X156846680Y-74974727D01*
X156954853Y-74713574D01*
X157010000Y-74436335D01*
X157010000Y-74153665D01*
X156954853Y-73876426D01*
X156846680Y-73615273D01*
X156689637Y-73380241D01*
X156489759Y-73180363D01*
X156254727Y-73023320D01*
X155993574Y-72915147D01*
X155716335Y-72860000D01*
X155433665Y-72860000D01*
X155156426Y-72915147D01*
X154895273Y-73023320D01*
X154660241Y-73180363D01*
X154460363Y-73380241D01*
X154303320Y-73615273D01*
X154195147Y-73876426D01*
X154140000Y-74153665D01*
X154140000Y-74436335D01*
X154195147Y-74713574D01*
X154303320Y-74974727D01*
X154460363Y-75209759D01*
X154660241Y-75409637D01*
X154690000Y-75429522D01*
X154690001Y-76335478D01*
X154660241Y-76355363D01*
X154460363Y-76555241D01*
X154303320Y-76790273D01*
X154195147Y-77051426D01*
X154140000Y-77328665D01*
X154140000Y-77611335D01*
X154195147Y-77888574D01*
X154303320Y-78149727D01*
X154460363Y-78384759D01*
X154660241Y-78584637D01*
X154690001Y-78604522D01*
X154690000Y-79510478D01*
X154660241Y-79530363D01*
X154460363Y-79730241D01*
X154303320Y-79965273D01*
X154195147Y-80226426D01*
X154140000Y-80503665D01*
X154140000Y-80786335D01*
X154146983Y-80821439D01*
X153074951Y-81893471D01*
X153041184Y-81921183D01*
X153013471Y-81954951D01*
X153013468Y-81954954D01*
X152930590Y-82055941D01*
X152848412Y-82209687D01*
X152797805Y-82376510D01*
X152780719Y-82550000D01*
X152785001Y-82593479D01*
X152785001Y-83064490D01*
X152561335Y-83020000D01*
X152278665Y-83020000D01*
X152001426Y-83075147D01*
X151740273Y-83183320D01*
X151505241Y-83340363D01*
X151305363Y-83540241D01*
X151171308Y-83740869D01*
X151156671Y-83713486D01*
X150912702Y-83641903D01*
X150107111Y-84447494D01*
X150110217Y-84384488D01*
X150071592Y-84123803D01*
X150733097Y-83462298D01*
X150661514Y-83218329D01*
X150406004Y-83097429D01*
X150131816Y-83028700D01*
X149849488Y-83014783D01*
X149569870Y-83056213D01*
X149303708Y-83151397D01*
X149287908Y-83159842D01*
X149156004Y-83097429D01*
X148881816Y-83028700D01*
X148599488Y-83014783D01*
X148319870Y-83056213D01*
X148053708Y-83151397D01*
X147928486Y-83218329D01*
X147856903Y-83462298D01*
X148522579Y-84127974D01*
X148493700Y-84243184D01*
X148483594Y-84448199D01*
X147677298Y-83641903D01*
X147433329Y-83713486D01*
X147312429Y-83968996D01*
X147243700Y-84243184D01*
X147229783Y-84525512D01*
X147271213Y-84805130D01*
X147366397Y-85071292D01*
X147433329Y-85196514D01*
X147677298Y-85268097D01*
X148482889Y-84462506D01*
X148479783Y-84525512D01*
X148518408Y-84786197D01*
X147856903Y-85447702D01*
X147928486Y-85691671D01*
X148183996Y-85812571D01*
X148458184Y-85881300D01*
X148740512Y-85895217D01*
X149020130Y-85853787D01*
X149286292Y-85758603D01*
X149302092Y-85750158D01*
X149433996Y-85812571D01*
X149708184Y-85881300D01*
X149990512Y-85895217D01*
X150270130Y-85853787D01*
X150536292Y-85758603D01*
X150661514Y-85691671D01*
X150733097Y-85447702D01*
X150067421Y-84782026D01*
X150096300Y-84666816D01*
X150106406Y-84461801D01*
X150912702Y-85268097D01*
X151156671Y-85196514D01*
X151170324Y-85167659D01*
X151305363Y-85369759D01*
X151505241Y-85569637D01*
X151740273Y-85726680D01*
X152001426Y-85834853D01*
X152278665Y-85890000D01*
X152392051Y-85890000D01*
X149860000Y-88422051D01*
X147202904Y-85764956D01*
X147175187Y-85731183D01*
X147040429Y-85620589D01*
X146886683Y-85538411D01*
X146719860Y-85487805D01*
X146589847Y-85475000D01*
X146589839Y-85475000D01*
X146546370Y-85470719D01*
X146502901Y-85475000D01*
X130041577Y-85475000D01*
X128744279Y-84177702D01*
X133806903Y-84177702D01*
X133878486Y-84421671D01*
X134133996Y-84542571D01*
X134408184Y-84611300D01*
X134690512Y-84625217D01*
X134970130Y-84583787D01*
X135236292Y-84488603D01*
X135361514Y-84421671D01*
X135433097Y-84177702D01*
X134620000Y-83364605D01*
X133806903Y-84177702D01*
X128744279Y-84177702D01*
X127834793Y-83268216D01*
X127843996Y-83272571D01*
X128118184Y-83341300D01*
X128400512Y-83355217D01*
X128680130Y-83313787D01*
X128946292Y-83218603D01*
X129071514Y-83151671D01*
X129143097Y-82907702D01*
X128477421Y-82242026D01*
X128506300Y-82126816D01*
X128516406Y-81921801D01*
X129322702Y-82728097D01*
X129566671Y-82656514D01*
X129580324Y-82627659D01*
X129715363Y-82829759D01*
X129915241Y-83029637D01*
X130150273Y-83186680D01*
X130411426Y-83294853D01*
X130688665Y-83350000D01*
X130971335Y-83350000D01*
X131248574Y-83294853D01*
X131455000Y-83209349D01*
X131661426Y-83294853D01*
X131938665Y-83350000D01*
X132221335Y-83350000D01*
X132498574Y-83294853D01*
X132759727Y-83186680D01*
X132994759Y-83029637D01*
X133194637Y-82829759D01*
X133250673Y-82745895D01*
X133193700Y-82973184D01*
X133179783Y-83255512D01*
X133221213Y-83535130D01*
X133316397Y-83801292D01*
X133383329Y-83926514D01*
X133627298Y-83998097D01*
X134440395Y-83185000D01*
X134799605Y-83185000D01*
X135612702Y-83998097D01*
X135856671Y-83926514D01*
X135870324Y-83897659D01*
X136005363Y-84099759D01*
X136205241Y-84299637D01*
X136440273Y-84456680D01*
X136701426Y-84564853D01*
X136978665Y-84620000D01*
X137261335Y-84620000D01*
X137538574Y-84564853D01*
X137799727Y-84456680D01*
X138034759Y-84299637D01*
X138234637Y-84099759D01*
X138391680Y-83864727D01*
X138499853Y-83603574D01*
X138555000Y-83326335D01*
X138555000Y-83043665D01*
X138499853Y-82766426D01*
X138391680Y-82505273D01*
X138234637Y-82270241D01*
X138034759Y-82070363D01*
X137799727Y-81913320D01*
X137538574Y-81805147D01*
X137261335Y-81750000D01*
X136978665Y-81750000D01*
X136701426Y-81805147D01*
X136440273Y-81913320D01*
X136205241Y-82070363D01*
X136005363Y-82270241D01*
X135871308Y-82470869D01*
X135856671Y-82443486D01*
X135612702Y-82371903D01*
X134799605Y-83185000D01*
X134440395Y-83185000D01*
X133627298Y-82371903D01*
X133418614Y-82433133D01*
X133459853Y-82333574D01*
X133487954Y-82192298D01*
X133806903Y-82192298D01*
X134620000Y-83005395D01*
X135433097Y-82192298D01*
X135361514Y-81948329D01*
X135106004Y-81827429D01*
X134831816Y-81758700D01*
X134549488Y-81744783D01*
X134269870Y-81786213D01*
X134003708Y-81881397D01*
X133878486Y-81948329D01*
X133806903Y-82192298D01*
X133487954Y-82192298D01*
X133515000Y-82056335D01*
X133515000Y-81773665D01*
X133508017Y-81738561D01*
X134580050Y-80666529D01*
X134613817Y-80638817D01*
X134724411Y-80504059D01*
X134806589Y-80350313D01*
X134857195Y-80183490D01*
X134870000Y-80053477D01*
X134870000Y-80053469D01*
X134874281Y-80010000D01*
X134870000Y-79966531D01*
X134870000Y-79239521D01*
X134899759Y-79219637D01*
X135099637Y-79019759D01*
X135256680Y-78784727D01*
X135364853Y-78523574D01*
X135420000Y-78246335D01*
X135420000Y-77982517D01*
X135496285Y-78161646D01*
X135655500Y-78394895D01*
X135857161Y-78592601D01*
X136086741Y-78742735D01*
X135958899Y-78811068D01*
X135740392Y-78990392D01*
X135561068Y-79208899D01*
X135427818Y-79458192D01*
X135345764Y-79728691D01*
X135318057Y-80010000D01*
X135345764Y-80291309D01*
X135427818Y-80561808D01*
X135561068Y-80811101D01*
X135740392Y-81029608D01*
X135958899Y-81208932D01*
X136208192Y-81342182D01*
X136478691Y-81424236D01*
X136689508Y-81445000D01*
X137630492Y-81445000D01*
X137841309Y-81424236D01*
X138111808Y-81342182D01*
X138361101Y-81208932D01*
X138579608Y-81029608D01*
X138758932Y-80811101D01*
X138892182Y-80561808D01*
X138953690Y-80359039D01*
X142988096Y-80359039D01*
X143005633Y-80441818D01*
X143116285Y-80701646D01*
X143275500Y-80934895D01*
X143477161Y-81132601D01*
X143713517Y-81287166D01*
X143975486Y-81392650D01*
X144253000Y-81445000D01*
X144653000Y-81445000D01*
X144653000Y-80137000D01*
X143110085Y-80137000D01*
X142988096Y-80359039D01*
X138953690Y-80359039D01*
X138974236Y-80291309D01*
X139001943Y-80010000D01*
X138974236Y-79728691D01*
X138892182Y-79458192D01*
X138758932Y-79208899D01*
X138579608Y-78990392D01*
X138361101Y-78811068D01*
X138233259Y-78742735D01*
X138462839Y-78592601D01*
X138664500Y-78394895D01*
X138823715Y-78161646D01*
X138934367Y-77901818D01*
X138951904Y-77819039D01*
X138829915Y-77597000D01*
X137287000Y-77597000D01*
X137287000Y-77617000D01*
X137033000Y-77617000D01*
X137033000Y-77597000D01*
X135490085Y-77597000D01*
X135385082Y-77788122D01*
X135364853Y-77686426D01*
X135256680Y-77425273D01*
X135099637Y-77190241D01*
X134899759Y-76990363D01*
X134664727Y-76833320D01*
X134403574Y-76725147D01*
X134126335Y-76670000D01*
X133843665Y-76670000D01*
X133566426Y-76725147D01*
X133305273Y-76833320D01*
X133070241Y-76990363D01*
X132870363Y-77190241D01*
X132850479Y-77220000D01*
X129906579Y-77220000D01*
X127793017Y-75106439D01*
X127800000Y-75071335D01*
X127800000Y-74788665D01*
X127744853Y-74511426D01*
X127636680Y-74250273D01*
X127479637Y-74015241D01*
X127279759Y-73815363D01*
X127250000Y-73795479D01*
X127250000Y-72889521D01*
X127279759Y-72869637D01*
X127479637Y-72669759D01*
X127636680Y-72434727D01*
X127744853Y-72173574D01*
X127800000Y-71896335D01*
X127800000Y-71613665D01*
X127744853Y-71336426D01*
X127636680Y-71075273D01*
X127479637Y-70840241D01*
X127279759Y-70640363D01*
X127044727Y-70483320D01*
X126783574Y-70375147D01*
X126506335Y-70320000D01*
X126223665Y-70320000D01*
X125946426Y-70375147D01*
X125685273Y-70483320D01*
X125450241Y-70640363D01*
X125250363Y-70840241D01*
X125093320Y-71075273D01*
X124985147Y-71336426D01*
X124930000Y-71613665D01*
X124930000Y-71896335D01*
X124985147Y-72173574D01*
X125093320Y-72434727D01*
X125250363Y-72669759D01*
X125450241Y-72869637D01*
X125480001Y-72889522D01*
X125480000Y-73795478D01*
X125450241Y-73815363D01*
X125250363Y-74015241D01*
X125093320Y-74250273D01*
X124985147Y-74511426D01*
X124930000Y-74788665D01*
X124930000Y-75071335D01*
X124985147Y-75348574D01*
X125093320Y-75609727D01*
X125250363Y-75844759D01*
X125450241Y-76044637D01*
X125685273Y-76201680D01*
X125946426Y-76309853D01*
X126223665Y-76365000D01*
X126506335Y-76365000D01*
X126541439Y-76358017D01*
X126996953Y-76813531D01*
X126783574Y-76725147D01*
X126506335Y-76670000D01*
X126223665Y-76670000D01*
X125946426Y-76725147D01*
X125685273Y-76833320D01*
X125450241Y-76990363D01*
X125250363Y-77190241D01*
X125093320Y-77425273D01*
X124985147Y-77686426D01*
X124930000Y-77963665D01*
X124930000Y-78246335D01*
X124935985Y-78276425D01*
X124908472Y-78309950D01*
X124908469Y-78309953D01*
X124825591Y-78410940D01*
X124743413Y-78564686D01*
X124692806Y-78731509D01*
X124675720Y-78904999D01*
X118237000Y-78904999D01*
X118237000Y-69234283D01*
X118321331Y-69290631D01*
X118728075Y-69459110D01*
X119159872Y-69545000D01*
X119600128Y-69545000D01*
X120031925Y-69459110D01*
X120438669Y-69290631D01*
X120804729Y-69046038D01*
X121116038Y-68734729D01*
X121360631Y-68368669D01*
X121529110Y-67961925D01*
X121560589Y-67803665D01*
X127550000Y-67803665D01*
X127550000Y-68086335D01*
X127605147Y-68363574D01*
X127713320Y-68624727D01*
X127870363Y-68859759D01*
X128070241Y-69059637D01*
X128305273Y-69216680D01*
X128566426Y-69324853D01*
X128843665Y-69380000D01*
X129126335Y-69380000D01*
X129350000Y-69335510D01*
X129350001Y-71136521D01*
X129345719Y-71180000D01*
X129362805Y-71353490D01*
X129413412Y-71520313D01*
X129495590Y-71674059D01*
X129578468Y-71775046D01*
X129578471Y-71775049D01*
X129606184Y-71808817D01*
X129639951Y-71836530D01*
X132556983Y-74753561D01*
X132550000Y-74788665D01*
X132550000Y-75071335D01*
X132605147Y-75348574D01*
X132713320Y-75609727D01*
X132870363Y-75844759D01*
X133070241Y-76044637D01*
X133305273Y-76201680D01*
X133566426Y-76309853D01*
X133843665Y-76365000D01*
X134126335Y-76365000D01*
X134403574Y-76309853D01*
X134664727Y-76201680D01*
X134899759Y-76044637D01*
X135099637Y-75844759D01*
X135119521Y-75815000D01*
X135629922Y-75815000D01*
X135740392Y-75949608D01*
X135958899Y-76128932D01*
X136086741Y-76197265D01*
X135857161Y-76347399D01*
X135655500Y-76545105D01*
X135496285Y-76778354D01*
X135385633Y-77038182D01*
X135368096Y-77120961D01*
X135490085Y-77343000D01*
X137033000Y-77343000D01*
X137033000Y-77323000D01*
X137287000Y-77323000D01*
X137287000Y-77343000D01*
X138829915Y-77343000D01*
X138951904Y-77120961D01*
X138934367Y-77038182D01*
X138823715Y-76778354D01*
X138664500Y-76545105D01*
X138462839Y-76347399D01*
X138233259Y-76197265D01*
X138361101Y-76128932D01*
X138579608Y-75949608D01*
X138758932Y-75731101D01*
X138892182Y-75481808D01*
X138917329Y-75398908D01*
X142873460Y-79355039D01*
X142901173Y-79388807D01*
X142934941Y-79416520D01*
X142934943Y-79416522D01*
X142985718Y-79458192D01*
X143035931Y-79499401D01*
X143038580Y-79500817D01*
X143005633Y-79578182D01*
X142988096Y-79660961D01*
X143110085Y-79883000D01*
X144653000Y-79883000D01*
X144653000Y-79863000D01*
X144907000Y-79863000D01*
X144907000Y-79883000D01*
X144927000Y-79883000D01*
X144927000Y-80137000D01*
X144907000Y-80137000D01*
X144907000Y-81445000D01*
X145307000Y-81445000D01*
X145584514Y-81392650D01*
X145846483Y-81287166D01*
X146082839Y-81132601D01*
X146284500Y-80934895D01*
X146443715Y-80701646D01*
X146520000Y-80522517D01*
X146520000Y-80786335D01*
X146575147Y-81063574D01*
X146683320Y-81324727D01*
X146840363Y-81559759D01*
X147040241Y-81759637D01*
X147275273Y-81916680D01*
X147536426Y-82024853D01*
X147813665Y-82080000D01*
X148096335Y-82080000D01*
X148373574Y-82024853D01*
X148634727Y-81916680D01*
X148869759Y-81759637D01*
X149069637Y-81559759D01*
X149226680Y-81324727D01*
X149334853Y-81063574D01*
X149390000Y-80786335D01*
X149390000Y-80503665D01*
X149334853Y-80226426D01*
X149226680Y-79965273D01*
X149069637Y-79730241D01*
X148869759Y-79530363D01*
X148634727Y-79373320D01*
X148373574Y-79265147D01*
X148096335Y-79210000D01*
X147813665Y-79210000D01*
X147778561Y-79216983D01*
X147323047Y-78761469D01*
X147536426Y-78849853D01*
X147813665Y-78905000D01*
X148096335Y-78905000D01*
X148373574Y-78849853D01*
X148634727Y-78741680D01*
X148869759Y-78584637D01*
X149069637Y-78384759D01*
X149226680Y-78149727D01*
X149334853Y-77888574D01*
X149390000Y-77611335D01*
X149390000Y-77328665D01*
X149383017Y-77293561D01*
X154205051Y-72471528D01*
X154238817Y-72443817D01*
X154349411Y-72309059D01*
X154431589Y-72155313D01*
X154482195Y-71988490D01*
X154495000Y-71858477D01*
X154495000Y-71858469D01*
X154499281Y-71815000D01*
X154495000Y-71771531D01*
X154495000Y-71240510D01*
X154718665Y-71285000D01*
X155001335Y-71285000D01*
X155278574Y-71229853D01*
X155539727Y-71121680D01*
X155774759Y-70964637D01*
X155974637Y-70764759D01*
X156131680Y-70529727D01*
X156239853Y-70268574D01*
X156295000Y-69991335D01*
X156295000Y-69708665D01*
X156250509Y-69484999D01*
X157133421Y-69484999D01*
X159651928Y-72003507D01*
X159651928Y-72990000D01*
X159668992Y-73163254D01*
X159719528Y-73329850D01*
X159801595Y-73483386D01*
X159912038Y-73617962D01*
X160046614Y-73728405D01*
X160148593Y-73782914D01*
X160148205Y-73783198D01*
X159951336Y-73997954D01*
X159800146Y-74246991D01*
X159700446Y-74520739D01*
X159698524Y-74533110D01*
X159819845Y-74763000D01*
X161163000Y-74763000D01*
X161163000Y-74743000D01*
X161417000Y-74743000D01*
X161417000Y-74763000D01*
X162760155Y-74763000D01*
X162881476Y-74533110D01*
X162879554Y-74520739D01*
X162779854Y-74246991D01*
X162628664Y-73997954D01*
X162431795Y-73783198D01*
X162431407Y-73782914D01*
X162533386Y-73728405D01*
X162667962Y-73617962D01*
X162778405Y-73483386D01*
X162860472Y-73329850D01*
X162911008Y-73163254D01*
X162928072Y-72990000D01*
X162928072Y-71790000D01*
X162911008Y-71616746D01*
X162860472Y-71450150D01*
X162778405Y-71296614D01*
X162667962Y-71162038D01*
X162533386Y-71051595D01*
X162379850Y-70969528D01*
X162213254Y-70918992D01*
X162040000Y-70901928D01*
X161053507Y-70901928D01*
X158156533Y-68004955D01*
X158128816Y-67971182D01*
X157994058Y-67860588D01*
X157840312Y-67778410D01*
X157673489Y-67727804D01*
X157543476Y-67714999D01*
X157543468Y-67714999D01*
X157499999Y-67710718D01*
X157456530Y-67714999D01*
X152403466Y-67714999D01*
X152360000Y-67710718D01*
X152316534Y-67714999D01*
X152316524Y-67714999D01*
X152186511Y-67727804D01*
X152019688Y-67778410D01*
X151865942Y-67860588D01*
X151865940Y-67860589D01*
X151865941Y-67860589D01*
X151764954Y-67943467D01*
X151764952Y-67943469D01*
X151731184Y-67971182D01*
X151703471Y-68004950D01*
X151286439Y-68421983D01*
X151251335Y-68415000D01*
X150968665Y-68415000D01*
X150691426Y-68470147D01*
X150485000Y-68555651D01*
X150278574Y-68470147D01*
X150001335Y-68415000D01*
X149718665Y-68415000D01*
X149441426Y-68470147D01*
X149180273Y-68578320D01*
X148945241Y-68735363D01*
X148745363Y-68935241D01*
X148732145Y-68955024D01*
X148718787Y-68864870D01*
X148623603Y-68598708D01*
X148556671Y-68473486D01*
X148312702Y-68401903D01*
X147499605Y-69215000D01*
X147513748Y-69229143D01*
X147334143Y-69408748D01*
X147320000Y-69394605D01*
X146506903Y-70207702D01*
X146578486Y-70451671D01*
X146833996Y-70572571D01*
X147108184Y-70641300D01*
X147390512Y-70655217D01*
X147670130Y-70613787D01*
X147936292Y-70518603D01*
X147943868Y-70514553D01*
X147359951Y-71098471D01*
X147326184Y-71126183D01*
X147298471Y-71159951D01*
X147298468Y-71159954D01*
X147215590Y-71260941D01*
X147133412Y-71414687D01*
X147082805Y-71581510D01*
X147065719Y-71755000D01*
X147070001Y-71798476D01*
X147070000Y-73160478D01*
X147040241Y-73180363D01*
X146840363Y-73380241D01*
X146683320Y-73615273D01*
X146575147Y-73876426D01*
X146541615Y-74045000D01*
X146310078Y-74045000D01*
X146199608Y-73910392D01*
X145981101Y-73731068D01*
X145848142Y-73660000D01*
X145981101Y-73588932D01*
X146199608Y-73409608D01*
X146378932Y-73191101D01*
X146512182Y-72941808D01*
X146594236Y-72671309D01*
X146621943Y-72390000D01*
X146594236Y-72108691D01*
X146512182Y-71838192D01*
X146378932Y-71588899D01*
X146199608Y-71370392D01*
X145981101Y-71191068D01*
X145731808Y-71057818D01*
X145461309Y-70975764D01*
X145250492Y-70955000D01*
X144309508Y-70955000D01*
X144098691Y-70975764D01*
X143828192Y-71057818D01*
X143578899Y-71191068D01*
X143360392Y-71370392D01*
X143181068Y-71588899D01*
X143047818Y-71838192D01*
X142965764Y-72108691D01*
X142938057Y-72390000D01*
X142965764Y-72671309D01*
X143047818Y-72941808D01*
X143181068Y-73191101D01*
X143360392Y-73409608D01*
X143578899Y-73588932D01*
X143711858Y-73660000D01*
X143578899Y-73731068D01*
X143360392Y-73910392D01*
X143181068Y-74128899D01*
X143047818Y-74378192D01*
X142965764Y-74648691D01*
X142938057Y-74930000D01*
X142965764Y-75211309D01*
X143047818Y-75481808D01*
X143181068Y-75731101D01*
X143360392Y-75949608D01*
X143578899Y-76128932D01*
X143711858Y-76200000D01*
X143578899Y-76271068D01*
X143360392Y-76450392D01*
X143181068Y-76668899D01*
X143047818Y-76918192D01*
X143022671Y-77001092D01*
X138998072Y-72976494D01*
X138998072Y-71590000D01*
X138985812Y-71465518D01*
X138949502Y-71345820D01*
X138890537Y-71235506D01*
X138811185Y-71138815D01*
X138714494Y-71059463D01*
X138604180Y-71000498D01*
X138484482Y-70964188D01*
X138360000Y-70951928D01*
X136899956Y-70951928D01*
X136865313Y-70933411D01*
X136698490Y-70882805D01*
X136568477Y-70870000D01*
X136568469Y-70870000D01*
X136525000Y-70865719D01*
X136481531Y-70870000D01*
X135119521Y-70870000D01*
X135099637Y-70840241D01*
X134899759Y-70640363D01*
X134870000Y-70620479D01*
X134870000Y-69079521D01*
X134878764Y-69073665D01*
X143385000Y-69073665D01*
X143385000Y-69356335D01*
X143440147Y-69633574D01*
X143548320Y-69894727D01*
X143705363Y-70129759D01*
X143905241Y-70329637D01*
X144140273Y-70486680D01*
X144401426Y-70594853D01*
X144678665Y-70650000D01*
X144961335Y-70650000D01*
X145238574Y-70594853D01*
X145499727Y-70486680D01*
X145734759Y-70329637D01*
X145934637Y-70129759D01*
X146068692Y-69929131D01*
X146083329Y-69956514D01*
X146327298Y-70028097D01*
X147140395Y-69215000D01*
X146327298Y-68401903D01*
X146083329Y-68473486D01*
X146069676Y-68502341D01*
X145934637Y-68300241D01*
X145856694Y-68222298D01*
X146506903Y-68222298D01*
X147320000Y-69035395D01*
X148133097Y-68222298D01*
X148061514Y-67978329D01*
X147806004Y-67857429D01*
X147531816Y-67788700D01*
X147249488Y-67774783D01*
X146969870Y-67816213D01*
X146703708Y-67911397D01*
X146578486Y-67978329D01*
X146506903Y-68222298D01*
X145856694Y-68222298D01*
X145734759Y-68100363D01*
X145499727Y-67943320D01*
X145238574Y-67835147D01*
X144961335Y-67780000D01*
X144678665Y-67780000D01*
X144401426Y-67835147D01*
X144140273Y-67943320D01*
X143905241Y-68100363D01*
X143705363Y-68300241D01*
X143548320Y-68535273D01*
X143440147Y-68796426D01*
X143385000Y-69073665D01*
X134878764Y-69073665D01*
X134899759Y-69059637D01*
X135099637Y-68859759D01*
X135256680Y-68624727D01*
X135364853Y-68363574D01*
X135420000Y-68086335D01*
X135420000Y-67803665D01*
X135364853Y-67526426D01*
X135256680Y-67265273D01*
X135099637Y-67030241D01*
X134899759Y-66830363D01*
X134664727Y-66673320D01*
X134403574Y-66565147D01*
X134126335Y-66510000D01*
X133843665Y-66510000D01*
X133566426Y-66565147D01*
X133360000Y-66650651D01*
X133153574Y-66565147D01*
X132876335Y-66510000D01*
X132593665Y-66510000D01*
X132316426Y-66565147D01*
X132055273Y-66673320D01*
X131820241Y-66830363D01*
X131620363Y-67030241D01*
X131485000Y-67232827D01*
X131349637Y-67030241D01*
X131149759Y-66830363D01*
X130914727Y-66673320D01*
X130653574Y-66565147D01*
X130376335Y-66510000D01*
X130093665Y-66510000D01*
X129816426Y-66565147D01*
X129610000Y-66650651D01*
X129403574Y-66565147D01*
X129126335Y-66510000D01*
X128843665Y-66510000D01*
X128566426Y-66565147D01*
X128305273Y-66673320D01*
X128070241Y-66830363D01*
X127870363Y-67030241D01*
X127713320Y-67265273D01*
X127605147Y-67526426D01*
X127550000Y-67803665D01*
X121560589Y-67803665D01*
X121615000Y-67530128D01*
X121615000Y-67089872D01*
X121529110Y-66658075D01*
X121360631Y-66251331D01*
X121304283Y-66167000D01*
X179685717Y-66167000D01*
X179629369Y-66251331D01*
G37*
X179629369Y-66251331D02*
X179460890Y-66658075D01*
X179375000Y-67089872D01*
X179375000Y-67530128D01*
X179460890Y-67961925D01*
X179629369Y-68368669D01*
X179873962Y-68734729D01*
X180185271Y-69046038D01*
X180551331Y-69290631D01*
X180958075Y-69459110D01*
X181389872Y-69545000D01*
X181830128Y-69545000D01*
X182261925Y-69459110D01*
X182668669Y-69290631D01*
X182753000Y-69234283D01*
X182753000Y-116185717D01*
X182668669Y-116129369D01*
X182261925Y-115960890D01*
X181830128Y-115875000D01*
X181389872Y-115875000D01*
X180958075Y-115960890D01*
X180551331Y-116129369D01*
X180185271Y-116373962D01*
X179873962Y-116685271D01*
X179629369Y-117051331D01*
X179460890Y-117458075D01*
X179375000Y-117889872D01*
X179375000Y-118330128D01*
X179460890Y-118761925D01*
X179629369Y-119168669D01*
X179685717Y-119253000D01*
X121304283Y-119253000D01*
X121360631Y-119168669D01*
X121529110Y-118761925D01*
X121615000Y-118330128D01*
X121615000Y-117889872D01*
X121529110Y-117458075D01*
X121360631Y-117051331D01*
X121116038Y-116685271D01*
X120804729Y-116373962D01*
X120798800Y-116370000D01*
X128101928Y-116370000D01*
X128114188Y-116494482D01*
X128150498Y-116614180D01*
X128209463Y-116724494D01*
X128288815Y-116821185D01*
X128385506Y-116900537D01*
X128495820Y-116959502D01*
X128615518Y-116995812D01*
X128740000Y-117008072D01*
X129254250Y-117005000D01*
X129413000Y-116846250D01*
X129413000Y-115697000D01*
X128263750Y-115697000D01*
X128105000Y-115855750D01*
X128101928Y-116370000D01*
X120798800Y-116370000D01*
X120438669Y-116129369D01*
X120031925Y-115960890D01*
X119600128Y-115875000D01*
X119159872Y-115875000D01*
X118728075Y-115960890D01*
X118321331Y-116129369D01*
X118237000Y-116185717D01*
X118237000Y-114770000D01*
X128101928Y-114770000D01*
X128105000Y-115284250D01*
X128263750Y-115443000D01*
X129413000Y-115443000D01*
X129413000Y-114293750D01*
X129667000Y-114293750D01*
X129667000Y-115443000D01*
X129687000Y-115443000D01*
X129687000Y-115697000D01*
X129667000Y-115697000D01*
X129667000Y-116846250D01*
X129825750Y-117005000D01*
X130340000Y-117008072D01*
X130464482Y-116995812D01*
X130584180Y-116959502D01*
X130694494Y-116900537D01*
X130791185Y-116821185D01*
X130870537Y-116724494D01*
X130929502Y-116614180D01*
X130958661Y-116518057D01*
X131125241Y-116684637D01*
X131360273Y-116841680D01*
X131621426Y-116949853D01*
X131898665Y-117005000D01*
X132181335Y-117005000D01*
X132458574Y-116949853D01*
X132719727Y-116841680D01*
X132954759Y-116684637D01*
X133154637Y-116484759D01*
X133311680Y-116249727D01*
X133419853Y-115988574D01*
X133475000Y-115711335D01*
X133475000Y-115428665D01*
X133463739Y-115372050D01*
X137025000Y-115372050D01*
X137025000Y-115767949D01*
X137046487Y-115986110D01*
X137131401Y-116266033D01*
X137269294Y-116524013D01*
X137454866Y-116750134D01*
X137680986Y-116935706D01*
X137938966Y-117073599D01*
X138218889Y-117158513D01*
X138510000Y-117187185D01*
X138801110Y-117158513D01*
X139081033Y-117073599D01*
X139339013Y-116935706D01*
X139565134Y-116750134D01*
X139750706Y-116524014D01*
X139764462Y-116498278D01*
X139920951Y-116704429D01*
X140138807Y-116897496D01*
X140390142Y-117044352D01*
X140653110Y-117136476D01*
X140883000Y-117015155D01*
X140883000Y-115697000D01*
X140863000Y-115697000D01*
X140863000Y-115443000D01*
X140883000Y-115443000D01*
X140883000Y-114124845D01*
X141137000Y-114124845D01*
X141137000Y-115443000D01*
X141157000Y-115443000D01*
X141157000Y-115697000D01*
X141137000Y-115697000D01*
X141137000Y-117015155D01*
X141366890Y-117136476D01*
X141629858Y-117044352D01*
X141881193Y-116897496D01*
X142099049Y-116704429D01*
X142115286Y-116683039D01*
X142171595Y-116788386D01*
X142282038Y-116922962D01*
X142416614Y-117033405D01*
X142570150Y-117115472D01*
X142736746Y-117166008D01*
X142910000Y-117183072D01*
X144110000Y-117183072D01*
X144283254Y-117166008D01*
X144449850Y-117115472D01*
X144603386Y-117033405D01*
X144737962Y-116922962D01*
X144848405Y-116788386D01*
X144930472Y-116634850D01*
X144981008Y-116468254D01*
X144998072Y-116295000D01*
X144998072Y-114845000D01*
X144990686Y-114770000D01*
X148421928Y-114770000D01*
X148421928Y-116370000D01*
X148434188Y-116494482D01*
X148470498Y-116614180D01*
X148529463Y-116724494D01*
X148608815Y-116821185D01*
X148705506Y-116900537D01*
X148815820Y-116959502D01*
X148935518Y-116995812D01*
X149060000Y-117008072D01*
X150660000Y-117008072D01*
X150784482Y-116995812D01*
X150904180Y-116959502D01*
X151014494Y-116900537D01*
X151111185Y-116821185D01*
X151190537Y-116724494D01*
X151249502Y-116614180D01*
X151265117Y-116562702D01*
X151546903Y-116562702D01*
X151618486Y-116806671D01*
X151873996Y-116927571D01*
X152148184Y-116996300D01*
X152430512Y-117010217D01*
X152710130Y-116968787D01*
X152976292Y-116873603D01*
X153101514Y-116806671D01*
X153173097Y-116562702D01*
X152360000Y-115749605D01*
X151546903Y-116562702D01*
X151265117Y-116562702D01*
X151285812Y-116494482D01*
X151298072Y-116370000D01*
X151298072Y-116362785D01*
X151367298Y-116383097D01*
X152180395Y-115570000D01*
X152539605Y-115570000D01*
X153352702Y-116383097D01*
X153596671Y-116311514D01*
X153717571Y-116056004D01*
X153786300Y-115781816D01*
X153800217Y-115499488D01*
X153781335Y-115372050D01*
X159885000Y-115372050D01*
X159885000Y-115767949D01*
X159906487Y-115986110D01*
X159991401Y-116266033D01*
X160129294Y-116524013D01*
X160314866Y-116750134D01*
X160540986Y-116935706D01*
X160798966Y-117073599D01*
X161078889Y-117158513D01*
X161370000Y-117187185D01*
X161661110Y-117158513D01*
X161941033Y-117073599D01*
X162199013Y-116935706D01*
X162425134Y-116750134D01*
X162610706Y-116524014D01*
X162620000Y-116506626D01*
X162629294Y-116524013D01*
X162814866Y-116750134D01*
X163040986Y-116935706D01*
X163298966Y-117073599D01*
X163578889Y-117158513D01*
X163870000Y-117187185D01*
X164161110Y-117158513D01*
X164441033Y-117073599D01*
X164699013Y-116935706D01*
X164925134Y-116750134D01*
X164977223Y-116686663D01*
X165031595Y-116788386D01*
X165142038Y-116922962D01*
X165276614Y-117033405D01*
X165430150Y-117115472D01*
X165596746Y-117166008D01*
X165770000Y-117183072D01*
X166970000Y-117183072D01*
X167143254Y-117166008D01*
X167309850Y-117115472D01*
X167463386Y-117033405D01*
X167597962Y-116922962D01*
X167708405Y-116788386D01*
X167790472Y-116634850D01*
X167841008Y-116468254D01*
X167858072Y-116295000D01*
X167858072Y-115347050D01*
X171275000Y-115347050D01*
X171275000Y-115792949D01*
X171296487Y-116011110D01*
X171381401Y-116291033D01*
X171519294Y-116549013D01*
X171704866Y-116775134D01*
X171930986Y-116960706D01*
X172188966Y-117098599D01*
X172468889Y-117183513D01*
X172760000Y-117212185D01*
X173051110Y-117183513D01*
X173331033Y-117098599D01*
X173589013Y-116960706D01*
X173815134Y-116775134D01*
X173867223Y-116711663D01*
X173921595Y-116813386D01*
X174032038Y-116947962D01*
X174166614Y-117058405D01*
X174320150Y-117140472D01*
X174486746Y-117191008D01*
X174660000Y-117208072D01*
X175860000Y-117208072D01*
X176033254Y-117191008D01*
X176199850Y-117140472D01*
X176353386Y-117058405D01*
X176487962Y-116947962D01*
X176598405Y-116813386D01*
X176680472Y-116659850D01*
X176731008Y-116493254D01*
X176748072Y-116320000D01*
X176748072Y-114820000D01*
X176731008Y-114646746D01*
X176680472Y-114480150D01*
X176598405Y-114326614D01*
X176487962Y-114192038D01*
X176353386Y-114081595D01*
X176199850Y-113999528D01*
X176033254Y-113948992D01*
X175860000Y-113931928D01*
X174660000Y-113931928D01*
X174486746Y-113948992D01*
X174320150Y-113999528D01*
X174166614Y-114081595D01*
X174032038Y-114192038D01*
X173921595Y-114326614D01*
X173867223Y-114428337D01*
X173815134Y-114364866D01*
X173589014Y-114179294D01*
X173331034Y-114041401D01*
X173051111Y-113956487D01*
X172760000Y-113927815D01*
X172468890Y-113956487D01*
X172188967Y-114041401D01*
X171930987Y-114179294D01*
X171704866Y-114364866D01*
X171519294Y-114590986D01*
X171381401Y-114848966D01*
X171296487Y-115128889D01*
X171275000Y-115347050D01*
X167858072Y-115347050D01*
X167858072Y-114845000D01*
X167841008Y-114671746D01*
X167790472Y-114505150D01*
X167708405Y-114351614D01*
X167597962Y-114217038D01*
X167463386Y-114106595D01*
X167309850Y-114024528D01*
X167143254Y-113973992D01*
X166970000Y-113956928D01*
X165770000Y-113956928D01*
X165596746Y-113973992D01*
X165430150Y-114024528D01*
X165276614Y-114106595D01*
X165142038Y-114217038D01*
X165031595Y-114351614D01*
X164977223Y-114453337D01*
X164925134Y-114389866D01*
X164699014Y-114204294D01*
X164441034Y-114066401D01*
X164161111Y-113981487D01*
X163870000Y-113952815D01*
X163578890Y-113981487D01*
X163298967Y-114066401D01*
X163040987Y-114204294D01*
X162814866Y-114389866D01*
X162629294Y-114615986D01*
X162620000Y-114633374D01*
X162610706Y-114615986D01*
X162425134Y-114389866D01*
X162199014Y-114204294D01*
X161941034Y-114066401D01*
X161661111Y-113981487D01*
X161370000Y-113952815D01*
X161078890Y-113981487D01*
X160798967Y-114066401D01*
X160540987Y-114204294D01*
X160314866Y-114389866D01*
X160129294Y-114615986D01*
X159991401Y-114873966D01*
X159906487Y-115153889D01*
X159885000Y-115372050D01*
X153781335Y-115372050D01*
X153758787Y-115219870D01*
X153663603Y-114953708D01*
X153596671Y-114828486D01*
X153352702Y-114756903D01*
X152539605Y-115570000D01*
X152180395Y-115570000D01*
X151367298Y-114756903D01*
X151298072Y-114777215D01*
X151298072Y-114770000D01*
X151285812Y-114645518D01*
X151265118Y-114577298D01*
X151546903Y-114577298D01*
X152360000Y-115390395D01*
X153173097Y-114577298D01*
X153101514Y-114333329D01*
X152846004Y-114212429D01*
X152571816Y-114143700D01*
X152289488Y-114129783D01*
X152009870Y-114171213D01*
X151743708Y-114266397D01*
X151618486Y-114333329D01*
X151546903Y-114577298D01*
X151265118Y-114577298D01*
X151249502Y-114525820D01*
X151190537Y-114415506D01*
X151111185Y-114318815D01*
X151014494Y-114239463D01*
X150904180Y-114180498D01*
X150784482Y-114144188D01*
X150660000Y-114131928D01*
X149060000Y-114131928D01*
X148935518Y-114144188D01*
X148815820Y-114180498D01*
X148705506Y-114239463D01*
X148608815Y-114318815D01*
X148529463Y-114415506D01*
X148470498Y-114525820D01*
X148434188Y-114645518D01*
X148421928Y-114770000D01*
X144990686Y-114770000D01*
X144981008Y-114671746D01*
X144930472Y-114505150D01*
X144848405Y-114351614D01*
X144737962Y-114217038D01*
X144603386Y-114106595D01*
X144449850Y-114024528D01*
X144283254Y-113973992D01*
X144110000Y-113956928D01*
X142910000Y-113956928D01*
X142736746Y-113973992D01*
X142570150Y-114024528D01*
X142416614Y-114106595D01*
X142282038Y-114217038D01*
X142171595Y-114351614D01*
X142115286Y-114456961D01*
X142099049Y-114435571D01*
X141881193Y-114242504D01*
X141629858Y-114095648D01*
X141366890Y-114003524D01*
X141137000Y-114124845D01*
X140883000Y-114124845D01*
X140653110Y-114003524D01*
X140390142Y-114095648D01*
X140138807Y-114242504D01*
X139920951Y-114435571D01*
X139764462Y-114641722D01*
X139750706Y-114615986D01*
X139565134Y-114389866D01*
X139339014Y-114204294D01*
X139081034Y-114066401D01*
X138801111Y-113981487D01*
X138510000Y-113952815D01*
X138218890Y-113981487D01*
X137938967Y-114066401D01*
X137680987Y-114204294D01*
X137454866Y-114389866D01*
X137269294Y-114615986D01*
X137131401Y-114873966D01*
X137046487Y-115153889D01*
X137025000Y-115372050D01*
X133463739Y-115372050D01*
X133419853Y-115151426D01*
X133311680Y-114890273D01*
X133154637Y-114655241D01*
X132954759Y-114455363D01*
X132719727Y-114298320D01*
X132458574Y-114190147D01*
X132181335Y-114135000D01*
X131898665Y-114135000D01*
X131621426Y-114190147D01*
X131360273Y-114298320D01*
X131125241Y-114455363D01*
X130958661Y-114621943D01*
X130929502Y-114525820D01*
X130870537Y-114415506D01*
X130791185Y-114318815D01*
X130694494Y-114239463D01*
X130584180Y-114180498D01*
X130464482Y-114144188D01*
X130340000Y-114131928D01*
X129825750Y-114135000D01*
X129667000Y-114293750D01*
X129413000Y-114293750D01*
X129254250Y-114135000D01*
X128740000Y-114131928D01*
X128615518Y-114144188D01*
X128495820Y-114180498D01*
X128385506Y-114239463D01*
X128288815Y-114318815D01*
X128209463Y-114415506D01*
X128150498Y-114525820D01*
X128114188Y-114645518D01*
X128101928Y-114770000D01*
X118237000Y-114770000D01*
X118237000Y-109286553D01*
X124189009Y-109286553D01*
X124231603Y-109585907D01*
X124331778Y-109871199D01*
X124411739Y-110020792D01*
X124665920Y-110104475D01*
X125550395Y-109220000D01*
X124665920Y-108335525D01*
X124411739Y-108419208D01*
X124280842Y-108691775D01*
X124205635Y-108984642D01*
X124189009Y-109286553D01*
X118237000Y-109286553D01*
X118237000Y-108155920D01*
X124845525Y-108155920D01*
X125730000Y-109040395D01*
X125744143Y-109026253D01*
X125923748Y-109205858D01*
X125909605Y-109220000D01*
X125923748Y-109234143D01*
X125744143Y-109413748D01*
X125730000Y-109399605D01*
X124845525Y-110284080D01*
X124929208Y-110538261D01*
X125201775Y-110669158D01*
X125494642Y-110744365D01*
X125796553Y-110760991D01*
X126095907Y-110718397D01*
X126381199Y-110618222D01*
X126530792Y-110538261D01*
X126614474Y-110284082D01*
X126730422Y-110400030D01*
X126777187Y-110353265D01*
X126780498Y-110364180D01*
X126839463Y-110474494D01*
X126918815Y-110571185D01*
X127015506Y-110650537D01*
X127125820Y-110709502D01*
X127245518Y-110745812D01*
X127370000Y-110758072D01*
X129170000Y-110758072D01*
X129294482Y-110745812D01*
X129414180Y-110709502D01*
X129524494Y-110650537D01*
X129621185Y-110571185D01*
X129700537Y-110474494D01*
X129759502Y-110364180D01*
X129795812Y-110244482D01*
X129796643Y-110236039D01*
X129895241Y-110334637D01*
X130130273Y-110491680D01*
X130391426Y-110599853D01*
X130668665Y-110655000D01*
X130951335Y-110655000D01*
X131228574Y-110599853D01*
X131489727Y-110491680D01*
X131724759Y-110334637D01*
X131924637Y-110134759D01*
X132081680Y-109899727D01*
X132189853Y-109638574D01*
X132245000Y-109361335D01*
X132245000Y-109078665D01*
X136995000Y-109078665D01*
X136995000Y-109361335D01*
X137050147Y-109638574D01*
X137158320Y-109899727D01*
X137315363Y-110134759D01*
X137515241Y-110334637D01*
X137750273Y-110491680D01*
X138011426Y-110599853D01*
X138288665Y-110655000D01*
X138571335Y-110655000D01*
X138848574Y-110599853D01*
X139109727Y-110491680D01*
X139344759Y-110334637D01*
X139544637Y-110134759D01*
X139701680Y-109899727D01*
X139809853Y-109638574D01*
X139865000Y-109361335D01*
X139865000Y-109078665D01*
X142075000Y-109078665D01*
X142075000Y-109361335D01*
X142130147Y-109638574D01*
X142238320Y-109899727D01*
X142395363Y-110134759D01*
X142595241Y-110334637D01*
X142830273Y-110491680D01*
X143091426Y-110599853D01*
X143368665Y-110655000D01*
X143651335Y-110655000D01*
X143928574Y-110599853D01*
X144189727Y-110491680D01*
X144424759Y-110334637D01*
X144624637Y-110134759D01*
X144781680Y-109899727D01*
X144889853Y-109638574D01*
X144945000Y-109361335D01*
X144945000Y-109078665D01*
X149695000Y-109078665D01*
X149695000Y-109361335D01*
X149750147Y-109638574D01*
X149858320Y-109899727D01*
X150015363Y-110134759D01*
X150215241Y-110334637D01*
X150450273Y-110491680D01*
X150711426Y-110599853D01*
X150988665Y-110655000D01*
X151271335Y-110655000D01*
X151548574Y-110599853D01*
X151809727Y-110491680D01*
X152044759Y-110334637D01*
X152244637Y-110134759D01*
X152339865Y-109992239D01*
X152477688Y-110198505D01*
X152691495Y-110412312D01*
X152942905Y-110580299D01*
X153222257Y-110696011D01*
X153518816Y-110755000D01*
X153821184Y-110755000D01*
X154117743Y-110696011D01*
X154397095Y-110580299D01*
X154648505Y-110412312D01*
X154714944Y-110345873D01*
X154720498Y-110364180D01*
X154779463Y-110474494D01*
X154858815Y-110571185D01*
X154955506Y-110650537D01*
X155065820Y-110709502D01*
X155185518Y-110745812D01*
X155310000Y-110758072D01*
X155924250Y-110755000D01*
X156083000Y-110596250D01*
X156083000Y-109347000D01*
X156337000Y-109347000D01*
X156337000Y-110596250D01*
X156495750Y-110755000D01*
X157110000Y-110758072D01*
X157234482Y-110745812D01*
X157354180Y-110709502D01*
X157464494Y-110650537D01*
X157561185Y-110571185D01*
X157640537Y-110474494D01*
X157699502Y-110364180D01*
X157735812Y-110244482D01*
X157748072Y-110120000D01*
X157745000Y-109505750D01*
X157586250Y-109347000D01*
X156337000Y-109347000D01*
X156083000Y-109347000D01*
X156063000Y-109347000D01*
X156063000Y-109093000D01*
X156083000Y-109093000D01*
X156083000Y-107843750D01*
X156337000Y-107843750D01*
X156337000Y-109093000D01*
X157586250Y-109093000D01*
X157600585Y-109078665D01*
X159855000Y-109078665D01*
X159855000Y-109361335D01*
X159910147Y-109638574D01*
X160018320Y-109899727D01*
X160175363Y-110134759D01*
X160375241Y-110334637D01*
X160610273Y-110491680D01*
X160871426Y-110599853D01*
X161148665Y-110655000D01*
X161431335Y-110655000D01*
X161708574Y-110599853D01*
X161969727Y-110491680D01*
X162204759Y-110334637D01*
X162404637Y-110134759D01*
X162561680Y-109899727D01*
X162669853Y-109638574D01*
X162725000Y-109361335D01*
X162725000Y-109078665D01*
X167475000Y-109078665D01*
X167475000Y-109361335D01*
X167530147Y-109638574D01*
X167638320Y-109899727D01*
X167795363Y-110134759D01*
X167995241Y-110334637D01*
X168230273Y-110491680D01*
X168491426Y-110599853D01*
X168768665Y-110655000D01*
X169051335Y-110655000D01*
X169328574Y-110599853D01*
X169589727Y-110491680D01*
X169824759Y-110334637D01*
X170024637Y-110134759D01*
X170180000Y-109902241D01*
X170335363Y-110134759D01*
X170535241Y-110334637D01*
X170770273Y-110491680D01*
X171031426Y-110599853D01*
X171308665Y-110655000D01*
X171591335Y-110655000D01*
X171868574Y-110599853D01*
X172129727Y-110491680D01*
X172364759Y-110334637D01*
X172564637Y-110134759D01*
X172721680Y-109899727D01*
X172829853Y-109638574D01*
X172885000Y-109361335D01*
X172885000Y-109078665D01*
X177635000Y-109078665D01*
X177635000Y-109361335D01*
X177690147Y-109638574D01*
X177798320Y-109899727D01*
X177955363Y-110134759D01*
X178155241Y-110334637D01*
X178390273Y-110491680D01*
X178651426Y-110599853D01*
X178928665Y-110655000D01*
X179211335Y-110655000D01*
X179488574Y-110599853D01*
X179749727Y-110491680D01*
X179984759Y-110334637D01*
X180184637Y-110134759D01*
X180341680Y-109899727D01*
X180449853Y-109638574D01*
X180505000Y-109361335D01*
X180505000Y-109078665D01*
X180449853Y-108801426D01*
X180341680Y-108540273D01*
X180184637Y-108305241D01*
X179984759Y-108105363D01*
X179749727Y-107948320D01*
X179488574Y-107840147D01*
X179211335Y-107785000D01*
X178928665Y-107785000D01*
X178651426Y-107840147D01*
X178390273Y-107948320D01*
X178155241Y-108105363D01*
X177955363Y-108305241D01*
X177798320Y-108540273D01*
X177690147Y-108801426D01*
X177635000Y-109078665D01*
X172885000Y-109078665D01*
X172829853Y-108801426D01*
X172721680Y-108540273D01*
X172564637Y-108305241D01*
X172364759Y-108105363D01*
X172129727Y-107948320D01*
X171868574Y-107840147D01*
X171591335Y-107785000D01*
X171308665Y-107785000D01*
X171031426Y-107840147D01*
X170770273Y-107948320D01*
X170535241Y-108105363D01*
X170335363Y-108305241D01*
X170180000Y-108537759D01*
X170024637Y-108305241D01*
X169824759Y-108105363D01*
X169589727Y-107948320D01*
X169328574Y-107840147D01*
X169051335Y-107785000D01*
X168768665Y-107785000D01*
X168491426Y-107840147D01*
X168230273Y-107948320D01*
X167995241Y-108105363D01*
X167795363Y-108305241D01*
X167638320Y-108540273D01*
X167530147Y-108801426D01*
X167475000Y-109078665D01*
X162725000Y-109078665D01*
X162669853Y-108801426D01*
X162561680Y-108540273D01*
X162404637Y-108305241D01*
X162204759Y-108105363D01*
X161969727Y-107948320D01*
X161708574Y-107840147D01*
X161431335Y-107785000D01*
X161148665Y-107785000D01*
X160871426Y-107840147D01*
X160610273Y-107948320D01*
X160375241Y-108105363D01*
X160175363Y-108305241D01*
X160018320Y-108540273D01*
X159910147Y-108801426D01*
X159855000Y-109078665D01*
X157600585Y-109078665D01*
X157745000Y-108934250D01*
X157748072Y-108320000D01*
X157735812Y-108195518D01*
X157699502Y-108075820D01*
X157640537Y-107965506D01*
X157561185Y-107868815D01*
X157464494Y-107789463D01*
X157354180Y-107730498D01*
X157234482Y-107694188D01*
X157110000Y-107681928D01*
X156495750Y-107685000D01*
X156337000Y-107843750D01*
X156083000Y-107843750D01*
X155924250Y-107685000D01*
X155310000Y-107681928D01*
X155185518Y-107694188D01*
X155065820Y-107730498D01*
X154955506Y-107789463D01*
X154858815Y-107868815D01*
X154779463Y-107965506D01*
X154720498Y-108075820D01*
X154714944Y-108094127D01*
X154648505Y-108027688D01*
X154397095Y-107859701D01*
X154117743Y-107743989D01*
X153821184Y-107685000D01*
X153518816Y-107685000D01*
X153222257Y-107743989D01*
X152942905Y-107859701D01*
X152691495Y-108027688D01*
X152477688Y-108241495D01*
X152339865Y-108447761D01*
X152244637Y-108305241D01*
X152044759Y-108105363D01*
X151809727Y-107948320D01*
X151548574Y-107840147D01*
X151271335Y-107785000D01*
X150988665Y-107785000D01*
X150711426Y-107840147D01*
X150450273Y-107948320D01*
X150215241Y-108105363D01*
X150015363Y-108305241D01*
X149858320Y-108540273D01*
X149750147Y-108801426D01*
X149695000Y-109078665D01*
X144945000Y-109078665D01*
X144889853Y-108801426D01*
X144781680Y-108540273D01*
X144624637Y-108305241D01*
X144424759Y-108105363D01*
X144189727Y-107948320D01*
X143928574Y-107840147D01*
X143651335Y-107785000D01*
X143368665Y-107785000D01*
X143091426Y-107840147D01*
X142830273Y-107948320D01*
X142595241Y-108105363D01*
X142395363Y-108305241D01*
X142238320Y-108540273D01*
X142130147Y-108801426D01*
X142075000Y-109078665D01*
X139865000Y-109078665D01*
X139809853Y-108801426D01*
X139701680Y-108540273D01*
X139544637Y-108305241D01*
X139344759Y-108105363D01*
X139109727Y-107948320D01*
X138848574Y-107840147D01*
X138571335Y-107785000D01*
X138288665Y-107785000D01*
X138011426Y-107840147D01*
X137750273Y-107948320D01*
X137515241Y-108105363D01*
X137315363Y-108305241D01*
X137158320Y-108540273D01*
X137050147Y-108801426D01*
X136995000Y-109078665D01*
X132245000Y-109078665D01*
X132189853Y-108801426D01*
X132081680Y-108540273D01*
X131924637Y-108305241D01*
X131724759Y-108105363D01*
X131489727Y-107948320D01*
X131228574Y-107840147D01*
X130951335Y-107785000D01*
X130668665Y-107785000D01*
X130391426Y-107840147D01*
X130130273Y-107948320D01*
X129895241Y-108105363D01*
X129796643Y-108203961D01*
X129795812Y-108195518D01*
X129759502Y-108075820D01*
X129700537Y-107965506D01*
X129621185Y-107868815D01*
X129524494Y-107789463D01*
X129414180Y-107730498D01*
X129294482Y-107694188D01*
X129170000Y-107681928D01*
X127370000Y-107681928D01*
X127245518Y-107694188D01*
X127125820Y-107730498D01*
X127015506Y-107789463D01*
X126918815Y-107868815D01*
X126839463Y-107965506D01*
X126780498Y-108075820D01*
X126777187Y-108086735D01*
X126730422Y-108039970D01*
X126614474Y-108155918D01*
X126530792Y-107901739D01*
X126258225Y-107770842D01*
X125965358Y-107695635D01*
X125663447Y-107679009D01*
X125364093Y-107721603D01*
X125078801Y-107821778D01*
X124929208Y-107901739D01*
X124845525Y-108155920D01*
X118237000Y-108155920D01*
X118237000Y-104497702D01*
X133806903Y-104497702D01*
X133878486Y-104741671D01*
X134133996Y-104862571D01*
X134408184Y-104931300D01*
X134690512Y-104945217D01*
X134970130Y-104903787D01*
X135236292Y-104808603D01*
X135361514Y-104741671D01*
X135433097Y-104497702D01*
X134620000Y-103684605D01*
X133806903Y-104497702D01*
X118237000Y-104497702D01*
X118237000Y-97825000D01*
X119011928Y-97825000D01*
X119011928Y-99025000D01*
X119028992Y-99198254D01*
X119079528Y-99364850D01*
X119161595Y-99518386D01*
X119272038Y-99652962D01*
X119406614Y-99763405D01*
X119560150Y-99845472D01*
X119726746Y-99896008D01*
X119900000Y-99913072D01*
X121400000Y-99913072D01*
X121573254Y-99896008D01*
X121739850Y-99845472D01*
X121893386Y-99763405D01*
X122027962Y-99652962D01*
X122138405Y-99518386D01*
X122220472Y-99364850D01*
X122237110Y-99310000D01*
X125230479Y-99310000D01*
X125250363Y-99339759D01*
X125450241Y-99539637D01*
X125685273Y-99696680D01*
X125946426Y-99804853D01*
X126223665Y-99860000D01*
X126506335Y-99860000D01*
X126783574Y-99804853D01*
X127044727Y-99696680D01*
X127279759Y-99539637D01*
X127479637Y-99339759D01*
X127636680Y-99104727D01*
X127744853Y-98843574D01*
X127800000Y-98566335D01*
X127800000Y-98283665D01*
X127744853Y-98006426D01*
X127656469Y-97793047D01*
X128883470Y-99020049D01*
X128911183Y-99053817D01*
X128944951Y-99081530D01*
X128944953Y-99081532D01*
X128973216Y-99104727D01*
X129045941Y-99164411D01*
X129199687Y-99246589D01*
X129366510Y-99297195D01*
X129496523Y-99310000D01*
X129496533Y-99310000D01*
X129539999Y-99314281D01*
X129583466Y-99310000D01*
X132850479Y-99310000D01*
X132870363Y-99339759D01*
X133070241Y-99539637D01*
X133100000Y-99559522D01*
X133100000Y-99963421D01*
X132256439Y-100806983D01*
X132221335Y-100800000D01*
X131938665Y-100800000D01*
X131661426Y-100855147D01*
X131455000Y-100940651D01*
X131248574Y-100855147D01*
X130971335Y-100800000D01*
X130688665Y-100800000D01*
X130411426Y-100855147D01*
X130150273Y-100963320D01*
X129915241Y-101120363D01*
X129715363Y-101320241D01*
X129581308Y-101520869D01*
X129566671Y-101493486D01*
X129322702Y-101421903D01*
X128517111Y-102227494D01*
X128520217Y-102164488D01*
X128481592Y-101903803D01*
X129143097Y-101242298D01*
X129071514Y-100998329D01*
X128816004Y-100877429D01*
X128541816Y-100808700D01*
X128259488Y-100794783D01*
X127979870Y-100836213D01*
X127713708Y-100931397D01*
X127697908Y-100939842D01*
X127566004Y-100877429D01*
X127291816Y-100808700D01*
X127009488Y-100794783D01*
X126729870Y-100836213D01*
X126463708Y-100931397D01*
X126338486Y-100998329D01*
X126266903Y-101242298D01*
X126932579Y-101907974D01*
X126903700Y-102023184D01*
X126893594Y-102228199D01*
X126087298Y-101421903D01*
X125843329Y-101493486D01*
X125722429Y-101748996D01*
X125653700Y-102023184D01*
X125639783Y-102305512D01*
X125681213Y-102585130D01*
X125776397Y-102851292D01*
X125843329Y-102976514D01*
X126087298Y-103048097D01*
X126892889Y-102242506D01*
X126889783Y-102305512D01*
X126928408Y-102566197D01*
X126266903Y-103227702D01*
X126338486Y-103471671D01*
X126593996Y-103592571D01*
X126868184Y-103661300D01*
X127150512Y-103675217D01*
X127430130Y-103633787D01*
X127696292Y-103538603D01*
X127712092Y-103530158D01*
X127843996Y-103592571D01*
X128118184Y-103661300D01*
X128400512Y-103675217D01*
X128680130Y-103633787D01*
X128946292Y-103538603D01*
X129071514Y-103471671D01*
X129143097Y-103227702D01*
X128477421Y-102562026D01*
X128506300Y-102446816D01*
X128516406Y-102241801D01*
X129322702Y-103048097D01*
X129566671Y-102976514D01*
X129580324Y-102947659D01*
X129715363Y-103149759D01*
X129915241Y-103349637D01*
X130150273Y-103506680D01*
X130411426Y-103614853D01*
X130688665Y-103670000D01*
X130971335Y-103670000D01*
X131248574Y-103614853D01*
X131455000Y-103529349D01*
X131661426Y-103614853D01*
X131938665Y-103670000D01*
X132221335Y-103670000D01*
X132498574Y-103614853D01*
X132759727Y-103506680D01*
X132994759Y-103349637D01*
X133194637Y-103149759D01*
X133250673Y-103065895D01*
X133193700Y-103293184D01*
X133179783Y-103575512D01*
X133221213Y-103855130D01*
X133316397Y-104121292D01*
X133383329Y-104246514D01*
X133627298Y-104318097D01*
X134440395Y-103505000D01*
X134799605Y-103505000D01*
X135612702Y-104318097D01*
X135856671Y-104246514D01*
X135870324Y-104217659D01*
X136005363Y-104419759D01*
X136205241Y-104619637D01*
X136440273Y-104776680D01*
X136701426Y-104884853D01*
X136978665Y-104940000D01*
X137261335Y-104940000D01*
X137538574Y-104884853D01*
X137633551Y-104845512D01*
X147864783Y-104845512D01*
X147906213Y-105125130D01*
X148001397Y-105391292D01*
X148068329Y-105516514D01*
X148312298Y-105588097D01*
X149117889Y-104782506D01*
X149114783Y-104845512D01*
X149153408Y-105106197D01*
X148491903Y-105767702D01*
X148563486Y-106011671D01*
X148818996Y-106132571D01*
X149093184Y-106201300D01*
X149375512Y-106215217D01*
X149655130Y-106173787D01*
X149921292Y-106078603D01*
X149937092Y-106070158D01*
X150068996Y-106132571D01*
X150343184Y-106201300D01*
X150625512Y-106215217D01*
X150905130Y-106173787D01*
X151171292Y-106078603D01*
X151296514Y-106011671D01*
X151368097Y-105767702D01*
X150702421Y-105102026D01*
X150731300Y-104986816D01*
X150741406Y-104781801D01*
X151547702Y-105588097D01*
X151791671Y-105516514D01*
X151805324Y-105487659D01*
X151940363Y-105689759D01*
X152140241Y-105889637D01*
X152375273Y-106046680D01*
X152636426Y-106154853D01*
X152913665Y-106210000D01*
X153196335Y-106210000D01*
X153473574Y-106154853D01*
X153680000Y-106069349D01*
X153886426Y-106154853D01*
X154163665Y-106210000D01*
X154446335Y-106210000D01*
X154723574Y-106154853D01*
X154984727Y-106046680D01*
X155219759Y-105889637D01*
X155419637Y-105689759D01*
X155576680Y-105454727D01*
X155684853Y-105193574D01*
X155740000Y-104916335D01*
X155740000Y-104633665D01*
X155684853Y-104356426D01*
X155624202Y-104210000D01*
X162391928Y-104210000D01*
X162391928Y-106610000D01*
X162404188Y-106734482D01*
X162440498Y-106854180D01*
X162499463Y-106964494D01*
X162578815Y-107061185D01*
X162675506Y-107140537D01*
X162785820Y-107199502D01*
X162905518Y-107235812D01*
X163030000Y-107248072D01*
X164630000Y-107248072D01*
X164754482Y-107235812D01*
X164874180Y-107199502D01*
X164984494Y-107140537D01*
X165081185Y-107061185D01*
X165160537Y-106964494D01*
X165219502Y-106854180D01*
X165255812Y-106734482D01*
X165257581Y-106716517D01*
X165350393Y-106829608D01*
X165568900Y-107008932D01*
X165818193Y-107142182D01*
X166088692Y-107224236D01*
X166370000Y-107251943D01*
X166651309Y-107224236D01*
X166921808Y-107142182D01*
X167171101Y-107008932D01*
X167389608Y-106829608D01*
X167568932Y-106611101D01*
X167640000Y-106478142D01*
X167711068Y-106611101D01*
X167890393Y-106829608D01*
X168108900Y-107008932D01*
X168358193Y-107142182D01*
X168628692Y-107224236D01*
X168910000Y-107251943D01*
X169191309Y-107224236D01*
X169461808Y-107142182D01*
X169711101Y-107008932D01*
X169929608Y-106829608D01*
X170108932Y-106611101D01*
X170180000Y-106478142D01*
X170251068Y-106611101D01*
X170430393Y-106829608D01*
X170648900Y-107008932D01*
X170898193Y-107142182D01*
X171168692Y-107224236D01*
X171450000Y-107251943D01*
X171731309Y-107224236D01*
X172001808Y-107142182D01*
X172251101Y-107008932D01*
X172469608Y-106829608D01*
X172648932Y-106611101D01*
X172782182Y-106361808D01*
X172864236Y-106091309D01*
X172885000Y-105880491D01*
X172885000Y-104939508D01*
X172864236Y-104728691D01*
X172782182Y-104458192D01*
X172648932Y-104208899D01*
X172469607Y-103990392D01*
X172251100Y-103811068D01*
X172001807Y-103677818D01*
X171731308Y-103595764D01*
X171450000Y-103568057D01*
X171168691Y-103595764D01*
X170898192Y-103677818D01*
X170648899Y-103811068D01*
X170430392Y-103990393D01*
X170251068Y-104208900D01*
X170180000Y-104341858D01*
X170108932Y-104208899D01*
X169929607Y-103990392D01*
X169711100Y-103811068D01*
X169461807Y-103677818D01*
X169191308Y-103595764D01*
X168910000Y-103568057D01*
X168628691Y-103595764D01*
X168358192Y-103677818D01*
X168108899Y-103811068D01*
X167890392Y-103990393D01*
X167711068Y-104208900D01*
X167640000Y-104341858D01*
X167568932Y-104208899D01*
X167389607Y-103990392D01*
X167171100Y-103811068D01*
X166921807Y-103677818D01*
X166651308Y-103595764D01*
X166370000Y-103568057D01*
X166088691Y-103595764D01*
X165818192Y-103677818D01*
X165568899Y-103811068D01*
X165350392Y-103990393D01*
X165257581Y-104103483D01*
X165255812Y-104085518D01*
X165219502Y-103965820D01*
X165160537Y-103855506D01*
X165081185Y-103758815D01*
X164984494Y-103679463D01*
X164874180Y-103620498D01*
X164754482Y-103584188D01*
X164630000Y-103571928D01*
X163030000Y-103571928D01*
X162905518Y-103584188D01*
X162785820Y-103620498D01*
X162675506Y-103679463D01*
X162578815Y-103758815D01*
X162499463Y-103855506D01*
X162440498Y-103965820D01*
X162404188Y-104085518D01*
X162391928Y-104210000D01*
X155624202Y-104210000D01*
X155576680Y-104095273D01*
X155419637Y-103860241D01*
X155219759Y-103660363D01*
X155190000Y-103640479D01*
X155190000Y-102601578D01*
X155398561Y-102393017D01*
X155433665Y-102400000D01*
X155716335Y-102400000D01*
X155993574Y-102344853D01*
X156254727Y-102236680D01*
X156489759Y-102079637D01*
X156499396Y-102070000D01*
X176361928Y-102070000D01*
X176361928Y-103670000D01*
X176374188Y-103794482D01*
X176410498Y-103914180D01*
X176469463Y-104024494D01*
X176548815Y-104121185D01*
X176645506Y-104200537D01*
X176755820Y-104259502D01*
X176875518Y-104295812D01*
X177000000Y-104308072D01*
X178600000Y-104308072D01*
X178724482Y-104295812D01*
X178844180Y-104259502D01*
X178954494Y-104200537D01*
X179051185Y-104121185D01*
X179130537Y-104024494D01*
X179189502Y-103914180D01*
X179225812Y-103794482D01*
X179238072Y-103670000D01*
X179238072Y-102070000D01*
X179225812Y-101945518D01*
X179189502Y-101825820D01*
X179130537Y-101715506D01*
X179051185Y-101618815D01*
X178954494Y-101539463D01*
X178844180Y-101480498D01*
X178748057Y-101451339D01*
X178914637Y-101284759D01*
X179071680Y-101049727D01*
X179179853Y-100788574D01*
X179235000Y-100511335D01*
X179235000Y-100228665D01*
X179179853Y-99951426D01*
X179071680Y-99690273D01*
X178914637Y-99455241D01*
X178714759Y-99255363D01*
X178479727Y-99098320D01*
X178218574Y-98990147D01*
X177941335Y-98935000D01*
X177658665Y-98935000D01*
X177381426Y-98990147D01*
X177120273Y-99098320D01*
X176885241Y-99255363D01*
X176685363Y-99455241D01*
X176528320Y-99690273D01*
X176420147Y-99951426D01*
X176365000Y-100228665D01*
X176365000Y-100511335D01*
X176420147Y-100788574D01*
X176528320Y-101049727D01*
X176685363Y-101284759D01*
X176851943Y-101451339D01*
X176755820Y-101480498D01*
X176645506Y-101539463D01*
X176548815Y-101618815D01*
X176469463Y-101715506D01*
X176410498Y-101825820D01*
X176374188Y-101945518D01*
X176361928Y-102070000D01*
X156499396Y-102070000D01*
X156689637Y-101879759D01*
X156846680Y-101644727D01*
X156954853Y-101383574D01*
X157010000Y-101106335D01*
X157010000Y-100823665D01*
X156954853Y-100546426D01*
X156846680Y-100285273D01*
X156689637Y-100050241D01*
X156489759Y-99850363D01*
X156460000Y-99830479D01*
X156460000Y-98924521D01*
X156489759Y-98904637D01*
X156689637Y-98704759D01*
X156846680Y-98469727D01*
X156954853Y-98208574D01*
X157010000Y-97931335D01*
X157010000Y-97688665D01*
X159220000Y-97688665D01*
X159220000Y-97971335D01*
X159275147Y-98248574D01*
X159383320Y-98509727D01*
X159540363Y-98744759D01*
X159740241Y-98944637D01*
X159942827Y-99080000D01*
X159740241Y-99215363D01*
X159540363Y-99415241D01*
X159383320Y-99650273D01*
X159275147Y-99911426D01*
X159220000Y-100188665D01*
X159220000Y-100471335D01*
X159275147Y-100748574D01*
X159383320Y-101009727D01*
X159540363Y-101244759D01*
X159740241Y-101444637D01*
X159975273Y-101601680D01*
X160236426Y-101709853D01*
X160513665Y-101765000D01*
X160796335Y-101765000D01*
X161073574Y-101709853D01*
X161334727Y-101601680D01*
X161569759Y-101444637D01*
X161769637Y-101244759D01*
X161926680Y-101009727D01*
X162034853Y-100748574D01*
X162090000Y-100471335D01*
X162090000Y-100188665D01*
X162034853Y-99911426D01*
X161926680Y-99650273D01*
X161769637Y-99415241D01*
X161569759Y-99215363D01*
X161367173Y-99080000D01*
X161569759Y-98944637D01*
X161769637Y-98744759D01*
X161926680Y-98509727D01*
X162034853Y-98248574D01*
X162090000Y-97971335D01*
X162090000Y-97688665D01*
X162034853Y-97411426D01*
X161996780Y-97319509D01*
X162395000Y-97319509D01*
X162395000Y-98260492D01*
X162415764Y-98471309D01*
X162497818Y-98741808D01*
X162631068Y-98991101D01*
X162810393Y-99209608D01*
X163028900Y-99388932D01*
X163278193Y-99522182D01*
X163548692Y-99604236D01*
X163830000Y-99631943D01*
X164111309Y-99604236D01*
X164381808Y-99522182D01*
X164631101Y-99388932D01*
X164849608Y-99209608D01*
X165028932Y-98991101D01*
X165100000Y-98858142D01*
X165171068Y-98991101D01*
X165350393Y-99209608D01*
X165568900Y-99388932D01*
X165818193Y-99522182D01*
X166088692Y-99604236D01*
X166370000Y-99631943D01*
X166651309Y-99604236D01*
X166921808Y-99522182D01*
X167171101Y-99388932D01*
X167389608Y-99209608D01*
X167568932Y-98991101D01*
X167640000Y-98858142D01*
X167711068Y-98991101D01*
X167890393Y-99209608D01*
X168108900Y-99388932D01*
X168358193Y-99522182D01*
X168628692Y-99604236D01*
X168910000Y-99631943D01*
X169191309Y-99604236D01*
X169461808Y-99522182D01*
X169711101Y-99388932D01*
X169929608Y-99209608D01*
X170108932Y-98991101D01*
X170180000Y-98858142D01*
X170251068Y-98991101D01*
X170430393Y-99209608D01*
X170648900Y-99388932D01*
X170898193Y-99522182D01*
X171168692Y-99604236D01*
X171450000Y-99631943D01*
X171731309Y-99604236D01*
X172001808Y-99522182D01*
X172251101Y-99388932D01*
X172469608Y-99209608D01*
X172648932Y-98991101D01*
X172782182Y-98741808D01*
X172864236Y-98471309D01*
X172885000Y-98260491D01*
X172885000Y-97319508D01*
X172864236Y-97108691D01*
X172782182Y-96838192D01*
X172648932Y-96588899D01*
X172469607Y-96370392D01*
X172251100Y-96191068D01*
X172001807Y-96057818D01*
X171731308Y-95975764D01*
X171450000Y-95948057D01*
X171168691Y-95975764D01*
X170898192Y-96057818D01*
X170648899Y-96191068D01*
X170430392Y-96370393D01*
X170251068Y-96588900D01*
X170180000Y-96721858D01*
X170108932Y-96588899D01*
X169929607Y-96370392D01*
X169711100Y-96191068D01*
X169461807Y-96057818D01*
X169191308Y-95975764D01*
X168910000Y-95948057D01*
X168628691Y-95975764D01*
X168358192Y-96057818D01*
X168108899Y-96191068D01*
X167890392Y-96370393D01*
X167711068Y-96588900D01*
X167640000Y-96721858D01*
X167568932Y-96588899D01*
X167389607Y-96370392D01*
X167171100Y-96191068D01*
X166921807Y-96057818D01*
X166651308Y-95975764D01*
X166370000Y-95948057D01*
X166088691Y-95975764D01*
X165818192Y-96057818D01*
X165568899Y-96191068D01*
X165350392Y-96370393D01*
X165171068Y-96588900D01*
X165100000Y-96721858D01*
X165028932Y-96588899D01*
X164849607Y-96370392D01*
X164631100Y-96191068D01*
X164381807Y-96057818D01*
X164111308Y-95975764D01*
X163830000Y-95948057D01*
X163548691Y-95975764D01*
X163278192Y-96057818D01*
X163028899Y-96191068D01*
X162810392Y-96370393D01*
X162631068Y-96588900D01*
X162497818Y-96838193D01*
X162415764Y-97108692D01*
X162395000Y-97319509D01*
X161996780Y-97319509D01*
X161926680Y-97150273D01*
X161769637Y-96915241D01*
X161569759Y-96715363D01*
X161334727Y-96558320D01*
X161073574Y-96450147D01*
X160796335Y-96395000D01*
X160513665Y-96395000D01*
X160236426Y-96450147D01*
X159975273Y-96558320D01*
X159740241Y-96715363D01*
X159540363Y-96915241D01*
X159383320Y-97150273D01*
X159275147Y-97411426D01*
X159220000Y-97688665D01*
X157010000Y-97688665D01*
X157010000Y-97648665D01*
X156954853Y-97371426D01*
X156846680Y-97110273D01*
X156689637Y-96875241D01*
X156489759Y-96675363D01*
X156460000Y-96655479D01*
X156460000Y-95749521D01*
X156489759Y-95729637D01*
X156689637Y-95529759D01*
X156846680Y-95294727D01*
X156954853Y-95033574D01*
X157010000Y-94756335D01*
X157010000Y-94473665D01*
X156954853Y-94196426D01*
X156846680Y-93935273D01*
X156689637Y-93700241D01*
X156489759Y-93500363D01*
X156254727Y-93343320D01*
X155993574Y-93235147D01*
X155716335Y-93180000D01*
X155433665Y-93180000D01*
X155156426Y-93235147D01*
X154895273Y-93343320D01*
X154660241Y-93500363D01*
X154460363Y-93700241D01*
X154303320Y-93935273D01*
X154195147Y-94196426D01*
X154140000Y-94473665D01*
X154140000Y-94756335D01*
X154195147Y-95033574D01*
X154303320Y-95294727D01*
X154460363Y-95529759D01*
X154660241Y-95729637D01*
X154690000Y-95749522D01*
X154690001Y-96655478D01*
X154660241Y-96675363D01*
X154460363Y-96875241D01*
X154303320Y-97110273D01*
X154195147Y-97371426D01*
X154140000Y-97648665D01*
X154140000Y-97931335D01*
X154195147Y-98208574D01*
X154303320Y-98469727D01*
X154460363Y-98704759D01*
X154660241Y-98904637D01*
X154690000Y-98924522D01*
X154690001Y-99830478D01*
X154660241Y-99850363D01*
X154460363Y-100050241D01*
X154303320Y-100285273D01*
X154195147Y-100546426D01*
X154140000Y-100823665D01*
X154140000Y-101106335D01*
X154146983Y-101141439D01*
X153709956Y-101578466D01*
X153676183Y-101606183D01*
X153565589Y-101740942D01*
X153483411Y-101894688D01*
X153467992Y-101945518D01*
X153444432Y-102023184D01*
X153432805Y-102061511D01*
X153420000Y-102191524D01*
X153420000Y-102191531D01*
X153415719Y-102235000D01*
X153420000Y-102278469D01*
X153420000Y-103384490D01*
X153196335Y-103340000D01*
X152913665Y-103340000D01*
X152636426Y-103395147D01*
X152375273Y-103503320D01*
X152140241Y-103660363D01*
X151940363Y-103860241D01*
X151806308Y-104060869D01*
X151791671Y-104033486D01*
X151547702Y-103961903D01*
X150742111Y-104767494D01*
X150745217Y-104704488D01*
X150706592Y-104443803D01*
X151368097Y-103782298D01*
X151296514Y-103538329D01*
X151041004Y-103417429D01*
X150766816Y-103348700D01*
X150484488Y-103334783D01*
X150204870Y-103376213D01*
X149938708Y-103471397D01*
X149922908Y-103479842D01*
X149791004Y-103417429D01*
X149516816Y-103348700D01*
X149234488Y-103334783D01*
X148954870Y-103376213D01*
X148688708Y-103471397D01*
X148563486Y-103538329D01*
X148491903Y-103782298D01*
X149157579Y-104447974D01*
X149128700Y-104563184D01*
X149118594Y-104768199D01*
X148312298Y-103961903D01*
X148068329Y-104033486D01*
X147947429Y-104288996D01*
X147878700Y-104563184D01*
X147864783Y-104845512D01*
X137633551Y-104845512D01*
X137799727Y-104776680D01*
X138034759Y-104619637D01*
X138234637Y-104419759D01*
X138391680Y-104184727D01*
X138499853Y-103923574D01*
X138555000Y-103646335D01*
X138555000Y-103363665D01*
X138499853Y-103086426D01*
X138391680Y-102825273D01*
X138234637Y-102590241D01*
X138034759Y-102390363D01*
X137799727Y-102233320D01*
X137538574Y-102125147D01*
X137261335Y-102070000D01*
X136978665Y-102070000D01*
X136701426Y-102125147D01*
X136440273Y-102233320D01*
X136205241Y-102390363D01*
X136005363Y-102590241D01*
X135871308Y-102790869D01*
X135856671Y-102763486D01*
X135612702Y-102691903D01*
X134799605Y-103505000D01*
X134440395Y-103505000D01*
X133627298Y-102691903D01*
X133418614Y-102753133D01*
X133459853Y-102653574D01*
X133487954Y-102512298D01*
X133806903Y-102512298D01*
X134620000Y-103325395D01*
X135433097Y-102512298D01*
X135361514Y-102268329D01*
X135106004Y-102147429D01*
X134831816Y-102078700D01*
X134549488Y-102064783D01*
X134269870Y-102106213D01*
X134003708Y-102201397D01*
X133878486Y-102268329D01*
X133806903Y-102512298D01*
X133487954Y-102512298D01*
X133515000Y-102376335D01*
X133515000Y-102093665D01*
X133508017Y-102058561D01*
X134580050Y-100986529D01*
X134613817Y-100958817D01*
X134724411Y-100824059D01*
X134806589Y-100670313D01*
X134857195Y-100503490D01*
X134870000Y-100373477D01*
X134870000Y-100373469D01*
X134874281Y-100330000D01*
X134870000Y-100286531D01*
X134870000Y-99559521D01*
X134899759Y-99539637D01*
X135099637Y-99339759D01*
X135256680Y-99104727D01*
X135364853Y-98843574D01*
X135420000Y-98566335D01*
X135420000Y-98302517D01*
X135496285Y-98481646D01*
X135655500Y-98714895D01*
X135857161Y-98912601D01*
X136086741Y-99062735D01*
X135958899Y-99131068D01*
X135740392Y-99310392D01*
X135561068Y-99528899D01*
X135427818Y-99778192D01*
X135345764Y-100048691D01*
X135318057Y-100330000D01*
X135345764Y-100611309D01*
X135427818Y-100881808D01*
X135561068Y-101131101D01*
X135740392Y-101349608D01*
X135958899Y-101528932D01*
X136208192Y-101662182D01*
X136478691Y-101744236D01*
X136689508Y-101765000D01*
X137630492Y-101765000D01*
X137841309Y-101744236D01*
X138111808Y-101662182D01*
X138361101Y-101528932D01*
X138579608Y-101349608D01*
X138758932Y-101131101D01*
X138892182Y-100881808D01*
X138953690Y-100679039D01*
X142988096Y-100679039D01*
X143005633Y-100761818D01*
X143116285Y-101021646D01*
X143275500Y-101254895D01*
X143477161Y-101452601D01*
X143713517Y-101607166D01*
X143975486Y-101712650D01*
X144253000Y-101765000D01*
X144653000Y-101765000D01*
X144653000Y-100457000D01*
X143110085Y-100457000D01*
X142988096Y-100679039D01*
X138953690Y-100679039D01*
X138974236Y-100611309D01*
X139001943Y-100330000D01*
X138974236Y-100048691D01*
X138892182Y-99778192D01*
X138758932Y-99528899D01*
X138579608Y-99310392D01*
X138361101Y-99131068D01*
X138233259Y-99062735D01*
X138462839Y-98912601D01*
X138664500Y-98714895D01*
X138823715Y-98481646D01*
X138934367Y-98221818D01*
X138951904Y-98139039D01*
X138829915Y-97917000D01*
X137287000Y-97917000D01*
X137287000Y-97937000D01*
X137033000Y-97937000D01*
X137033000Y-97917000D01*
X135490085Y-97917000D01*
X135385082Y-98108122D01*
X135364853Y-98006426D01*
X135256680Y-97745273D01*
X135099637Y-97510241D01*
X134899759Y-97310363D01*
X134664727Y-97153320D01*
X134403574Y-97045147D01*
X134126335Y-96990000D01*
X133843665Y-96990000D01*
X133566426Y-97045147D01*
X133305273Y-97153320D01*
X133070241Y-97310363D01*
X132870363Y-97510241D01*
X132850479Y-97540000D01*
X129906579Y-97540000D01*
X127793017Y-95426439D01*
X127800000Y-95391335D01*
X127800000Y-95108665D01*
X127744853Y-94831426D01*
X127636680Y-94570273D01*
X127479637Y-94335241D01*
X127279759Y-94135363D01*
X127250000Y-94115479D01*
X127250000Y-93209521D01*
X127279759Y-93189637D01*
X127479637Y-92989759D01*
X127636680Y-92754727D01*
X127744853Y-92493574D01*
X127800000Y-92216335D01*
X127800000Y-91933665D01*
X127744853Y-91656426D01*
X127636680Y-91395273D01*
X127479637Y-91160241D01*
X127279759Y-90960363D01*
X127044727Y-90803320D01*
X126783574Y-90695147D01*
X126506335Y-90640000D01*
X126223665Y-90640000D01*
X125946426Y-90695147D01*
X125685273Y-90803320D01*
X125450241Y-90960363D01*
X125250363Y-91160241D01*
X125093320Y-91395273D01*
X124985147Y-91656426D01*
X124930000Y-91933665D01*
X124930000Y-92216335D01*
X124985147Y-92493574D01*
X125093320Y-92754727D01*
X125250363Y-92989759D01*
X125450241Y-93189637D01*
X125480000Y-93209522D01*
X125480001Y-94115478D01*
X125450241Y-94135363D01*
X125250363Y-94335241D01*
X125093320Y-94570273D01*
X124985147Y-94831426D01*
X124930000Y-95108665D01*
X124930000Y-95391335D01*
X124985147Y-95668574D01*
X125093320Y-95929727D01*
X125250363Y-96164759D01*
X125450241Y-96364637D01*
X125685273Y-96521680D01*
X125946426Y-96629853D01*
X126223665Y-96685000D01*
X126506335Y-96685000D01*
X126541439Y-96678017D01*
X126996953Y-97133531D01*
X126783574Y-97045147D01*
X126506335Y-96990000D01*
X126223665Y-96990000D01*
X125946426Y-97045147D01*
X125685273Y-97153320D01*
X125450241Y-97310363D01*
X125250363Y-97510241D01*
X125230479Y-97540000D01*
X122237110Y-97540000D01*
X122220472Y-97485150D01*
X122138405Y-97331614D01*
X122027962Y-97197038D01*
X121893386Y-97086595D01*
X121791407Y-97032086D01*
X121791795Y-97031802D01*
X121988664Y-96817046D01*
X122139854Y-96568009D01*
X122239554Y-96294261D01*
X122241476Y-96281890D01*
X122120155Y-96052000D01*
X120777000Y-96052000D01*
X120777000Y-96072000D01*
X120523000Y-96072000D01*
X120523000Y-96052000D01*
X119179845Y-96052000D01*
X119058524Y-96281890D01*
X119060446Y-96294261D01*
X119160146Y-96568009D01*
X119311336Y-96817046D01*
X119508205Y-97031802D01*
X119508593Y-97032086D01*
X119406614Y-97086595D01*
X119272038Y-97197038D01*
X119161595Y-97331614D01*
X119079528Y-97485150D01*
X119028992Y-97651746D01*
X119011928Y-97825000D01*
X118237000Y-97825000D01*
X118237000Y-95568110D01*
X119058524Y-95568110D01*
X119179845Y-95798000D01*
X120523000Y-95798000D01*
X120523000Y-94597768D01*
X120777000Y-94597768D01*
X120777000Y-95798000D01*
X122120155Y-95798000D01*
X122241476Y-95568110D01*
X122239554Y-95555739D01*
X122139854Y-95281991D01*
X121988664Y-95032954D01*
X121791795Y-94818198D01*
X121556812Y-94645975D01*
X121292745Y-94522904D01*
X121009742Y-94453715D01*
X120777000Y-94597768D01*
X120523000Y-94597768D01*
X120290258Y-94453715D01*
X120007255Y-94522904D01*
X119743188Y-94645975D01*
X119508205Y-94818198D01*
X119311336Y-95032954D01*
X119160146Y-95281991D01*
X119060446Y-95555739D01*
X119058524Y-95568110D01*
X118237000Y-95568110D01*
X118237000Y-78904999D01*
X124675720Y-78904999D01*
X124680002Y-78948478D01*
X124680001Y-82206534D01*
X124675720Y-82250003D01*
X124680001Y-82293472D01*
X124680001Y-82293479D01*
X124692806Y-82423492D01*
X124743412Y-82590315D01*
X124825590Y-82744061D01*
X124936184Y-82878820D01*
X124969957Y-82906537D01*
X128698676Y-86635257D01*
X128718411Y-86700313D01*
X128793105Y-86840057D01*
X128566426Y-86885147D01*
X128305273Y-86993320D01*
X128070241Y-87150363D01*
X127870363Y-87350241D01*
X127713320Y-87585273D01*
X127662731Y-87707407D01*
X127610589Y-87770941D01*
X127528411Y-87924687D01*
X127477805Y-88091510D01*
X127460718Y-88265000D01*
X127477805Y-88438490D01*
X127528411Y-88605313D01*
X127610589Y-88759059D01*
X127662731Y-88822593D01*
X127713320Y-88944727D01*
X127870363Y-89179759D01*
X128070241Y-89379637D01*
X128305273Y-89536680D01*
X128566426Y-89644853D01*
X128843665Y-89700000D01*
X129126335Y-89700000D01*
X129350001Y-89655510D01*
X129350000Y-91456531D01*
X129345719Y-91500000D01*
X129350000Y-91543469D01*
X129350000Y-91543476D01*
X129358186Y-91626589D01*
X129362805Y-91673490D01*
X129376841Y-91719759D01*
X129413411Y-91840312D01*
X129495589Y-91994058D01*
X129606183Y-92128817D01*
X129639956Y-92156534D01*
X132556983Y-95073561D01*
X132550000Y-95108665D01*
X132550000Y-95391335D01*
X132605147Y-95668574D01*
X132713320Y-95929727D01*
X132870363Y-96164759D01*
X133070241Y-96364637D01*
X133305273Y-96521680D01*
X133566426Y-96629853D01*
X133843665Y-96685000D01*
X134126335Y-96685000D01*
X134403574Y-96629853D01*
X134664727Y-96521680D01*
X134899759Y-96364637D01*
X135099637Y-96164759D01*
X135119521Y-96135000D01*
X135629922Y-96135000D01*
X135740392Y-96269608D01*
X135958899Y-96448932D01*
X136086741Y-96517265D01*
X135857161Y-96667399D01*
X135655500Y-96865105D01*
X135496285Y-97098354D01*
X135385633Y-97358182D01*
X135368096Y-97440961D01*
X135490085Y-97663000D01*
X137033000Y-97663000D01*
X137033000Y-97643000D01*
X137287000Y-97643000D01*
X137287000Y-97663000D01*
X138829915Y-97663000D01*
X138951904Y-97440961D01*
X138934367Y-97358182D01*
X138823715Y-97098354D01*
X138664500Y-96865105D01*
X138462839Y-96667399D01*
X138233259Y-96517265D01*
X138361101Y-96448932D01*
X138579608Y-96269608D01*
X138758932Y-96051101D01*
X138892182Y-95801808D01*
X138917329Y-95718908D01*
X142873460Y-99675039D01*
X142901173Y-99708807D01*
X142934941Y-99736520D01*
X142934943Y-99736522D01*
X142967700Y-99763405D01*
X143035931Y-99819401D01*
X143038580Y-99820817D01*
X143005633Y-99898182D01*
X142988096Y-99980961D01*
X143110085Y-100203000D01*
X144653000Y-100203000D01*
X144653000Y-100183000D01*
X144907000Y-100183000D01*
X144907000Y-100203000D01*
X144927000Y-100203000D01*
X144927000Y-100457000D01*
X144907000Y-100457000D01*
X144907000Y-101765000D01*
X145307000Y-101765000D01*
X145584514Y-101712650D01*
X145846483Y-101607166D01*
X146082839Y-101452601D01*
X146284500Y-101254895D01*
X146443715Y-101021646D01*
X146520000Y-100842517D01*
X146520000Y-101106335D01*
X146575147Y-101383574D01*
X146683320Y-101644727D01*
X146840363Y-101879759D01*
X147040241Y-102079637D01*
X147275273Y-102236680D01*
X147536426Y-102344853D01*
X147813665Y-102400000D01*
X148096335Y-102400000D01*
X148373574Y-102344853D01*
X148634727Y-102236680D01*
X148869759Y-102079637D01*
X149069637Y-101879759D01*
X149226680Y-101644727D01*
X149334853Y-101383574D01*
X149390000Y-101106335D01*
X149390000Y-100823665D01*
X149334853Y-100546426D01*
X149226680Y-100285273D01*
X149069637Y-100050241D01*
X148869759Y-99850363D01*
X148634727Y-99693320D01*
X148373574Y-99585147D01*
X148096335Y-99530000D01*
X147813665Y-99530000D01*
X147778561Y-99536983D01*
X147323047Y-99081469D01*
X147536426Y-99169853D01*
X147813665Y-99225000D01*
X148096335Y-99225000D01*
X148373574Y-99169853D01*
X148634727Y-99061680D01*
X148869759Y-98904637D01*
X149069637Y-98704759D01*
X149226680Y-98469727D01*
X149334853Y-98208574D01*
X149390000Y-97931335D01*
X149390000Y-97648665D01*
X149383017Y-97613561D01*
X154265051Y-92731528D01*
X154298817Y-92703817D01*
X154326533Y-92670046D01*
X154409411Y-92569059D01*
X154491589Y-92415314D01*
X154529602Y-92290000D01*
X175041928Y-92290000D01*
X175054188Y-92414482D01*
X175090498Y-92534180D01*
X175149463Y-92644494D01*
X175228815Y-92741185D01*
X175325506Y-92820537D01*
X175435820Y-92879502D01*
X175555518Y-92915812D01*
X175680000Y-92928072D01*
X176244250Y-92925000D01*
X176403000Y-92766250D01*
X176403000Y-91567000D01*
X176657000Y-91567000D01*
X176657000Y-92766250D01*
X176815750Y-92925000D01*
X177380000Y-92928072D01*
X177504482Y-92915812D01*
X177624180Y-92879502D01*
X177734494Y-92820537D01*
X177831185Y-92741185D01*
X177910537Y-92644494D01*
X177969502Y-92534180D01*
X177993966Y-92453534D01*
X178069731Y-92537588D01*
X178303080Y-92711641D01*
X178565901Y-92836825D01*
X178713110Y-92881476D01*
X178943000Y-92760155D01*
X178943000Y-91567000D01*
X179197000Y-91567000D01*
X179197000Y-92760155D01*
X179426890Y-92881476D01*
X179574099Y-92836825D01*
X179836920Y-92711641D01*
X180070269Y-92537588D01*
X180265178Y-92321355D01*
X180414157Y-92071252D01*
X180511481Y-91796891D01*
X180390814Y-91567000D01*
X179197000Y-91567000D01*
X178943000Y-91567000D01*
X176657000Y-91567000D01*
X176403000Y-91567000D01*
X175203750Y-91567000D01*
X175045000Y-91725750D01*
X175041928Y-92290000D01*
X154529602Y-92290000D01*
X154542195Y-92248490D01*
X154545401Y-92215941D01*
X154546406Y-92205735D01*
X154718665Y-92240000D01*
X155001335Y-92240000D01*
X155278574Y-92184853D01*
X155539727Y-92076680D01*
X155774759Y-91919637D01*
X155974637Y-91719759D01*
X156131680Y-91484727D01*
X156239853Y-91223574D01*
X156295000Y-90946335D01*
X156295000Y-90663665D01*
X156280347Y-90590000D01*
X175041928Y-90590000D01*
X175045000Y-91154250D01*
X175203750Y-91313000D01*
X176403000Y-91313000D01*
X176403000Y-90113750D01*
X176657000Y-90113750D01*
X176657000Y-91313000D01*
X178943000Y-91313000D01*
X178943000Y-90119845D01*
X179197000Y-90119845D01*
X179197000Y-91313000D01*
X180390814Y-91313000D01*
X180511481Y-91083109D01*
X180414157Y-90808748D01*
X180265178Y-90558645D01*
X180070269Y-90342412D01*
X179836920Y-90168359D01*
X179574099Y-90043175D01*
X179426890Y-89998524D01*
X179197000Y-90119845D01*
X178943000Y-90119845D01*
X178713110Y-89998524D01*
X178565901Y-90043175D01*
X178303080Y-90168359D01*
X178069731Y-90342412D01*
X177993966Y-90426466D01*
X177969502Y-90345820D01*
X177910537Y-90235506D01*
X177831185Y-90138815D01*
X177734494Y-90059463D01*
X177624180Y-90000498D01*
X177504482Y-89964188D01*
X177380000Y-89951928D01*
X176815750Y-89955000D01*
X176657000Y-90113750D01*
X176403000Y-90113750D01*
X176244250Y-89955000D01*
X175680000Y-89951928D01*
X175555518Y-89964188D01*
X175435820Y-90000498D01*
X175325506Y-90059463D01*
X175228815Y-90138815D01*
X175149463Y-90235506D01*
X175090498Y-90345820D01*
X175054188Y-90465518D01*
X175041928Y-90590000D01*
X156280347Y-90590000D01*
X156239853Y-90386426D01*
X156131680Y-90125273D01*
X155974637Y-89890241D01*
X155774759Y-89690363D01*
X155539727Y-89533320D01*
X155278574Y-89425147D01*
X155001335Y-89370000D01*
X154718665Y-89370000D01*
X154441426Y-89425147D01*
X154235000Y-89510651D01*
X154028574Y-89425147D01*
X153751335Y-89370000D01*
X153468665Y-89370000D01*
X153191426Y-89425147D01*
X152930273Y-89533320D01*
X152695241Y-89690363D01*
X152495363Y-89890241D01*
X152360000Y-90092827D01*
X152224637Y-89890241D01*
X152024759Y-89690363D01*
X151789727Y-89533320D01*
X151528574Y-89425147D01*
X151388020Y-89397189D01*
X151568319Y-89216890D01*
X159698524Y-89216890D01*
X159700446Y-89229261D01*
X159800146Y-89503009D01*
X159951336Y-89752046D01*
X160148205Y-89966802D01*
X160383188Y-90139025D01*
X160647255Y-90262096D01*
X160930258Y-90331285D01*
X161163000Y-90187232D01*
X161163000Y-88987000D01*
X161417000Y-88987000D01*
X161417000Y-90187232D01*
X161649742Y-90331285D01*
X161932745Y-90262096D01*
X162196812Y-90139025D01*
X162431795Y-89966802D01*
X162628664Y-89752046D01*
X162779854Y-89503009D01*
X162879554Y-89229261D01*
X162881476Y-89216890D01*
X162760155Y-88987000D01*
X161417000Y-88987000D01*
X161163000Y-88987000D01*
X159819845Y-88987000D01*
X159698524Y-89216890D01*
X151568319Y-89216890D01*
X153540209Y-87245000D01*
X159702890Y-87245000D01*
X159719528Y-87299850D01*
X159801595Y-87453386D01*
X159912038Y-87587962D01*
X160046614Y-87698405D01*
X160148593Y-87752914D01*
X160148205Y-87753198D01*
X159951336Y-87967954D01*
X159800146Y-88216991D01*
X159700446Y-88490739D01*
X159698524Y-88503110D01*
X159819845Y-88733000D01*
X161163000Y-88733000D01*
X161163000Y-88713000D01*
X161417000Y-88713000D01*
X161417000Y-88733000D01*
X162760155Y-88733000D01*
X162881476Y-88503110D01*
X162879554Y-88490739D01*
X162779854Y-88216991D01*
X162628664Y-87967954D01*
X162431795Y-87753198D01*
X162431407Y-87752914D01*
X162533386Y-87698405D01*
X162667962Y-87587962D01*
X162778405Y-87453386D01*
X162860472Y-87299850D01*
X162911008Y-87133254D01*
X162928072Y-86960000D01*
X162928072Y-85760000D01*
X162911008Y-85586746D01*
X162860472Y-85420150D01*
X162778405Y-85266614D01*
X162667962Y-85132038D01*
X162533386Y-85021595D01*
X162379850Y-84939528D01*
X162213254Y-84888992D01*
X162040000Y-84871928D01*
X160540000Y-84871928D01*
X160366746Y-84888992D01*
X160200150Y-84939528D01*
X160046614Y-85021595D01*
X159912038Y-85132038D01*
X159801595Y-85266614D01*
X159719528Y-85420150D01*
X159702890Y-85475000D01*
X154679396Y-85475000D01*
X154784637Y-85369759D01*
X154941680Y-85134727D01*
X155049853Y-84873574D01*
X155105000Y-84596335D01*
X155105000Y-84313665D01*
X155049853Y-84036426D01*
X154941680Y-83775273D01*
X154784637Y-83540241D01*
X154584759Y-83340363D01*
X154555000Y-83320479D01*
X154555000Y-82916578D01*
X155398561Y-82073017D01*
X155433665Y-82080000D01*
X155716335Y-82080000D01*
X155993574Y-82024853D01*
X156254727Y-81916680D01*
X156489759Y-81759637D01*
X156689637Y-81559759D01*
X156846680Y-81324727D01*
X156954853Y-81063574D01*
X157010000Y-80786335D01*
X157010000Y-80503665D01*
X156954853Y-80226426D01*
X156846680Y-79965273D01*
X156689637Y-79730241D01*
X156489759Y-79530363D01*
X156460000Y-79510479D01*
X156460000Y-78604521D01*
X156489759Y-78584637D01*
X156689637Y-78384759D01*
X156846680Y-78149727D01*
X156954853Y-77888574D01*
X157010000Y-77611335D01*
X157010000Y-77328665D01*
X156954853Y-77051426D01*
X156846680Y-76790273D01*
X156689637Y-76555241D01*
X156489759Y-76355363D01*
X156460000Y-76335479D01*
X156460000Y-75429521D01*
X156489759Y-75409637D01*
X156652506Y-75246890D01*
X159698524Y-75246890D01*
X159700446Y-75259261D01*
X159800146Y-75533009D01*
X159951336Y-75782046D01*
X160148205Y-75996802D01*
X160383188Y-76169025D01*
X160647255Y-76292096D01*
X160930258Y-76361285D01*
X161163000Y-76217232D01*
X161163000Y-75017000D01*
X161417000Y-75017000D01*
X161417000Y-76217232D01*
X161649742Y-76361285D01*
X161932745Y-76292096D01*
X162196812Y-76169025D01*
X162431795Y-75996802D01*
X162628664Y-75782046D01*
X162779854Y-75533009D01*
X162879554Y-75259261D01*
X162881476Y-75246890D01*
X162760155Y-75017000D01*
X161417000Y-75017000D01*
X161163000Y-75017000D01*
X159819845Y-75017000D01*
X159698524Y-75246890D01*
X156652506Y-75246890D01*
X156689637Y-75209759D01*
X156846680Y-74974727D01*
X156954853Y-74713574D01*
X157010000Y-74436335D01*
X157010000Y-74153665D01*
X156954853Y-73876426D01*
X156846680Y-73615273D01*
X156689637Y-73380241D01*
X156489759Y-73180363D01*
X156254727Y-73023320D01*
X155993574Y-72915147D01*
X155716335Y-72860000D01*
X155433665Y-72860000D01*
X155156426Y-72915147D01*
X154895273Y-73023320D01*
X154660241Y-73180363D01*
X154460363Y-73380241D01*
X154303320Y-73615273D01*
X154195147Y-73876426D01*
X154140000Y-74153665D01*
X154140000Y-74436335D01*
X154195147Y-74713574D01*
X154303320Y-74974727D01*
X154460363Y-75209759D01*
X154660241Y-75409637D01*
X154690000Y-75429522D01*
X154690001Y-76335478D01*
X154660241Y-76355363D01*
X154460363Y-76555241D01*
X154303320Y-76790273D01*
X154195147Y-77051426D01*
X154140000Y-77328665D01*
X154140000Y-77611335D01*
X154195147Y-77888574D01*
X154303320Y-78149727D01*
X154460363Y-78384759D01*
X154660241Y-78584637D01*
X154690001Y-78604522D01*
X154690000Y-79510478D01*
X154660241Y-79530363D01*
X154460363Y-79730241D01*
X154303320Y-79965273D01*
X154195147Y-80226426D01*
X154140000Y-80503665D01*
X154140000Y-80786335D01*
X154146983Y-80821439D01*
X153074951Y-81893471D01*
X153041184Y-81921183D01*
X153013471Y-81954951D01*
X153013468Y-81954954D01*
X152930590Y-82055941D01*
X152848412Y-82209687D01*
X152797805Y-82376510D01*
X152780719Y-82550000D01*
X152785001Y-82593479D01*
X152785001Y-83064490D01*
X152561335Y-83020000D01*
X152278665Y-83020000D01*
X152001426Y-83075147D01*
X151740273Y-83183320D01*
X151505241Y-83340363D01*
X151305363Y-83540241D01*
X151171308Y-83740869D01*
X151156671Y-83713486D01*
X150912702Y-83641903D01*
X150107111Y-84447494D01*
X150110217Y-84384488D01*
X150071592Y-84123803D01*
X150733097Y-83462298D01*
X150661514Y-83218329D01*
X150406004Y-83097429D01*
X150131816Y-83028700D01*
X149849488Y-83014783D01*
X149569870Y-83056213D01*
X149303708Y-83151397D01*
X149287908Y-83159842D01*
X149156004Y-83097429D01*
X148881816Y-83028700D01*
X148599488Y-83014783D01*
X148319870Y-83056213D01*
X148053708Y-83151397D01*
X147928486Y-83218329D01*
X147856903Y-83462298D01*
X148522579Y-84127974D01*
X148493700Y-84243184D01*
X148483594Y-84448199D01*
X147677298Y-83641903D01*
X147433329Y-83713486D01*
X147312429Y-83968996D01*
X147243700Y-84243184D01*
X147229783Y-84525512D01*
X147271213Y-84805130D01*
X147366397Y-85071292D01*
X147433329Y-85196514D01*
X147677298Y-85268097D01*
X148482889Y-84462506D01*
X148479783Y-84525512D01*
X148518408Y-84786197D01*
X147856903Y-85447702D01*
X147928486Y-85691671D01*
X148183996Y-85812571D01*
X148458184Y-85881300D01*
X148740512Y-85895217D01*
X149020130Y-85853787D01*
X149286292Y-85758603D01*
X149302092Y-85750158D01*
X149433996Y-85812571D01*
X149708184Y-85881300D01*
X149990512Y-85895217D01*
X150270130Y-85853787D01*
X150536292Y-85758603D01*
X150661514Y-85691671D01*
X150733097Y-85447702D01*
X150067421Y-84782026D01*
X150096300Y-84666816D01*
X150106406Y-84461801D01*
X150912702Y-85268097D01*
X151156671Y-85196514D01*
X151170324Y-85167659D01*
X151305363Y-85369759D01*
X151505241Y-85569637D01*
X151740273Y-85726680D01*
X152001426Y-85834853D01*
X152278665Y-85890000D01*
X152392051Y-85890000D01*
X149860000Y-88422051D01*
X147202904Y-85764956D01*
X147175187Y-85731183D01*
X147040429Y-85620589D01*
X146886683Y-85538411D01*
X146719860Y-85487805D01*
X146589847Y-85475000D01*
X146589839Y-85475000D01*
X146546370Y-85470719D01*
X146502901Y-85475000D01*
X130041577Y-85475000D01*
X128744279Y-84177702D01*
X133806903Y-84177702D01*
X133878486Y-84421671D01*
X134133996Y-84542571D01*
X134408184Y-84611300D01*
X134690512Y-84625217D01*
X134970130Y-84583787D01*
X135236292Y-84488603D01*
X135361514Y-84421671D01*
X135433097Y-84177702D01*
X134620000Y-83364605D01*
X133806903Y-84177702D01*
X128744279Y-84177702D01*
X127834793Y-83268216D01*
X127843996Y-83272571D01*
X128118184Y-83341300D01*
X128400512Y-83355217D01*
X128680130Y-83313787D01*
X128946292Y-83218603D01*
X129071514Y-83151671D01*
X129143097Y-82907702D01*
X128477421Y-82242026D01*
X128506300Y-82126816D01*
X128516406Y-81921801D01*
X129322702Y-82728097D01*
X129566671Y-82656514D01*
X129580324Y-82627659D01*
X129715363Y-82829759D01*
X129915241Y-83029637D01*
X130150273Y-83186680D01*
X130411426Y-83294853D01*
X130688665Y-83350000D01*
X130971335Y-83350000D01*
X131248574Y-83294853D01*
X131455000Y-83209349D01*
X131661426Y-83294853D01*
X131938665Y-83350000D01*
X132221335Y-83350000D01*
X132498574Y-83294853D01*
X132759727Y-83186680D01*
X132994759Y-83029637D01*
X133194637Y-82829759D01*
X133250673Y-82745895D01*
X133193700Y-82973184D01*
X133179783Y-83255512D01*
X133221213Y-83535130D01*
X133316397Y-83801292D01*
X133383329Y-83926514D01*
X133627298Y-83998097D01*
X134440395Y-83185000D01*
X134799605Y-83185000D01*
X135612702Y-83998097D01*
X135856671Y-83926514D01*
X135870324Y-83897659D01*
X136005363Y-84099759D01*
X136205241Y-84299637D01*
X136440273Y-84456680D01*
X136701426Y-84564853D01*
X136978665Y-84620000D01*
X137261335Y-84620000D01*
X137538574Y-84564853D01*
X137799727Y-84456680D01*
X138034759Y-84299637D01*
X138234637Y-84099759D01*
X138391680Y-83864727D01*
X138499853Y-83603574D01*
X138555000Y-83326335D01*
X138555000Y-83043665D01*
X138499853Y-82766426D01*
X138391680Y-82505273D01*
X138234637Y-82270241D01*
X138034759Y-82070363D01*
X137799727Y-81913320D01*
X137538574Y-81805147D01*
X137261335Y-81750000D01*
X136978665Y-81750000D01*
X136701426Y-81805147D01*
X136440273Y-81913320D01*
X136205241Y-82070363D01*
X136005363Y-82270241D01*
X135871308Y-82470869D01*
X135856671Y-82443486D01*
X135612702Y-82371903D01*
X134799605Y-83185000D01*
X134440395Y-83185000D01*
X133627298Y-82371903D01*
X133418614Y-82433133D01*
X133459853Y-82333574D01*
X133487954Y-82192298D01*
X133806903Y-82192298D01*
X134620000Y-83005395D01*
X135433097Y-82192298D01*
X135361514Y-81948329D01*
X135106004Y-81827429D01*
X134831816Y-81758700D01*
X134549488Y-81744783D01*
X134269870Y-81786213D01*
X134003708Y-81881397D01*
X133878486Y-81948329D01*
X133806903Y-82192298D01*
X133487954Y-82192298D01*
X133515000Y-82056335D01*
X133515000Y-81773665D01*
X133508017Y-81738561D01*
X134580050Y-80666529D01*
X134613817Y-80638817D01*
X134724411Y-80504059D01*
X134806589Y-80350313D01*
X134857195Y-80183490D01*
X134870000Y-80053477D01*
X134870000Y-80053469D01*
X134874281Y-80010000D01*
X134870000Y-79966531D01*
X134870000Y-79239521D01*
X134899759Y-79219637D01*
X135099637Y-79019759D01*
X135256680Y-78784727D01*
X135364853Y-78523574D01*
X135420000Y-78246335D01*
X135420000Y-77982517D01*
X135496285Y-78161646D01*
X135655500Y-78394895D01*
X135857161Y-78592601D01*
X136086741Y-78742735D01*
X135958899Y-78811068D01*
X135740392Y-78990392D01*
X135561068Y-79208899D01*
X135427818Y-79458192D01*
X135345764Y-79728691D01*
X135318057Y-80010000D01*
X135345764Y-80291309D01*
X135427818Y-80561808D01*
X135561068Y-80811101D01*
X135740392Y-81029608D01*
X135958899Y-81208932D01*
X136208192Y-81342182D01*
X136478691Y-81424236D01*
X136689508Y-81445000D01*
X137630492Y-81445000D01*
X137841309Y-81424236D01*
X138111808Y-81342182D01*
X138361101Y-81208932D01*
X138579608Y-81029608D01*
X138758932Y-80811101D01*
X138892182Y-80561808D01*
X138953690Y-80359039D01*
X142988096Y-80359039D01*
X143005633Y-80441818D01*
X143116285Y-80701646D01*
X143275500Y-80934895D01*
X143477161Y-81132601D01*
X143713517Y-81287166D01*
X143975486Y-81392650D01*
X144253000Y-81445000D01*
X144653000Y-81445000D01*
X144653000Y-80137000D01*
X143110085Y-80137000D01*
X142988096Y-80359039D01*
X138953690Y-80359039D01*
X138974236Y-80291309D01*
X139001943Y-80010000D01*
X138974236Y-79728691D01*
X138892182Y-79458192D01*
X138758932Y-79208899D01*
X138579608Y-78990392D01*
X138361101Y-78811068D01*
X138233259Y-78742735D01*
X138462839Y-78592601D01*
X138664500Y-78394895D01*
X138823715Y-78161646D01*
X138934367Y-77901818D01*
X138951904Y-77819039D01*
X138829915Y-77597000D01*
X137287000Y-77597000D01*
X137287000Y-77617000D01*
X137033000Y-77617000D01*
X137033000Y-77597000D01*
X135490085Y-77597000D01*
X135385082Y-77788122D01*
X135364853Y-77686426D01*
X135256680Y-77425273D01*
X135099637Y-77190241D01*
X134899759Y-76990363D01*
X134664727Y-76833320D01*
X134403574Y-76725147D01*
X134126335Y-76670000D01*
X133843665Y-76670000D01*
X133566426Y-76725147D01*
X133305273Y-76833320D01*
X133070241Y-76990363D01*
X132870363Y-77190241D01*
X132850479Y-77220000D01*
X129906579Y-77220000D01*
X127793017Y-75106439D01*
X127800000Y-75071335D01*
X127800000Y-74788665D01*
X127744853Y-74511426D01*
X127636680Y-74250273D01*
X127479637Y-74015241D01*
X127279759Y-73815363D01*
X127250000Y-73795479D01*
X127250000Y-72889521D01*
X127279759Y-72869637D01*
X127479637Y-72669759D01*
X127636680Y-72434727D01*
X127744853Y-72173574D01*
X127800000Y-71896335D01*
X127800000Y-71613665D01*
X127744853Y-71336426D01*
X127636680Y-71075273D01*
X127479637Y-70840241D01*
X127279759Y-70640363D01*
X127044727Y-70483320D01*
X126783574Y-70375147D01*
X126506335Y-70320000D01*
X126223665Y-70320000D01*
X125946426Y-70375147D01*
X125685273Y-70483320D01*
X125450241Y-70640363D01*
X125250363Y-70840241D01*
X125093320Y-71075273D01*
X124985147Y-71336426D01*
X124930000Y-71613665D01*
X124930000Y-71896335D01*
X124985147Y-72173574D01*
X125093320Y-72434727D01*
X125250363Y-72669759D01*
X125450241Y-72869637D01*
X125480001Y-72889522D01*
X125480000Y-73795478D01*
X125450241Y-73815363D01*
X125250363Y-74015241D01*
X125093320Y-74250273D01*
X124985147Y-74511426D01*
X124930000Y-74788665D01*
X124930000Y-75071335D01*
X124985147Y-75348574D01*
X125093320Y-75609727D01*
X125250363Y-75844759D01*
X125450241Y-76044637D01*
X125685273Y-76201680D01*
X125946426Y-76309853D01*
X126223665Y-76365000D01*
X126506335Y-76365000D01*
X126541439Y-76358017D01*
X126996953Y-76813531D01*
X126783574Y-76725147D01*
X126506335Y-76670000D01*
X126223665Y-76670000D01*
X125946426Y-76725147D01*
X125685273Y-76833320D01*
X125450241Y-76990363D01*
X125250363Y-77190241D01*
X125093320Y-77425273D01*
X124985147Y-77686426D01*
X124930000Y-77963665D01*
X124930000Y-78246335D01*
X124935985Y-78276425D01*
X124908472Y-78309950D01*
X124908469Y-78309953D01*
X124825591Y-78410940D01*
X124743413Y-78564686D01*
X124692806Y-78731509D01*
X124675720Y-78904999D01*
X118237000Y-78904999D01*
X118237000Y-69234283D01*
X118321331Y-69290631D01*
X118728075Y-69459110D01*
X119159872Y-69545000D01*
X119600128Y-69545000D01*
X120031925Y-69459110D01*
X120438669Y-69290631D01*
X120804729Y-69046038D01*
X121116038Y-68734729D01*
X121360631Y-68368669D01*
X121529110Y-67961925D01*
X121560589Y-67803665D01*
X127550000Y-67803665D01*
X127550000Y-68086335D01*
X127605147Y-68363574D01*
X127713320Y-68624727D01*
X127870363Y-68859759D01*
X128070241Y-69059637D01*
X128305273Y-69216680D01*
X128566426Y-69324853D01*
X128843665Y-69380000D01*
X129126335Y-69380000D01*
X129350000Y-69335510D01*
X129350001Y-71136521D01*
X129345719Y-71180000D01*
X129362805Y-71353490D01*
X129413412Y-71520313D01*
X129495590Y-71674059D01*
X129578468Y-71775046D01*
X129578471Y-71775049D01*
X129606184Y-71808817D01*
X129639951Y-71836530D01*
X132556983Y-74753561D01*
X132550000Y-74788665D01*
X132550000Y-75071335D01*
X132605147Y-75348574D01*
X132713320Y-75609727D01*
X132870363Y-75844759D01*
X133070241Y-76044637D01*
X133305273Y-76201680D01*
X133566426Y-76309853D01*
X133843665Y-76365000D01*
X134126335Y-76365000D01*
X134403574Y-76309853D01*
X134664727Y-76201680D01*
X134899759Y-76044637D01*
X135099637Y-75844759D01*
X135119521Y-75815000D01*
X135629922Y-75815000D01*
X135740392Y-75949608D01*
X135958899Y-76128932D01*
X136086741Y-76197265D01*
X135857161Y-76347399D01*
X135655500Y-76545105D01*
X135496285Y-76778354D01*
X135385633Y-77038182D01*
X135368096Y-77120961D01*
X135490085Y-77343000D01*
X137033000Y-77343000D01*
X137033000Y-77323000D01*
X137287000Y-77323000D01*
X137287000Y-77343000D01*
X138829915Y-77343000D01*
X138951904Y-77120961D01*
X138934367Y-77038182D01*
X138823715Y-76778354D01*
X138664500Y-76545105D01*
X138462839Y-76347399D01*
X138233259Y-76197265D01*
X138361101Y-76128932D01*
X138579608Y-75949608D01*
X138758932Y-75731101D01*
X138892182Y-75481808D01*
X138917329Y-75398908D01*
X142873460Y-79355039D01*
X142901173Y-79388807D01*
X142934941Y-79416520D01*
X142934943Y-79416522D01*
X142985718Y-79458192D01*
X143035931Y-79499401D01*
X143038580Y-79500817D01*
X143005633Y-79578182D01*
X142988096Y-79660961D01*
X143110085Y-79883000D01*
X144653000Y-79883000D01*
X144653000Y-79863000D01*
X144907000Y-79863000D01*
X144907000Y-79883000D01*
X144927000Y-79883000D01*
X144927000Y-80137000D01*
X144907000Y-80137000D01*
X144907000Y-81445000D01*
X145307000Y-81445000D01*
X145584514Y-81392650D01*
X145846483Y-81287166D01*
X146082839Y-81132601D01*
X146284500Y-80934895D01*
X146443715Y-80701646D01*
X146520000Y-80522517D01*
X146520000Y-80786335D01*
X146575147Y-81063574D01*
X146683320Y-81324727D01*
X146840363Y-81559759D01*
X147040241Y-81759637D01*
X147275273Y-81916680D01*
X147536426Y-82024853D01*
X147813665Y-82080000D01*
X148096335Y-82080000D01*
X148373574Y-82024853D01*
X148634727Y-81916680D01*
X148869759Y-81759637D01*
X149069637Y-81559759D01*
X149226680Y-81324727D01*
X149334853Y-81063574D01*
X149390000Y-80786335D01*
X149390000Y-80503665D01*
X149334853Y-80226426D01*
X149226680Y-79965273D01*
X149069637Y-79730241D01*
X148869759Y-79530363D01*
X148634727Y-79373320D01*
X148373574Y-79265147D01*
X148096335Y-79210000D01*
X147813665Y-79210000D01*
X147778561Y-79216983D01*
X147323047Y-78761469D01*
X147536426Y-78849853D01*
X147813665Y-78905000D01*
X148096335Y-78905000D01*
X148373574Y-78849853D01*
X148634727Y-78741680D01*
X148869759Y-78584637D01*
X149069637Y-78384759D01*
X149226680Y-78149727D01*
X149334853Y-77888574D01*
X149390000Y-77611335D01*
X149390000Y-77328665D01*
X149383017Y-77293561D01*
X154205051Y-72471528D01*
X154238817Y-72443817D01*
X154349411Y-72309059D01*
X154431589Y-72155313D01*
X154482195Y-71988490D01*
X154495000Y-71858477D01*
X154495000Y-71858469D01*
X154499281Y-71815000D01*
X154495000Y-71771531D01*
X154495000Y-71240510D01*
X154718665Y-71285000D01*
X155001335Y-71285000D01*
X155278574Y-71229853D01*
X155539727Y-71121680D01*
X155774759Y-70964637D01*
X155974637Y-70764759D01*
X156131680Y-70529727D01*
X156239853Y-70268574D01*
X156295000Y-69991335D01*
X156295000Y-69708665D01*
X156250509Y-69484999D01*
X157133421Y-69484999D01*
X159651928Y-72003507D01*
X159651928Y-72990000D01*
X159668992Y-73163254D01*
X159719528Y-73329850D01*
X159801595Y-73483386D01*
X159912038Y-73617962D01*
X160046614Y-73728405D01*
X160148593Y-73782914D01*
X160148205Y-73783198D01*
X159951336Y-73997954D01*
X159800146Y-74246991D01*
X159700446Y-74520739D01*
X159698524Y-74533110D01*
X159819845Y-74763000D01*
X161163000Y-74763000D01*
X161163000Y-74743000D01*
X161417000Y-74743000D01*
X161417000Y-74763000D01*
X162760155Y-74763000D01*
X162881476Y-74533110D01*
X162879554Y-74520739D01*
X162779854Y-74246991D01*
X162628664Y-73997954D01*
X162431795Y-73783198D01*
X162431407Y-73782914D01*
X162533386Y-73728405D01*
X162667962Y-73617962D01*
X162778405Y-73483386D01*
X162860472Y-73329850D01*
X162911008Y-73163254D01*
X162928072Y-72990000D01*
X162928072Y-71790000D01*
X162911008Y-71616746D01*
X162860472Y-71450150D01*
X162778405Y-71296614D01*
X162667962Y-71162038D01*
X162533386Y-71051595D01*
X162379850Y-70969528D01*
X162213254Y-70918992D01*
X162040000Y-70901928D01*
X161053507Y-70901928D01*
X158156533Y-68004955D01*
X158128816Y-67971182D01*
X157994058Y-67860588D01*
X157840312Y-67778410D01*
X157673489Y-67727804D01*
X157543476Y-67714999D01*
X157543468Y-67714999D01*
X157499999Y-67710718D01*
X157456530Y-67714999D01*
X152403466Y-67714999D01*
X152360000Y-67710718D01*
X152316534Y-67714999D01*
X152316524Y-67714999D01*
X152186511Y-67727804D01*
X152019688Y-67778410D01*
X151865942Y-67860588D01*
X151865940Y-67860589D01*
X151865941Y-67860589D01*
X151764954Y-67943467D01*
X151764952Y-67943469D01*
X151731184Y-67971182D01*
X151703471Y-68004950D01*
X151286439Y-68421983D01*
X151251335Y-68415000D01*
X150968665Y-68415000D01*
X150691426Y-68470147D01*
X150485000Y-68555651D01*
X150278574Y-68470147D01*
X150001335Y-68415000D01*
X149718665Y-68415000D01*
X149441426Y-68470147D01*
X149180273Y-68578320D01*
X148945241Y-68735363D01*
X148745363Y-68935241D01*
X148732145Y-68955024D01*
X148718787Y-68864870D01*
X148623603Y-68598708D01*
X148556671Y-68473486D01*
X148312702Y-68401903D01*
X147499605Y-69215000D01*
X147513748Y-69229143D01*
X147334143Y-69408748D01*
X147320000Y-69394605D01*
X146506903Y-70207702D01*
X146578486Y-70451671D01*
X146833996Y-70572571D01*
X147108184Y-70641300D01*
X147390512Y-70655217D01*
X147670130Y-70613787D01*
X147936292Y-70518603D01*
X147943868Y-70514553D01*
X147359951Y-71098471D01*
X147326184Y-71126183D01*
X147298471Y-71159951D01*
X147298468Y-71159954D01*
X147215590Y-71260941D01*
X147133412Y-71414687D01*
X147082805Y-71581510D01*
X147065719Y-71755000D01*
X147070001Y-71798476D01*
X147070000Y-73160478D01*
X147040241Y-73180363D01*
X146840363Y-73380241D01*
X146683320Y-73615273D01*
X146575147Y-73876426D01*
X146541615Y-74045000D01*
X146310078Y-74045000D01*
X146199608Y-73910392D01*
X145981101Y-73731068D01*
X145848142Y-73660000D01*
X145981101Y-73588932D01*
X146199608Y-73409608D01*
X146378932Y-73191101D01*
X146512182Y-72941808D01*
X146594236Y-72671309D01*
X146621943Y-72390000D01*
X146594236Y-72108691D01*
X146512182Y-71838192D01*
X146378932Y-71588899D01*
X146199608Y-71370392D01*
X145981101Y-71191068D01*
X145731808Y-71057818D01*
X145461309Y-70975764D01*
X145250492Y-70955000D01*
X144309508Y-70955000D01*
X144098691Y-70975764D01*
X143828192Y-71057818D01*
X143578899Y-71191068D01*
X143360392Y-71370392D01*
X143181068Y-71588899D01*
X143047818Y-71838192D01*
X142965764Y-72108691D01*
X142938057Y-72390000D01*
X142965764Y-72671309D01*
X143047818Y-72941808D01*
X143181068Y-73191101D01*
X143360392Y-73409608D01*
X143578899Y-73588932D01*
X143711858Y-73660000D01*
X143578899Y-73731068D01*
X143360392Y-73910392D01*
X143181068Y-74128899D01*
X143047818Y-74378192D01*
X142965764Y-74648691D01*
X142938057Y-74930000D01*
X142965764Y-75211309D01*
X143047818Y-75481808D01*
X143181068Y-75731101D01*
X143360392Y-75949608D01*
X143578899Y-76128932D01*
X143711858Y-76200000D01*
X143578899Y-76271068D01*
X143360392Y-76450392D01*
X143181068Y-76668899D01*
X143047818Y-76918192D01*
X143022671Y-77001092D01*
X138998072Y-72976494D01*
X138998072Y-71590000D01*
X138985812Y-71465518D01*
X138949502Y-71345820D01*
X138890537Y-71235506D01*
X138811185Y-71138815D01*
X138714494Y-71059463D01*
X138604180Y-71000498D01*
X138484482Y-70964188D01*
X138360000Y-70951928D01*
X136899956Y-70951928D01*
X136865313Y-70933411D01*
X136698490Y-70882805D01*
X136568477Y-70870000D01*
X136568469Y-70870000D01*
X136525000Y-70865719D01*
X136481531Y-70870000D01*
X135119521Y-70870000D01*
X135099637Y-70840241D01*
X134899759Y-70640363D01*
X134870000Y-70620479D01*
X134870000Y-69079521D01*
X134878764Y-69073665D01*
X143385000Y-69073665D01*
X143385000Y-69356335D01*
X143440147Y-69633574D01*
X143548320Y-69894727D01*
X143705363Y-70129759D01*
X143905241Y-70329637D01*
X144140273Y-70486680D01*
X144401426Y-70594853D01*
X144678665Y-70650000D01*
X144961335Y-70650000D01*
X145238574Y-70594853D01*
X145499727Y-70486680D01*
X145734759Y-70329637D01*
X145934637Y-70129759D01*
X146068692Y-69929131D01*
X146083329Y-69956514D01*
X146327298Y-70028097D01*
X147140395Y-69215000D01*
X146327298Y-68401903D01*
X146083329Y-68473486D01*
X146069676Y-68502341D01*
X145934637Y-68300241D01*
X145856694Y-68222298D01*
X146506903Y-68222298D01*
X147320000Y-69035395D01*
X148133097Y-68222298D01*
X148061514Y-67978329D01*
X147806004Y-67857429D01*
X147531816Y-67788700D01*
X147249488Y-67774783D01*
X146969870Y-67816213D01*
X146703708Y-67911397D01*
X146578486Y-67978329D01*
X146506903Y-68222298D01*
X145856694Y-68222298D01*
X145734759Y-68100363D01*
X145499727Y-67943320D01*
X145238574Y-67835147D01*
X144961335Y-67780000D01*
X144678665Y-67780000D01*
X144401426Y-67835147D01*
X144140273Y-67943320D01*
X143905241Y-68100363D01*
X143705363Y-68300241D01*
X143548320Y-68535273D01*
X143440147Y-68796426D01*
X143385000Y-69073665D01*
X134878764Y-69073665D01*
X134899759Y-69059637D01*
X135099637Y-68859759D01*
X135256680Y-68624727D01*
X135364853Y-68363574D01*
X135420000Y-68086335D01*
X135420000Y-67803665D01*
X135364853Y-67526426D01*
X135256680Y-67265273D01*
X135099637Y-67030241D01*
X134899759Y-66830363D01*
X134664727Y-66673320D01*
X134403574Y-66565147D01*
X134126335Y-66510000D01*
X133843665Y-66510000D01*
X133566426Y-66565147D01*
X133360000Y-66650651D01*
X133153574Y-66565147D01*
X132876335Y-66510000D01*
X132593665Y-66510000D01*
X132316426Y-66565147D01*
X132055273Y-66673320D01*
X131820241Y-66830363D01*
X131620363Y-67030241D01*
X131485000Y-67232827D01*
X131349637Y-67030241D01*
X131149759Y-66830363D01*
X130914727Y-66673320D01*
X130653574Y-66565147D01*
X130376335Y-66510000D01*
X130093665Y-66510000D01*
X129816426Y-66565147D01*
X129610000Y-66650651D01*
X129403574Y-66565147D01*
X129126335Y-66510000D01*
X128843665Y-66510000D01*
X128566426Y-66565147D01*
X128305273Y-66673320D01*
X128070241Y-66830363D01*
X127870363Y-67030241D01*
X127713320Y-67265273D01*
X127605147Y-67526426D01*
X127550000Y-67803665D01*
X121560589Y-67803665D01*
X121615000Y-67530128D01*
X121615000Y-67089872D01*
X121529110Y-66658075D01*
X121360631Y-66251331D01*
X121304283Y-66167000D01*
X179685717Y-66167000D01*
X179629369Y-66251331D01*
G36*
X147057954Y-88123162D02*
G01*
X146969870Y-88136213D01*
X146703708Y-88231397D01*
X146578486Y-88298329D01*
X146506903Y-88542298D01*
X147320000Y-89355395D01*
X147334143Y-89341253D01*
X147513748Y-89520858D01*
X147499605Y-89535000D01*
X148312702Y-90348097D01*
X148521386Y-90286867D01*
X148480147Y-90386426D01*
X148425000Y-90663665D01*
X148425000Y-90946335D01*
X148431983Y-90981439D01*
X147359951Y-92053471D01*
X147326184Y-92081183D01*
X147298471Y-92114951D01*
X147298468Y-92114954D01*
X147215590Y-92215941D01*
X147133412Y-92369687D01*
X147082805Y-92536510D01*
X147065719Y-92710000D01*
X147070001Y-92753479D01*
X147070001Y-93480478D01*
X147040241Y-93500363D01*
X146840363Y-93700241D01*
X146683320Y-93935273D01*
X146575147Y-94196426D01*
X146541615Y-94365000D01*
X146310078Y-94365000D01*
X146199608Y-94230392D01*
X145981101Y-94051068D01*
X145848142Y-93980000D01*
X145981101Y-93908932D01*
X146199608Y-93729608D01*
X146378932Y-93511101D01*
X146512182Y-93261808D01*
X146594236Y-92991309D01*
X146621943Y-92710000D01*
X146594236Y-92428691D01*
X146512182Y-92158192D01*
X146378932Y-91908899D01*
X146199608Y-91690392D01*
X145981101Y-91511068D01*
X145731808Y-91377818D01*
X145461309Y-91295764D01*
X145250492Y-91275000D01*
X144309508Y-91275000D01*
X144098691Y-91295764D01*
X143828192Y-91377818D01*
X143578899Y-91511068D01*
X143360392Y-91690392D01*
X143181068Y-91908899D01*
X143047818Y-92158192D01*
X142965764Y-92428691D01*
X142938057Y-92710000D01*
X142965764Y-92991309D01*
X143047818Y-93261808D01*
X143181068Y-93511101D01*
X143360392Y-93729608D01*
X143578899Y-93908932D01*
X143711858Y-93980000D01*
X143578899Y-94051068D01*
X143360392Y-94230392D01*
X143181068Y-94448899D01*
X143047818Y-94698192D01*
X142965764Y-94968691D01*
X142938057Y-95250000D01*
X142965764Y-95531309D01*
X143047818Y-95801808D01*
X143181068Y-96051101D01*
X143360392Y-96269608D01*
X143578899Y-96448932D01*
X143711858Y-96520000D01*
X143578899Y-96591068D01*
X143360392Y-96770392D01*
X143181068Y-96988899D01*
X143047818Y-97238192D01*
X143022671Y-97321092D01*
X138998072Y-93296494D01*
X138998072Y-91910000D01*
X138985812Y-91785518D01*
X138949502Y-91665820D01*
X138890537Y-91555506D01*
X138811185Y-91458815D01*
X138714494Y-91379463D01*
X138604180Y-91320498D01*
X138484482Y-91284188D01*
X138360000Y-91271928D01*
X136899956Y-91271928D01*
X136865313Y-91253411D01*
X136698490Y-91202805D01*
X136568477Y-91190000D01*
X136568469Y-91190000D01*
X136525000Y-91185719D01*
X136481531Y-91190000D01*
X135119521Y-91190000D01*
X135099637Y-91160241D01*
X134899759Y-90960363D01*
X134870000Y-90940479D01*
X134870000Y-89399521D01*
X134878764Y-89393665D01*
X143385000Y-89393665D01*
X143385000Y-89676335D01*
X143440147Y-89953574D01*
X143548320Y-90214727D01*
X143705363Y-90449759D01*
X143905241Y-90649637D01*
X144140273Y-90806680D01*
X144401426Y-90914853D01*
X144678665Y-90970000D01*
X144961335Y-90970000D01*
X145238574Y-90914853D01*
X145499727Y-90806680D01*
X145734759Y-90649637D01*
X145856694Y-90527702D01*
X146506903Y-90527702D01*
X146578486Y-90771671D01*
X146833996Y-90892571D01*
X147108184Y-90961300D01*
X147390512Y-90975217D01*
X147670130Y-90933787D01*
X147936292Y-90838603D01*
X148061514Y-90771671D01*
X148133097Y-90527702D01*
X147320000Y-89714605D01*
X146506903Y-90527702D01*
X145856694Y-90527702D01*
X145934637Y-90449759D01*
X146068692Y-90249131D01*
X146083329Y-90276514D01*
X146327298Y-90348097D01*
X147140395Y-89535000D01*
X146327298Y-88721903D01*
X146083329Y-88793486D01*
X146069676Y-88822341D01*
X145934637Y-88620241D01*
X145734759Y-88420363D01*
X145499727Y-88263320D01*
X145238574Y-88155147D01*
X144961335Y-88100000D01*
X144678665Y-88100000D01*
X144401426Y-88155147D01*
X144140273Y-88263320D01*
X143905241Y-88420363D01*
X143705363Y-88620241D01*
X143548320Y-88855273D01*
X143440147Y-89116426D01*
X143385000Y-89393665D01*
X134878764Y-89393665D01*
X134899759Y-89379637D01*
X135099637Y-89179759D01*
X135256680Y-88944727D01*
X135364853Y-88683574D01*
X135420000Y-88406335D01*
X135420000Y-88123665D01*
X135364853Y-87846426D01*
X135256680Y-87585273D01*
X135099637Y-87350241D01*
X134994396Y-87245000D01*
X146179792Y-87245000D01*
X147057954Y-88123162D01*
G37*
X147057954Y-88123162D02*
X146969870Y-88136213D01*
X146703708Y-88231397D01*
X146578486Y-88298329D01*
X146506903Y-88542298D01*
X147320000Y-89355395D01*
X147334143Y-89341253D01*
X147513748Y-89520858D01*
X147499605Y-89535000D01*
X148312702Y-90348097D01*
X148521386Y-90286867D01*
X148480147Y-90386426D01*
X148425000Y-90663665D01*
X148425000Y-90946335D01*
X148431983Y-90981439D01*
X147359951Y-92053471D01*
X147326184Y-92081183D01*
X147298471Y-92114951D01*
X147298468Y-92114954D01*
X147215590Y-92215941D01*
X147133412Y-92369687D01*
X147082805Y-92536510D01*
X147065719Y-92710000D01*
X147070001Y-92753479D01*
X147070001Y-93480478D01*
X147040241Y-93500363D01*
X146840363Y-93700241D01*
X146683320Y-93935273D01*
X146575147Y-94196426D01*
X146541615Y-94365000D01*
X146310078Y-94365000D01*
X146199608Y-94230392D01*
X145981101Y-94051068D01*
X145848142Y-93980000D01*
X145981101Y-93908932D01*
X146199608Y-93729608D01*
X146378932Y-93511101D01*
X146512182Y-93261808D01*
X146594236Y-92991309D01*
X146621943Y-92710000D01*
X146594236Y-92428691D01*
X146512182Y-92158192D01*
X146378932Y-91908899D01*
X146199608Y-91690392D01*
X145981101Y-91511068D01*
X145731808Y-91377818D01*
X145461309Y-91295764D01*
X145250492Y-91275000D01*
X144309508Y-91275000D01*
X144098691Y-91295764D01*
X143828192Y-91377818D01*
X143578899Y-91511068D01*
X143360392Y-91690392D01*
X143181068Y-91908899D01*
X143047818Y-92158192D01*
X142965764Y-92428691D01*
X142938057Y-92710000D01*
X142965764Y-92991309D01*
X143047818Y-93261808D01*
X143181068Y-93511101D01*
X143360392Y-93729608D01*
X143578899Y-93908932D01*
X143711858Y-93980000D01*
X143578899Y-94051068D01*
X143360392Y-94230392D01*
X143181068Y-94448899D01*
X143047818Y-94698192D01*
X142965764Y-94968691D01*
X142938057Y-95250000D01*
X142965764Y-95531309D01*
X143047818Y-95801808D01*
X143181068Y-96051101D01*
X143360392Y-96269608D01*
X143578899Y-96448932D01*
X143711858Y-96520000D01*
X143578899Y-96591068D01*
X143360392Y-96770392D01*
X143181068Y-96988899D01*
X143047818Y-97238192D01*
X143022671Y-97321092D01*
X138998072Y-93296494D01*
X138998072Y-91910000D01*
X138985812Y-91785518D01*
X138949502Y-91665820D01*
X138890537Y-91555506D01*
X138811185Y-91458815D01*
X138714494Y-91379463D01*
X138604180Y-91320498D01*
X138484482Y-91284188D01*
X138360000Y-91271928D01*
X136899956Y-91271928D01*
X136865313Y-91253411D01*
X136698490Y-91202805D01*
X136568477Y-91190000D01*
X136568469Y-91190000D01*
X136525000Y-91185719D01*
X136481531Y-91190000D01*
X135119521Y-91190000D01*
X135099637Y-91160241D01*
X134899759Y-90960363D01*
X134870000Y-90940479D01*
X134870000Y-89399521D01*
X134878764Y-89393665D01*
X143385000Y-89393665D01*
X143385000Y-89676335D01*
X143440147Y-89953574D01*
X143548320Y-90214727D01*
X143705363Y-90449759D01*
X143905241Y-90649637D01*
X144140273Y-90806680D01*
X144401426Y-90914853D01*
X144678665Y-90970000D01*
X144961335Y-90970000D01*
X145238574Y-90914853D01*
X145499727Y-90806680D01*
X145734759Y-90649637D01*
X145856694Y-90527702D01*
X146506903Y-90527702D01*
X146578486Y-90771671D01*
X146833996Y-90892571D01*
X147108184Y-90961300D01*
X147390512Y-90975217D01*
X147670130Y-90933787D01*
X147936292Y-90838603D01*
X148061514Y-90771671D01*
X148133097Y-90527702D01*
X147320000Y-89714605D01*
X146506903Y-90527702D01*
X145856694Y-90527702D01*
X145934637Y-90449759D01*
X146068692Y-90249131D01*
X146083329Y-90276514D01*
X146327298Y-90348097D01*
X147140395Y-89535000D01*
X146327298Y-88721903D01*
X146083329Y-88793486D01*
X146069676Y-88822341D01*
X145934637Y-88620241D01*
X145734759Y-88420363D01*
X145499727Y-88263320D01*
X145238574Y-88155147D01*
X144961335Y-88100000D01*
X144678665Y-88100000D01*
X144401426Y-88155147D01*
X144140273Y-88263320D01*
X143905241Y-88420363D01*
X143705363Y-88620241D01*
X143548320Y-88855273D01*
X143440147Y-89116426D01*
X143385000Y-89393665D01*
X134878764Y-89393665D01*
X134899759Y-89379637D01*
X135099637Y-89179759D01*
X135256680Y-88944727D01*
X135364853Y-88683574D01*
X135420000Y-88406335D01*
X135420000Y-88123665D01*
X135364853Y-87846426D01*
X135256680Y-87585273D01*
X135099637Y-87350241D01*
X134994396Y-87245000D01*
X146179792Y-87245000D01*
X147057954Y-88123162D01*
G04 #@! TD*
M02*
