G04 #@! TF.GenerationSoftware,KiCad,Pcbnew,(5.1.6)-1*
G04 #@! TF.CreationDate,2020-09-01T14:50:53+09:00*
G04 #@! TF.ProjectId,General_8th_MFB_LPF,47656e65-7261-46c5-9f38-74685f4d4642,Ver. 1.0*
G04 #@! TF.SameCoordinates,Original*
G04 #@! TF.FileFunction,Copper,L2,Bot*
G04 #@! TF.FilePolarity,Positive*
%FSLAX46Y46*%
G04 Gerber Fmt 4.6, Leading zero omitted, Abs format (unit mm)*
G04 Created by KiCad (PCBNEW (5.1.6)-1) date 2020-09-01 14:50:53*
%MOMM*%
%LPD*%
G01*
G04 APERTURE LIST*
G04 #@! TA.AperFunction,ComponentPad*
%ADD10O,1.700000X1.700000*%
G04 #@! TD*
G04 #@! TA.AperFunction,ComponentPad*
%ADD11R,1.700000X1.700000*%
G04 #@! TD*
G04 #@! TA.AperFunction,ComponentPad*
%ADD12O,1.600000X2.400000*%
G04 #@! TD*
G04 #@! TA.AperFunction,ComponentPad*
%ADD13R,1.600000X2.400000*%
G04 #@! TD*
G04 #@! TA.AperFunction,ComponentPad*
%ADD14C,1.600000*%
G04 #@! TD*
G04 #@! TA.AperFunction,ComponentPad*
%ADD15O,1.600000X1.600000*%
G04 #@! TD*
G04 #@! TA.AperFunction,ComponentPad*
%ADD16O,1.700000X1.950000*%
G04 #@! TD*
G04 #@! TA.AperFunction,ComponentPad*
%ADD17O,1.700000X2.000000*%
G04 #@! TD*
G04 #@! TA.AperFunction,ComponentPad*
%ADD18R,1.600000X1.600000*%
G04 #@! TD*
G04 #@! TA.AperFunction,ComponentPad*
%ADD19O,2.000000X1.700000*%
G04 #@! TD*
G04 #@! TA.AperFunction,ComponentPad*
%ADD20O,2.400000X1.600000*%
G04 #@! TD*
G04 #@! TA.AperFunction,ComponentPad*
%ADD21R,2.400000X1.600000*%
G04 #@! TD*
G04 #@! TA.AperFunction,ComponentPad*
%ADD22C,1.800000*%
G04 #@! TD*
G04 #@! TA.AperFunction,ComponentPad*
%ADD23R,1.800000X1.800000*%
G04 #@! TD*
G04 #@! TA.AperFunction,Conductor*
%ADD24C,0.500000*%
G04 #@! TD*
G04 #@! TA.AperFunction,Conductor*
%ADD25C,0.254000*%
G04 #@! TD*
G04 APERTURE END LIST*
D10*
G04 #@! TO.P,J7,2*
G04 #@! TO.N,GND*
X179070000Y-91440000D03*
D11*
G04 #@! TO.P,J7,1*
X176530000Y-91440000D03*
G04 #@! TD*
D12*
G04 #@! TO.P,U3,8*
G04 #@! TO.N,Net-(C15-Pad1)*
X163830000Y-97790000D03*
G04 #@! TO.P,U3,4*
G04 #@! TO.N,Net-(C15-Pad2)*
X171450000Y-105410000D03*
G04 #@! TO.P,U3,7*
G04 #@! TO.N,Net-(U3-Pad6)*
X166370000Y-97790000D03*
G04 #@! TO.P,U3,3*
G04 #@! TO.N,Net-(R15-Pad2)*
X168910000Y-105410000D03*
G04 #@! TO.P,U3,6*
G04 #@! TO.N,Net-(U3-Pad6)*
X168910000Y-97790000D03*
G04 #@! TO.P,U3,2*
G04 #@! TO.N,Net-(J6-Pad2)*
X166370000Y-105410000D03*
G04 #@! TO.P,U3,5*
G04 #@! TO.N,Net-(C15-Pad2)*
X171450000Y-97790000D03*
D13*
G04 #@! TO.P,U3,1*
G04 #@! TO.N,Net-(J6-Pad2)*
X163830000Y-105410000D03*
G04 #@! TD*
D14*
G04 #@! TO.P,C16,2*
G04 #@! TO.N,Net-(C15-Pad1)*
X160655000Y-97830000D03*
G04 #@! TO.P,C16,1*
G04 #@! TO.N,Net-(C15-Pad2)*
X160655000Y-100330000D03*
G04 #@! TD*
D15*
G04 #@! TO.P,R16,2*
G04 #@! TO.N,Net-(C15-Pad2)*
X161290000Y-109220000D03*
D14*
G04 #@! TO.P,R16,1*
G04 #@! TO.N,Net-(R15-Pad2)*
X168910000Y-109220000D03*
G04 #@! TD*
D15*
G04 #@! TO.P,R15,2*
G04 #@! TO.N,Net-(R15-Pad2)*
X171450000Y-109220000D03*
D14*
G04 #@! TO.P,R15,1*
G04 #@! TO.N,Net-(C15-Pad1)*
X179070000Y-109220000D03*
G04 #@! TD*
D16*
G04 #@! TO.P,J6,3*
G04 #@! TO.N,Net-(C15-Pad2)*
X161370000Y-115570000D03*
G04 #@! TO.P,J6,2*
G04 #@! TO.N,Net-(J6-Pad2)*
X163870000Y-115570000D03*
G04 #@! TO.P,J6,1*
G04 #@! TO.N,Net-(C15-Pad1)*
G04 #@! TA.AperFunction,ComponentPad*
G36*
G01*
X167220000Y-114845000D02*
X167220000Y-116295000D01*
G75*
G02*
X166970000Y-116545000I-250000J0D01*
G01*
X165770000Y-116545000D01*
G75*
G02*
X165520000Y-116295000I0J250000D01*
G01*
X165520000Y-114845000D01*
G75*
G02*
X165770000Y-114595000I250000J0D01*
G01*
X166970000Y-114595000D01*
G75*
G02*
X167220000Y-114845000I0J-250000D01*
G01*
G37*
G04 #@! TD.AperFunction*
G04 #@! TD*
D17*
G04 #@! TO.P,J5,2*
G04 #@! TO.N,Net-(C15-Pad2)*
X172760000Y-115570000D03*
G04 #@! TO.P,J5,1*
G04 #@! TO.N,Net-(C15-Pad1)*
G04 #@! TA.AperFunction,ComponentPad*
G36*
G01*
X176110000Y-114820000D02*
X176110000Y-116320000D01*
G75*
G02*
X175860000Y-116570000I-250000J0D01*
G01*
X174660000Y-116570000D01*
G75*
G02*
X174410000Y-116320000I0J250000D01*
G01*
X174410000Y-114820000D01*
G75*
G02*
X174660000Y-114570000I250000J0D01*
G01*
X175860000Y-114570000D01*
G75*
G02*
X176110000Y-114820000I0J-250000D01*
G01*
G37*
G04 #@! TD.AperFunction*
G04 #@! TD*
D14*
G04 #@! TO.P,C15,2*
G04 #@! TO.N,Net-(C15-Pad2)*
X177800000Y-100370000D03*
D18*
G04 #@! TO.P,C15,1*
G04 #@! TO.N,Net-(C15-Pad1)*
X177800000Y-102870000D03*
G04 #@! TD*
D19*
G04 #@! TO.P,J3,2*
G04 #@! TO.N,GND*
X161290000Y-88860000D03*
G04 #@! TO.P,J3,1*
G04 #@! TO.N,Net-(C8-Pad1)*
G04 #@! TA.AperFunction,ComponentPad*
G36*
G01*
X160540000Y-85510000D02*
X162040000Y-85510000D01*
G75*
G02*
X162290000Y-85760000I0J-250000D01*
G01*
X162290000Y-86960000D01*
G75*
G02*
X162040000Y-87210000I-250000J0D01*
G01*
X160540000Y-87210000D01*
G75*
G02*
X160290000Y-86960000I0J250000D01*
G01*
X160290000Y-85760000D01*
G75*
G02*
X160540000Y-85510000I250000J0D01*
G01*
G37*
G04 #@! TD.AperFunction*
G04 #@! TD*
D20*
G04 #@! TO.P,U2,8*
G04 #@! TO.N,VCC*
X144780000Y-72390000D03*
G04 #@! TO.P,U2,4*
G04 #@! TO.N,VEE*
X137160000Y-80010000D03*
G04 #@! TO.P,U2,7*
G04 #@! TO.N,Net-(C14-Pad1)*
X144780000Y-74930000D03*
G04 #@! TO.P,U2,3*
G04 #@! TO.N,GND*
X137160000Y-77470000D03*
G04 #@! TO.P,U2,6*
G04 #@! TO.N,Net-(C14-Pad2)*
X144780000Y-77470000D03*
G04 #@! TO.P,U2,2*
G04 #@! TO.N,Net-(C10-Pad2)*
X137160000Y-74930000D03*
G04 #@! TO.P,U2,5*
G04 #@! TO.N,GND*
X144780000Y-80010000D03*
D21*
G04 #@! TO.P,U2,1*
G04 #@! TO.N,Net-(C10-Pad1)*
X137160000Y-72390000D03*
G04 #@! TD*
D20*
G04 #@! TO.P,U1,8*
G04 #@! TO.N,VCC*
X144780000Y-92710000D03*
G04 #@! TO.P,U1,4*
G04 #@! TO.N,VEE*
X137160000Y-100330000D03*
G04 #@! TO.P,U1,7*
G04 #@! TO.N,Net-(C8-Pad1)*
X144780000Y-95250000D03*
G04 #@! TO.P,U1,3*
G04 #@! TO.N,GND*
X137160000Y-97790000D03*
G04 #@! TO.P,U1,6*
G04 #@! TO.N,Net-(C8-Pad2)*
X144780000Y-97790000D03*
G04 #@! TO.P,U1,2*
G04 #@! TO.N,Net-(C4-Pad2)*
X137160000Y-95250000D03*
G04 #@! TO.P,U1,5*
G04 #@! TO.N,GND*
X144780000Y-100330000D03*
D21*
G04 #@! TO.P,U1,1*
G04 #@! TO.N,Net-(C4-Pad1)*
X137160000Y-92710000D03*
G04 #@! TD*
D15*
G04 #@! TO.P,R14,2*
G04 #@! TO.N,Net-(C13-Pad1)*
X155575000Y-77470000D03*
D14*
G04 #@! TO.P,R14,1*
G04 #@! TO.N,Net-(C14-Pad2)*
X147955000Y-77470000D03*
G04 #@! TD*
D15*
G04 #@! TO.P,R13,2*
G04 #@! TO.N,Net-(C13-Pad1)*
X155575000Y-74295000D03*
D14*
G04 #@! TO.P,R13,1*
G04 #@! TO.N,Net-(C14-Pad1)*
X147955000Y-74295000D03*
G04 #@! TD*
D15*
G04 #@! TO.P,R12,2*
G04 #@! TO.N,Net-(C10-Pad1)*
X147955000Y-80645000D03*
D14*
G04 #@! TO.P,R12,1*
G04 #@! TO.N,Net-(C13-Pad1)*
X155575000Y-80645000D03*
G04 #@! TD*
D15*
G04 #@! TO.P,R11,2*
G04 #@! TO.N,Net-(C9-Pad1)*
X126365000Y-74930000D03*
D14*
G04 #@! TO.P,R11,1*
G04 #@! TO.N,Net-(C10-Pad2)*
X133985000Y-74930000D03*
G04 #@! TD*
D15*
G04 #@! TO.P,R10,2*
G04 #@! TO.N,Net-(C9-Pad1)*
X126365000Y-71755000D03*
D14*
G04 #@! TO.P,R10,1*
G04 #@! TO.N,Net-(C10-Pad1)*
X133985000Y-71755000D03*
G04 #@! TD*
D15*
G04 #@! TO.P,R9,2*
G04 #@! TO.N,Net-(C8-Pad1)*
X126365000Y-78105000D03*
D14*
G04 #@! TO.P,R9,1*
G04 #@! TO.N,Net-(C9-Pad1)*
X133985000Y-78105000D03*
G04 #@! TD*
D15*
G04 #@! TO.P,R8,2*
G04 #@! TO.N,Net-(C7-Pad1)*
X155575000Y-97790000D03*
D14*
G04 #@! TO.P,R8,1*
G04 #@! TO.N,Net-(C8-Pad2)*
X147955000Y-97790000D03*
G04 #@! TD*
D15*
G04 #@! TO.P,R7,2*
G04 #@! TO.N,Net-(C7-Pad1)*
X155575000Y-94615000D03*
D14*
G04 #@! TO.P,R7,1*
G04 #@! TO.N,Net-(C8-Pad1)*
X147955000Y-94615000D03*
G04 #@! TD*
D15*
G04 #@! TO.P,R6,2*
G04 #@! TO.N,Net-(C4-Pad1)*
X147955000Y-100965000D03*
D14*
G04 #@! TO.P,R6,1*
G04 #@! TO.N,Net-(C7-Pad1)*
X155575000Y-100965000D03*
G04 #@! TD*
D15*
G04 #@! TO.P,R2,2*
G04 #@! TO.N,VEE*
X138430000Y-109220000D03*
D14*
G04 #@! TO.P,R2,1*
G04 #@! TO.N,Net-(D2-Pad1)*
X130810000Y-109220000D03*
G04 #@! TD*
D15*
G04 #@! TO.P,R1,2*
G04 #@! TO.N,Net-(D1-Pad2)*
X151130000Y-109220000D03*
D14*
G04 #@! TO.P,R1,1*
G04 #@! TO.N,VCC*
X143510000Y-109220000D03*
G04 #@! TD*
D15*
G04 #@! TO.P,R5,2*
G04 #@! TO.N,Net-(C3-Pad1)*
X126365000Y-95250000D03*
D14*
G04 #@! TO.P,R5,1*
G04 #@! TO.N,Net-(C4-Pad2)*
X133985000Y-95250000D03*
G04 #@! TD*
D15*
G04 #@! TO.P,R4,2*
G04 #@! TO.N,Net-(C3-Pad1)*
X126365000Y-92075000D03*
D14*
G04 #@! TO.P,R4,1*
G04 #@! TO.N,Net-(C4-Pad1)*
X133985000Y-92075000D03*
G04 #@! TD*
D15*
G04 #@! TO.P,R3,2*
G04 #@! TO.N,Net-(J2-Pad1)*
X126365000Y-98425000D03*
D14*
G04 #@! TO.P,R3,1*
G04 #@! TO.N,Net-(C3-Pad1)*
X133985000Y-98425000D03*
G04 #@! TD*
D19*
G04 #@! TO.P,J4,2*
G04 #@! TO.N,GND*
X161290000Y-74890000D03*
G04 #@! TO.P,J4,1*
G04 #@! TO.N,Net-(C14-Pad1)*
G04 #@! TA.AperFunction,ComponentPad*
G36*
G01*
X160540000Y-71540000D02*
X162040000Y-71540000D01*
G75*
G02*
X162290000Y-71790000I0J-250000D01*
G01*
X162290000Y-72990000D01*
G75*
G02*
X162040000Y-73240000I-250000J0D01*
G01*
X160540000Y-73240000D01*
G75*
G02*
X160290000Y-72990000I0J250000D01*
G01*
X160290000Y-71790000D01*
G75*
G02*
X160540000Y-71540000I250000J0D01*
G01*
G37*
G04 #@! TD.AperFunction*
G04 #@! TD*
D16*
G04 #@! TO.P,J1,3*
G04 #@! TO.N,VEE*
X138510000Y-115570000D03*
G04 #@! TO.P,J1,2*
G04 #@! TO.N,GND*
X141010000Y-115570000D03*
G04 #@! TO.P,J1,1*
G04 #@! TO.N,VCC*
G04 #@! TA.AperFunction,ComponentPad*
G36*
G01*
X144360000Y-114845000D02*
X144360000Y-116295000D01*
G75*
G02*
X144110000Y-116545000I-250000J0D01*
G01*
X142910000Y-116545000D01*
G75*
G02*
X142660000Y-116295000I0J250000D01*
G01*
X142660000Y-114845000D01*
G75*
G02*
X142910000Y-114595000I250000J0D01*
G01*
X144110000Y-114595000D01*
G75*
G02*
X144360000Y-114845000I0J-250000D01*
G01*
G37*
G04 #@! TD.AperFunction*
G04 #@! TD*
D19*
G04 #@! TO.P,J2,2*
G04 #@! TO.N,GND*
X120650000Y-95925000D03*
G04 #@! TO.P,J2,1*
G04 #@! TO.N,Net-(J2-Pad1)*
G04 #@! TA.AperFunction,ComponentPad*
G36*
G01*
X121400000Y-99275000D02*
X119900000Y-99275000D01*
G75*
G02*
X119650000Y-99025000I0J250000D01*
G01*
X119650000Y-97825000D01*
G75*
G02*
X119900000Y-97575000I250000J0D01*
G01*
X121400000Y-97575000D01*
G75*
G02*
X121650000Y-97825000I0J-250000D01*
G01*
X121650000Y-99025000D01*
G75*
G02*
X121400000Y-99275000I-250000J0D01*
G01*
G37*
G04 #@! TD.AperFunction*
G04 #@! TD*
D22*
G04 #@! TO.P,D2,2*
G04 #@! TO.N,GND*
X125730000Y-109220000D03*
D23*
G04 #@! TO.P,D2,1*
G04 #@! TO.N,Net-(D2-Pad1)*
X128270000Y-109220000D03*
G04 #@! TD*
D22*
G04 #@! TO.P,D1,2*
G04 #@! TO.N,Net-(D1-Pad2)*
X153670000Y-109220000D03*
D23*
G04 #@! TO.P,D1,1*
G04 #@! TO.N,GND*
X156210000Y-109220000D03*
G04 #@! TD*
D14*
G04 #@! TO.P,C14,2*
G04 #@! TO.N,Net-(C14-Pad2)*
X154860000Y-69850000D03*
G04 #@! TO.P,C14,1*
G04 #@! TO.N,Net-(C14-Pad1)*
X149860000Y-69850000D03*
G04 #@! TO.P,C14,2*
G04 #@! TO.N,Net-(C14-Pad2)*
X153610000Y-69850000D03*
G04 #@! TO.P,C14,1*
G04 #@! TO.N,Net-(C14-Pad1)*
X151110000Y-69850000D03*
G04 #@! TD*
G04 #@! TO.P,C13,2*
G04 #@! TO.N,GND*
X148670000Y-84455000D03*
G04 #@! TO.P,C13,1*
G04 #@! TO.N,Net-(C13-Pad1)*
X153670000Y-84455000D03*
G04 #@! TO.P,C13,2*
G04 #@! TO.N,GND*
X149920000Y-84455000D03*
G04 #@! TO.P,C13,1*
G04 #@! TO.N,Net-(C13-Pad1)*
X152420000Y-84455000D03*
G04 #@! TD*
G04 #@! TO.P,C12,2*
G04 #@! TO.N,VEE*
X137120000Y-83185000D03*
G04 #@! TO.P,C12,1*
G04 #@! TO.N,GND*
X134620000Y-83185000D03*
G04 #@! TD*
G04 #@! TO.P,C11,2*
G04 #@! TO.N,VCC*
X144820000Y-69215000D03*
G04 #@! TO.P,C11,1*
G04 #@! TO.N,GND*
X147320000Y-69215000D03*
G04 #@! TD*
G04 #@! TO.P,C10,2*
G04 #@! TO.N,Net-(C10-Pad2)*
X128985000Y-67945000D03*
G04 #@! TO.P,C10,1*
G04 #@! TO.N,Net-(C10-Pad1)*
X133985000Y-67945000D03*
G04 #@! TO.P,C10,2*
G04 #@! TO.N,Net-(C10-Pad2)*
X130235000Y-67945000D03*
G04 #@! TO.P,C10,1*
G04 #@! TO.N,Net-(C10-Pad1)*
X132735000Y-67945000D03*
G04 #@! TD*
G04 #@! TO.P,C9,2*
G04 #@! TO.N,GND*
X127080000Y-81915000D03*
G04 #@! TO.P,C9,1*
G04 #@! TO.N,Net-(C9-Pad1)*
X132080000Y-81915000D03*
G04 #@! TO.P,C9,2*
G04 #@! TO.N,GND*
X128330000Y-81915000D03*
G04 #@! TO.P,C9,1*
G04 #@! TO.N,Net-(C9-Pad1)*
X130830000Y-81915000D03*
G04 #@! TD*
G04 #@! TO.P,C8,2*
G04 #@! TO.N,Net-(C8-Pad2)*
X154860000Y-90805000D03*
G04 #@! TO.P,C8,1*
G04 #@! TO.N,Net-(C8-Pad1)*
X149860000Y-90805000D03*
G04 #@! TO.P,C8,2*
G04 #@! TO.N,Net-(C8-Pad2)*
X153610000Y-90805000D03*
G04 #@! TO.P,C8,1*
G04 #@! TO.N,Net-(C8-Pad1)*
X151110000Y-90805000D03*
G04 #@! TD*
G04 #@! TO.P,C7,2*
G04 #@! TO.N,GND*
X149305000Y-104775000D03*
G04 #@! TO.P,C7,1*
G04 #@! TO.N,Net-(C7-Pad1)*
X154305000Y-104775000D03*
G04 #@! TO.P,C7,2*
G04 #@! TO.N,GND*
X150555000Y-104775000D03*
G04 #@! TO.P,C7,1*
G04 #@! TO.N,Net-(C7-Pad1)*
X153055000Y-104775000D03*
G04 #@! TD*
G04 #@! TO.P,C6,2*
G04 #@! TO.N,VEE*
X137120000Y-103505000D03*
G04 #@! TO.P,C6,1*
G04 #@! TO.N,GND*
X134620000Y-103505000D03*
G04 #@! TD*
G04 #@! TO.P,C5,2*
G04 #@! TO.N,VCC*
X144820000Y-89535000D03*
G04 #@! TO.P,C5,1*
G04 #@! TO.N,GND*
X147320000Y-89535000D03*
G04 #@! TD*
G04 #@! TO.P,C2,2*
G04 #@! TO.N,VEE*
X132040000Y-115570000D03*
D18*
G04 #@! TO.P,C2,1*
G04 #@! TO.N,GND*
X129540000Y-115570000D03*
G04 #@! TD*
D14*
G04 #@! TO.P,C1,2*
G04 #@! TO.N,GND*
X152360000Y-115570000D03*
D18*
G04 #@! TO.P,C1,1*
G04 #@! TO.N,VCC*
X149860000Y-115570000D03*
G04 #@! TD*
D14*
G04 #@! TO.P,C4,2*
G04 #@! TO.N,Net-(C4-Pad2)*
X128985000Y-88265000D03*
G04 #@! TO.P,C4,1*
G04 #@! TO.N,Net-(C4-Pad1)*
X133985000Y-88265000D03*
G04 #@! TO.P,C4,2*
G04 #@! TO.N,Net-(C4-Pad2)*
X130235000Y-88265000D03*
G04 #@! TO.P,C4,1*
G04 #@! TO.N,Net-(C4-Pad1)*
X132735000Y-88265000D03*
G04 #@! TD*
G04 #@! TO.P,C3,2*
G04 #@! TO.N,GND*
X127080000Y-102235000D03*
G04 #@! TO.P,C3,1*
G04 #@! TO.N,Net-(C3-Pad1)*
X132080000Y-102235000D03*
G04 #@! TO.P,C3,2*
G04 #@! TO.N,GND*
X128330000Y-102235000D03*
G04 #@! TO.P,C3,1*
G04 #@! TO.N,Net-(C3-Pad1)*
X130830000Y-102235000D03*
G04 #@! TD*
D24*
G04 #@! TO.N,GND*
X127080000Y-81915000D02*
X128330000Y-81915000D01*
X129600000Y-83185000D02*
X134620000Y-83185000D01*
X128330000Y-81915000D02*
X129600000Y-83185000D01*
X127080000Y-102235000D02*
X128330000Y-102235000D01*
X129600000Y-103505000D02*
X134620000Y-103505000D01*
X128330000Y-102235000D02*
X129600000Y-103505000D01*
X144860000Y-100330000D02*
X149305000Y-104775000D01*
X144780000Y-100330000D02*
X144860000Y-100330000D01*
X149305000Y-104775000D02*
X150555000Y-104775000D01*
X144780000Y-80565000D02*
X148670000Y-84455000D01*
X144780000Y-80010000D02*
X144780000Y-80565000D01*
X176530000Y-91440000D02*
X179070000Y-91440000D01*
X148670000Y-84455000D02*
X149920000Y-84455000D01*
G04 #@! TO.N,VCC*
X143510000Y-115570000D02*
X149860000Y-115570000D01*
X143510000Y-115570000D02*
X143510000Y-109220000D01*
X142240000Y-73660000D02*
X143510000Y-72390000D01*
X143510000Y-109220000D02*
X142240000Y-107950000D01*
X143510000Y-72390000D02*
X144780000Y-72390000D01*
X144820000Y-72350000D02*
X144780000Y-72390000D01*
X144820000Y-69215000D02*
X144820000Y-72350000D01*
X144820000Y-92670000D02*
X144780000Y-92710000D01*
X144820000Y-89535000D02*
X144820000Y-92670000D01*
X142240000Y-107950000D02*
X142240000Y-93980000D01*
X142240000Y-93980000D02*
X143510000Y-92710000D01*
X143510000Y-92710000D02*
X144780000Y-92710000D01*
X143510000Y-92710000D02*
X142240000Y-91440000D01*
X142240000Y-91440000D02*
X142240000Y-73660000D01*
G04 #@! TO.N,VEE*
X132040000Y-115570000D02*
X138510000Y-115570000D01*
X138510000Y-109300000D02*
X138430000Y-109220000D01*
X138510000Y-115570000D02*
X138510000Y-109300000D01*
X138430000Y-109220000D02*
X139065000Y-109220000D01*
X137120000Y-80050000D02*
X137160000Y-80010000D01*
X137120000Y-83185000D02*
X137120000Y-80050000D01*
X137160000Y-103465000D02*
X137120000Y-103505000D01*
X137160000Y-100330000D02*
X137160000Y-103465000D01*
X138430000Y-109220000D02*
X139700000Y-107950000D01*
X139700000Y-107950000D02*
X139700000Y-101600000D01*
X139700000Y-101600000D02*
X138430000Y-100330000D01*
X138430000Y-100330000D02*
X137160000Y-100330000D01*
X138430000Y-100330000D02*
X139700000Y-99060000D01*
X139700000Y-99060000D02*
X139700000Y-85725000D01*
X139660000Y-85725000D02*
X137120000Y-83185000D01*
X139700000Y-85725000D02*
X139660000Y-85725000D01*
G04 #@! TO.N,Net-(D1-Pad2)*
X151130000Y-109220000D02*
X153670000Y-109220000D01*
G04 #@! TO.N,Net-(D2-Pad1)*
X128270000Y-109220000D02*
X130810000Y-109220000D01*
G04 #@! TO.N,Net-(C15-Pad2)*
X161370000Y-109300000D02*
X161290000Y-109220000D01*
X161370000Y-115570000D02*
X161370000Y-109300000D01*
X172760000Y-106720000D02*
X171450000Y-105410000D01*
X172760000Y-115570000D02*
X172760000Y-106720000D01*
X169799999Y-103759999D02*
X171450000Y-105410000D01*
X162669999Y-103759999D02*
X169799999Y-103759999D01*
X161290000Y-105139998D02*
X162669999Y-103759999D01*
X161290000Y-109220000D02*
X161290000Y-105139998D01*
X160655000Y-104504998D02*
X161290000Y-105139998D01*
X160655000Y-100330000D02*
X160655000Y-104504998D01*
X175220000Y-97790000D02*
X177800000Y-100370000D01*
X171450000Y-97790000D02*
X175220000Y-97790000D01*
X171450000Y-102109998D02*
X169799999Y-103759999D01*
X171450000Y-97790000D02*
X171450000Y-102109998D01*
G04 #@! TO.N,Net-(C15-Pad1)*
X163790000Y-97830000D02*
X163830000Y-97790000D01*
X160655000Y-97830000D02*
X163790000Y-97830000D01*
X167820010Y-117020010D02*
X173809990Y-117020010D01*
X173809990Y-117020010D02*
X175260000Y-115570000D01*
X166370000Y-115570000D02*
X167820010Y-117020010D01*
X175260000Y-113030000D02*
X179070000Y-109220000D01*
X175260000Y-115570000D02*
X175260000Y-113030000D01*
X179050001Y-99769999D02*
X179050001Y-101619999D01*
X175419992Y-96139990D02*
X179050001Y-99769999D01*
X170932229Y-96139990D02*
X175419992Y-96139990D01*
X170180000Y-96892219D02*
X170932229Y-96139990D01*
X179050001Y-101619999D02*
X177800000Y-102870000D01*
X170180000Y-98687781D02*
X170180000Y-96892219D01*
X165480010Y-99440010D02*
X169427771Y-99440010D01*
X169427771Y-99440010D02*
X170180000Y-98687781D01*
X163830000Y-97790000D02*
X165480010Y-99440010D01*
X179070000Y-104140000D02*
X177800000Y-102870000D01*
X179070000Y-109220000D02*
X179070000Y-104140000D01*
G04 #@! TO.N,Net-(J6-Pad2)*
X163870000Y-105450000D02*
X163830000Y-105410000D01*
X163870000Y-115570000D02*
X163870000Y-105450000D01*
G04 #@! TO.N,Net-(R15-Pad2)*
X171450000Y-109220000D02*
X168910000Y-109220000D01*
X168910000Y-109220000D02*
X168910000Y-105410000D01*
G04 #@! TO.N,Net-(U3-Pad6)*
X166370000Y-97790000D02*
X168910000Y-97790000D01*
G04 #@! TD*
D25*
G04 #@! TO.N,GND*
G36*
X179629369Y-66251331D02*
G01*
X179460890Y-66658075D01*
X179375000Y-67089872D01*
X179375000Y-67530128D01*
X179460890Y-67961925D01*
X179629369Y-68368669D01*
X179873962Y-68734729D01*
X180185271Y-69046038D01*
X180551331Y-69290631D01*
X180958075Y-69459110D01*
X181389872Y-69545000D01*
X181830128Y-69545000D01*
X182261925Y-69459110D01*
X182668669Y-69290631D01*
X182753000Y-69234283D01*
X182753000Y-116185717D01*
X182668669Y-116129369D01*
X182261925Y-115960890D01*
X181830128Y-115875000D01*
X181389872Y-115875000D01*
X180958075Y-115960890D01*
X180551331Y-116129369D01*
X180185271Y-116373962D01*
X179873962Y-116685271D01*
X179629369Y-117051331D01*
X179460890Y-117458075D01*
X179375000Y-117889872D01*
X179375000Y-118330128D01*
X179460890Y-118761925D01*
X179629369Y-119168669D01*
X179685717Y-119253000D01*
X121304283Y-119253000D01*
X121360631Y-119168669D01*
X121529110Y-118761925D01*
X121615000Y-118330128D01*
X121615000Y-117889872D01*
X121529110Y-117458075D01*
X121360631Y-117051331D01*
X121116038Y-116685271D01*
X120804729Y-116373962D01*
X120798800Y-116370000D01*
X128101928Y-116370000D01*
X128114188Y-116494482D01*
X128150498Y-116614180D01*
X128209463Y-116724494D01*
X128288815Y-116821185D01*
X128385506Y-116900537D01*
X128495820Y-116959502D01*
X128615518Y-116995812D01*
X128740000Y-117008072D01*
X129254250Y-117005000D01*
X129413000Y-116846250D01*
X129413000Y-115697000D01*
X128263750Y-115697000D01*
X128105000Y-115855750D01*
X128101928Y-116370000D01*
X120798800Y-116370000D01*
X120438669Y-116129369D01*
X120031925Y-115960890D01*
X119600128Y-115875000D01*
X119159872Y-115875000D01*
X118728075Y-115960890D01*
X118321331Y-116129369D01*
X118237000Y-116185717D01*
X118237000Y-114770000D01*
X128101928Y-114770000D01*
X128105000Y-115284250D01*
X128263750Y-115443000D01*
X129413000Y-115443000D01*
X129413000Y-114293750D01*
X129667000Y-114293750D01*
X129667000Y-115443000D01*
X129687000Y-115443000D01*
X129687000Y-115697000D01*
X129667000Y-115697000D01*
X129667000Y-116846250D01*
X129825750Y-117005000D01*
X130340000Y-117008072D01*
X130464482Y-116995812D01*
X130584180Y-116959502D01*
X130694494Y-116900537D01*
X130791185Y-116821185D01*
X130870537Y-116724494D01*
X130929502Y-116614180D01*
X130958661Y-116518057D01*
X131125241Y-116684637D01*
X131360273Y-116841680D01*
X131621426Y-116949853D01*
X131898665Y-117005000D01*
X132181335Y-117005000D01*
X132458574Y-116949853D01*
X132719727Y-116841680D01*
X132954759Y-116684637D01*
X133154637Y-116484759D01*
X133174521Y-116455000D01*
X137232406Y-116455000D01*
X137269294Y-116524013D01*
X137454866Y-116750134D01*
X137680986Y-116935706D01*
X137938966Y-117073599D01*
X138218889Y-117158513D01*
X138510000Y-117187185D01*
X138801110Y-117158513D01*
X139081033Y-117073599D01*
X139339013Y-116935706D01*
X139565134Y-116750134D01*
X139750706Y-116524014D01*
X139764462Y-116498278D01*
X139920951Y-116704429D01*
X140138807Y-116897496D01*
X140390142Y-117044352D01*
X140653110Y-117136476D01*
X140883000Y-117015155D01*
X140883000Y-115697000D01*
X140863000Y-115697000D01*
X140863000Y-115443000D01*
X140883000Y-115443000D01*
X140883000Y-114124845D01*
X141137000Y-114124845D01*
X141137000Y-115443000D01*
X141157000Y-115443000D01*
X141157000Y-115697000D01*
X141137000Y-115697000D01*
X141137000Y-117015155D01*
X141366890Y-117136476D01*
X141629858Y-117044352D01*
X141881193Y-116897496D01*
X142099049Y-116704429D01*
X142115286Y-116683039D01*
X142171595Y-116788386D01*
X142282038Y-116922962D01*
X142416614Y-117033405D01*
X142570150Y-117115472D01*
X142736746Y-117166008D01*
X142910000Y-117183072D01*
X144110000Y-117183072D01*
X144283254Y-117166008D01*
X144449850Y-117115472D01*
X144603386Y-117033405D01*
X144737962Y-116922962D01*
X144848405Y-116788386D01*
X144930472Y-116634850D01*
X144981008Y-116468254D01*
X144982313Y-116455000D01*
X148430299Y-116455000D01*
X148434188Y-116494482D01*
X148470498Y-116614180D01*
X148529463Y-116724494D01*
X148608815Y-116821185D01*
X148705506Y-116900537D01*
X148815820Y-116959502D01*
X148935518Y-116995812D01*
X149060000Y-117008072D01*
X150660000Y-117008072D01*
X150784482Y-116995812D01*
X150904180Y-116959502D01*
X151014494Y-116900537D01*
X151111185Y-116821185D01*
X151190537Y-116724494D01*
X151249502Y-116614180D01*
X151265117Y-116562702D01*
X151546903Y-116562702D01*
X151618486Y-116806671D01*
X151873996Y-116927571D01*
X152148184Y-116996300D01*
X152430512Y-117010217D01*
X152710130Y-116968787D01*
X152976292Y-116873603D01*
X153101514Y-116806671D01*
X153173097Y-116562702D01*
X152360000Y-115749605D01*
X151546903Y-116562702D01*
X151265117Y-116562702D01*
X151285812Y-116494482D01*
X151298072Y-116370000D01*
X151298072Y-116362785D01*
X151367298Y-116383097D01*
X152180395Y-115570000D01*
X152539605Y-115570000D01*
X153352702Y-116383097D01*
X153596671Y-116311514D01*
X153717571Y-116056004D01*
X153786300Y-115781816D01*
X153800217Y-115499488D01*
X153758787Y-115219870D01*
X153663603Y-114953708D01*
X153596671Y-114828486D01*
X153352702Y-114756903D01*
X152539605Y-115570000D01*
X152180395Y-115570000D01*
X151367298Y-114756903D01*
X151298072Y-114777215D01*
X151298072Y-114770000D01*
X151285812Y-114645518D01*
X151265118Y-114577298D01*
X151546903Y-114577298D01*
X152360000Y-115390395D01*
X153173097Y-114577298D01*
X153101514Y-114333329D01*
X152846004Y-114212429D01*
X152571816Y-114143700D01*
X152289488Y-114129783D01*
X152009870Y-114171213D01*
X151743708Y-114266397D01*
X151618486Y-114333329D01*
X151546903Y-114577298D01*
X151265118Y-114577298D01*
X151249502Y-114525820D01*
X151190537Y-114415506D01*
X151111185Y-114318815D01*
X151014494Y-114239463D01*
X150904180Y-114180498D01*
X150784482Y-114144188D01*
X150660000Y-114131928D01*
X149060000Y-114131928D01*
X148935518Y-114144188D01*
X148815820Y-114180498D01*
X148705506Y-114239463D01*
X148608815Y-114318815D01*
X148529463Y-114415506D01*
X148470498Y-114525820D01*
X148434188Y-114645518D01*
X148430299Y-114685000D01*
X144982313Y-114685000D01*
X144981008Y-114671746D01*
X144930472Y-114505150D01*
X144848405Y-114351614D01*
X144737962Y-114217038D01*
X144603386Y-114106595D01*
X144449850Y-114024528D01*
X144395000Y-114007890D01*
X144395000Y-110354521D01*
X144424759Y-110334637D01*
X144624637Y-110134759D01*
X144781680Y-109899727D01*
X144889853Y-109638574D01*
X144945000Y-109361335D01*
X144945000Y-109078665D01*
X149695000Y-109078665D01*
X149695000Y-109361335D01*
X149750147Y-109638574D01*
X149858320Y-109899727D01*
X150015363Y-110134759D01*
X150215241Y-110334637D01*
X150450273Y-110491680D01*
X150711426Y-110599853D01*
X150988665Y-110655000D01*
X151271335Y-110655000D01*
X151548574Y-110599853D01*
X151809727Y-110491680D01*
X152044759Y-110334637D01*
X152244637Y-110134759D01*
X152264521Y-110105000D01*
X152415210Y-110105000D01*
X152477688Y-110198505D01*
X152691495Y-110412312D01*
X152942905Y-110580299D01*
X153222257Y-110696011D01*
X153518816Y-110755000D01*
X153821184Y-110755000D01*
X154117743Y-110696011D01*
X154397095Y-110580299D01*
X154648505Y-110412312D01*
X154714944Y-110345873D01*
X154720498Y-110364180D01*
X154779463Y-110474494D01*
X154858815Y-110571185D01*
X154955506Y-110650537D01*
X155065820Y-110709502D01*
X155185518Y-110745812D01*
X155310000Y-110758072D01*
X155924250Y-110755000D01*
X156083000Y-110596250D01*
X156083000Y-109347000D01*
X156337000Y-109347000D01*
X156337000Y-110596250D01*
X156495750Y-110755000D01*
X157110000Y-110758072D01*
X157234482Y-110745812D01*
X157354180Y-110709502D01*
X157464494Y-110650537D01*
X157561185Y-110571185D01*
X157640537Y-110474494D01*
X157699502Y-110364180D01*
X157735812Y-110244482D01*
X157748072Y-110120000D01*
X157745000Y-109505750D01*
X157586250Y-109347000D01*
X156337000Y-109347000D01*
X156083000Y-109347000D01*
X156063000Y-109347000D01*
X156063000Y-109093000D01*
X156083000Y-109093000D01*
X156083000Y-107843750D01*
X156337000Y-107843750D01*
X156337000Y-109093000D01*
X157586250Y-109093000D01*
X157745000Y-108934250D01*
X157748072Y-108320000D01*
X157735812Y-108195518D01*
X157699502Y-108075820D01*
X157640537Y-107965506D01*
X157561185Y-107868815D01*
X157464494Y-107789463D01*
X157354180Y-107730498D01*
X157234482Y-107694188D01*
X157110000Y-107681928D01*
X156495750Y-107685000D01*
X156337000Y-107843750D01*
X156083000Y-107843750D01*
X155924250Y-107685000D01*
X155310000Y-107681928D01*
X155185518Y-107694188D01*
X155065820Y-107730498D01*
X154955506Y-107789463D01*
X154858815Y-107868815D01*
X154779463Y-107965506D01*
X154720498Y-108075820D01*
X154714944Y-108094127D01*
X154648505Y-108027688D01*
X154397095Y-107859701D01*
X154117743Y-107743989D01*
X153821184Y-107685000D01*
X153518816Y-107685000D01*
X153222257Y-107743989D01*
X152942905Y-107859701D01*
X152691495Y-108027688D01*
X152477688Y-108241495D01*
X152415210Y-108335000D01*
X152264521Y-108335000D01*
X152244637Y-108305241D01*
X152044759Y-108105363D01*
X151809727Y-107948320D01*
X151548574Y-107840147D01*
X151271335Y-107785000D01*
X150988665Y-107785000D01*
X150711426Y-107840147D01*
X150450273Y-107948320D01*
X150215241Y-108105363D01*
X150015363Y-108305241D01*
X149858320Y-108540273D01*
X149750147Y-108801426D01*
X149695000Y-109078665D01*
X144945000Y-109078665D01*
X144889853Y-108801426D01*
X144781680Y-108540273D01*
X144624637Y-108305241D01*
X144424759Y-108105363D01*
X144189727Y-107948320D01*
X143928574Y-107840147D01*
X143651335Y-107785000D01*
X143368665Y-107785000D01*
X143333561Y-107791983D01*
X143125000Y-107583422D01*
X143125000Y-104845512D01*
X147864783Y-104845512D01*
X147906213Y-105125130D01*
X148001397Y-105391292D01*
X148068329Y-105516514D01*
X148312298Y-105588097D01*
X149117889Y-104782506D01*
X149114783Y-104845512D01*
X149153408Y-105106197D01*
X148491903Y-105767702D01*
X148563486Y-106011671D01*
X148818996Y-106132571D01*
X149093184Y-106201300D01*
X149375512Y-106215217D01*
X149655130Y-106173787D01*
X149921292Y-106078603D01*
X149937092Y-106070158D01*
X150068996Y-106132571D01*
X150343184Y-106201300D01*
X150625512Y-106215217D01*
X150905130Y-106173787D01*
X151171292Y-106078603D01*
X151296514Y-106011671D01*
X151368097Y-105767702D01*
X150702421Y-105102026D01*
X150731300Y-104986816D01*
X150741406Y-104781801D01*
X151547702Y-105588097D01*
X151791671Y-105516514D01*
X151805324Y-105487659D01*
X151940363Y-105689759D01*
X152140241Y-105889637D01*
X152375273Y-106046680D01*
X152636426Y-106154853D01*
X152913665Y-106210000D01*
X153196335Y-106210000D01*
X153473574Y-106154853D01*
X153680000Y-106069349D01*
X153886426Y-106154853D01*
X154163665Y-106210000D01*
X154446335Y-106210000D01*
X154723574Y-106154853D01*
X154984727Y-106046680D01*
X155219759Y-105889637D01*
X155419637Y-105689759D01*
X155576680Y-105454727D01*
X155684853Y-105193574D01*
X155740000Y-104916335D01*
X155740000Y-104633665D01*
X155684853Y-104356426D01*
X155576680Y-104095273D01*
X155419637Y-103860241D01*
X155219759Y-103660363D01*
X154984727Y-103503320D01*
X154723574Y-103395147D01*
X154446335Y-103340000D01*
X154163665Y-103340000D01*
X153886426Y-103395147D01*
X153680000Y-103480651D01*
X153473574Y-103395147D01*
X153196335Y-103340000D01*
X152913665Y-103340000D01*
X152636426Y-103395147D01*
X152375273Y-103503320D01*
X152140241Y-103660363D01*
X151940363Y-103860241D01*
X151806308Y-104060869D01*
X151791671Y-104033486D01*
X151547702Y-103961903D01*
X150742111Y-104767494D01*
X150745217Y-104704488D01*
X150706592Y-104443803D01*
X151368097Y-103782298D01*
X151296514Y-103538329D01*
X151041004Y-103417429D01*
X150766816Y-103348700D01*
X150484488Y-103334783D01*
X150204870Y-103376213D01*
X149938708Y-103471397D01*
X149922908Y-103479842D01*
X149791004Y-103417429D01*
X149516816Y-103348700D01*
X149234488Y-103334783D01*
X148954870Y-103376213D01*
X148688708Y-103471397D01*
X148563486Y-103538329D01*
X148491903Y-103782298D01*
X149157579Y-104447974D01*
X149128700Y-104563184D01*
X149118594Y-104768199D01*
X148312298Y-103961903D01*
X148068329Y-104033486D01*
X147947429Y-104288996D01*
X147878700Y-104563184D01*
X147864783Y-104845512D01*
X143125000Y-104845512D01*
X143125000Y-101034413D01*
X143275500Y-101254895D01*
X143477161Y-101452601D01*
X143713517Y-101607166D01*
X143975486Y-101712650D01*
X144253000Y-101765000D01*
X144653000Y-101765000D01*
X144653000Y-100457000D01*
X144907000Y-100457000D01*
X144907000Y-101765000D01*
X145307000Y-101765000D01*
X145584514Y-101712650D01*
X145846483Y-101607166D01*
X146082839Y-101452601D01*
X146284500Y-101254895D01*
X146443715Y-101021646D01*
X146520000Y-100842517D01*
X146520000Y-101106335D01*
X146575147Y-101383574D01*
X146683320Y-101644727D01*
X146840363Y-101879759D01*
X147040241Y-102079637D01*
X147275273Y-102236680D01*
X147536426Y-102344853D01*
X147813665Y-102400000D01*
X148096335Y-102400000D01*
X148373574Y-102344853D01*
X148634727Y-102236680D01*
X148869759Y-102079637D01*
X149069637Y-101879759D01*
X149226680Y-101644727D01*
X149334853Y-101383574D01*
X149390000Y-101106335D01*
X149390000Y-100823665D01*
X154140000Y-100823665D01*
X154140000Y-101106335D01*
X154195147Y-101383574D01*
X154303320Y-101644727D01*
X154460363Y-101879759D01*
X154660241Y-102079637D01*
X154895273Y-102236680D01*
X155156426Y-102344853D01*
X155433665Y-102400000D01*
X155716335Y-102400000D01*
X155993574Y-102344853D01*
X156254727Y-102236680D01*
X156489759Y-102079637D01*
X156689637Y-101879759D01*
X156846680Y-101644727D01*
X156954853Y-101383574D01*
X157010000Y-101106335D01*
X157010000Y-100823665D01*
X156954853Y-100546426D01*
X156846680Y-100285273D01*
X156689637Y-100050241D01*
X156489759Y-99850363D01*
X156254727Y-99693320D01*
X155993574Y-99585147D01*
X155716335Y-99530000D01*
X155433665Y-99530000D01*
X155156426Y-99585147D01*
X154895273Y-99693320D01*
X154660241Y-99850363D01*
X154460363Y-100050241D01*
X154303320Y-100285273D01*
X154195147Y-100546426D01*
X154140000Y-100823665D01*
X149390000Y-100823665D01*
X149334853Y-100546426D01*
X149226680Y-100285273D01*
X149069637Y-100050241D01*
X148869759Y-99850363D01*
X148634727Y-99693320D01*
X148373574Y-99585147D01*
X148096335Y-99530000D01*
X147813665Y-99530000D01*
X147536426Y-99585147D01*
X147275273Y-99693320D01*
X147040241Y-99850363D01*
X146840363Y-100050241D01*
X146683320Y-100285273D01*
X146575147Y-100546426D01*
X146554918Y-100648122D01*
X146449915Y-100457000D01*
X144907000Y-100457000D01*
X144653000Y-100457000D01*
X144633000Y-100457000D01*
X144633000Y-100203000D01*
X144653000Y-100203000D01*
X144653000Y-100183000D01*
X144907000Y-100183000D01*
X144907000Y-100203000D01*
X146449915Y-100203000D01*
X146571904Y-99980961D01*
X146554367Y-99898182D01*
X146443715Y-99638354D01*
X146284500Y-99405105D01*
X146082839Y-99207399D01*
X145853259Y-99057265D01*
X145981101Y-98988932D01*
X146199608Y-98809608D01*
X146378932Y-98591101D01*
X146512182Y-98341808D01*
X146566217Y-98163678D01*
X146575147Y-98208574D01*
X146683320Y-98469727D01*
X146840363Y-98704759D01*
X147040241Y-98904637D01*
X147275273Y-99061680D01*
X147536426Y-99169853D01*
X147813665Y-99225000D01*
X148096335Y-99225000D01*
X148373574Y-99169853D01*
X148634727Y-99061680D01*
X148869759Y-98904637D01*
X149069637Y-98704759D01*
X149226680Y-98469727D01*
X149334853Y-98208574D01*
X149390000Y-97931335D01*
X149390000Y-97648665D01*
X154140000Y-97648665D01*
X154140000Y-97931335D01*
X154195147Y-98208574D01*
X154303320Y-98469727D01*
X154460363Y-98704759D01*
X154660241Y-98904637D01*
X154895273Y-99061680D01*
X155156426Y-99169853D01*
X155433665Y-99225000D01*
X155716335Y-99225000D01*
X155993574Y-99169853D01*
X156254727Y-99061680D01*
X156489759Y-98904637D01*
X156689637Y-98704759D01*
X156846680Y-98469727D01*
X156954853Y-98208574D01*
X157010000Y-97931335D01*
X157010000Y-97688665D01*
X159220000Y-97688665D01*
X159220000Y-97971335D01*
X159275147Y-98248574D01*
X159383320Y-98509727D01*
X159540363Y-98744759D01*
X159740241Y-98944637D01*
X159942827Y-99080000D01*
X159740241Y-99215363D01*
X159540363Y-99415241D01*
X159383320Y-99650273D01*
X159275147Y-99911426D01*
X159220000Y-100188665D01*
X159220000Y-100471335D01*
X159275147Y-100748574D01*
X159383320Y-101009727D01*
X159540363Y-101244759D01*
X159740241Y-101444637D01*
X159770000Y-101464521D01*
X159770001Y-104461519D01*
X159765719Y-104504998D01*
X159782805Y-104678488D01*
X159833412Y-104845311D01*
X159915590Y-104999057D01*
X159998468Y-105100044D01*
X159998471Y-105100047D01*
X160026184Y-105133815D01*
X160059951Y-105161527D01*
X160405001Y-105506577D01*
X160405000Y-108085479D01*
X160375241Y-108105363D01*
X160175363Y-108305241D01*
X160018320Y-108540273D01*
X159910147Y-108801426D01*
X159855000Y-109078665D01*
X159855000Y-109361335D01*
X159910147Y-109638574D01*
X160018320Y-109899727D01*
X160175363Y-110134759D01*
X160375241Y-110334637D01*
X160485001Y-110407976D01*
X160485000Y-114250241D01*
X160314866Y-114389866D01*
X160129294Y-114615986D01*
X159991401Y-114873966D01*
X159906487Y-115153889D01*
X159885000Y-115372050D01*
X159885000Y-115767949D01*
X159906487Y-115986110D01*
X159991401Y-116266033D01*
X160129294Y-116524013D01*
X160314866Y-116750134D01*
X160540986Y-116935706D01*
X160798966Y-117073599D01*
X161078889Y-117158513D01*
X161370000Y-117187185D01*
X161661110Y-117158513D01*
X161941033Y-117073599D01*
X162199013Y-116935706D01*
X162425134Y-116750134D01*
X162610706Y-116524014D01*
X162620000Y-116506626D01*
X162629294Y-116524013D01*
X162814866Y-116750134D01*
X163040986Y-116935706D01*
X163298966Y-117073599D01*
X163578889Y-117158513D01*
X163870000Y-117187185D01*
X164161110Y-117158513D01*
X164441033Y-117073599D01*
X164699013Y-116935706D01*
X164925134Y-116750134D01*
X164977223Y-116686663D01*
X165031595Y-116788386D01*
X165142038Y-116922962D01*
X165276614Y-117033405D01*
X165430150Y-117115472D01*
X165596746Y-117166008D01*
X165770000Y-117183072D01*
X166731493Y-117183072D01*
X167163480Y-117615059D01*
X167191193Y-117648827D01*
X167224961Y-117676540D01*
X167224963Y-117676542D01*
X167325950Y-117759420D01*
X167325951Y-117759421D01*
X167479697Y-117841599D01*
X167646520Y-117892205D01*
X167776533Y-117905010D01*
X167776541Y-117905010D01*
X167820010Y-117909291D01*
X167863479Y-117905010D01*
X173766521Y-117905010D01*
X173809990Y-117909291D01*
X173853459Y-117905010D01*
X173853467Y-117905010D01*
X173983480Y-117892205D01*
X174150303Y-117841599D01*
X174304049Y-117759421D01*
X174438807Y-117648827D01*
X174466524Y-117615054D01*
X174873506Y-117208072D01*
X175860000Y-117208072D01*
X176033254Y-117191008D01*
X176199850Y-117140472D01*
X176353386Y-117058405D01*
X176487962Y-116947962D01*
X176598405Y-116813386D01*
X176680472Y-116659850D01*
X176731008Y-116493254D01*
X176748072Y-116320000D01*
X176748072Y-114820000D01*
X176731008Y-114646746D01*
X176680472Y-114480150D01*
X176598405Y-114326614D01*
X176487962Y-114192038D01*
X176353386Y-114081595D01*
X176199850Y-113999528D01*
X176145000Y-113982890D01*
X176145000Y-113396578D01*
X178893561Y-110648017D01*
X178928665Y-110655000D01*
X179211335Y-110655000D01*
X179488574Y-110599853D01*
X179749727Y-110491680D01*
X179984759Y-110334637D01*
X180184637Y-110134759D01*
X180341680Y-109899727D01*
X180449853Y-109638574D01*
X180505000Y-109361335D01*
X180505000Y-109078665D01*
X180449853Y-108801426D01*
X180341680Y-108540273D01*
X180184637Y-108305241D01*
X179984759Y-108105363D01*
X179955000Y-108085479D01*
X179955000Y-104183465D01*
X179959281Y-104139999D01*
X179955000Y-104096533D01*
X179955000Y-104096523D01*
X179942195Y-103966510D01*
X179891589Y-103799687D01*
X179809411Y-103645941D01*
X179779431Y-103609410D01*
X179726532Y-103544953D01*
X179726530Y-103544951D01*
X179698817Y-103511183D01*
X179665049Y-103483470D01*
X179238072Y-103056493D01*
X179238072Y-102683507D01*
X179645050Y-102276529D01*
X179678818Y-102248816D01*
X179789412Y-102114058D01*
X179871590Y-101960312D01*
X179922196Y-101793489D01*
X179935001Y-101663476D01*
X179935001Y-101663466D01*
X179939282Y-101620000D01*
X179935001Y-101576534D01*
X179935001Y-99813468D01*
X179939282Y-99769999D01*
X179935001Y-99726530D01*
X179935001Y-99726522D01*
X179922196Y-99596509D01*
X179920401Y-99590590D01*
X179895762Y-99509370D01*
X179871590Y-99429686D01*
X179789412Y-99275940D01*
X179739697Y-99215363D01*
X179706533Y-99174952D01*
X179706531Y-99174950D01*
X179678818Y-99141182D01*
X179645051Y-99113470D01*
X176076526Y-95544946D01*
X176048809Y-95511173D01*
X175914051Y-95400579D01*
X175760305Y-95318401D01*
X175593482Y-95267795D01*
X175463469Y-95254990D01*
X175463461Y-95254990D01*
X175419992Y-95250709D01*
X175376523Y-95254990D01*
X170975694Y-95254990D01*
X170932228Y-95250709D01*
X170888762Y-95254990D01*
X170888752Y-95254990D01*
X170758739Y-95267795D01*
X170591916Y-95318401D01*
X170438170Y-95400579D01*
X170438168Y-95400580D01*
X170438169Y-95400580D01*
X170337182Y-95483458D01*
X170337180Y-95483460D01*
X170303412Y-95511173D01*
X170275699Y-95544941D01*
X169657971Y-96162670D01*
X169461807Y-96057818D01*
X169191308Y-95975764D01*
X168910000Y-95948057D01*
X168628691Y-95975764D01*
X168358192Y-96057818D01*
X168108899Y-96191068D01*
X167890392Y-96370393D01*
X167711068Y-96588900D01*
X167640000Y-96721858D01*
X167568932Y-96588899D01*
X167389607Y-96370392D01*
X167171100Y-96191068D01*
X166921807Y-96057818D01*
X166651308Y-95975764D01*
X166370000Y-95948057D01*
X166088691Y-95975764D01*
X165818192Y-96057818D01*
X165568899Y-96191068D01*
X165350392Y-96370393D01*
X165171068Y-96588900D01*
X165100000Y-96721858D01*
X165028932Y-96588899D01*
X164849607Y-96370392D01*
X164631100Y-96191068D01*
X164381807Y-96057818D01*
X164111308Y-95975764D01*
X163830000Y-95948057D01*
X163548691Y-95975764D01*
X163278192Y-96057818D01*
X163028899Y-96191068D01*
X162810392Y-96370393D01*
X162631068Y-96588900D01*
X162497818Y-96838193D01*
X162465419Y-96945000D01*
X161789521Y-96945000D01*
X161769637Y-96915241D01*
X161569759Y-96715363D01*
X161334727Y-96558320D01*
X161073574Y-96450147D01*
X160796335Y-96395000D01*
X160513665Y-96395000D01*
X160236426Y-96450147D01*
X159975273Y-96558320D01*
X159740241Y-96715363D01*
X159540363Y-96915241D01*
X159383320Y-97150273D01*
X159275147Y-97411426D01*
X159220000Y-97688665D01*
X157010000Y-97688665D01*
X157010000Y-97648665D01*
X156954853Y-97371426D01*
X156846680Y-97110273D01*
X156689637Y-96875241D01*
X156489759Y-96675363D01*
X156254727Y-96518320D01*
X155993574Y-96410147D01*
X155716335Y-96355000D01*
X155433665Y-96355000D01*
X155156426Y-96410147D01*
X154895273Y-96518320D01*
X154660241Y-96675363D01*
X154460363Y-96875241D01*
X154303320Y-97110273D01*
X154195147Y-97371426D01*
X154140000Y-97648665D01*
X149390000Y-97648665D01*
X149334853Y-97371426D01*
X149226680Y-97110273D01*
X149069637Y-96875241D01*
X148869759Y-96675363D01*
X148634727Y-96518320D01*
X148373574Y-96410147D01*
X148096335Y-96355000D01*
X147813665Y-96355000D01*
X147536426Y-96410147D01*
X147275273Y-96518320D01*
X147040241Y-96675363D01*
X146840363Y-96875241D01*
X146683320Y-97110273D01*
X146575147Y-97371426D01*
X146566217Y-97416322D01*
X146512182Y-97238192D01*
X146378932Y-96988899D01*
X146199608Y-96770392D01*
X145981101Y-96591068D01*
X145848142Y-96520000D01*
X145981101Y-96448932D01*
X146199608Y-96269608D01*
X146378932Y-96051101D01*
X146512182Y-95801808D01*
X146594236Y-95531309D01*
X146621943Y-95250000D01*
X146608575Y-95114277D01*
X146683320Y-95294727D01*
X146840363Y-95529759D01*
X147040241Y-95729637D01*
X147275273Y-95886680D01*
X147536426Y-95994853D01*
X147813665Y-96050000D01*
X148096335Y-96050000D01*
X148373574Y-95994853D01*
X148634727Y-95886680D01*
X148869759Y-95729637D01*
X149069637Y-95529759D01*
X149226680Y-95294727D01*
X149334853Y-95033574D01*
X149390000Y-94756335D01*
X149390000Y-94473665D01*
X154140000Y-94473665D01*
X154140000Y-94756335D01*
X154195147Y-95033574D01*
X154303320Y-95294727D01*
X154460363Y-95529759D01*
X154660241Y-95729637D01*
X154895273Y-95886680D01*
X155156426Y-95994853D01*
X155433665Y-96050000D01*
X155716335Y-96050000D01*
X155993574Y-95994853D01*
X156254727Y-95886680D01*
X156489759Y-95729637D01*
X156689637Y-95529759D01*
X156846680Y-95294727D01*
X156954853Y-95033574D01*
X157010000Y-94756335D01*
X157010000Y-94473665D01*
X156954853Y-94196426D01*
X156846680Y-93935273D01*
X156689637Y-93700241D01*
X156489759Y-93500363D01*
X156254727Y-93343320D01*
X155993574Y-93235147D01*
X155716335Y-93180000D01*
X155433665Y-93180000D01*
X155156426Y-93235147D01*
X154895273Y-93343320D01*
X154660241Y-93500363D01*
X154460363Y-93700241D01*
X154303320Y-93935273D01*
X154195147Y-94196426D01*
X154140000Y-94473665D01*
X149390000Y-94473665D01*
X149334853Y-94196426D01*
X149226680Y-93935273D01*
X149069637Y-93700241D01*
X148869759Y-93500363D01*
X148634727Y-93343320D01*
X148373574Y-93235147D01*
X148096335Y-93180000D01*
X147813665Y-93180000D01*
X147536426Y-93235147D01*
X147275273Y-93343320D01*
X147040241Y-93500363D01*
X146840363Y-93700241D01*
X146683320Y-93935273D01*
X146575147Y-94196426D01*
X146520000Y-94473665D01*
X146520000Y-94723965D01*
X146512182Y-94698192D01*
X146378932Y-94448899D01*
X146199608Y-94230392D01*
X145981101Y-94051068D01*
X145848142Y-93980000D01*
X145981101Y-93908932D01*
X146199608Y-93729608D01*
X146378932Y-93511101D01*
X146512182Y-93261808D01*
X146594236Y-92991309D01*
X146621943Y-92710000D01*
X146594236Y-92428691D01*
X146552166Y-92290000D01*
X175041928Y-92290000D01*
X175054188Y-92414482D01*
X175090498Y-92534180D01*
X175149463Y-92644494D01*
X175228815Y-92741185D01*
X175325506Y-92820537D01*
X175435820Y-92879502D01*
X175555518Y-92915812D01*
X175680000Y-92928072D01*
X176244250Y-92925000D01*
X176403000Y-92766250D01*
X176403000Y-91567000D01*
X176657000Y-91567000D01*
X176657000Y-92766250D01*
X176815750Y-92925000D01*
X177380000Y-92928072D01*
X177504482Y-92915812D01*
X177624180Y-92879502D01*
X177734494Y-92820537D01*
X177831185Y-92741185D01*
X177910537Y-92644494D01*
X177969502Y-92534180D01*
X177993966Y-92453534D01*
X178069731Y-92537588D01*
X178303080Y-92711641D01*
X178565901Y-92836825D01*
X178713110Y-92881476D01*
X178943000Y-92760155D01*
X178943000Y-91567000D01*
X179197000Y-91567000D01*
X179197000Y-92760155D01*
X179426890Y-92881476D01*
X179574099Y-92836825D01*
X179836920Y-92711641D01*
X180070269Y-92537588D01*
X180265178Y-92321355D01*
X180414157Y-92071252D01*
X180511481Y-91796891D01*
X180390814Y-91567000D01*
X179197000Y-91567000D01*
X178943000Y-91567000D01*
X176657000Y-91567000D01*
X176403000Y-91567000D01*
X175203750Y-91567000D01*
X175045000Y-91725750D01*
X175041928Y-92290000D01*
X146552166Y-92290000D01*
X146512182Y-92158192D01*
X146378932Y-91908899D01*
X146199608Y-91690392D01*
X145981101Y-91511068D01*
X145731808Y-91377818D01*
X145705000Y-91369686D01*
X145705000Y-90669521D01*
X145734759Y-90649637D01*
X145856694Y-90527702D01*
X146506903Y-90527702D01*
X146578486Y-90771671D01*
X146833996Y-90892571D01*
X147108184Y-90961300D01*
X147390512Y-90975217D01*
X147670130Y-90933787D01*
X147936292Y-90838603D01*
X148061514Y-90771671D01*
X148133097Y-90527702D01*
X147320000Y-89714605D01*
X146506903Y-90527702D01*
X145856694Y-90527702D01*
X145934637Y-90449759D01*
X146068692Y-90249131D01*
X146083329Y-90276514D01*
X146327298Y-90348097D01*
X147140395Y-89535000D01*
X147499605Y-89535000D01*
X148312702Y-90348097D01*
X148521386Y-90286867D01*
X148480147Y-90386426D01*
X148425000Y-90663665D01*
X148425000Y-90946335D01*
X148480147Y-91223574D01*
X148588320Y-91484727D01*
X148745363Y-91719759D01*
X148945241Y-91919637D01*
X149180273Y-92076680D01*
X149441426Y-92184853D01*
X149718665Y-92240000D01*
X150001335Y-92240000D01*
X150278574Y-92184853D01*
X150485000Y-92099349D01*
X150691426Y-92184853D01*
X150968665Y-92240000D01*
X151251335Y-92240000D01*
X151528574Y-92184853D01*
X151789727Y-92076680D01*
X152024759Y-91919637D01*
X152224637Y-91719759D01*
X152360000Y-91517173D01*
X152495363Y-91719759D01*
X152695241Y-91919637D01*
X152930273Y-92076680D01*
X153191426Y-92184853D01*
X153468665Y-92240000D01*
X153751335Y-92240000D01*
X154028574Y-92184853D01*
X154235000Y-92099349D01*
X154441426Y-92184853D01*
X154718665Y-92240000D01*
X155001335Y-92240000D01*
X155278574Y-92184853D01*
X155539727Y-92076680D01*
X155774759Y-91919637D01*
X155974637Y-91719759D01*
X156131680Y-91484727D01*
X156239853Y-91223574D01*
X156295000Y-90946335D01*
X156295000Y-90663665D01*
X156280347Y-90590000D01*
X175041928Y-90590000D01*
X175045000Y-91154250D01*
X175203750Y-91313000D01*
X176403000Y-91313000D01*
X176403000Y-90113750D01*
X176657000Y-90113750D01*
X176657000Y-91313000D01*
X178943000Y-91313000D01*
X178943000Y-90119845D01*
X179197000Y-90119845D01*
X179197000Y-91313000D01*
X180390814Y-91313000D01*
X180511481Y-91083109D01*
X180414157Y-90808748D01*
X180265178Y-90558645D01*
X180070269Y-90342412D01*
X179836920Y-90168359D01*
X179574099Y-90043175D01*
X179426890Y-89998524D01*
X179197000Y-90119845D01*
X178943000Y-90119845D01*
X178713110Y-89998524D01*
X178565901Y-90043175D01*
X178303080Y-90168359D01*
X178069731Y-90342412D01*
X177993966Y-90426466D01*
X177969502Y-90345820D01*
X177910537Y-90235506D01*
X177831185Y-90138815D01*
X177734494Y-90059463D01*
X177624180Y-90000498D01*
X177504482Y-89964188D01*
X177380000Y-89951928D01*
X176815750Y-89955000D01*
X176657000Y-90113750D01*
X176403000Y-90113750D01*
X176244250Y-89955000D01*
X175680000Y-89951928D01*
X175555518Y-89964188D01*
X175435820Y-90000498D01*
X175325506Y-90059463D01*
X175228815Y-90138815D01*
X175149463Y-90235506D01*
X175090498Y-90345820D01*
X175054188Y-90465518D01*
X175041928Y-90590000D01*
X156280347Y-90590000D01*
X156239853Y-90386426D01*
X156131680Y-90125273D01*
X155974637Y-89890241D01*
X155774759Y-89690363D01*
X155539727Y-89533320D01*
X155278574Y-89425147D01*
X155001335Y-89370000D01*
X154718665Y-89370000D01*
X154441426Y-89425147D01*
X154235000Y-89510651D01*
X154028574Y-89425147D01*
X153751335Y-89370000D01*
X153468665Y-89370000D01*
X153191426Y-89425147D01*
X152930273Y-89533320D01*
X152695241Y-89690363D01*
X152495363Y-89890241D01*
X152360000Y-90092827D01*
X152224637Y-89890241D01*
X152024759Y-89690363D01*
X151789727Y-89533320D01*
X151528574Y-89425147D01*
X151251335Y-89370000D01*
X150968665Y-89370000D01*
X150691426Y-89425147D01*
X150485000Y-89510651D01*
X150278574Y-89425147D01*
X150001335Y-89370000D01*
X149718665Y-89370000D01*
X149441426Y-89425147D01*
X149180273Y-89533320D01*
X148945241Y-89690363D01*
X148745363Y-89890241D01*
X148689327Y-89974105D01*
X148746300Y-89746816D01*
X148760217Y-89464488D01*
X148723532Y-89216890D01*
X159698524Y-89216890D01*
X159700446Y-89229261D01*
X159800146Y-89503009D01*
X159951336Y-89752046D01*
X160148205Y-89966802D01*
X160383188Y-90139025D01*
X160647255Y-90262096D01*
X160930258Y-90331285D01*
X161163000Y-90187232D01*
X161163000Y-88987000D01*
X161417000Y-88987000D01*
X161417000Y-90187232D01*
X161649742Y-90331285D01*
X161932745Y-90262096D01*
X162196812Y-90139025D01*
X162431795Y-89966802D01*
X162628664Y-89752046D01*
X162779854Y-89503009D01*
X162879554Y-89229261D01*
X162881476Y-89216890D01*
X162760155Y-88987000D01*
X161417000Y-88987000D01*
X161163000Y-88987000D01*
X159819845Y-88987000D01*
X159698524Y-89216890D01*
X148723532Y-89216890D01*
X148718787Y-89184870D01*
X148623603Y-88918708D01*
X148556671Y-88793486D01*
X148312702Y-88721903D01*
X147499605Y-89535000D01*
X147140395Y-89535000D01*
X146327298Y-88721903D01*
X146083329Y-88793486D01*
X146069676Y-88822341D01*
X145934637Y-88620241D01*
X145856694Y-88542298D01*
X146506903Y-88542298D01*
X147320000Y-89355395D01*
X148133097Y-88542298D01*
X148061514Y-88298329D01*
X147806004Y-88177429D01*
X147531816Y-88108700D01*
X147249488Y-88094783D01*
X146969870Y-88136213D01*
X146703708Y-88231397D01*
X146578486Y-88298329D01*
X146506903Y-88542298D01*
X145856694Y-88542298D01*
X145734759Y-88420363D01*
X145499727Y-88263320D01*
X145238574Y-88155147D01*
X144961335Y-88100000D01*
X144678665Y-88100000D01*
X144401426Y-88155147D01*
X144140273Y-88263320D01*
X143905241Y-88420363D01*
X143705363Y-88620241D01*
X143548320Y-88855273D01*
X143440147Y-89116426D01*
X143385000Y-89393665D01*
X143385000Y-89676335D01*
X143440147Y-89953574D01*
X143548320Y-90214727D01*
X143705363Y-90449759D01*
X143905241Y-90649637D01*
X143935000Y-90669522D01*
X143935001Y-91345418D01*
X143828192Y-91377818D01*
X143578899Y-91511068D01*
X143569972Y-91518394D01*
X143125000Y-91073422D01*
X143125000Y-84525512D01*
X147229783Y-84525512D01*
X147271213Y-84805130D01*
X147366397Y-85071292D01*
X147433329Y-85196514D01*
X147677298Y-85268097D01*
X148482889Y-84462506D01*
X148479783Y-84525512D01*
X148518408Y-84786197D01*
X147856903Y-85447702D01*
X147928486Y-85691671D01*
X148183996Y-85812571D01*
X148458184Y-85881300D01*
X148740512Y-85895217D01*
X149020130Y-85853787D01*
X149286292Y-85758603D01*
X149302092Y-85750158D01*
X149433996Y-85812571D01*
X149708184Y-85881300D01*
X149990512Y-85895217D01*
X150270130Y-85853787D01*
X150536292Y-85758603D01*
X150661514Y-85691671D01*
X150733097Y-85447702D01*
X150067421Y-84782026D01*
X150096300Y-84666816D01*
X150106406Y-84461801D01*
X150912702Y-85268097D01*
X151156671Y-85196514D01*
X151170324Y-85167659D01*
X151305363Y-85369759D01*
X151505241Y-85569637D01*
X151740273Y-85726680D01*
X152001426Y-85834853D01*
X152278665Y-85890000D01*
X152561335Y-85890000D01*
X152838574Y-85834853D01*
X153045000Y-85749349D01*
X153251426Y-85834853D01*
X153528665Y-85890000D01*
X153811335Y-85890000D01*
X154088574Y-85834853D01*
X154269285Y-85760000D01*
X159651928Y-85760000D01*
X159651928Y-86960000D01*
X159668992Y-87133254D01*
X159719528Y-87299850D01*
X159801595Y-87453386D01*
X159912038Y-87587962D01*
X160046614Y-87698405D01*
X160148593Y-87752914D01*
X160148205Y-87753198D01*
X159951336Y-87967954D01*
X159800146Y-88216991D01*
X159700446Y-88490739D01*
X159698524Y-88503110D01*
X159819845Y-88733000D01*
X161163000Y-88733000D01*
X161163000Y-88713000D01*
X161417000Y-88713000D01*
X161417000Y-88733000D01*
X162760155Y-88733000D01*
X162881476Y-88503110D01*
X162879554Y-88490739D01*
X162779854Y-88216991D01*
X162628664Y-87967954D01*
X162431795Y-87753198D01*
X162431407Y-87752914D01*
X162533386Y-87698405D01*
X162667962Y-87587962D01*
X162778405Y-87453386D01*
X162860472Y-87299850D01*
X162911008Y-87133254D01*
X162928072Y-86960000D01*
X162928072Y-85760000D01*
X162911008Y-85586746D01*
X162860472Y-85420150D01*
X162778405Y-85266614D01*
X162667962Y-85132038D01*
X162533386Y-85021595D01*
X162379850Y-84939528D01*
X162213254Y-84888992D01*
X162040000Y-84871928D01*
X160540000Y-84871928D01*
X160366746Y-84888992D01*
X160200150Y-84939528D01*
X160046614Y-85021595D01*
X159912038Y-85132038D01*
X159801595Y-85266614D01*
X159719528Y-85420150D01*
X159668992Y-85586746D01*
X159651928Y-85760000D01*
X154269285Y-85760000D01*
X154349727Y-85726680D01*
X154584759Y-85569637D01*
X154784637Y-85369759D01*
X154941680Y-85134727D01*
X155049853Y-84873574D01*
X155105000Y-84596335D01*
X155105000Y-84313665D01*
X155049853Y-84036426D01*
X154941680Y-83775273D01*
X154784637Y-83540241D01*
X154584759Y-83340363D01*
X154349727Y-83183320D01*
X154088574Y-83075147D01*
X153811335Y-83020000D01*
X153528665Y-83020000D01*
X153251426Y-83075147D01*
X153045000Y-83160651D01*
X152838574Y-83075147D01*
X152561335Y-83020000D01*
X152278665Y-83020000D01*
X152001426Y-83075147D01*
X151740273Y-83183320D01*
X151505241Y-83340363D01*
X151305363Y-83540241D01*
X151171308Y-83740869D01*
X151156671Y-83713486D01*
X150912702Y-83641903D01*
X150107111Y-84447494D01*
X150110217Y-84384488D01*
X150071592Y-84123803D01*
X150733097Y-83462298D01*
X150661514Y-83218329D01*
X150406004Y-83097429D01*
X150131816Y-83028700D01*
X149849488Y-83014783D01*
X149569870Y-83056213D01*
X149303708Y-83151397D01*
X149287908Y-83159842D01*
X149156004Y-83097429D01*
X148881816Y-83028700D01*
X148599488Y-83014783D01*
X148319870Y-83056213D01*
X148053708Y-83151397D01*
X147928486Y-83218329D01*
X147856903Y-83462298D01*
X148522579Y-84127974D01*
X148493700Y-84243184D01*
X148483594Y-84448199D01*
X147677298Y-83641903D01*
X147433329Y-83713486D01*
X147312429Y-83968996D01*
X147243700Y-84243184D01*
X147229783Y-84525512D01*
X143125000Y-84525512D01*
X143125000Y-80714413D01*
X143275500Y-80934895D01*
X143477161Y-81132601D01*
X143713517Y-81287166D01*
X143975486Y-81392650D01*
X144253000Y-81445000D01*
X144653000Y-81445000D01*
X144653000Y-80137000D01*
X144907000Y-80137000D01*
X144907000Y-81445000D01*
X145307000Y-81445000D01*
X145584514Y-81392650D01*
X145846483Y-81287166D01*
X146082839Y-81132601D01*
X146284500Y-80934895D01*
X146443715Y-80701646D01*
X146520000Y-80522517D01*
X146520000Y-80786335D01*
X146575147Y-81063574D01*
X146683320Y-81324727D01*
X146840363Y-81559759D01*
X147040241Y-81759637D01*
X147275273Y-81916680D01*
X147536426Y-82024853D01*
X147813665Y-82080000D01*
X148096335Y-82080000D01*
X148373574Y-82024853D01*
X148634727Y-81916680D01*
X148869759Y-81759637D01*
X149069637Y-81559759D01*
X149226680Y-81324727D01*
X149334853Y-81063574D01*
X149390000Y-80786335D01*
X149390000Y-80503665D01*
X154140000Y-80503665D01*
X154140000Y-80786335D01*
X154195147Y-81063574D01*
X154303320Y-81324727D01*
X154460363Y-81559759D01*
X154660241Y-81759637D01*
X154895273Y-81916680D01*
X155156426Y-82024853D01*
X155433665Y-82080000D01*
X155716335Y-82080000D01*
X155993574Y-82024853D01*
X156254727Y-81916680D01*
X156489759Y-81759637D01*
X156689637Y-81559759D01*
X156846680Y-81324727D01*
X156954853Y-81063574D01*
X157010000Y-80786335D01*
X157010000Y-80503665D01*
X156954853Y-80226426D01*
X156846680Y-79965273D01*
X156689637Y-79730241D01*
X156489759Y-79530363D01*
X156254727Y-79373320D01*
X155993574Y-79265147D01*
X155716335Y-79210000D01*
X155433665Y-79210000D01*
X155156426Y-79265147D01*
X154895273Y-79373320D01*
X154660241Y-79530363D01*
X154460363Y-79730241D01*
X154303320Y-79965273D01*
X154195147Y-80226426D01*
X154140000Y-80503665D01*
X149390000Y-80503665D01*
X149334853Y-80226426D01*
X149226680Y-79965273D01*
X149069637Y-79730241D01*
X148869759Y-79530363D01*
X148634727Y-79373320D01*
X148373574Y-79265147D01*
X148096335Y-79210000D01*
X147813665Y-79210000D01*
X147536426Y-79265147D01*
X147275273Y-79373320D01*
X147040241Y-79530363D01*
X146840363Y-79730241D01*
X146683320Y-79965273D01*
X146575147Y-80226426D01*
X146554918Y-80328122D01*
X146449915Y-80137000D01*
X144907000Y-80137000D01*
X144653000Y-80137000D01*
X144633000Y-80137000D01*
X144633000Y-79883000D01*
X144653000Y-79883000D01*
X144653000Y-79863000D01*
X144907000Y-79863000D01*
X144907000Y-79883000D01*
X146449915Y-79883000D01*
X146571904Y-79660961D01*
X146554367Y-79578182D01*
X146443715Y-79318354D01*
X146284500Y-79085105D01*
X146082839Y-78887399D01*
X145853259Y-78737265D01*
X145981101Y-78668932D01*
X146199608Y-78489608D01*
X146378932Y-78271101D01*
X146512182Y-78021808D01*
X146566217Y-77843678D01*
X146575147Y-77888574D01*
X146683320Y-78149727D01*
X146840363Y-78384759D01*
X147040241Y-78584637D01*
X147275273Y-78741680D01*
X147536426Y-78849853D01*
X147813665Y-78905000D01*
X148096335Y-78905000D01*
X148373574Y-78849853D01*
X148634727Y-78741680D01*
X148869759Y-78584637D01*
X149069637Y-78384759D01*
X149226680Y-78149727D01*
X149334853Y-77888574D01*
X149390000Y-77611335D01*
X149390000Y-77328665D01*
X154140000Y-77328665D01*
X154140000Y-77611335D01*
X154195147Y-77888574D01*
X154303320Y-78149727D01*
X154460363Y-78384759D01*
X154660241Y-78584637D01*
X154895273Y-78741680D01*
X155156426Y-78849853D01*
X155433665Y-78905000D01*
X155716335Y-78905000D01*
X155993574Y-78849853D01*
X156254727Y-78741680D01*
X156489759Y-78584637D01*
X156689637Y-78384759D01*
X156846680Y-78149727D01*
X156954853Y-77888574D01*
X157010000Y-77611335D01*
X157010000Y-77328665D01*
X156954853Y-77051426D01*
X156846680Y-76790273D01*
X156689637Y-76555241D01*
X156489759Y-76355363D01*
X156254727Y-76198320D01*
X155993574Y-76090147D01*
X155716335Y-76035000D01*
X155433665Y-76035000D01*
X155156426Y-76090147D01*
X154895273Y-76198320D01*
X154660241Y-76355363D01*
X154460363Y-76555241D01*
X154303320Y-76790273D01*
X154195147Y-77051426D01*
X154140000Y-77328665D01*
X149390000Y-77328665D01*
X149334853Y-77051426D01*
X149226680Y-76790273D01*
X149069637Y-76555241D01*
X148869759Y-76355363D01*
X148634727Y-76198320D01*
X148373574Y-76090147D01*
X148096335Y-76035000D01*
X147813665Y-76035000D01*
X147536426Y-76090147D01*
X147275273Y-76198320D01*
X147040241Y-76355363D01*
X146840363Y-76555241D01*
X146683320Y-76790273D01*
X146575147Y-77051426D01*
X146566217Y-77096322D01*
X146512182Y-76918192D01*
X146378932Y-76668899D01*
X146199608Y-76450392D01*
X145981101Y-76271068D01*
X145848142Y-76200000D01*
X145981101Y-76128932D01*
X146199608Y-75949608D01*
X146378932Y-75731101D01*
X146512182Y-75481808D01*
X146594236Y-75211309D01*
X146621943Y-74930000D01*
X146608575Y-74794277D01*
X146683320Y-74974727D01*
X146840363Y-75209759D01*
X147040241Y-75409637D01*
X147275273Y-75566680D01*
X147536426Y-75674853D01*
X147813665Y-75730000D01*
X148096335Y-75730000D01*
X148373574Y-75674853D01*
X148634727Y-75566680D01*
X148869759Y-75409637D01*
X149069637Y-75209759D01*
X149226680Y-74974727D01*
X149334853Y-74713574D01*
X149390000Y-74436335D01*
X149390000Y-74153665D01*
X154140000Y-74153665D01*
X154140000Y-74436335D01*
X154195147Y-74713574D01*
X154303320Y-74974727D01*
X154460363Y-75209759D01*
X154660241Y-75409637D01*
X154895273Y-75566680D01*
X155156426Y-75674853D01*
X155433665Y-75730000D01*
X155716335Y-75730000D01*
X155993574Y-75674853D01*
X156254727Y-75566680D01*
X156489759Y-75409637D01*
X156652506Y-75246890D01*
X159698524Y-75246890D01*
X159700446Y-75259261D01*
X159800146Y-75533009D01*
X159951336Y-75782046D01*
X160148205Y-75996802D01*
X160383188Y-76169025D01*
X160647255Y-76292096D01*
X160930258Y-76361285D01*
X161163000Y-76217232D01*
X161163000Y-75017000D01*
X161417000Y-75017000D01*
X161417000Y-76217232D01*
X161649742Y-76361285D01*
X161932745Y-76292096D01*
X162196812Y-76169025D01*
X162431795Y-75996802D01*
X162628664Y-75782046D01*
X162779854Y-75533009D01*
X162879554Y-75259261D01*
X162881476Y-75246890D01*
X162760155Y-75017000D01*
X161417000Y-75017000D01*
X161163000Y-75017000D01*
X159819845Y-75017000D01*
X159698524Y-75246890D01*
X156652506Y-75246890D01*
X156689637Y-75209759D01*
X156846680Y-74974727D01*
X156954853Y-74713574D01*
X157010000Y-74436335D01*
X157010000Y-74153665D01*
X156954853Y-73876426D01*
X156846680Y-73615273D01*
X156689637Y-73380241D01*
X156489759Y-73180363D01*
X156254727Y-73023320D01*
X155993574Y-72915147D01*
X155716335Y-72860000D01*
X155433665Y-72860000D01*
X155156426Y-72915147D01*
X154895273Y-73023320D01*
X154660241Y-73180363D01*
X154460363Y-73380241D01*
X154303320Y-73615273D01*
X154195147Y-73876426D01*
X154140000Y-74153665D01*
X149390000Y-74153665D01*
X149334853Y-73876426D01*
X149226680Y-73615273D01*
X149069637Y-73380241D01*
X148869759Y-73180363D01*
X148634727Y-73023320D01*
X148373574Y-72915147D01*
X148096335Y-72860000D01*
X147813665Y-72860000D01*
X147536426Y-72915147D01*
X147275273Y-73023320D01*
X147040241Y-73180363D01*
X146840363Y-73380241D01*
X146683320Y-73615273D01*
X146575147Y-73876426D01*
X146520000Y-74153665D01*
X146520000Y-74403965D01*
X146512182Y-74378192D01*
X146378932Y-74128899D01*
X146199608Y-73910392D01*
X145981101Y-73731068D01*
X145848142Y-73660000D01*
X145981101Y-73588932D01*
X146199608Y-73409608D01*
X146378932Y-73191101D01*
X146512182Y-72941808D01*
X146594236Y-72671309D01*
X146621943Y-72390000D01*
X146594236Y-72108691D01*
X146512182Y-71838192D01*
X146486423Y-71790000D01*
X159651928Y-71790000D01*
X159651928Y-72990000D01*
X159668992Y-73163254D01*
X159719528Y-73329850D01*
X159801595Y-73483386D01*
X159912038Y-73617962D01*
X160046614Y-73728405D01*
X160148593Y-73782914D01*
X160148205Y-73783198D01*
X159951336Y-73997954D01*
X159800146Y-74246991D01*
X159700446Y-74520739D01*
X159698524Y-74533110D01*
X159819845Y-74763000D01*
X161163000Y-74763000D01*
X161163000Y-74743000D01*
X161417000Y-74743000D01*
X161417000Y-74763000D01*
X162760155Y-74763000D01*
X162881476Y-74533110D01*
X162879554Y-74520739D01*
X162779854Y-74246991D01*
X162628664Y-73997954D01*
X162431795Y-73783198D01*
X162431407Y-73782914D01*
X162533386Y-73728405D01*
X162667962Y-73617962D01*
X162778405Y-73483386D01*
X162860472Y-73329850D01*
X162911008Y-73163254D01*
X162928072Y-72990000D01*
X162928072Y-71790000D01*
X162911008Y-71616746D01*
X162860472Y-71450150D01*
X162778405Y-71296614D01*
X162667962Y-71162038D01*
X162533386Y-71051595D01*
X162379850Y-70969528D01*
X162213254Y-70918992D01*
X162040000Y-70901928D01*
X160540000Y-70901928D01*
X160366746Y-70918992D01*
X160200150Y-70969528D01*
X160046614Y-71051595D01*
X159912038Y-71162038D01*
X159801595Y-71296614D01*
X159719528Y-71450150D01*
X159668992Y-71616746D01*
X159651928Y-71790000D01*
X146486423Y-71790000D01*
X146378932Y-71588899D01*
X146199608Y-71370392D01*
X145981101Y-71191068D01*
X145731808Y-71057818D01*
X145705000Y-71049686D01*
X145705000Y-70349521D01*
X145734759Y-70329637D01*
X145856694Y-70207702D01*
X146506903Y-70207702D01*
X146578486Y-70451671D01*
X146833996Y-70572571D01*
X147108184Y-70641300D01*
X147390512Y-70655217D01*
X147670130Y-70613787D01*
X147936292Y-70518603D01*
X148061514Y-70451671D01*
X148133097Y-70207702D01*
X147320000Y-69394605D01*
X146506903Y-70207702D01*
X145856694Y-70207702D01*
X145934637Y-70129759D01*
X146068692Y-69929131D01*
X146083329Y-69956514D01*
X146327298Y-70028097D01*
X147140395Y-69215000D01*
X147499605Y-69215000D01*
X148312702Y-70028097D01*
X148425717Y-69994937D01*
X148480147Y-70268574D01*
X148588320Y-70529727D01*
X148745363Y-70764759D01*
X148945241Y-70964637D01*
X149180273Y-71121680D01*
X149441426Y-71229853D01*
X149718665Y-71285000D01*
X150001335Y-71285000D01*
X150278574Y-71229853D01*
X150485000Y-71144349D01*
X150691426Y-71229853D01*
X150968665Y-71285000D01*
X151251335Y-71285000D01*
X151528574Y-71229853D01*
X151789727Y-71121680D01*
X152024759Y-70964637D01*
X152224637Y-70764759D01*
X152360000Y-70562173D01*
X152495363Y-70764759D01*
X152695241Y-70964637D01*
X152930273Y-71121680D01*
X153191426Y-71229853D01*
X153468665Y-71285000D01*
X153751335Y-71285000D01*
X154028574Y-71229853D01*
X154235000Y-71144349D01*
X154441426Y-71229853D01*
X154718665Y-71285000D01*
X155001335Y-71285000D01*
X155278574Y-71229853D01*
X155539727Y-71121680D01*
X155774759Y-70964637D01*
X155974637Y-70764759D01*
X156131680Y-70529727D01*
X156239853Y-70268574D01*
X156295000Y-69991335D01*
X156295000Y-69708665D01*
X156239853Y-69431426D01*
X156131680Y-69170273D01*
X155974637Y-68935241D01*
X155774759Y-68735363D01*
X155539727Y-68578320D01*
X155278574Y-68470147D01*
X155001335Y-68415000D01*
X154718665Y-68415000D01*
X154441426Y-68470147D01*
X154235000Y-68555651D01*
X154028574Y-68470147D01*
X153751335Y-68415000D01*
X153468665Y-68415000D01*
X153191426Y-68470147D01*
X152930273Y-68578320D01*
X152695241Y-68735363D01*
X152495363Y-68935241D01*
X152360000Y-69137827D01*
X152224637Y-68935241D01*
X152024759Y-68735363D01*
X151789727Y-68578320D01*
X151528574Y-68470147D01*
X151251335Y-68415000D01*
X150968665Y-68415000D01*
X150691426Y-68470147D01*
X150485000Y-68555651D01*
X150278574Y-68470147D01*
X150001335Y-68415000D01*
X149718665Y-68415000D01*
X149441426Y-68470147D01*
X149180273Y-68578320D01*
X148945241Y-68735363D01*
X148745363Y-68935241D01*
X148732145Y-68955024D01*
X148718787Y-68864870D01*
X148623603Y-68598708D01*
X148556671Y-68473486D01*
X148312702Y-68401903D01*
X147499605Y-69215000D01*
X147140395Y-69215000D01*
X146327298Y-68401903D01*
X146083329Y-68473486D01*
X146069676Y-68502341D01*
X145934637Y-68300241D01*
X145856694Y-68222298D01*
X146506903Y-68222298D01*
X147320000Y-69035395D01*
X148133097Y-68222298D01*
X148061514Y-67978329D01*
X147806004Y-67857429D01*
X147531816Y-67788700D01*
X147249488Y-67774783D01*
X146969870Y-67816213D01*
X146703708Y-67911397D01*
X146578486Y-67978329D01*
X146506903Y-68222298D01*
X145856694Y-68222298D01*
X145734759Y-68100363D01*
X145499727Y-67943320D01*
X145238574Y-67835147D01*
X144961335Y-67780000D01*
X144678665Y-67780000D01*
X144401426Y-67835147D01*
X144140273Y-67943320D01*
X143905241Y-68100363D01*
X143705363Y-68300241D01*
X143548320Y-68535273D01*
X143440147Y-68796426D01*
X143385000Y-69073665D01*
X143385000Y-69356335D01*
X143440147Y-69633574D01*
X143548320Y-69894727D01*
X143705363Y-70129759D01*
X143905241Y-70329637D01*
X143935000Y-70349522D01*
X143935001Y-71025418D01*
X143828192Y-71057818D01*
X143578899Y-71191068D01*
X143360392Y-71370392D01*
X143207228Y-71557023D01*
X143169687Y-71568411D01*
X143015941Y-71650589D01*
X143015939Y-71650590D01*
X143015940Y-71650590D01*
X142914953Y-71733468D01*
X142914951Y-71733470D01*
X142881183Y-71761183D01*
X142853470Y-71794951D01*
X141644951Y-73003471D01*
X141611184Y-73031183D01*
X141583471Y-73064951D01*
X141583468Y-73064954D01*
X141500590Y-73165941D01*
X141418412Y-73319687D01*
X141367805Y-73486510D01*
X141350719Y-73660000D01*
X141355001Y-73703479D01*
X141355000Y-91396531D01*
X141350719Y-91440000D01*
X141355000Y-91483469D01*
X141355000Y-91483476D01*
X141367805Y-91613489D01*
X141418411Y-91780312D01*
X141500589Y-91934058D01*
X141611183Y-92068817D01*
X141644956Y-92096534D01*
X142258421Y-92710000D01*
X141644951Y-93323471D01*
X141611184Y-93351183D01*
X141583471Y-93384951D01*
X141583468Y-93384954D01*
X141500590Y-93485941D01*
X141418412Y-93639687D01*
X141367805Y-93806510D01*
X141350719Y-93980000D01*
X141355001Y-94023479D01*
X141355000Y-107906531D01*
X141350719Y-107950000D01*
X141355000Y-107993469D01*
X141355000Y-107993476D01*
X141358370Y-108027688D01*
X141367805Y-108123490D01*
X141377643Y-108155920D01*
X141418411Y-108290312D01*
X141500589Y-108444058D01*
X141611183Y-108578817D01*
X141644956Y-108606534D01*
X142081983Y-109043561D01*
X142075000Y-109078665D01*
X142075000Y-109361335D01*
X142130147Y-109638574D01*
X142238320Y-109899727D01*
X142395363Y-110134759D01*
X142595241Y-110334637D01*
X142625001Y-110354522D01*
X142625000Y-114007889D01*
X142570150Y-114024528D01*
X142416614Y-114106595D01*
X142282038Y-114217038D01*
X142171595Y-114351614D01*
X142115286Y-114456961D01*
X142099049Y-114435571D01*
X141881193Y-114242504D01*
X141629858Y-114095648D01*
X141366890Y-114003524D01*
X141137000Y-114124845D01*
X140883000Y-114124845D01*
X140653110Y-114003524D01*
X140390142Y-114095648D01*
X140138807Y-114242504D01*
X139920951Y-114435571D01*
X139764462Y-114641722D01*
X139750706Y-114615986D01*
X139565134Y-114389866D01*
X139395000Y-114250241D01*
X139395000Y-110284396D01*
X139544637Y-110134759D01*
X139701680Y-109899727D01*
X139752269Y-109777593D01*
X139804411Y-109714059D01*
X139886589Y-109560313D01*
X139937195Y-109393490D01*
X139954282Y-109220000D01*
X139937195Y-109046510D01*
X139918080Y-108983498D01*
X140295050Y-108606529D01*
X140328817Y-108578817D01*
X140356533Y-108545046D01*
X140439410Y-108444060D01*
X140439411Y-108444059D01*
X140521589Y-108290313D01*
X140572195Y-108123490D01*
X140585000Y-107993477D01*
X140585000Y-107993467D01*
X140589281Y-107950001D01*
X140585000Y-107906535D01*
X140585000Y-101643465D01*
X140589281Y-101599999D01*
X140585000Y-101556533D01*
X140585000Y-101556523D01*
X140572195Y-101426510D01*
X140521589Y-101259687D01*
X140439411Y-101105941D01*
X140374241Y-101026532D01*
X140356532Y-101004953D01*
X140356530Y-101004951D01*
X140328817Y-100971183D01*
X140295049Y-100943470D01*
X139681578Y-100330000D01*
X140295050Y-99716529D01*
X140328817Y-99688817D01*
X140370232Y-99638354D01*
X140439410Y-99554060D01*
X140439411Y-99554059D01*
X140521589Y-99400313D01*
X140572195Y-99233490D01*
X140585000Y-99103477D01*
X140585000Y-99103467D01*
X140589281Y-99060001D01*
X140585000Y-99016535D01*
X140585000Y-85768477D01*
X140589282Y-85725000D01*
X140572195Y-85551510D01*
X140521589Y-85384687D01*
X140439411Y-85230941D01*
X140328817Y-85096183D01*
X140194059Y-84985589D01*
X140147032Y-84960453D01*
X138548017Y-83361439D01*
X138555000Y-83326335D01*
X138555000Y-83043665D01*
X138499853Y-82766426D01*
X138391680Y-82505273D01*
X138234637Y-82270241D01*
X138034759Y-82070363D01*
X138005000Y-82050479D01*
X138005000Y-81374581D01*
X138111808Y-81342182D01*
X138361101Y-81208932D01*
X138579608Y-81029608D01*
X138758932Y-80811101D01*
X138892182Y-80561808D01*
X138974236Y-80291309D01*
X139001943Y-80010000D01*
X138974236Y-79728691D01*
X138892182Y-79458192D01*
X138758932Y-79208899D01*
X138579608Y-78990392D01*
X138361101Y-78811068D01*
X138233259Y-78742735D01*
X138462839Y-78592601D01*
X138664500Y-78394895D01*
X138823715Y-78161646D01*
X138934367Y-77901818D01*
X138951904Y-77819039D01*
X138829915Y-77597000D01*
X137287000Y-77597000D01*
X137287000Y-77617000D01*
X137033000Y-77617000D01*
X137033000Y-77597000D01*
X135490085Y-77597000D01*
X135385082Y-77788122D01*
X135364853Y-77686426D01*
X135256680Y-77425273D01*
X135099637Y-77190241D01*
X134899759Y-76990363D01*
X134664727Y-76833320D01*
X134403574Y-76725147D01*
X134126335Y-76670000D01*
X133843665Y-76670000D01*
X133566426Y-76725147D01*
X133305273Y-76833320D01*
X133070241Y-76990363D01*
X132870363Y-77190241D01*
X132713320Y-77425273D01*
X132605147Y-77686426D01*
X132550000Y-77963665D01*
X132550000Y-78246335D01*
X132605147Y-78523574D01*
X132713320Y-78784727D01*
X132870363Y-79019759D01*
X133070241Y-79219637D01*
X133305273Y-79376680D01*
X133566426Y-79484853D01*
X133843665Y-79540000D01*
X134126335Y-79540000D01*
X134403574Y-79484853D01*
X134664727Y-79376680D01*
X134899759Y-79219637D01*
X135099637Y-79019759D01*
X135256680Y-78784727D01*
X135364853Y-78523574D01*
X135420000Y-78246335D01*
X135420000Y-77982517D01*
X135496285Y-78161646D01*
X135655500Y-78394895D01*
X135857161Y-78592601D01*
X136086741Y-78742735D01*
X135958899Y-78811068D01*
X135740392Y-78990392D01*
X135561068Y-79208899D01*
X135427818Y-79458192D01*
X135345764Y-79728691D01*
X135318057Y-80010000D01*
X135345764Y-80291309D01*
X135427818Y-80561808D01*
X135561068Y-80811101D01*
X135740392Y-81029608D01*
X135958899Y-81208932D01*
X136208192Y-81342182D01*
X136235001Y-81350314D01*
X136235000Y-82050478D01*
X136205241Y-82070363D01*
X136005363Y-82270241D01*
X135871308Y-82470869D01*
X135856671Y-82443486D01*
X135612702Y-82371903D01*
X134799605Y-83185000D01*
X135612702Y-83998097D01*
X135856671Y-83926514D01*
X135870324Y-83897659D01*
X136005363Y-84099759D01*
X136205241Y-84299637D01*
X136440273Y-84456680D01*
X136701426Y-84564853D01*
X136978665Y-84620000D01*
X137261335Y-84620000D01*
X137296439Y-84613017D01*
X138815001Y-86131580D01*
X138815001Y-91463464D01*
X138811185Y-91458815D01*
X138714494Y-91379463D01*
X138604180Y-91320498D01*
X138484482Y-91284188D01*
X138360000Y-91271928D01*
X135960000Y-91271928D01*
X135835518Y-91284188D01*
X135715820Y-91320498D01*
X135605506Y-91379463D01*
X135508815Y-91458815D01*
X135429463Y-91555506D01*
X135370498Y-91665820D01*
X135368217Y-91673339D01*
X135364853Y-91656426D01*
X135256680Y-91395273D01*
X135099637Y-91160241D01*
X134899759Y-90960363D01*
X134664727Y-90803320D01*
X134403574Y-90695147D01*
X134126335Y-90640000D01*
X133843665Y-90640000D01*
X133566426Y-90695147D01*
X133305273Y-90803320D01*
X133070241Y-90960363D01*
X132870363Y-91160241D01*
X132713320Y-91395273D01*
X132605147Y-91656426D01*
X132550000Y-91933665D01*
X132550000Y-92216335D01*
X132605147Y-92493574D01*
X132713320Y-92754727D01*
X132870363Y-92989759D01*
X133070241Y-93189637D01*
X133305273Y-93346680D01*
X133566426Y-93454853D01*
X133843665Y-93510000D01*
X134126335Y-93510000D01*
X134403574Y-93454853D01*
X134664727Y-93346680D01*
X134899759Y-93189637D01*
X135099637Y-92989759D01*
X135256680Y-92754727D01*
X135321928Y-92597204D01*
X135321928Y-93510000D01*
X135334188Y-93634482D01*
X135370498Y-93754180D01*
X135429463Y-93864494D01*
X135508815Y-93961185D01*
X135605506Y-94040537D01*
X135715820Y-94099502D01*
X135835518Y-94135812D01*
X135853482Y-94137581D01*
X135740392Y-94230392D01*
X135561068Y-94448899D01*
X135427818Y-94698192D01*
X135373783Y-94876322D01*
X135364853Y-94831426D01*
X135256680Y-94570273D01*
X135099637Y-94335241D01*
X134899759Y-94135363D01*
X134664727Y-93978320D01*
X134403574Y-93870147D01*
X134126335Y-93815000D01*
X133843665Y-93815000D01*
X133566426Y-93870147D01*
X133305273Y-93978320D01*
X133070241Y-94135363D01*
X132870363Y-94335241D01*
X132713320Y-94570273D01*
X132605147Y-94831426D01*
X132550000Y-95108665D01*
X132550000Y-95391335D01*
X132605147Y-95668574D01*
X132713320Y-95929727D01*
X132870363Y-96164759D01*
X133070241Y-96364637D01*
X133305273Y-96521680D01*
X133566426Y-96629853D01*
X133843665Y-96685000D01*
X134126335Y-96685000D01*
X134403574Y-96629853D01*
X134664727Y-96521680D01*
X134899759Y-96364637D01*
X135099637Y-96164759D01*
X135256680Y-95929727D01*
X135364853Y-95668574D01*
X135373783Y-95623678D01*
X135427818Y-95801808D01*
X135561068Y-96051101D01*
X135740392Y-96269608D01*
X135958899Y-96448932D01*
X136086741Y-96517265D01*
X135857161Y-96667399D01*
X135655500Y-96865105D01*
X135496285Y-97098354D01*
X135385633Y-97358182D01*
X135368096Y-97440961D01*
X135490085Y-97663000D01*
X137033000Y-97663000D01*
X137033000Y-97643000D01*
X137287000Y-97643000D01*
X137287000Y-97663000D01*
X137307000Y-97663000D01*
X137307000Y-97917000D01*
X137287000Y-97917000D01*
X137287000Y-97937000D01*
X137033000Y-97937000D01*
X137033000Y-97917000D01*
X135490085Y-97917000D01*
X135385082Y-98108122D01*
X135364853Y-98006426D01*
X135256680Y-97745273D01*
X135099637Y-97510241D01*
X134899759Y-97310363D01*
X134664727Y-97153320D01*
X134403574Y-97045147D01*
X134126335Y-96990000D01*
X133843665Y-96990000D01*
X133566426Y-97045147D01*
X133305273Y-97153320D01*
X133070241Y-97310363D01*
X132870363Y-97510241D01*
X132713320Y-97745273D01*
X132605147Y-98006426D01*
X132550000Y-98283665D01*
X132550000Y-98566335D01*
X132605147Y-98843574D01*
X132713320Y-99104727D01*
X132870363Y-99339759D01*
X133070241Y-99539637D01*
X133305273Y-99696680D01*
X133566426Y-99804853D01*
X133843665Y-99860000D01*
X134126335Y-99860000D01*
X134403574Y-99804853D01*
X134664727Y-99696680D01*
X134899759Y-99539637D01*
X135099637Y-99339759D01*
X135256680Y-99104727D01*
X135364853Y-98843574D01*
X135420000Y-98566335D01*
X135420000Y-98302517D01*
X135496285Y-98481646D01*
X135655500Y-98714895D01*
X135857161Y-98912601D01*
X136086741Y-99062735D01*
X135958899Y-99131068D01*
X135740392Y-99310392D01*
X135561068Y-99528899D01*
X135427818Y-99778192D01*
X135345764Y-100048691D01*
X135318057Y-100330000D01*
X135345764Y-100611309D01*
X135427818Y-100881808D01*
X135561068Y-101131101D01*
X135740392Y-101349608D01*
X135958899Y-101528932D01*
X136208192Y-101662182D01*
X136275000Y-101682448D01*
X136275001Y-102343751D01*
X136205241Y-102390363D01*
X136005363Y-102590241D01*
X135871308Y-102790869D01*
X135856671Y-102763486D01*
X135612702Y-102691903D01*
X134799605Y-103505000D01*
X135612702Y-104318097D01*
X135856671Y-104246514D01*
X135870324Y-104217659D01*
X136005363Y-104419759D01*
X136205241Y-104619637D01*
X136440273Y-104776680D01*
X136701426Y-104884853D01*
X136978665Y-104940000D01*
X137261335Y-104940000D01*
X137538574Y-104884853D01*
X137799727Y-104776680D01*
X138034759Y-104619637D01*
X138234637Y-104419759D01*
X138391680Y-104184727D01*
X138499853Y-103923574D01*
X138555000Y-103646335D01*
X138555000Y-103363665D01*
X138499853Y-103086426D01*
X138391680Y-102825273D01*
X138234637Y-102590241D01*
X138045000Y-102400604D01*
X138045000Y-101682448D01*
X138111808Y-101662182D01*
X138361101Y-101528932D01*
X138370028Y-101521606D01*
X138815001Y-101966580D01*
X138815000Y-107583421D01*
X138606439Y-107791983D01*
X138571335Y-107785000D01*
X138288665Y-107785000D01*
X138011426Y-107840147D01*
X137750273Y-107948320D01*
X137515241Y-108105363D01*
X137315363Y-108305241D01*
X137158320Y-108540273D01*
X137050147Y-108801426D01*
X136995000Y-109078665D01*
X136995000Y-109361335D01*
X137050147Y-109638574D01*
X137158320Y-109899727D01*
X137315363Y-110134759D01*
X137515241Y-110334637D01*
X137625001Y-110407976D01*
X137625000Y-114250241D01*
X137454866Y-114389866D01*
X137269294Y-114615986D01*
X137232405Y-114685000D01*
X133174521Y-114685000D01*
X133154637Y-114655241D01*
X132954759Y-114455363D01*
X132719727Y-114298320D01*
X132458574Y-114190147D01*
X132181335Y-114135000D01*
X131898665Y-114135000D01*
X131621426Y-114190147D01*
X131360273Y-114298320D01*
X131125241Y-114455363D01*
X130958661Y-114621943D01*
X130929502Y-114525820D01*
X130870537Y-114415506D01*
X130791185Y-114318815D01*
X130694494Y-114239463D01*
X130584180Y-114180498D01*
X130464482Y-114144188D01*
X130340000Y-114131928D01*
X129825750Y-114135000D01*
X129667000Y-114293750D01*
X129413000Y-114293750D01*
X129254250Y-114135000D01*
X128740000Y-114131928D01*
X128615518Y-114144188D01*
X128495820Y-114180498D01*
X128385506Y-114239463D01*
X128288815Y-114318815D01*
X128209463Y-114415506D01*
X128150498Y-114525820D01*
X128114188Y-114645518D01*
X128101928Y-114770000D01*
X118237000Y-114770000D01*
X118237000Y-109286553D01*
X124189009Y-109286553D01*
X124231603Y-109585907D01*
X124331778Y-109871199D01*
X124411739Y-110020792D01*
X124665920Y-110104475D01*
X125550395Y-109220000D01*
X124665920Y-108335525D01*
X124411739Y-108419208D01*
X124280842Y-108691775D01*
X124205635Y-108984642D01*
X124189009Y-109286553D01*
X118237000Y-109286553D01*
X118237000Y-108155920D01*
X124845525Y-108155920D01*
X125730000Y-109040395D01*
X125744143Y-109026253D01*
X125923748Y-109205858D01*
X125909605Y-109220000D01*
X125923748Y-109234143D01*
X125744143Y-109413748D01*
X125730000Y-109399605D01*
X124845525Y-110284080D01*
X124929208Y-110538261D01*
X125201775Y-110669158D01*
X125494642Y-110744365D01*
X125796553Y-110760991D01*
X126095907Y-110718397D01*
X126381199Y-110618222D01*
X126530792Y-110538261D01*
X126614474Y-110284082D01*
X126730422Y-110400030D01*
X126777187Y-110353265D01*
X126780498Y-110364180D01*
X126839463Y-110474494D01*
X126918815Y-110571185D01*
X127015506Y-110650537D01*
X127125820Y-110709502D01*
X127245518Y-110745812D01*
X127370000Y-110758072D01*
X129170000Y-110758072D01*
X129294482Y-110745812D01*
X129414180Y-110709502D01*
X129524494Y-110650537D01*
X129621185Y-110571185D01*
X129700537Y-110474494D01*
X129759502Y-110364180D01*
X129795812Y-110244482D01*
X129796643Y-110236039D01*
X129895241Y-110334637D01*
X130130273Y-110491680D01*
X130391426Y-110599853D01*
X130668665Y-110655000D01*
X130951335Y-110655000D01*
X131228574Y-110599853D01*
X131489727Y-110491680D01*
X131724759Y-110334637D01*
X131924637Y-110134759D01*
X132081680Y-109899727D01*
X132189853Y-109638574D01*
X132245000Y-109361335D01*
X132245000Y-109078665D01*
X132189853Y-108801426D01*
X132081680Y-108540273D01*
X131924637Y-108305241D01*
X131724759Y-108105363D01*
X131489727Y-107948320D01*
X131228574Y-107840147D01*
X130951335Y-107785000D01*
X130668665Y-107785000D01*
X130391426Y-107840147D01*
X130130273Y-107948320D01*
X129895241Y-108105363D01*
X129796643Y-108203961D01*
X129795812Y-108195518D01*
X129759502Y-108075820D01*
X129700537Y-107965506D01*
X129621185Y-107868815D01*
X129524494Y-107789463D01*
X129414180Y-107730498D01*
X129294482Y-107694188D01*
X129170000Y-107681928D01*
X127370000Y-107681928D01*
X127245518Y-107694188D01*
X127125820Y-107730498D01*
X127015506Y-107789463D01*
X126918815Y-107868815D01*
X126839463Y-107965506D01*
X126780498Y-108075820D01*
X126777187Y-108086735D01*
X126730422Y-108039970D01*
X126614474Y-108155918D01*
X126530792Y-107901739D01*
X126258225Y-107770842D01*
X125965358Y-107695635D01*
X125663447Y-107679009D01*
X125364093Y-107721603D01*
X125078801Y-107821778D01*
X124929208Y-107901739D01*
X124845525Y-108155920D01*
X118237000Y-108155920D01*
X118237000Y-104497702D01*
X133806903Y-104497702D01*
X133878486Y-104741671D01*
X134133996Y-104862571D01*
X134408184Y-104931300D01*
X134690512Y-104945217D01*
X134970130Y-104903787D01*
X135236292Y-104808603D01*
X135361514Y-104741671D01*
X135433097Y-104497702D01*
X134620000Y-103684605D01*
X133806903Y-104497702D01*
X118237000Y-104497702D01*
X118237000Y-102305512D01*
X125639783Y-102305512D01*
X125681213Y-102585130D01*
X125776397Y-102851292D01*
X125843329Y-102976514D01*
X126087298Y-103048097D01*
X126892889Y-102242506D01*
X126889783Y-102305512D01*
X126928408Y-102566197D01*
X126266903Y-103227702D01*
X126338486Y-103471671D01*
X126593996Y-103592571D01*
X126868184Y-103661300D01*
X127150512Y-103675217D01*
X127430130Y-103633787D01*
X127696292Y-103538603D01*
X127712092Y-103530158D01*
X127843996Y-103592571D01*
X128118184Y-103661300D01*
X128400512Y-103675217D01*
X128680130Y-103633787D01*
X128946292Y-103538603D01*
X129071514Y-103471671D01*
X129143097Y-103227702D01*
X128477421Y-102562026D01*
X128506300Y-102446816D01*
X128516406Y-102241801D01*
X129322702Y-103048097D01*
X129566671Y-102976514D01*
X129580324Y-102947659D01*
X129715363Y-103149759D01*
X129915241Y-103349637D01*
X130150273Y-103506680D01*
X130411426Y-103614853D01*
X130688665Y-103670000D01*
X130971335Y-103670000D01*
X131248574Y-103614853D01*
X131455000Y-103529349D01*
X131661426Y-103614853D01*
X131938665Y-103670000D01*
X132221335Y-103670000D01*
X132498574Y-103614853D01*
X132759727Y-103506680D01*
X132994759Y-103349637D01*
X133194637Y-103149759D01*
X133250673Y-103065895D01*
X133193700Y-103293184D01*
X133179783Y-103575512D01*
X133221213Y-103855130D01*
X133316397Y-104121292D01*
X133383329Y-104246514D01*
X133627298Y-104318097D01*
X134440395Y-103505000D01*
X133627298Y-102691903D01*
X133418614Y-102753133D01*
X133459853Y-102653574D01*
X133487954Y-102512298D01*
X133806903Y-102512298D01*
X134620000Y-103325395D01*
X135433097Y-102512298D01*
X135361514Y-102268329D01*
X135106004Y-102147429D01*
X134831816Y-102078700D01*
X134549488Y-102064783D01*
X134269870Y-102106213D01*
X134003708Y-102201397D01*
X133878486Y-102268329D01*
X133806903Y-102512298D01*
X133487954Y-102512298D01*
X133515000Y-102376335D01*
X133515000Y-102093665D01*
X133459853Y-101816426D01*
X133351680Y-101555273D01*
X133194637Y-101320241D01*
X132994759Y-101120363D01*
X132759727Y-100963320D01*
X132498574Y-100855147D01*
X132221335Y-100800000D01*
X131938665Y-100800000D01*
X131661426Y-100855147D01*
X131455000Y-100940651D01*
X131248574Y-100855147D01*
X130971335Y-100800000D01*
X130688665Y-100800000D01*
X130411426Y-100855147D01*
X130150273Y-100963320D01*
X129915241Y-101120363D01*
X129715363Y-101320241D01*
X129581308Y-101520869D01*
X129566671Y-101493486D01*
X129322702Y-101421903D01*
X128517111Y-102227494D01*
X128520217Y-102164488D01*
X128481592Y-101903803D01*
X129143097Y-101242298D01*
X129071514Y-100998329D01*
X128816004Y-100877429D01*
X128541816Y-100808700D01*
X128259488Y-100794783D01*
X127979870Y-100836213D01*
X127713708Y-100931397D01*
X127697908Y-100939842D01*
X127566004Y-100877429D01*
X127291816Y-100808700D01*
X127009488Y-100794783D01*
X126729870Y-100836213D01*
X126463708Y-100931397D01*
X126338486Y-100998329D01*
X126266903Y-101242298D01*
X126932579Y-101907974D01*
X126903700Y-102023184D01*
X126893594Y-102228199D01*
X126087298Y-101421903D01*
X125843329Y-101493486D01*
X125722429Y-101748996D01*
X125653700Y-102023184D01*
X125639783Y-102305512D01*
X118237000Y-102305512D01*
X118237000Y-97825000D01*
X119011928Y-97825000D01*
X119011928Y-99025000D01*
X119028992Y-99198254D01*
X119079528Y-99364850D01*
X119161595Y-99518386D01*
X119272038Y-99652962D01*
X119406614Y-99763405D01*
X119560150Y-99845472D01*
X119726746Y-99896008D01*
X119900000Y-99913072D01*
X121400000Y-99913072D01*
X121573254Y-99896008D01*
X121739850Y-99845472D01*
X121893386Y-99763405D01*
X122027962Y-99652962D01*
X122138405Y-99518386D01*
X122220472Y-99364850D01*
X122271008Y-99198254D01*
X122288072Y-99025000D01*
X122288072Y-98283665D01*
X124930000Y-98283665D01*
X124930000Y-98566335D01*
X124985147Y-98843574D01*
X125093320Y-99104727D01*
X125250363Y-99339759D01*
X125450241Y-99539637D01*
X125685273Y-99696680D01*
X125946426Y-99804853D01*
X126223665Y-99860000D01*
X126506335Y-99860000D01*
X126783574Y-99804853D01*
X127044727Y-99696680D01*
X127279759Y-99539637D01*
X127479637Y-99339759D01*
X127636680Y-99104727D01*
X127744853Y-98843574D01*
X127800000Y-98566335D01*
X127800000Y-98283665D01*
X127744853Y-98006426D01*
X127636680Y-97745273D01*
X127479637Y-97510241D01*
X127279759Y-97310363D01*
X127044727Y-97153320D01*
X126783574Y-97045147D01*
X126506335Y-96990000D01*
X126223665Y-96990000D01*
X125946426Y-97045147D01*
X125685273Y-97153320D01*
X125450241Y-97310363D01*
X125250363Y-97510241D01*
X125093320Y-97745273D01*
X124985147Y-98006426D01*
X124930000Y-98283665D01*
X122288072Y-98283665D01*
X122288072Y-97825000D01*
X122271008Y-97651746D01*
X122220472Y-97485150D01*
X122138405Y-97331614D01*
X122027962Y-97197038D01*
X121893386Y-97086595D01*
X121791407Y-97032086D01*
X121791795Y-97031802D01*
X121988664Y-96817046D01*
X122139854Y-96568009D01*
X122239554Y-96294261D01*
X122241476Y-96281890D01*
X122120155Y-96052000D01*
X120777000Y-96052000D01*
X120777000Y-96072000D01*
X120523000Y-96072000D01*
X120523000Y-96052000D01*
X119179845Y-96052000D01*
X119058524Y-96281890D01*
X119060446Y-96294261D01*
X119160146Y-96568009D01*
X119311336Y-96817046D01*
X119508205Y-97031802D01*
X119508593Y-97032086D01*
X119406614Y-97086595D01*
X119272038Y-97197038D01*
X119161595Y-97331614D01*
X119079528Y-97485150D01*
X119028992Y-97651746D01*
X119011928Y-97825000D01*
X118237000Y-97825000D01*
X118237000Y-95568110D01*
X119058524Y-95568110D01*
X119179845Y-95798000D01*
X120523000Y-95798000D01*
X120523000Y-94597768D01*
X120777000Y-94597768D01*
X120777000Y-95798000D01*
X122120155Y-95798000D01*
X122241476Y-95568110D01*
X122239554Y-95555739D01*
X122139854Y-95281991D01*
X122034629Y-95108665D01*
X124930000Y-95108665D01*
X124930000Y-95391335D01*
X124985147Y-95668574D01*
X125093320Y-95929727D01*
X125250363Y-96164759D01*
X125450241Y-96364637D01*
X125685273Y-96521680D01*
X125946426Y-96629853D01*
X126223665Y-96685000D01*
X126506335Y-96685000D01*
X126783574Y-96629853D01*
X127044727Y-96521680D01*
X127279759Y-96364637D01*
X127479637Y-96164759D01*
X127636680Y-95929727D01*
X127744853Y-95668574D01*
X127800000Y-95391335D01*
X127800000Y-95108665D01*
X127744853Y-94831426D01*
X127636680Y-94570273D01*
X127479637Y-94335241D01*
X127279759Y-94135363D01*
X127044727Y-93978320D01*
X126783574Y-93870147D01*
X126506335Y-93815000D01*
X126223665Y-93815000D01*
X125946426Y-93870147D01*
X125685273Y-93978320D01*
X125450241Y-94135363D01*
X125250363Y-94335241D01*
X125093320Y-94570273D01*
X124985147Y-94831426D01*
X124930000Y-95108665D01*
X122034629Y-95108665D01*
X121988664Y-95032954D01*
X121791795Y-94818198D01*
X121556812Y-94645975D01*
X121292745Y-94522904D01*
X121009742Y-94453715D01*
X120777000Y-94597768D01*
X120523000Y-94597768D01*
X120290258Y-94453715D01*
X120007255Y-94522904D01*
X119743188Y-94645975D01*
X119508205Y-94818198D01*
X119311336Y-95032954D01*
X119160146Y-95281991D01*
X119060446Y-95555739D01*
X119058524Y-95568110D01*
X118237000Y-95568110D01*
X118237000Y-91933665D01*
X124930000Y-91933665D01*
X124930000Y-92216335D01*
X124985147Y-92493574D01*
X125093320Y-92754727D01*
X125250363Y-92989759D01*
X125450241Y-93189637D01*
X125685273Y-93346680D01*
X125946426Y-93454853D01*
X126223665Y-93510000D01*
X126506335Y-93510000D01*
X126783574Y-93454853D01*
X127044727Y-93346680D01*
X127279759Y-93189637D01*
X127479637Y-92989759D01*
X127636680Y-92754727D01*
X127744853Y-92493574D01*
X127800000Y-92216335D01*
X127800000Y-91933665D01*
X127744853Y-91656426D01*
X127636680Y-91395273D01*
X127479637Y-91160241D01*
X127279759Y-90960363D01*
X127044727Y-90803320D01*
X126783574Y-90695147D01*
X126506335Y-90640000D01*
X126223665Y-90640000D01*
X125946426Y-90695147D01*
X125685273Y-90803320D01*
X125450241Y-90960363D01*
X125250363Y-91160241D01*
X125093320Y-91395273D01*
X124985147Y-91656426D01*
X124930000Y-91933665D01*
X118237000Y-91933665D01*
X118237000Y-88123665D01*
X127550000Y-88123665D01*
X127550000Y-88406335D01*
X127605147Y-88683574D01*
X127713320Y-88944727D01*
X127870363Y-89179759D01*
X128070241Y-89379637D01*
X128305273Y-89536680D01*
X128566426Y-89644853D01*
X128843665Y-89700000D01*
X129126335Y-89700000D01*
X129403574Y-89644853D01*
X129610000Y-89559349D01*
X129816426Y-89644853D01*
X130093665Y-89700000D01*
X130376335Y-89700000D01*
X130653574Y-89644853D01*
X130914727Y-89536680D01*
X131149759Y-89379637D01*
X131349637Y-89179759D01*
X131485000Y-88977173D01*
X131620363Y-89179759D01*
X131820241Y-89379637D01*
X132055273Y-89536680D01*
X132316426Y-89644853D01*
X132593665Y-89700000D01*
X132876335Y-89700000D01*
X133153574Y-89644853D01*
X133360000Y-89559349D01*
X133566426Y-89644853D01*
X133843665Y-89700000D01*
X134126335Y-89700000D01*
X134403574Y-89644853D01*
X134664727Y-89536680D01*
X134899759Y-89379637D01*
X135099637Y-89179759D01*
X135256680Y-88944727D01*
X135364853Y-88683574D01*
X135420000Y-88406335D01*
X135420000Y-88123665D01*
X135364853Y-87846426D01*
X135256680Y-87585273D01*
X135099637Y-87350241D01*
X134899759Y-87150363D01*
X134664727Y-86993320D01*
X134403574Y-86885147D01*
X134126335Y-86830000D01*
X133843665Y-86830000D01*
X133566426Y-86885147D01*
X133360000Y-86970651D01*
X133153574Y-86885147D01*
X132876335Y-86830000D01*
X132593665Y-86830000D01*
X132316426Y-86885147D01*
X132055273Y-86993320D01*
X131820241Y-87150363D01*
X131620363Y-87350241D01*
X131485000Y-87552827D01*
X131349637Y-87350241D01*
X131149759Y-87150363D01*
X130914727Y-86993320D01*
X130653574Y-86885147D01*
X130376335Y-86830000D01*
X130093665Y-86830000D01*
X129816426Y-86885147D01*
X129610000Y-86970651D01*
X129403574Y-86885147D01*
X129126335Y-86830000D01*
X128843665Y-86830000D01*
X128566426Y-86885147D01*
X128305273Y-86993320D01*
X128070241Y-87150363D01*
X127870363Y-87350241D01*
X127713320Y-87585273D01*
X127605147Y-87846426D01*
X127550000Y-88123665D01*
X118237000Y-88123665D01*
X118237000Y-84177702D01*
X133806903Y-84177702D01*
X133878486Y-84421671D01*
X134133996Y-84542571D01*
X134408184Y-84611300D01*
X134690512Y-84625217D01*
X134970130Y-84583787D01*
X135236292Y-84488603D01*
X135361514Y-84421671D01*
X135433097Y-84177702D01*
X134620000Y-83364605D01*
X133806903Y-84177702D01*
X118237000Y-84177702D01*
X118237000Y-81985512D01*
X125639783Y-81985512D01*
X125681213Y-82265130D01*
X125776397Y-82531292D01*
X125843329Y-82656514D01*
X126087298Y-82728097D01*
X126892889Y-81922506D01*
X126889783Y-81985512D01*
X126928408Y-82246197D01*
X126266903Y-82907702D01*
X126338486Y-83151671D01*
X126593996Y-83272571D01*
X126868184Y-83341300D01*
X127150512Y-83355217D01*
X127430130Y-83313787D01*
X127696292Y-83218603D01*
X127712092Y-83210158D01*
X127843996Y-83272571D01*
X128118184Y-83341300D01*
X128400512Y-83355217D01*
X128680130Y-83313787D01*
X128946292Y-83218603D01*
X129071514Y-83151671D01*
X129143097Y-82907702D01*
X128477421Y-82242026D01*
X128506300Y-82126816D01*
X128516406Y-81921801D01*
X129322702Y-82728097D01*
X129566671Y-82656514D01*
X129580324Y-82627659D01*
X129715363Y-82829759D01*
X129915241Y-83029637D01*
X130150273Y-83186680D01*
X130411426Y-83294853D01*
X130688665Y-83350000D01*
X130971335Y-83350000D01*
X131248574Y-83294853D01*
X131455000Y-83209349D01*
X131661426Y-83294853D01*
X131938665Y-83350000D01*
X132221335Y-83350000D01*
X132498574Y-83294853D01*
X132759727Y-83186680D01*
X132994759Y-83029637D01*
X133194637Y-82829759D01*
X133250673Y-82745895D01*
X133193700Y-82973184D01*
X133179783Y-83255512D01*
X133221213Y-83535130D01*
X133316397Y-83801292D01*
X133383329Y-83926514D01*
X133627298Y-83998097D01*
X134440395Y-83185000D01*
X133627298Y-82371903D01*
X133418614Y-82433133D01*
X133459853Y-82333574D01*
X133487954Y-82192298D01*
X133806903Y-82192298D01*
X134620000Y-83005395D01*
X135433097Y-82192298D01*
X135361514Y-81948329D01*
X135106004Y-81827429D01*
X134831816Y-81758700D01*
X134549488Y-81744783D01*
X134269870Y-81786213D01*
X134003708Y-81881397D01*
X133878486Y-81948329D01*
X133806903Y-82192298D01*
X133487954Y-82192298D01*
X133515000Y-82056335D01*
X133515000Y-81773665D01*
X133459853Y-81496426D01*
X133351680Y-81235273D01*
X133194637Y-81000241D01*
X132994759Y-80800363D01*
X132759727Y-80643320D01*
X132498574Y-80535147D01*
X132221335Y-80480000D01*
X131938665Y-80480000D01*
X131661426Y-80535147D01*
X131455000Y-80620651D01*
X131248574Y-80535147D01*
X130971335Y-80480000D01*
X130688665Y-80480000D01*
X130411426Y-80535147D01*
X130150273Y-80643320D01*
X129915241Y-80800363D01*
X129715363Y-81000241D01*
X129581308Y-81200869D01*
X129566671Y-81173486D01*
X129322702Y-81101903D01*
X128517111Y-81907494D01*
X128520217Y-81844488D01*
X128481592Y-81583803D01*
X129143097Y-80922298D01*
X129071514Y-80678329D01*
X128816004Y-80557429D01*
X128541816Y-80488700D01*
X128259488Y-80474783D01*
X127979870Y-80516213D01*
X127713708Y-80611397D01*
X127697908Y-80619842D01*
X127566004Y-80557429D01*
X127291816Y-80488700D01*
X127009488Y-80474783D01*
X126729870Y-80516213D01*
X126463708Y-80611397D01*
X126338486Y-80678329D01*
X126266903Y-80922298D01*
X126932579Y-81587974D01*
X126903700Y-81703184D01*
X126893594Y-81908199D01*
X126087298Y-81101903D01*
X125843329Y-81173486D01*
X125722429Y-81428996D01*
X125653700Y-81703184D01*
X125639783Y-81985512D01*
X118237000Y-81985512D01*
X118237000Y-77963665D01*
X124930000Y-77963665D01*
X124930000Y-78246335D01*
X124985147Y-78523574D01*
X125093320Y-78784727D01*
X125250363Y-79019759D01*
X125450241Y-79219637D01*
X125685273Y-79376680D01*
X125946426Y-79484853D01*
X126223665Y-79540000D01*
X126506335Y-79540000D01*
X126783574Y-79484853D01*
X127044727Y-79376680D01*
X127279759Y-79219637D01*
X127479637Y-79019759D01*
X127636680Y-78784727D01*
X127744853Y-78523574D01*
X127800000Y-78246335D01*
X127800000Y-77963665D01*
X127744853Y-77686426D01*
X127636680Y-77425273D01*
X127479637Y-77190241D01*
X127279759Y-76990363D01*
X127044727Y-76833320D01*
X126783574Y-76725147D01*
X126506335Y-76670000D01*
X126223665Y-76670000D01*
X125946426Y-76725147D01*
X125685273Y-76833320D01*
X125450241Y-76990363D01*
X125250363Y-77190241D01*
X125093320Y-77425273D01*
X124985147Y-77686426D01*
X124930000Y-77963665D01*
X118237000Y-77963665D01*
X118237000Y-74788665D01*
X124930000Y-74788665D01*
X124930000Y-75071335D01*
X124985147Y-75348574D01*
X125093320Y-75609727D01*
X125250363Y-75844759D01*
X125450241Y-76044637D01*
X125685273Y-76201680D01*
X125946426Y-76309853D01*
X126223665Y-76365000D01*
X126506335Y-76365000D01*
X126783574Y-76309853D01*
X127044727Y-76201680D01*
X127279759Y-76044637D01*
X127479637Y-75844759D01*
X127636680Y-75609727D01*
X127744853Y-75348574D01*
X127800000Y-75071335D01*
X127800000Y-74788665D01*
X127744853Y-74511426D01*
X127636680Y-74250273D01*
X127479637Y-74015241D01*
X127279759Y-73815363D01*
X127044727Y-73658320D01*
X126783574Y-73550147D01*
X126506335Y-73495000D01*
X126223665Y-73495000D01*
X125946426Y-73550147D01*
X125685273Y-73658320D01*
X125450241Y-73815363D01*
X125250363Y-74015241D01*
X125093320Y-74250273D01*
X124985147Y-74511426D01*
X124930000Y-74788665D01*
X118237000Y-74788665D01*
X118237000Y-71613665D01*
X124930000Y-71613665D01*
X124930000Y-71896335D01*
X124985147Y-72173574D01*
X125093320Y-72434727D01*
X125250363Y-72669759D01*
X125450241Y-72869637D01*
X125685273Y-73026680D01*
X125946426Y-73134853D01*
X126223665Y-73190000D01*
X126506335Y-73190000D01*
X126783574Y-73134853D01*
X127044727Y-73026680D01*
X127279759Y-72869637D01*
X127479637Y-72669759D01*
X127636680Y-72434727D01*
X127744853Y-72173574D01*
X127800000Y-71896335D01*
X127800000Y-71613665D01*
X132550000Y-71613665D01*
X132550000Y-71896335D01*
X132605147Y-72173574D01*
X132713320Y-72434727D01*
X132870363Y-72669759D01*
X133070241Y-72869637D01*
X133305273Y-73026680D01*
X133566426Y-73134853D01*
X133843665Y-73190000D01*
X134126335Y-73190000D01*
X134403574Y-73134853D01*
X134664727Y-73026680D01*
X134899759Y-72869637D01*
X135099637Y-72669759D01*
X135256680Y-72434727D01*
X135321928Y-72277204D01*
X135321928Y-73190000D01*
X135334188Y-73314482D01*
X135370498Y-73434180D01*
X135429463Y-73544494D01*
X135508815Y-73641185D01*
X135605506Y-73720537D01*
X135715820Y-73779502D01*
X135835518Y-73815812D01*
X135853482Y-73817581D01*
X135740392Y-73910392D01*
X135561068Y-74128899D01*
X135427818Y-74378192D01*
X135373783Y-74556322D01*
X135364853Y-74511426D01*
X135256680Y-74250273D01*
X135099637Y-74015241D01*
X134899759Y-73815363D01*
X134664727Y-73658320D01*
X134403574Y-73550147D01*
X134126335Y-73495000D01*
X133843665Y-73495000D01*
X133566426Y-73550147D01*
X133305273Y-73658320D01*
X133070241Y-73815363D01*
X132870363Y-74015241D01*
X132713320Y-74250273D01*
X132605147Y-74511426D01*
X132550000Y-74788665D01*
X132550000Y-75071335D01*
X132605147Y-75348574D01*
X132713320Y-75609727D01*
X132870363Y-75844759D01*
X133070241Y-76044637D01*
X133305273Y-76201680D01*
X133566426Y-76309853D01*
X133843665Y-76365000D01*
X134126335Y-76365000D01*
X134403574Y-76309853D01*
X134664727Y-76201680D01*
X134899759Y-76044637D01*
X135099637Y-75844759D01*
X135256680Y-75609727D01*
X135364853Y-75348574D01*
X135373783Y-75303678D01*
X135427818Y-75481808D01*
X135561068Y-75731101D01*
X135740392Y-75949608D01*
X135958899Y-76128932D01*
X136086741Y-76197265D01*
X135857161Y-76347399D01*
X135655500Y-76545105D01*
X135496285Y-76778354D01*
X135385633Y-77038182D01*
X135368096Y-77120961D01*
X135490085Y-77343000D01*
X137033000Y-77343000D01*
X137033000Y-77323000D01*
X137287000Y-77323000D01*
X137287000Y-77343000D01*
X138829915Y-77343000D01*
X138951904Y-77120961D01*
X138934367Y-77038182D01*
X138823715Y-76778354D01*
X138664500Y-76545105D01*
X138462839Y-76347399D01*
X138233259Y-76197265D01*
X138361101Y-76128932D01*
X138579608Y-75949608D01*
X138758932Y-75731101D01*
X138892182Y-75481808D01*
X138974236Y-75211309D01*
X139001943Y-74930000D01*
X138974236Y-74648691D01*
X138892182Y-74378192D01*
X138758932Y-74128899D01*
X138579608Y-73910392D01*
X138466518Y-73817581D01*
X138484482Y-73815812D01*
X138604180Y-73779502D01*
X138714494Y-73720537D01*
X138811185Y-73641185D01*
X138890537Y-73544494D01*
X138949502Y-73434180D01*
X138985812Y-73314482D01*
X138998072Y-73190000D01*
X138998072Y-71590000D01*
X138985812Y-71465518D01*
X138949502Y-71345820D01*
X138890537Y-71235506D01*
X138811185Y-71138815D01*
X138714494Y-71059463D01*
X138604180Y-71000498D01*
X138484482Y-70964188D01*
X138360000Y-70951928D01*
X135960000Y-70951928D01*
X135835518Y-70964188D01*
X135715820Y-71000498D01*
X135605506Y-71059463D01*
X135508815Y-71138815D01*
X135429463Y-71235506D01*
X135370498Y-71345820D01*
X135368217Y-71353339D01*
X135364853Y-71336426D01*
X135256680Y-71075273D01*
X135099637Y-70840241D01*
X134899759Y-70640363D01*
X134664727Y-70483320D01*
X134403574Y-70375147D01*
X134126335Y-70320000D01*
X133843665Y-70320000D01*
X133566426Y-70375147D01*
X133305273Y-70483320D01*
X133070241Y-70640363D01*
X132870363Y-70840241D01*
X132713320Y-71075273D01*
X132605147Y-71336426D01*
X132550000Y-71613665D01*
X127800000Y-71613665D01*
X127744853Y-71336426D01*
X127636680Y-71075273D01*
X127479637Y-70840241D01*
X127279759Y-70640363D01*
X127044727Y-70483320D01*
X126783574Y-70375147D01*
X126506335Y-70320000D01*
X126223665Y-70320000D01*
X125946426Y-70375147D01*
X125685273Y-70483320D01*
X125450241Y-70640363D01*
X125250363Y-70840241D01*
X125093320Y-71075273D01*
X124985147Y-71336426D01*
X124930000Y-71613665D01*
X118237000Y-71613665D01*
X118237000Y-69234283D01*
X118321331Y-69290631D01*
X118728075Y-69459110D01*
X119159872Y-69545000D01*
X119600128Y-69545000D01*
X120031925Y-69459110D01*
X120438669Y-69290631D01*
X120804729Y-69046038D01*
X121116038Y-68734729D01*
X121360631Y-68368669D01*
X121529110Y-67961925D01*
X121560589Y-67803665D01*
X127550000Y-67803665D01*
X127550000Y-68086335D01*
X127605147Y-68363574D01*
X127713320Y-68624727D01*
X127870363Y-68859759D01*
X128070241Y-69059637D01*
X128305273Y-69216680D01*
X128566426Y-69324853D01*
X128843665Y-69380000D01*
X129126335Y-69380000D01*
X129403574Y-69324853D01*
X129610000Y-69239349D01*
X129816426Y-69324853D01*
X130093665Y-69380000D01*
X130376335Y-69380000D01*
X130653574Y-69324853D01*
X130914727Y-69216680D01*
X131149759Y-69059637D01*
X131349637Y-68859759D01*
X131485000Y-68657173D01*
X131620363Y-68859759D01*
X131820241Y-69059637D01*
X132055273Y-69216680D01*
X132316426Y-69324853D01*
X132593665Y-69380000D01*
X132876335Y-69380000D01*
X133153574Y-69324853D01*
X133360000Y-69239349D01*
X133566426Y-69324853D01*
X133843665Y-69380000D01*
X134126335Y-69380000D01*
X134403574Y-69324853D01*
X134664727Y-69216680D01*
X134899759Y-69059637D01*
X135099637Y-68859759D01*
X135256680Y-68624727D01*
X135364853Y-68363574D01*
X135420000Y-68086335D01*
X135420000Y-67803665D01*
X135364853Y-67526426D01*
X135256680Y-67265273D01*
X135099637Y-67030241D01*
X134899759Y-66830363D01*
X134664727Y-66673320D01*
X134403574Y-66565147D01*
X134126335Y-66510000D01*
X133843665Y-66510000D01*
X133566426Y-66565147D01*
X133360000Y-66650651D01*
X133153574Y-66565147D01*
X132876335Y-66510000D01*
X132593665Y-66510000D01*
X132316426Y-66565147D01*
X132055273Y-66673320D01*
X131820241Y-66830363D01*
X131620363Y-67030241D01*
X131485000Y-67232827D01*
X131349637Y-67030241D01*
X131149759Y-66830363D01*
X130914727Y-66673320D01*
X130653574Y-66565147D01*
X130376335Y-66510000D01*
X130093665Y-66510000D01*
X129816426Y-66565147D01*
X129610000Y-66650651D01*
X129403574Y-66565147D01*
X129126335Y-66510000D01*
X128843665Y-66510000D01*
X128566426Y-66565147D01*
X128305273Y-66673320D01*
X128070241Y-66830363D01*
X127870363Y-67030241D01*
X127713320Y-67265273D01*
X127605147Y-67526426D01*
X127550000Y-67803665D01*
X121560589Y-67803665D01*
X121615000Y-67530128D01*
X121615000Y-67089872D01*
X121529110Y-66658075D01*
X121360631Y-66251331D01*
X121304283Y-66167000D01*
X179685717Y-66167000D01*
X179629369Y-66251331D01*
G37*
X179629369Y-66251331D02*
X179460890Y-66658075D01*
X179375000Y-67089872D01*
X179375000Y-67530128D01*
X179460890Y-67961925D01*
X179629369Y-68368669D01*
X179873962Y-68734729D01*
X180185271Y-69046038D01*
X180551331Y-69290631D01*
X180958075Y-69459110D01*
X181389872Y-69545000D01*
X181830128Y-69545000D01*
X182261925Y-69459110D01*
X182668669Y-69290631D01*
X182753000Y-69234283D01*
X182753000Y-116185717D01*
X182668669Y-116129369D01*
X182261925Y-115960890D01*
X181830128Y-115875000D01*
X181389872Y-115875000D01*
X180958075Y-115960890D01*
X180551331Y-116129369D01*
X180185271Y-116373962D01*
X179873962Y-116685271D01*
X179629369Y-117051331D01*
X179460890Y-117458075D01*
X179375000Y-117889872D01*
X179375000Y-118330128D01*
X179460890Y-118761925D01*
X179629369Y-119168669D01*
X179685717Y-119253000D01*
X121304283Y-119253000D01*
X121360631Y-119168669D01*
X121529110Y-118761925D01*
X121615000Y-118330128D01*
X121615000Y-117889872D01*
X121529110Y-117458075D01*
X121360631Y-117051331D01*
X121116038Y-116685271D01*
X120804729Y-116373962D01*
X120798800Y-116370000D01*
X128101928Y-116370000D01*
X128114188Y-116494482D01*
X128150498Y-116614180D01*
X128209463Y-116724494D01*
X128288815Y-116821185D01*
X128385506Y-116900537D01*
X128495820Y-116959502D01*
X128615518Y-116995812D01*
X128740000Y-117008072D01*
X129254250Y-117005000D01*
X129413000Y-116846250D01*
X129413000Y-115697000D01*
X128263750Y-115697000D01*
X128105000Y-115855750D01*
X128101928Y-116370000D01*
X120798800Y-116370000D01*
X120438669Y-116129369D01*
X120031925Y-115960890D01*
X119600128Y-115875000D01*
X119159872Y-115875000D01*
X118728075Y-115960890D01*
X118321331Y-116129369D01*
X118237000Y-116185717D01*
X118237000Y-114770000D01*
X128101928Y-114770000D01*
X128105000Y-115284250D01*
X128263750Y-115443000D01*
X129413000Y-115443000D01*
X129413000Y-114293750D01*
X129667000Y-114293750D01*
X129667000Y-115443000D01*
X129687000Y-115443000D01*
X129687000Y-115697000D01*
X129667000Y-115697000D01*
X129667000Y-116846250D01*
X129825750Y-117005000D01*
X130340000Y-117008072D01*
X130464482Y-116995812D01*
X130584180Y-116959502D01*
X130694494Y-116900537D01*
X130791185Y-116821185D01*
X130870537Y-116724494D01*
X130929502Y-116614180D01*
X130958661Y-116518057D01*
X131125241Y-116684637D01*
X131360273Y-116841680D01*
X131621426Y-116949853D01*
X131898665Y-117005000D01*
X132181335Y-117005000D01*
X132458574Y-116949853D01*
X132719727Y-116841680D01*
X132954759Y-116684637D01*
X133154637Y-116484759D01*
X133174521Y-116455000D01*
X137232406Y-116455000D01*
X137269294Y-116524013D01*
X137454866Y-116750134D01*
X137680986Y-116935706D01*
X137938966Y-117073599D01*
X138218889Y-117158513D01*
X138510000Y-117187185D01*
X138801110Y-117158513D01*
X139081033Y-117073599D01*
X139339013Y-116935706D01*
X139565134Y-116750134D01*
X139750706Y-116524014D01*
X139764462Y-116498278D01*
X139920951Y-116704429D01*
X140138807Y-116897496D01*
X140390142Y-117044352D01*
X140653110Y-117136476D01*
X140883000Y-117015155D01*
X140883000Y-115697000D01*
X140863000Y-115697000D01*
X140863000Y-115443000D01*
X140883000Y-115443000D01*
X140883000Y-114124845D01*
X141137000Y-114124845D01*
X141137000Y-115443000D01*
X141157000Y-115443000D01*
X141157000Y-115697000D01*
X141137000Y-115697000D01*
X141137000Y-117015155D01*
X141366890Y-117136476D01*
X141629858Y-117044352D01*
X141881193Y-116897496D01*
X142099049Y-116704429D01*
X142115286Y-116683039D01*
X142171595Y-116788386D01*
X142282038Y-116922962D01*
X142416614Y-117033405D01*
X142570150Y-117115472D01*
X142736746Y-117166008D01*
X142910000Y-117183072D01*
X144110000Y-117183072D01*
X144283254Y-117166008D01*
X144449850Y-117115472D01*
X144603386Y-117033405D01*
X144737962Y-116922962D01*
X144848405Y-116788386D01*
X144930472Y-116634850D01*
X144981008Y-116468254D01*
X144982313Y-116455000D01*
X148430299Y-116455000D01*
X148434188Y-116494482D01*
X148470498Y-116614180D01*
X148529463Y-116724494D01*
X148608815Y-116821185D01*
X148705506Y-116900537D01*
X148815820Y-116959502D01*
X148935518Y-116995812D01*
X149060000Y-117008072D01*
X150660000Y-117008072D01*
X150784482Y-116995812D01*
X150904180Y-116959502D01*
X151014494Y-116900537D01*
X151111185Y-116821185D01*
X151190537Y-116724494D01*
X151249502Y-116614180D01*
X151265117Y-116562702D01*
X151546903Y-116562702D01*
X151618486Y-116806671D01*
X151873996Y-116927571D01*
X152148184Y-116996300D01*
X152430512Y-117010217D01*
X152710130Y-116968787D01*
X152976292Y-116873603D01*
X153101514Y-116806671D01*
X153173097Y-116562702D01*
X152360000Y-115749605D01*
X151546903Y-116562702D01*
X151265117Y-116562702D01*
X151285812Y-116494482D01*
X151298072Y-116370000D01*
X151298072Y-116362785D01*
X151367298Y-116383097D01*
X152180395Y-115570000D01*
X152539605Y-115570000D01*
X153352702Y-116383097D01*
X153596671Y-116311514D01*
X153717571Y-116056004D01*
X153786300Y-115781816D01*
X153800217Y-115499488D01*
X153758787Y-115219870D01*
X153663603Y-114953708D01*
X153596671Y-114828486D01*
X153352702Y-114756903D01*
X152539605Y-115570000D01*
X152180395Y-115570000D01*
X151367298Y-114756903D01*
X151298072Y-114777215D01*
X151298072Y-114770000D01*
X151285812Y-114645518D01*
X151265118Y-114577298D01*
X151546903Y-114577298D01*
X152360000Y-115390395D01*
X153173097Y-114577298D01*
X153101514Y-114333329D01*
X152846004Y-114212429D01*
X152571816Y-114143700D01*
X152289488Y-114129783D01*
X152009870Y-114171213D01*
X151743708Y-114266397D01*
X151618486Y-114333329D01*
X151546903Y-114577298D01*
X151265118Y-114577298D01*
X151249502Y-114525820D01*
X151190537Y-114415506D01*
X151111185Y-114318815D01*
X151014494Y-114239463D01*
X150904180Y-114180498D01*
X150784482Y-114144188D01*
X150660000Y-114131928D01*
X149060000Y-114131928D01*
X148935518Y-114144188D01*
X148815820Y-114180498D01*
X148705506Y-114239463D01*
X148608815Y-114318815D01*
X148529463Y-114415506D01*
X148470498Y-114525820D01*
X148434188Y-114645518D01*
X148430299Y-114685000D01*
X144982313Y-114685000D01*
X144981008Y-114671746D01*
X144930472Y-114505150D01*
X144848405Y-114351614D01*
X144737962Y-114217038D01*
X144603386Y-114106595D01*
X144449850Y-114024528D01*
X144395000Y-114007890D01*
X144395000Y-110354521D01*
X144424759Y-110334637D01*
X144624637Y-110134759D01*
X144781680Y-109899727D01*
X144889853Y-109638574D01*
X144945000Y-109361335D01*
X144945000Y-109078665D01*
X149695000Y-109078665D01*
X149695000Y-109361335D01*
X149750147Y-109638574D01*
X149858320Y-109899727D01*
X150015363Y-110134759D01*
X150215241Y-110334637D01*
X150450273Y-110491680D01*
X150711426Y-110599853D01*
X150988665Y-110655000D01*
X151271335Y-110655000D01*
X151548574Y-110599853D01*
X151809727Y-110491680D01*
X152044759Y-110334637D01*
X152244637Y-110134759D01*
X152264521Y-110105000D01*
X152415210Y-110105000D01*
X152477688Y-110198505D01*
X152691495Y-110412312D01*
X152942905Y-110580299D01*
X153222257Y-110696011D01*
X153518816Y-110755000D01*
X153821184Y-110755000D01*
X154117743Y-110696011D01*
X154397095Y-110580299D01*
X154648505Y-110412312D01*
X154714944Y-110345873D01*
X154720498Y-110364180D01*
X154779463Y-110474494D01*
X154858815Y-110571185D01*
X154955506Y-110650537D01*
X155065820Y-110709502D01*
X155185518Y-110745812D01*
X155310000Y-110758072D01*
X155924250Y-110755000D01*
X156083000Y-110596250D01*
X156083000Y-109347000D01*
X156337000Y-109347000D01*
X156337000Y-110596250D01*
X156495750Y-110755000D01*
X157110000Y-110758072D01*
X157234482Y-110745812D01*
X157354180Y-110709502D01*
X157464494Y-110650537D01*
X157561185Y-110571185D01*
X157640537Y-110474494D01*
X157699502Y-110364180D01*
X157735812Y-110244482D01*
X157748072Y-110120000D01*
X157745000Y-109505750D01*
X157586250Y-109347000D01*
X156337000Y-109347000D01*
X156083000Y-109347000D01*
X156063000Y-109347000D01*
X156063000Y-109093000D01*
X156083000Y-109093000D01*
X156083000Y-107843750D01*
X156337000Y-107843750D01*
X156337000Y-109093000D01*
X157586250Y-109093000D01*
X157745000Y-108934250D01*
X157748072Y-108320000D01*
X157735812Y-108195518D01*
X157699502Y-108075820D01*
X157640537Y-107965506D01*
X157561185Y-107868815D01*
X157464494Y-107789463D01*
X157354180Y-107730498D01*
X157234482Y-107694188D01*
X157110000Y-107681928D01*
X156495750Y-107685000D01*
X156337000Y-107843750D01*
X156083000Y-107843750D01*
X155924250Y-107685000D01*
X155310000Y-107681928D01*
X155185518Y-107694188D01*
X155065820Y-107730498D01*
X154955506Y-107789463D01*
X154858815Y-107868815D01*
X154779463Y-107965506D01*
X154720498Y-108075820D01*
X154714944Y-108094127D01*
X154648505Y-108027688D01*
X154397095Y-107859701D01*
X154117743Y-107743989D01*
X153821184Y-107685000D01*
X153518816Y-107685000D01*
X153222257Y-107743989D01*
X152942905Y-107859701D01*
X152691495Y-108027688D01*
X152477688Y-108241495D01*
X152415210Y-108335000D01*
X152264521Y-108335000D01*
X152244637Y-108305241D01*
X152044759Y-108105363D01*
X151809727Y-107948320D01*
X151548574Y-107840147D01*
X151271335Y-107785000D01*
X150988665Y-107785000D01*
X150711426Y-107840147D01*
X150450273Y-107948320D01*
X150215241Y-108105363D01*
X150015363Y-108305241D01*
X149858320Y-108540273D01*
X149750147Y-108801426D01*
X149695000Y-109078665D01*
X144945000Y-109078665D01*
X144889853Y-108801426D01*
X144781680Y-108540273D01*
X144624637Y-108305241D01*
X144424759Y-108105363D01*
X144189727Y-107948320D01*
X143928574Y-107840147D01*
X143651335Y-107785000D01*
X143368665Y-107785000D01*
X143333561Y-107791983D01*
X143125000Y-107583422D01*
X143125000Y-104845512D01*
X147864783Y-104845512D01*
X147906213Y-105125130D01*
X148001397Y-105391292D01*
X148068329Y-105516514D01*
X148312298Y-105588097D01*
X149117889Y-104782506D01*
X149114783Y-104845512D01*
X149153408Y-105106197D01*
X148491903Y-105767702D01*
X148563486Y-106011671D01*
X148818996Y-106132571D01*
X149093184Y-106201300D01*
X149375512Y-106215217D01*
X149655130Y-106173787D01*
X149921292Y-106078603D01*
X149937092Y-106070158D01*
X150068996Y-106132571D01*
X150343184Y-106201300D01*
X150625512Y-106215217D01*
X150905130Y-106173787D01*
X151171292Y-106078603D01*
X151296514Y-106011671D01*
X151368097Y-105767702D01*
X150702421Y-105102026D01*
X150731300Y-104986816D01*
X150741406Y-104781801D01*
X151547702Y-105588097D01*
X151791671Y-105516514D01*
X151805324Y-105487659D01*
X151940363Y-105689759D01*
X152140241Y-105889637D01*
X152375273Y-106046680D01*
X152636426Y-106154853D01*
X152913665Y-106210000D01*
X153196335Y-106210000D01*
X153473574Y-106154853D01*
X153680000Y-106069349D01*
X153886426Y-106154853D01*
X154163665Y-106210000D01*
X154446335Y-106210000D01*
X154723574Y-106154853D01*
X154984727Y-106046680D01*
X155219759Y-105889637D01*
X155419637Y-105689759D01*
X155576680Y-105454727D01*
X155684853Y-105193574D01*
X155740000Y-104916335D01*
X155740000Y-104633665D01*
X155684853Y-104356426D01*
X155576680Y-104095273D01*
X155419637Y-103860241D01*
X155219759Y-103660363D01*
X154984727Y-103503320D01*
X154723574Y-103395147D01*
X154446335Y-103340000D01*
X154163665Y-103340000D01*
X153886426Y-103395147D01*
X153680000Y-103480651D01*
X153473574Y-103395147D01*
X153196335Y-103340000D01*
X152913665Y-103340000D01*
X152636426Y-103395147D01*
X152375273Y-103503320D01*
X152140241Y-103660363D01*
X151940363Y-103860241D01*
X151806308Y-104060869D01*
X151791671Y-104033486D01*
X151547702Y-103961903D01*
X150742111Y-104767494D01*
X150745217Y-104704488D01*
X150706592Y-104443803D01*
X151368097Y-103782298D01*
X151296514Y-103538329D01*
X151041004Y-103417429D01*
X150766816Y-103348700D01*
X150484488Y-103334783D01*
X150204870Y-103376213D01*
X149938708Y-103471397D01*
X149922908Y-103479842D01*
X149791004Y-103417429D01*
X149516816Y-103348700D01*
X149234488Y-103334783D01*
X148954870Y-103376213D01*
X148688708Y-103471397D01*
X148563486Y-103538329D01*
X148491903Y-103782298D01*
X149157579Y-104447974D01*
X149128700Y-104563184D01*
X149118594Y-104768199D01*
X148312298Y-103961903D01*
X148068329Y-104033486D01*
X147947429Y-104288996D01*
X147878700Y-104563184D01*
X147864783Y-104845512D01*
X143125000Y-104845512D01*
X143125000Y-101034413D01*
X143275500Y-101254895D01*
X143477161Y-101452601D01*
X143713517Y-101607166D01*
X143975486Y-101712650D01*
X144253000Y-101765000D01*
X144653000Y-101765000D01*
X144653000Y-100457000D01*
X144907000Y-100457000D01*
X144907000Y-101765000D01*
X145307000Y-101765000D01*
X145584514Y-101712650D01*
X145846483Y-101607166D01*
X146082839Y-101452601D01*
X146284500Y-101254895D01*
X146443715Y-101021646D01*
X146520000Y-100842517D01*
X146520000Y-101106335D01*
X146575147Y-101383574D01*
X146683320Y-101644727D01*
X146840363Y-101879759D01*
X147040241Y-102079637D01*
X147275273Y-102236680D01*
X147536426Y-102344853D01*
X147813665Y-102400000D01*
X148096335Y-102400000D01*
X148373574Y-102344853D01*
X148634727Y-102236680D01*
X148869759Y-102079637D01*
X149069637Y-101879759D01*
X149226680Y-101644727D01*
X149334853Y-101383574D01*
X149390000Y-101106335D01*
X149390000Y-100823665D01*
X154140000Y-100823665D01*
X154140000Y-101106335D01*
X154195147Y-101383574D01*
X154303320Y-101644727D01*
X154460363Y-101879759D01*
X154660241Y-102079637D01*
X154895273Y-102236680D01*
X155156426Y-102344853D01*
X155433665Y-102400000D01*
X155716335Y-102400000D01*
X155993574Y-102344853D01*
X156254727Y-102236680D01*
X156489759Y-102079637D01*
X156689637Y-101879759D01*
X156846680Y-101644727D01*
X156954853Y-101383574D01*
X157010000Y-101106335D01*
X157010000Y-100823665D01*
X156954853Y-100546426D01*
X156846680Y-100285273D01*
X156689637Y-100050241D01*
X156489759Y-99850363D01*
X156254727Y-99693320D01*
X155993574Y-99585147D01*
X155716335Y-99530000D01*
X155433665Y-99530000D01*
X155156426Y-99585147D01*
X154895273Y-99693320D01*
X154660241Y-99850363D01*
X154460363Y-100050241D01*
X154303320Y-100285273D01*
X154195147Y-100546426D01*
X154140000Y-100823665D01*
X149390000Y-100823665D01*
X149334853Y-100546426D01*
X149226680Y-100285273D01*
X149069637Y-100050241D01*
X148869759Y-99850363D01*
X148634727Y-99693320D01*
X148373574Y-99585147D01*
X148096335Y-99530000D01*
X147813665Y-99530000D01*
X147536426Y-99585147D01*
X147275273Y-99693320D01*
X147040241Y-99850363D01*
X146840363Y-100050241D01*
X146683320Y-100285273D01*
X146575147Y-100546426D01*
X146554918Y-100648122D01*
X146449915Y-100457000D01*
X144907000Y-100457000D01*
X144653000Y-100457000D01*
X144633000Y-100457000D01*
X144633000Y-100203000D01*
X144653000Y-100203000D01*
X144653000Y-100183000D01*
X144907000Y-100183000D01*
X144907000Y-100203000D01*
X146449915Y-100203000D01*
X146571904Y-99980961D01*
X146554367Y-99898182D01*
X146443715Y-99638354D01*
X146284500Y-99405105D01*
X146082839Y-99207399D01*
X145853259Y-99057265D01*
X145981101Y-98988932D01*
X146199608Y-98809608D01*
X146378932Y-98591101D01*
X146512182Y-98341808D01*
X146566217Y-98163678D01*
X146575147Y-98208574D01*
X146683320Y-98469727D01*
X146840363Y-98704759D01*
X147040241Y-98904637D01*
X147275273Y-99061680D01*
X147536426Y-99169853D01*
X147813665Y-99225000D01*
X148096335Y-99225000D01*
X148373574Y-99169853D01*
X148634727Y-99061680D01*
X148869759Y-98904637D01*
X149069637Y-98704759D01*
X149226680Y-98469727D01*
X149334853Y-98208574D01*
X149390000Y-97931335D01*
X149390000Y-97648665D01*
X154140000Y-97648665D01*
X154140000Y-97931335D01*
X154195147Y-98208574D01*
X154303320Y-98469727D01*
X154460363Y-98704759D01*
X154660241Y-98904637D01*
X154895273Y-99061680D01*
X155156426Y-99169853D01*
X155433665Y-99225000D01*
X155716335Y-99225000D01*
X155993574Y-99169853D01*
X156254727Y-99061680D01*
X156489759Y-98904637D01*
X156689637Y-98704759D01*
X156846680Y-98469727D01*
X156954853Y-98208574D01*
X157010000Y-97931335D01*
X157010000Y-97688665D01*
X159220000Y-97688665D01*
X159220000Y-97971335D01*
X159275147Y-98248574D01*
X159383320Y-98509727D01*
X159540363Y-98744759D01*
X159740241Y-98944637D01*
X159942827Y-99080000D01*
X159740241Y-99215363D01*
X159540363Y-99415241D01*
X159383320Y-99650273D01*
X159275147Y-99911426D01*
X159220000Y-100188665D01*
X159220000Y-100471335D01*
X159275147Y-100748574D01*
X159383320Y-101009727D01*
X159540363Y-101244759D01*
X159740241Y-101444637D01*
X159770000Y-101464521D01*
X159770001Y-104461519D01*
X159765719Y-104504998D01*
X159782805Y-104678488D01*
X159833412Y-104845311D01*
X159915590Y-104999057D01*
X159998468Y-105100044D01*
X159998471Y-105100047D01*
X160026184Y-105133815D01*
X160059951Y-105161527D01*
X160405001Y-105506577D01*
X160405000Y-108085479D01*
X160375241Y-108105363D01*
X160175363Y-108305241D01*
X160018320Y-108540273D01*
X159910147Y-108801426D01*
X159855000Y-109078665D01*
X159855000Y-109361335D01*
X159910147Y-109638574D01*
X160018320Y-109899727D01*
X160175363Y-110134759D01*
X160375241Y-110334637D01*
X160485001Y-110407976D01*
X160485000Y-114250241D01*
X160314866Y-114389866D01*
X160129294Y-114615986D01*
X159991401Y-114873966D01*
X159906487Y-115153889D01*
X159885000Y-115372050D01*
X159885000Y-115767949D01*
X159906487Y-115986110D01*
X159991401Y-116266033D01*
X160129294Y-116524013D01*
X160314866Y-116750134D01*
X160540986Y-116935706D01*
X160798966Y-117073599D01*
X161078889Y-117158513D01*
X161370000Y-117187185D01*
X161661110Y-117158513D01*
X161941033Y-117073599D01*
X162199013Y-116935706D01*
X162425134Y-116750134D01*
X162610706Y-116524014D01*
X162620000Y-116506626D01*
X162629294Y-116524013D01*
X162814866Y-116750134D01*
X163040986Y-116935706D01*
X163298966Y-117073599D01*
X163578889Y-117158513D01*
X163870000Y-117187185D01*
X164161110Y-117158513D01*
X164441033Y-117073599D01*
X164699013Y-116935706D01*
X164925134Y-116750134D01*
X164977223Y-116686663D01*
X165031595Y-116788386D01*
X165142038Y-116922962D01*
X165276614Y-117033405D01*
X165430150Y-117115472D01*
X165596746Y-117166008D01*
X165770000Y-117183072D01*
X166731493Y-117183072D01*
X167163480Y-117615059D01*
X167191193Y-117648827D01*
X167224961Y-117676540D01*
X167224963Y-117676542D01*
X167325950Y-117759420D01*
X167325951Y-117759421D01*
X167479697Y-117841599D01*
X167646520Y-117892205D01*
X167776533Y-117905010D01*
X167776541Y-117905010D01*
X167820010Y-117909291D01*
X167863479Y-117905010D01*
X173766521Y-117905010D01*
X173809990Y-117909291D01*
X173853459Y-117905010D01*
X173853467Y-117905010D01*
X173983480Y-117892205D01*
X174150303Y-117841599D01*
X174304049Y-117759421D01*
X174438807Y-117648827D01*
X174466524Y-117615054D01*
X174873506Y-117208072D01*
X175860000Y-117208072D01*
X176033254Y-117191008D01*
X176199850Y-117140472D01*
X176353386Y-117058405D01*
X176487962Y-116947962D01*
X176598405Y-116813386D01*
X176680472Y-116659850D01*
X176731008Y-116493254D01*
X176748072Y-116320000D01*
X176748072Y-114820000D01*
X176731008Y-114646746D01*
X176680472Y-114480150D01*
X176598405Y-114326614D01*
X176487962Y-114192038D01*
X176353386Y-114081595D01*
X176199850Y-113999528D01*
X176145000Y-113982890D01*
X176145000Y-113396578D01*
X178893561Y-110648017D01*
X178928665Y-110655000D01*
X179211335Y-110655000D01*
X179488574Y-110599853D01*
X179749727Y-110491680D01*
X179984759Y-110334637D01*
X180184637Y-110134759D01*
X180341680Y-109899727D01*
X180449853Y-109638574D01*
X180505000Y-109361335D01*
X180505000Y-109078665D01*
X180449853Y-108801426D01*
X180341680Y-108540273D01*
X180184637Y-108305241D01*
X179984759Y-108105363D01*
X179955000Y-108085479D01*
X179955000Y-104183465D01*
X179959281Y-104139999D01*
X179955000Y-104096533D01*
X179955000Y-104096523D01*
X179942195Y-103966510D01*
X179891589Y-103799687D01*
X179809411Y-103645941D01*
X179779431Y-103609410D01*
X179726532Y-103544953D01*
X179726530Y-103544951D01*
X179698817Y-103511183D01*
X179665049Y-103483470D01*
X179238072Y-103056493D01*
X179238072Y-102683507D01*
X179645050Y-102276529D01*
X179678818Y-102248816D01*
X179789412Y-102114058D01*
X179871590Y-101960312D01*
X179922196Y-101793489D01*
X179935001Y-101663476D01*
X179935001Y-101663466D01*
X179939282Y-101620000D01*
X179935001Y-101576534D01*
X179935001Y-99813468D01*
X179939282Y-99769999D01*
X179935001Y-99726530D01*
X179935001Y-99726522D01*
X179922196Y-99596509D01*
X179920401Y-99590590D01*
X179895762Y-99509370D01*
X179871590Y-99429686D01*
X179789412Y-99275940D01*
X179739697Y-99215363D01*
X179706533Y-99174952D01*
X179706531Y-99174950D01*
X179678818Y-99141182D01*
X179645051Y-99113470D01*
X176076526Y-95544946D01*
X176048809Y-95511173D01*
X175914051Y-95400579D01*
X175760305Y-95318401D01*
X175593482Y-95267795D01*
X175463469Y-95254990D01*
X175463461Y-95254990D01*
X175419992Y-95250709D01*
X175376523Y-95254990D01*
X170975694Y-95254990D01*
X170932228Y-95250709D01*
X170888762Y-95254990D01*
X170888752Y-95254990D01*
X170758739Y-95267795D01*
X170591916Y-95318401D01*
X170438170Y-95400579D01*
X170438168Y-95400580D01*
X170438169Y-95400580D01*
X170337182Y-95483458D01*
X170337180Y-95483460D01*
X170303412Y-95511173D01*
X170275699Y-95544941D01*
X169657971Y-96162670D01*
X169461807Y-96057818D01*
X169191308Y-95975764D01*
X168910000Y-95948057D01*
X168628691Y-95975764D01*
X168358192Y-96057818D01*
X168108899Y-96191068D01*
X167890392Y-96370393D01*
X167711068Y-96588900D01*
X167640000Y-96721858D01*
X167568932Y-96588899D01*
X167389607Y-96370392D01*
X167171100Y-96191068D01*
X166921807Y-96057818D01*
X166651308Y-95975764D01*
X166370000Y-95948057D01*
X166088691Y-95975764D01*
X165818192Y-96057818D01*
X165568899Y-96191068D01*
X165350392Y-96370393D01*
X165171068Y-96588900D01*
X165100000Y-96721858D01*
X165028932Y-96588899D01*
X164849607Y-96370392D01*
X164631100Y-96191068D01*
X164381807Y-96057818D01*
X164111308Y-95975764D01*
X163830000Y-95948057D01*
X163548691Y-95975764D01*
X163278192Y-96057818D01*
X163028899Y-96191068D01*
X162810392Y-96370393D01*
X162631068Y-96588900D01*
X162497818Y-96838193D01*
X162465419Y-96945000D01*
X161789521Y-96945000D01*
X161769637Y-96915241D01*
X161569759Y-96715363D01*
X161334727Y-96558320D01*
X161073574Y-96450147D01*
X160796335Y-96395000D01*
X160513665Y-96395000D01*
X160236426Y-96450147D01*
X159975273Y-96558320D01*
X159740241Y-96715363D01*
X159540363Y-96915241D01*
X159383320Y-97150273D01*
X159275147Y-97411426D01*
X159220000Y-97688665D01*
X157010000Y-97688665D01*
X157010000Y-97648665D01*
X156954853Y-97371426D01*
X156846680Y-97110273D01*
X156689637Y-96875241D01*
X156489759Y-96675363D01*
X156254727Y-96518320D01*
X155993574Y-96410147D01*
X155716335Y-96355000D01*
X155433665Y-96355000D01*
X155156426Y-96410147D01*
X154895273Y-96518320D01*
X154660241Y-96675363D01*
X154460363Y-96875241D01*
X154303320Y-97110273D01*
X154195147Y-97371426D01*
X154140000Y-97648665D01*
X149390000Y-97648665D01*
X149334853Y-97371426D01*
X149226680Y-97110273D01*
X149069637Y-96875241D01*
X148869759Y-96675363D01*
X148634727Y-96518320D01*
X148373574Y-96410147D01*
X148096335Y-96355000D01*
X147813665Y-96355000D01*
X147536426Y-96410147D01*
X147275273Y-96518320D01*
X147040241Y-96675363D01*
X146840363Y-96875241D01*
X146683320Y-97110273D01*
X146575147Y-97371426D01*
X146566217Y-97416322D01*
X146512182Y-97238192D01*
X146378932Y-96988899D01*
X146199608Y-96770392D01*
X145981101Y-96591068D01*
X145848142Y-96520000D01*
X145981101Y-96448932D01*
X146199608Y-96269608D01*
X146378932Y-96051101D01*
X146512182Y-95801808D01*
X146594236Y-95531309D01*
X146621943Y-95250000D01*
X146608575Y-95114277D01*
X146683320Y-95294727D01*
X146840363Y-95529759D01*
X147040241Y-95729637D01*
X147275273Y-95886680D01*
X147536426Y-95994853D01*
X147813665Y-96050000D01*
X148096335Y-96050000D01*
X148373574Y-95994853D01*
X148634727Y-95886680D01*
X148869759Y-95729637D01*
X149069637Y-95529759D01*
X149226680Y-95294727D01*
X149334853Y-95033574D01*
X149390000Y-94756335D01*
X149390000Y-94473665D01*
X154140000Y-94473665D01*
X154140000Y-94756335D01*
X154195147Y-95033574D01*
X154303320Y-95294727D01*
X154460363Y-95529759D01*
X154660241Y-95729637D01*
X154895273Y-95886680D01*
X155156426Y-95994853D01*
X155433665Y-96050000D01*
X155716335Y-96050000D01*
X155993574Y-95994853D01*
X156254727Y-95886680D01*
X156489759Y-95729637D01*
X156689637Y-95529759D01*
X156846680Y-95294727D01*
X156954853Y-95033574D01*
X157010000Y-94756335D01*
X157010000Y-94473665D01*
X156954853Y-94196426D01*
X156846680Y-93935273D01*
X156689637Y-93700241D01*
X156489759Y-93500363D01*
X156254727Y-93343320D01*
X155993574Y-93235147D01*
X155716335Y-93180000D01*
X155433665Y-93180000D01*
X155156426Y-93235147D01*
X154895273Y-93343320D01*
X154660241Y-93500363D01*
X154460363Y-93700241D01*
X154303320Y-93935273D01*
X154195147Y-94196426D01*
X154140000Y-94473665D01*
X149390000Y-94473665D01*
X149334853Y-94196426D01*
X149226680Y-93935273D01*
X149069637Y-93700241D01*
X148869759Y-93500363D01*
X148634727Y-93343320D01*
X148373574Y-93235147D01*
X148096335Y-93180000D01*
X147813665Y-93180000D01*
X147536426Y-93235147D01*
X147275273Y-93343320D01*
X147040241Y-93500363D01*
X146840363Y-93700241D01*
X146683320Y-93935273D01*
X146575147Y-94196426D01*
X146520000Y-94473665D01*
X146520000Y-94723965D01*
X146512182Y-94698192D01*
X146378932Y-94448899D01*
X146199608Y-94230392D01*
X145981101Y-94051068D01*
X145848142Y-93980000D01*
X145981101Y-93908932D01*
X146199608Y-93729608D01*
X146378932Y-93511101D01*
X146512182Y-93261808D01*
X146594236Y-92991309D01*
X146621943Y-92710000D01*
X146594236Y-92428691D01*
X146552166Y-92290000D01*
X175041928Y-92290000D01*
X175054188Y-92414482D01*
X175090498Y-92534180D01*
X175149463Y-92644494D01*
X175228815Y-92741185D01*
X175325506Y-92820537D01*
X175435820Y-92879502D01*
X175555518Y-92915812D01*
X175680000Y-92928072D01*
X176244250Y-92925000D01*
X176403000Y-92766250D01*
X176403000Y-91567000D01*
X176657000Y-91567000D01*
X176657000Y-92766250D01*
X176815750Y-92925000D01*
X177380000Y-92928072D01*
X177504482Y-92915812D01*
X177624180Y-92879502D01*
X177734494Y-92820537D01*
X177831185Y-92741185D01*
X177910537Y-92644494D01*
X177969502Y-92534180D01*
X177993966Y-92453534D01*
X178069731Y-92537588D01*
X178303080Y-92711641D01*
X178565901Y-92836825D01*
X178713110Y-92881476D01*
X178943000Y-92760155D01*
X178943000Y-91567000D01*
X179197000Y-91567000D01*
X179197000Y-92760155D01*
X179426890Y-92881476D01*
X179574099Y-92836825D01*
X179836920Y-92711641D01*
X180070269Y-92537588D01*
X180265178Y-92321355D01*
X180414157Y-92071252D01*
X180511481Y-91796891D01*
X180390814Y-91567000D01*
X179197000Y-91567000D01*
X178943000Y-91567000D01*
X176657000Y-91567000D01*
X176403000Y-91567000D01*
X175203750Y-91567000D01*
X175045000Y-91725750D01*
X175041928Y-92290000D01*
X146552166Y-92290000D01*
X146512182Y-92158192D01*
X146378932Y-91908899D01*
X146199608Y-91690392D01*
X145981101Y-91511068D01*
X145731808Y-91377818D01*
X145705000Y-91369686D01*
X145705000Y-90669521D01*
X145734759Y-90649637D01*
X145856694Y-90527702D01*
X146506903Y-90527702D01*
X146578486Y-90771671D01*
X146833996Y-90892571D01*
X147108184Y-90961300D01*
X147390512Y-90975217D01*
X147670130Y-90933787D01*
X147936292Y-90838603D01*
X148061514Y-90771671D01*
X148133097Y-90527702D01*
X147320000Y-89714605D01*
X146506903Y-90527702D01*
X145856694Y-90527702D01*
X145934637Y-90449759D01*
X146068692Y-90249131D01*
X146083329Y-90276514D01*
X146327298Y-90348097D01*
X147140395Y-89535000D01*
X147499605Y-89535000D01*
X148312702Y-90348097D01*
X148521386Y-90286867D01*
X148480147Y-90386426D01*
X148425000Y-90663665D01*
X148425000Y-90946335D01*
X148480147Y-91223574D01*
X148588320Y-91484727D01*
X148745363Y-91719759D01*
X148945241Y-91919637D01*
X149180273Y-92076680D01*
X149441426Y-92184853D01*
X149718665Y-92240000D01*
X150001335Y-92240000D01*
X150278574Y-92184853D01*
X150485000Y-92099349D01*
X150691426Y-92184853D01*
X150968665Y-92240000D01*
X151251335Y-92240000D01*
X151528574Y-92184853D01*
X151789727Y-92076680D01*
X152024759Y-91919637D01*
X152224637Y-91719759D01*
X152360000Y-91517173D01*
X152495363Y-91719759D01*
X152695241Y-91919637D01*
X152930273Y-92076680D01*
X153191426Y-92184853D01*
X153468665Y-92240000D01*
X153751335Y-92240000D01*
X154028574Y-92184853D01*
X154235000Y-92099349D01*
X154441426Y-92184853D01*
X154718665Y-92240000D01*
X155001335Y-92240000D01*
X155278574Y-92184853D01*
X155539727Y-92076680D01*
X155774759Y-91919637D01*
X155974637Y-91719759D01*
X156131680Y-91484727D01*
X156239853Y-91223574D01*
X156295000Y-90946335D01*
X156295000Y-90663665D01*
X156280347Y-90590000D01*
X175041928Y-90590000D01*
X175045000Y-91154250D01*
X175203750Y-91313000D01*
X176403000Y-91313000D01*
X176403000Y-90113750D01*
X176657000Y-90113750D01*
X176657000Y-91313000D01*
X178943000Y-91313000D01*
X178943000Y-90119845D01*
X179197000Y-90119845D01*
X179197000Y-91313000D01*
X180390814Y-91313000D01*
X180511481Y-91083109D01*
X180414157Y-90808748D01*
X180265178Y-90558645D01*
X180070269Y-90342412D01*
X179836920Y-90168359D01*
X179574099Y-90043175D01*
X179426890Y-89998524D01*
X179197000Y-90119845D01*
X178943000Y-90119845D01*
X178713110Y-89998524D01*
X178565901Y-90043175D01*
X178303080Y-90168359D01*
X178069731Y-90342412D01*
X177993966Y-90426466D01*
X177969502Y-90345820D01*
X177910537Y-90235506D01*
X177831185Y-90138815D01*
X177734494Y-90059463D01*
X177624180Y-90000498D01*
X177504482Y-89964188D01*
X177380000Y-89951928D01*
X176815750Y-89955000D01*
X176657000Y-90113750D01*
X176403000Y-90113750D01*
X176244250Y-89955000D01*
X175680000Y-89951928D01*
X175555518Y-89964188D01*
X175435820Y-90000498D01*
X175325506Y-90059463D01*
X175228815Y-90138815D01*
X175149463Y-90235506D01*
X175090498Y-90345820D01*
X175054188Y-90465518D01*
X175041928Y-90590000D01*
X156280347Y-90590000D01*
X156239853Y-90386426D01*
X156131680Y-90125273D01*
X155974637Y-89890241D01*
X155774759Y-89690363D01*
X155539727Y-89533320D01*
X155278574Y-89425147D01*
X155001335Y-89370000D01*
X154718665Y-89370000D01*
X154441426Y-89425147D01*
X154235000Y-89510651D01*
X154028574Y-89425147D01*
X153751335Y-89370000D01*
X153468665Y-89370000D01*
X153191426Y-89425147D01*
X152930273Y-89533320D01*
X152695241Y-89690363D01*
X152495363Y-89890241D01*
X152360000Y-90092827D01*
X152224637Y-89890241D01*
X152024759Y-89690363D01*
X151789727Y-89533320D01*
X151528574Y-89425147D01*
X151251335Y-89370000D01*
X150968665Y-89370000D01*
X150691426Y-89425147D01*
X150485000Y-89510651D01*
X150278574Y-89425147D01*
X150001335Y-89370000D01*
X149718665Y-89370000D01*
X149441426Y-89425147D01*
X149180273Y-89533320D01*
X148945241Y-89690363D01*
X148745363Y-89890241D01*
X148689327Y-89974105D01*
X148746300Y-89746816D01*
X148760217Y-89464488D01*
X148723532Y-89216890D01*
X159698524Y-89216890D01*
X159700446Y-89229261D01*
X159800146Y-89503009D01*
X159951336Y-89752046D01*
X160148205Y-89966802D01*
X160383188Y-90139025D01*
X160647255Y-90262096D01*
X160930258Y-90331285D01*
X161163000Y-90187232D01*
X161163000Y-88987000D01*
X161417000Y-88987000D01*
X161417000Y-90187232D01*
X161649742Y-90331285D01*
X161932745Y-90262096D01*
X162196812Y-90139025D01*
X162431795Y-89966802D01*
X162628664Y-89752046D01*
X162779854Y-89503009D01*
X162879554Y-89229261D01*
X162881476Y-89216890D01*
X162760155Y-88987000D01*
X161417000Y-88987000D01*
X161163000Y-88987000D01*
X159819845Y-88987000D01*
X159698524Y-89216890D01*
X148723532Y-89216890D01*
X148718787Y-89184870D01*
X148623603Y-88918708D01*
X148556671Y-88793486D01*
X148312702Y-88721903D01*
X147499605Y-89535000D01*
X147140395Y-89535000D01*
X146327298Y-88721903D01*
X146083329Y-88793486D01*
X146069676Y-88822341D01*
X145934637Y-88620241D01*
X145856694Y-88542298D01*
X146506903Y-88542298D01*
X147320000Y-89355395D01*
X148133097Y-88542298D01*
X148061514Y-88298329D01*
X147806004Y-88177429D01*
X147531816Y-88108700D01*
X147249488Y-88094783D01*
X146969870Y-88136213D01*
X146703708Y-88231397D01*
X146578486Y-88298329D01*
X146506903Y-88542298D01*
X145856694Y-88542298D01*
X145734759Y-88420363D01*
X145499727Y-88263320D01*
X145238574Y-88155147D01*
X144961335Y-88100000D01*
X144678665Y-88100000D01*
X144401426Y-88155147D01*
X144140273Y-88263320D01*
X143905241Y-88420363D01*
X143705363Y-88620241D01*
X143548320Y-88855273D01*
X143440147Y-89116426D01*
X143385000Y-89393665D01*
X143385000Y-89676335D01*
X143440147Y-89953574D01*
X143548320Y-90214727D01*
X143705363Y-90449759D01*
X143905241Y-90649637D01*
X143935000Y-90669522D01*
X143935001Y-91345418D01*
X143828192Y-91377818D01*
X143578899Y-91511068D01*
X143569972Y-91518394D01*
X143125000Y-91073422D01*
X143125000Y-84525512D01*
X147229783Y-84525512D01*
X147271213Y-84805130D01*
X147366397Y-85071292D01*
X147433329Y-85196514D01*
X147677298Y-85268097D01*
X148482889Y-84462506D01*
X148479783Y-84525512D01*
X148518408Y-84786197D01*
X147856903Y-85447702D01*
X147928486Y-85691671D01*
X148183996Y-85812571D01*
X148458184Y-85881300D01*
X148740512Y-85895217D01*
X149020130Y-85853787D01*
X149286292Y-85758603D01*
X149302092Y-85750158D01*
X149433996Y-85812571D01*
X149708184Y-85881300D01*
X149990512Y-85895217D01*
X150270130Y-85853787D01*
X150536292Y-85758603D01*
X150661514Y-85691671D01*
X150733097Y-85447702D01*
X150067421Y-84782026D01*
X150096300Y-84666816D01*
X150106406Y-84461801D01*
X150912702Y-85268097D01*
X151156671Y-85196514D01*
X151170324Y-85167659D01*
X151305363Y-85369759D01*
X151505241Y-85569637D01*
X151740273Y-85726680D01*
X152001426Y-85834853D01*
X152278665Y-85890000D01*
X152561335Y-85890000D01*
X152838574Y-85834853D01*
X153045000Y-85749349D01*
X153251426Y-85834853D01*
X153528665Y-85890000D01*
X153811335Y-85890000D01*
X154088574Y-85834853D01*
X154269285Y-85760000D01*
X159651928Y-85760000D01*
X159651928Y-86960000D01*
X159668992Y-87133254D01*
X159719528Y-87299850D01*
X159801595Y-87453386D01*
X159912038Y-87587962D01*
X160046614Y-87698405D01*
X160148593Y-87752914D01*
X160148205Y-87753198D01*
X159951336Y-87967954D01*
X159800146Y-88216991D01*
X159700446Y-88490739D01*
X159698524Y-88503110D01*
X159819845Y-88733000D01*
X161163000Y-88733000D01*
X161163000Y-88713000D01*
X161417000Y-88713000D01*
X161417000Y-88733000D01*
X162760155Y-88733000D01*
X162881476Y-88503110D01*
X162879554Y-88490739D01*
X162779854Y-88216991D01*
X162628664Y-87967954D01*
X162431795Y-87753198D01*
X162431407Y-87752914D01*
X162533386Y-87698405D01*
X162667962Y-87587962D01*
X162778405Y-87453386D01*
X162860472Y-87299850D01*
X162911008Y-87133254D01*
X162928072Y-86960000D01*
X162928072Y-85760000D01*
X162911008Y-85586746D01*
X162860472Y-85420150D01*
X162778405Y-85266614D01*
X162667962Y-85132038D01*
X162533386Y-85021595D01*
X162379850Y-84939528D01*
X162213254Y-84888992D01*
X162040000Y-84871928D01*
X160540000Y-84871928D01*
X160366746Y-84888992D01*
X160200150Y-84939528D01*
X160046614Y-85021595D01*
X159912038Y-85132038D01*
X159801595Y-85266614D01*
X159719528Y-85420150D01*
X159668992Y-85586746D01*
X159651928Y-85760000D01*
X154269285Y-85760000D01*
X154349727Y-85726680D01*
X154584759Y-85569637D01*
X154784637Y-85369759D01*
X154941680Y-85134727D01*
X155049853Y-84873574D01*
X155105000Y-84596335D01*
X155105000Y-84313665D01*
X155049853Y-84036426D01*
X154941680Y-83775273D01*
X154784637Y-83540241D01*
X154584759Y-83340363D01*
X154349727Y-83183320D01*
X154088574Y-83075147D01*
X153811335Y-83020000D01*
X153528665Y-83020000D01*
X153251426Y-83075147D01*
X153045000Y-83160651D01*
X152838574Y-83075147D01*
X152561335Y-83020000D01*
X152278665Y-83020000D01*
X152001426Y-83075147D01*
X151740273Y-83183320D01*
X151505241Y-83340363D01*
X151305363Y-83540241D01*
X151171308Y-83740869D01*
X151156671Y-83713486D01*
X150912702Y-83641903D01*
X150107111Y-84447494D01*
X150110217Y-84384488D01*
X150071592Y-84123803D01*
X150733097Y-83462298D01*
X150661514Y-83218329D01*
X150406004Y-83097429D01*
X150131816Y-83028700D01*
X149849488Y-83014783D01*
X149569870Y-83056213D01*
X149303708Y-83151397D01*
X149287908Y-83159842D01*
X149156004Y-83097429D01*
X148881816Y-83028700D01*
X148599488Y-83014783D01*
X148319870Y-83056213D01*
X148053708Y-83151397D01*
X147928486Y-83218329D01*
X147856903Y-83462298D01*
X148522579Y-84127974D01*
X148493700Y-84243184D01*
X148483594Y-84448199D01*
X147677298Y-83641903D01*
X147433329Y-83713486D01*
X147312429Y-83968996D01*
X147243700Y-84243184D01*
X147229783Y-84525512D01*
X143125000Y-84525512D01*
X143125000Y-80714413D01*
X143275500Y-80934895D01*
X143477161Y-81132601D01*
X143713517Y-81287166D01*
X143975486Y-81392650D01*
X144253000Y-81445000D01*
X144653000Y-81445000D01*
X144653000Y-80137000D01*
X144907000Y-80137000D01*
X144907000Y-81445000D01*
X145307000Y-81445000D01*
X145584514Y-81392650D01*
X145846483Y-81287166D01*
X146082839Y-81132601D01*
X146284500Y-80934895D01*
X146443715Y-80701646D01*
X146520000Y-80522517D01*
X146520000Y-80786335D01*
X146575147Y-81063574D01*
X146683320Y-81324727D01*
X146840363Y-81559759D01*
X147040241Y-81759637D01*
X147275273Y-81916680D01*
X147536426Y-82024853D01*
X147813665Y-82080000D01*
X148096335Y-82080000D01*
X148373574Y-82024853D01*
X148634727Y-81916680D01*
X148869759Y-81759637D01*
X149069637Y-81559759D01*
X149226680Y-81324727D01*
X149334853Y-81063574D01*
X149390000Y-80786335D01*
X149390000Y-80503665D01*
X154140000Y-80503665D01*
X154140000Y-80786335D01*
X154195147Y-81063574D01*
X154303320Y-81324727D01*
X154460363Y-81559759D01*
X154660241Y-81759637D01*
X154895273Y-81916680D01*
X155156426Y-82024853D01*
X155433665Y-82080000D01*
X155716335Y-82080000D01*
X155993574Y-82024853D01*
X156254727Y-81916680D01*
X156489759Y-81759637D01*
X156689637Y-81559759D01*
X156846680Y-81324727D01*
X156954853Y-81063574D01*
X157010000Y-80786335D01*
X157010000Y-80503665D01*
X156954853Y-80226426D01*
X156846680Y-79965273D01*
X156689637Y-79730241D01*
X156489759Y-79530363D01*
X156254727Y-79373320D01*
X155993574Y-79265147D01*
X155716335Y-79210000D01*
X155433665Y-79210000D01*
X155156426Y-79265147D01*
X154895273Y-79373320D01*
X154660241Y-79530363D01*
X154460363Y-79730241D01*
X154303320Y-79965273D01*
X154195147Y-80226426D01*
X154140000Y-80503665D01*
X149390000Y-80503665D01*
X149334853Y-80226426D01*
X149226680Y-79965273D01*
X149069637Y-79730241D01*
X148869759Y-79530363D01*
X148634727Y-79373320D01*
X148373574Y-79265147D01*
X148096335Y-79210000D01*
X147813665Y-79210000D01*
X147536426Y-79265147D01*
X147275273Y-79373320D01*
X147040241Y-79530363D01*
X146840363Y-79730241D01*
X146683320Y-79965273D01*
X146575147Y-80226426D01*
X146554918Y-80328122D01*
X146449915Y-80137000D01*
X144907000Y-80137000D01*
X144653000Y-80137000D01*
X144633000Y-80137000D01*
X144633000Y-79883000D01*
X144653000Y-79883000D01*
X144653000Y-79863000D01*
X144907000Y-79863000D01*
X144907000Y-79883000D01*
X146449915Y-79883000D01*
X146571904Y-79660961D01*
X146554367Y-79578182D01*
X146443715Y-79318354D01*
X146284500Y-79085105D01*
X146082839Y-78887399D01*
X145853259Y-78737265D01*
X145981101Y-78668932D01*
X146199608Y-78489608D01*
X146378932Y-78271101D01*
X146512182Y-78021808D01*
X146566217Y-77843678D01*
X146575147Y-77888574D01*
X146683320Y-78149727D01*
X146840363Y-78384759D01*
X147040241Y-78584637D01*
X147275273Y-78741680D01*
X147536426Y-78849853D01*
X147813665Y-78905000D01*
X148096335Y-78905000D01*
X148373574Y-78849853D01*
X148634727Y-78741680D01*
X148869759Y-78584637D01*
X149069637Y-78384759D01*
X149226680Y-78149727D01*
X149334853Y-77888574D01*
X149390000Y-77611335D01*
X149390000Y-77328665D01*
X154140000Y-77328665D01*
X154140000Y-77611335D01*
X154195147Y-77888574D01*
X154303320Y-78149727D01*
X154460363Y-78384759D01*
X154660241Y-78584637D01*
X154895273Y-78741680D01*
X155156426Y-78849853D01*
X155433665Y-78905000D01*
X155716335Y-78905000D01*
X155993574Y-78849853D01*
X156254727Y-78741680D01*
X156489759Y-78584637D01*
X156689637Y-78384759D01*
X156846680Y-78149727D01*
X156954853Y-77888574D01*
X157010000Y-77611335D01*
X157010000Y-77328665D01*
X156954853Y-77051426D01*
X156846680Y-76790273D01*
X156689637Y-76555241D01*
X156489759Y-76355363D01*
X156254727Y-76198320D01*
X155993574Y-76090147D01*
X155716335Y-76035000D01*
X155433665Y-76035000D01*
X155156426Y-76090147D01*
X154895273Y-76198320D01*
X154660241Y-76355363D01*
X154460363Y-76555241D01*
X154303320Y-76790273D01*
X154195147Y-77051426D01*
X154140000Y-77328665D01*
X149390000Y-77328665D01*
X149334853Y-77051426D01*
X149226680Y-76790273D01*
X149069637Y-76555241D01*
X148869759Y-76355363D01*
X148634727Y-76198320D01*
X148373574Y-76090147D01*
X148096335Y-76035000D01*
X147813665Y-76035000D01*
X147536426Y-76090147D01*
X147275273Y-76198320D01*
X147040241Y-76355363D01*
X146840363Y-76555241D01*
X146683320Y-76790273D01*
X146575147Y-77051426D01*
X146566217Y-77096322D01*
X146512182Y-76918192D01*
X146378932Y-76668899D01*
X146199608Y-76450392D01*
X145981101Y-76271068D01*
X145848142Y-76200000D01*
X145981101Y-76128932D01*
X146199608Y-75949608D01*
X146378932Y-75731101D01*
X146512182Y-75481808D01*
X146594236Y-75211309D01*
X146621943Y-74930000D01*
X146608575Y-74794277D01*
X146683320Y-74974727D01*
X146840363Y-75209759D01*
X147040241Y-75409637D01*
X147275273Y-75566680D01*
X147536426Y-75674853D01*
X147813665Y-75730000D01*
X148096335Y-75730000D01*
X148373574Y-75674853D01*
X148634727Y-75566680D01*
X148869759Y-75409637D01*
X149069637Y-75209759D01*
X149226680Y-74974727D01*
X149334853Y-74713574D01*
X149390000Y-74436335D01*
X149390000Y-74153665D01*
X154140000Y-74153665D01*
X154140000Y-74436335D01*
X154195147Y-74713574D01*
X154303320Y-74974727D01*
X154460363Y-75209759D01*
X154660241Y-75409637D01*
X154895273Y-75566680D01*
X155156426Y-75674853D01*
X155433665Y-75730000D01*
X155716335Y-75730000D01*
X155993574Y-75674853D01*
X156254727Y-75566680D01*
X156489759Y-75409637D01*
X156652506Y-75246890D01*
X159698524Y-75246890D01*
X159700446Y-75259261D01*
X159800146Y-75533009D01*
X159951336Y-75782046D01*
X160148205Y-75996802D01*
X160383188Y-76169025D01*
X160647255Y-76292096D01*
X160930258Y-76361285D01*
X161163000Y-76217232D01*
X161163000Y-75017000D01*
X161417000Y-75017000D01*
X161417000Y-76217232D01*
X161649742Y-76361285D01*
X161932745Y-76292096D01*
X162196812Y-76169025D01*
X162431795Y-75996802D01*
X162628664Y-75782046D01*
X162779854Y-75533009D01*
X162879554Y-75259261D01*
X162881476Y-75246890D01*
X162760155Y-75017000D01*
X161417000Y-75017000D01*
X161163000Y-75017000D01*
X159819845Y-75017000D01*
X159698524Y-75246890D01*
X156652506Y-75246890D01*
X156689637Y-75209759D01*
X156846680Y-74974727D01*
X156954853Y-74713574D01*
X157010000Y-74436335D01*
X157010000Y-74153665D01*
X156954853Y-73876426D01*
X156846680Y-73615273D01*
X156689637Y-73380241D01*
X156489759Y-73180363D01*
X156254727Y-73023320D01*
X155993574Y-72915147D01*
X155716335Y-72860000D01*
X155433665Y-72860000D01*
X155156426Y-72915147D01*
X154895273Y-73023320D01*
X154660241Y-73180363D01*
X154460363Y-73380241D01*
X154303320Y-73615273D01*
X154195147Y-73876426D01*
X154140000Y-74153665D01*
X149390000Y-74153665D01*
X149334853Y-73876426D01*
X149226680Y-73615273D01*
X149069637Y-73380241D01*
X148869759Y-73180363D01*
X148634727Y-73023320D01*
X148373574Y-72915147D01*
X148096335Y-72860000D01*
X147813665Y-72860000D01*
X147536426Y-72915147D01*
X147275273Y-73023320D01*
X147040241Y-73180363D01*
X146840363Y-73380241D01*
X146683320Y-73615273D01*
X146575147Y-73876426D01*
X146520000Y-74153665D01*
X146520000Y-74403965D01*
X146512182Y-74378192D01*
X146378932Y-74128899D01*
X146199608Y-73910392D01*
X145981101Y-73731068D01*
X145848142Y-73660000D01*
X145981101Y-73588932D01*
X146199608Y-73409608D01*
X146378932Y-73191101D01*
X146512182Y-72941808D01*
X146594236Y-72671309D01*
X146621943Y-72390000D01*
X146594236Y-72108691D01*
X146512182Y-71838192D01*
X146486423Y-71790000D01*
X159651928Y-71790000D01*
X159651928Y-72990000D01*
X159668992Y-73163254D01*
X159719528Y-73329850D01*
X159801595Y-73483386D01*
X159912038Y-73617962D01*
X160046614Y-73728405D01*
X160148593Y-73782914D01*
X160148205Y-73783198D01*
X159951336Y-73997954D01*
X159800146Y-74246991D01*
X159700446Y-74520739D01*
X159698524Y-74533110D01*
X159819845Y-74763000D01*
X161163000Y-74763000D01*
X161163000Y-74743000D01*
X161417000Y-74743000D01*
X161417000Y-74763000D01*
X162760155Y-74763000D01*
X162881476Y-74533110D01*
X162879554Y-74520739D01*
X162779854Y-74246991D01*
X162628664Y-73997954D01*
X162431795Y-73783198D01*
X162431407Y-73782914D01*
X162533386Y-73728405D01*
X162667962Y-73617962D01*
X162778405Y-73483386D01*
X162860472Y-73329850D01*
X162911008Y-73163254D01*
X162928072Y-72990000D01*
X162928072Y-71790000D01*
X162911008Y-71616746D01*
X162860472Y-71450150D01*
X162778405Y-71296614D01*
X162667962Y-71162038D01*
X162533386Y-71051595D01*
X162379850Y-70969528D01*
X162213254Y-70918992D01*
X162040000Y-70901928D01*
X160540000Y-70901928D01*
X160366746Y-70918992D01*
X160200150Y-70969528D01*
X160046614Y-71051595D01*
X159912038Y-71162038D01*
X159801595Y-71296614D01*
X159719528Y-71450150D01*
X159668992Y-71616746D01*
X159651928Y-71790000D01*
X146486423Y-71790000D01*
X146378932Y-71588899D01*
X146199608Y-71370392D01*
X145981101Y-71191068D01*
X145731808Y-71057818D01*
X145705000Y-71049686D01*
X145705000Y-70349521D01*
X145734759Y-70329637D01*
X145856694Y-70207702D01*
X146506903Y-70207702D01*
X146578486Y-70451671D01*
X146833996Y-70572571D01*
X147108184Y-70641300D01*
X147390512Y-70655217D01*
X147670130Y-70613787D01*
X147936292Y-70518603D01*
X148061514Y-70451671D01*
X148133097Y-70207702D01*
X147320000Y-69394605D01*
X146506903Y-70207702D01*
X145856694Y-70207702D01*
X145934637Y-70129759D01*
X146068692Y-69929131D01*
X146083329Y-69956514D01*
X146327298Y-70028097D01*
X147140395Y-69215000D01*
X147499605Y-69215000D01*
X148312702Y-70028097D01*
X148425717Y-69994937D01*
X148480147Y-70268574D01*
X148588320Y-70529727D01*
X148745363Y-70764759D01*
X148945241Y-70964637D01*
X149180273Y-71121680D01*
X149441426Y-71229853D01*
X149718665Y-71285000D01*
X150001335Y-71285000D01*
X150278574Y-71229853D01*
X150485000Y-71144349D01*
X150691426Y-71229853D01*
X150968665Y-71285000D01*
X151251335Y-71285000D01*
X151528574Y-71229853D01*
X151789727Y-71121680D01*
X152024759Y-70964637D01*
X152224637Y-70764759D01*
X152360000Y-70562173D01*
X152495363Y-70764759D01*
X152695241Y-70964637D01*
X152930273Y-71121680D01*
X153191426Y-71229853D01*
X153468665Y-71285000D01*
X153751335Y-71285000D01*
X154028574Y-71229853D01*
X154235000Y-71144349D01*
X154441426Y-71229853D01*
X154718665Y-71285000D01*
X155001335Y-71285000D01*
X155278574Y-71229853D01*
X155539727Y-71121680D01*
X155774759Y-70964637D01*
X155974637Y-70764759D01*
X156131680Y-70529727D01*
X156239853Y-70268574D01*
X156295000Y-69991335D01*
X156295000Y-69708665D01*
X156239853Y-69431426D01*
X156131680Y-69170273D01*
X155974637Y-68935241D01*
X155774759Y-68735363D01*
X155539727Y-68578320D01*
X155278574Y-68470147D01*
X155001335Y-68415000D01*
X154718665Y-68415000D01*
X154441426Y-68470147D01*
X154235000Y-68555651D01*
X154028574Y-68470147D01*
X153751335Y-68415000D01*
X153468665Y-68415000D01*
X153191426Y-68470147D01*
X152930273Y-68578320D01*
X152695241Y-68735363D01*
X152495363Y-68935241D01*
X152360000Y-69137827D01*
X152224637Y-68935241D01*
X152024759Y-68735363D01*
X151789727Y-68578320D01*
X151528574Y-68470147D01*
X151251335Y-68415000D01*
X150968665Y-68415000D01*
X150691426Y-68470147D01*
X150485000Y-68555651D01*
X150278574Y-68470147D01*
X150001335Y-68415000D01*
X149718665Y-68415000D01*
X149441426Y-68470147D01*
X149180273Y-68578320D01*
X148945241Y-68735363D01*
X148745363Y-68935241D01*
X148732145Y-68955024D01*
X148718787Y-68864870D01*
X148623603Y-68598708D01*
X148556671Y-68473486D01*
X148312702Y-68401903D01*
X147499605Y-69215000D01*
X147140395Y-69215000D01*
X146327298Y-68401903D01*
X146083329Y-68473486D01*
X146069676Y-68502341D01*
X145934637Y-68300241D01*
X145856694Y-68222298D01*
X146506903Y-68222298D01*
X147320000Y-69035395D01*
X148133097Y-68222298D01*
X148061514Y-67978329D01*
X147806004Y-67857429D01*
X147531816Y-67788700D01*
X147249488Y-67774783D01*
X146969870Y-67816213D01*
X146703708Y-67911397D01*
X146578486Y-67978329D01*
X146506903Y-68222298D01*
X145856694Y-68222298D01*
X145734759Y-68100363D01*
X145499727Y-67943320D01*
X145238574Y-67835147D01*
X144961335Y-67780000D01*
X144678665Y-67780000D01*
X144401426Y-67835147D01*
X144140273Y-67943320D01*
X143905241Y-68100363D01*
X143705363Y-68300241D01*
X143548320Y-68535273D01*
X143440147Y-68796426D01*
X143385000Y-69073665D01*
X143385000Y-69356335D01*
X143440147Y-69633574D01*
X143548320Y-69894727D01*
X143705363Y-70129759D01*
X143905241Y-70329637D01*
X143935000Y-70349522D01*
X143935001Y-71025418D01*
X143828192Y-71057818D01*
X143578899Y-71191068D01*
X143360392Y-71370392D01*
X143207228Y-71557023D01*
X143169687Y-71568411D01*
X143015941Y-71650589D01*
X143015939Y-71650590D01*
X143015940Y-71650590D01*
X142914953Y-71733468D01*
X142914951Y-71733470D01*
X142881183Y-71761183D01*
X142853470Y-71794951D01*
X141644951Y-73003471D01*
X141611184Y-73031183D01*
X141583471Y-73064951D01*
X141583468Y-73064954D01*
X141500590Y-73165941D01*
X141418412Y-73319687D01*
X141367805Y-73486510D01*
X141350719Y-73660000D01*
X141355001Y-73703479D01*
X141355000Y-91396531D01*
X141350719Y-91440000D01*
X141355000Y-91483469D01*
X141355000Y-91483476D01*
X141367805Y-91613489D01*
X141418411Y-91780312D01*
X141500589Y-91934058D01*
X141611183Y-92068817D01*
X141644956Y-92096534D01*
X142258421Y-92710000D01*
X141644951Y-93323471D01*
X141611184Y-93351183D01*
X141583471Y-93384951D01*
X141583468Y-93384954D01*
X141500590Y-93485941D01*
X141418412Y-93639687D01*
X141367805Y-93806510D01*
X141350719Y-93980000D01*
X141355001Y-94023479D01*
X141355000Y-107906531D01*
X141350719Y-107950000D01*
X141355000Y-107993469D01*
X141355000Y-107993476D01*
X141358370Y-108027688D01*
X141367805Y-108123490D01*
X141377643Y-108155920D01*
X141418411Y-108290312D01*
X141500589Y-108444058D01*
X141611183Y-108578817D01*
X141644956Y-108606534D01*
X142081983Y-109043561D01*
X142075000Y-109078665D01*
X142075000Y-109361335D01*
X142130147Y-109638574D01*
X142238320Y-109899727D01*
X142395363Y-110134759D01*
X142595241Y-110334637D01*
X142625001Y-110354522D01*
X142625000Y-114007889D01*
X142570150Y-114024528D01*
X142416614Y-114106595D01*
X142282038Y-114217038D01*
X142171595Y-114351614D01*
X142115286Y-114456961D01*
X142099049Y-114435571D01*
X141881193Y-114242504D01*
X141629858Y-114095648D01*
X141366890Y-114003524D01*
X141137000Y-114124845D01*
X140883000Y-114124845D01*
X140653110Y-114003524D01*
X140390142Y-114095648D01*
X140138807Y-114242504D01*
X139920951Y-114435571D01*
X139764462Y-114641722D01*
X139750706Y-114615986D01*
X139565134Y-114389866D01*
X139395000Y-114250241D01*
X139395000Y-110284396D01*
X139544637Y-110134759D01*
X139701680Y-109899727D01*
X139752269Y-109777593D01*
X139804411Y-109714059D01*
X139886589Y-109560313D01*
X139937195Y-109393490D01*
X139954282Y-109220000D01*
X139937195Y-109046510D01*
X139918080Y-108983498D01*
X140295050Y-108606529D01*
X140328817Y-108578817D01*
X140356533Y-108545046D01*
X140439410Y-108444060D01*
X140439411Y-108444059D01*
X140521589Y-108290313D01*
X140572195Y-108123490D01*
X140585000Y-107993477D01*
X140585000Y-107993467D01*
X140589281Y-107950001D01*
X140585000Y-107906535D01*
X140585000Y-101643465D01*
X140589281Y-101599999D01*
X140585000Y-101556533D01*
X140585000Y-101556523D01*
X140572195Y-101426510D01*
X140521589Y-101259687D01*
X140439411Y-101105941D01*
X140374241Y-101026532D01*
X140356532Y-101004953D01*
X140356530Y-101004951D01*
X140328817Y-100971183D01*
X140295049Y-100943470D01*
X139681578Y-100330000D01*
X140295050Y-99716529D01*
X140328817Y-99688817D01*
X140370232Y-99638354D01*
X140439410Y-99554060D01*
X140439411Y-99554059D01*
X140521589Y-99400313D01*
X140572195Y-99233490D01*
X140585000Y-99103477D01*
X140585000Y-99103467D01*
X140589281Y-99060001D01*
X140585000Y-99016535D01*
X140585000Y-85768477D01*
X140589282Y-85725000D01*
X140572195Y-85551510D01*
X140521589Y-85384687D01*
X140439411Y-85230941D01*
X140328817Y-85096183D01*
X140194059Y-84985589D01*
X140147032Y-84960453D01*
X138548017Y-83361439D01*
X138555000Y-83326335D01*
X138555000Y-83043665D01*
X138499853Y-82766426D01*
X138391680Y-82505273D01*
X138234637Y-82270241D01*
X138034759Y-82070363D01*
X138005000Y-82050479D01*
X138005000Y-81374581D01*
X138111808Y-81342182D01*
X138361101Y-81208932D01*
X138579608Y-81029608D01*
X138758932Y-80811101D01*
X138892182Y-80561808D01*
X138974236Y-80291309D01*
X139001943Y-80010000D01*
X138974236Y-79728691D01*
X138892182Y-79458192D01*
X138758932Y-79208899D01*
X138579608Y-78990392D01*
X138361101Y-78811068D01*
X138233259Y-78742735D01*
X138462839Y-78592601D01*
X138664500Y-78394895D01*
X138823715Y-78161646D01*
X138934367Y-77901818D01*
X138951904Y-77819039D01*
X138829915Y-77597000D01*
X137287000Y-77597000D01*
X137287000Y-77617000D01*
X137033000Y-77617000D01*
X137033000Y-77597000D01*
X135490085Y-77597000D01*
X135385082Y-77788122D01*
X135364853Y-77686426D01*
X135256680Y-77425273D01*
X135099637Y-77190241D01*
X134899759Y-76990363D01*
X134664727Y-76833320D01*
X134403574Y-76725147D01*
X134126335Y-76670000D01*
X133843665Y-76670000D01*
X133566426Y-76725147D01*
X133305273Y-76833320D01*
X133070241Y-76990363D01*
X132870363Y-77190241D01*
X132713320Y-77425273D01*
X132605147Y-77686426D01*
X132550000Y-77963665D01*
X132550000Y-78246335D01*
X132605147Y-78523574D01*
X132713320Y-78784727D01*
X132870363Y-79019759D01*
X133070241Y-79219637D01*
X133305273Y-79376680D01*
X133566426Y-79484853D01*
X133843665Y-79540000D01*
X134126335Y-79540000D01*
X134403574Y-79484853D01*
X134664727Y-79376680D01*
X134899759Y-79219637D01*
X135099637Y-79019759D01*
X135256680Y-78784727D01*
X135364853Y-78523574D01*
X135420000Y-78246335D01*
X135420000Y-77982517D01*
X135496285Y-78161646D01*
X135655500Y-78394895D01*
X135857161Y-78592601D01*
X136086741Y-78742735D01*
X135958899Y-78811068D01*
X135740392Y-78990392D01*
X135561068Y-79208899D01*
X135427818Y-79458192D01*
X135345764Y-79728691D01*
X135318057Y-80010000D01*
X135345764Y-80291309D01*
X135427818Y-80561808D01*
X135561068Y-80811101D01*
X135740392Y-81029608D01*
X135958899Y-81208932D01*
X136208192Y-81342182D01*
X136235001Y-81350314D01*
X136235000Y-82050478D01*
X136205241Y-82070363D01*
X136005363Y-82270241D01*
X135871308Y-82470869D01*
X135856671Y-82443486D01*
X135612702Y-82371903D01*
X134799605Y-83185000D01*
X135612702Y-83998097D01*
X135856671Y-83926514D01*
X135870324Y-83897659D01*
X136005363Y-84099759D01*
X136205241Y-84299637D01*
X136440273Y-84456680D01*
X136701426Y-84564853D01*
X136978665Y-84620000D01*
X137261335Y-84620000D01*
X137296439Y-84613017D01*
X138815001Y-86131580D01*
X138815001Y-91463464D01*
X138811185Y-91458815D01*
X138714494Y-91379463D01*
X138604180Y-91320498D01*
X138484482Y-91284188D01*
X138360000Y-91271928D01*
X135960000Y-91271928D01*
X135835518Y-91284188D01*
X135715820Y-91320498D01*
X135605506Y-91379463D01*
X135508815Y-91458815D01*
X135429463Y-91555506D01*
X135370498Y-91665820D01*
X135368217Y-91673339D01*
X135364853Y-91656426D01*
X135256680Y-91395273D01*
X135099637Y-91160241D01*
X134899759Y-90960363D01*
X134664727Y-90803320D01*
X134403574Y-90695147D01*
X134126335Y-90640000D01*
X133843665Y-90640000D01*
X133566426Y-90695147D01*
X133305273Y-90803320D01*
X133070241Y-90960363D01*
X132870363Y-91160241D01*
X132713320Y-91395273D01*
X132605147Y-91656426D01*
X132550000Y-91933665D01*
X132550000Y-92216335D01*
X132605147Y-92493574D01*
X132713320Y-92754727D01*
X132870363Y-92989759D01*
X133070241Y-93189637D01*
X133305273Y-93346680D01*
X133566426Y-93454853D01*
X133843665Y-93510000D01*
X134126335Y-93510000D01*
X134403574Y-93454853D01*
X134664727Y-93346680D01*
X134899759Y-93189637D01*
X135099637Y-92989759D01*
X135256680Y-92754727D01*
X135321928Y-92597204D01*
X135321928Y-93510000D01*
X135334188Y-93634482D01*
X135370498Y-93754180D01*
X135429463Y-93864494D01*
X135508815Y-93961185D01*
X135605506Y-94040537D01*
X135715820Y-94099502D01*
X135835518Y-94135812D01*
X135853482Y-94137581D01*
X135740392Y-94230392D01*
X135561068Y-94448899D01*
X135427818Y-94698192D01*
X135373783Y-94876322D01*
X135364853Y-94831426D01*
X135256680Y-94570273D01*
X135099637Y-94335241D01*
X134899759Y-94135363D01*
X134664727Y-93978320D01*
X134403574Y-93870147D01*
X134126335Y-93815000D01*
X133843665Y-93815000D01*
X133566426Y-93870147D01*
X133305273Y-93978320D01*
X133070241Y-94135363D01*
X132870363Y-94335241D01*
X132713320Y-94570273D01*
X132605147Y-94831426D01*
X132550000Y-95108665D01*
X132550000Y-95391335D01*
X132605147Y-95668574D01*
X132713320Y-95929727D01*
X132870363Y-96164759D01*
X133070241Y-96364637D01*
X133305273Y-96521680D01*
X133566426Y-96629853D01*
X133843665Y-96685000D01*
X134126335Y-96685000D01*
X134403574Y-96629853D01*
X134664727Y-96521680D01*
X134899759Y-96364637D01*
X135099637Y-96164759D01*
X135256680Y-95929727D01*
X135364853Y-95668574D01*
X135373783Y-95623678D01*
X135427818Y-95801808D01*
X135561068Y-96051101D01*
X135740392Y-96269608D01*
X135958899Y-96448932D01*
X136086741Y-96517265D01*
X135857161Y-96667399D01*
X135655500Y-96865105D01*
X135496285Y-97098354D01*
X135385633Y-97358182D01*
X135368096Y-97440961D01*
X135490085Y-97663000D01*
X137033000Y-97663000D01*
X137033000Y-97643000D01*
X137287000Y-97643000D01*
X137287000Y-97663000D01*
X137307000Y-97663000D01*
X137307000Y-97917000D01*
X137287000Y-97917000D01*
X137287000Y-97937000D01*
X137033000Y-97937000D01*
X137033000Y-97917000D01*
X135490085Y-97917000D01*
X135385082Y-98108122D01*
X135364853Y-98006426D01*
X135256680Y-97745273D01*
X135099637Y-97510241D01*
X134899759Y-97310363D01*
X134664727Y-97153320D01*
X134403574Y-97045147D01*
X134126335Y-96990000D01*
X133843665Y-96990000D01*
X133566426Y-97045147D01*
X133305273Y-97153320D01*
X133070241Y-97310363D01*
X132870363Y-97510241D01*
X132713320Y-97745273D01*
X132605147Y-98006426D01*
X132550000Y-98283665D01*
X132550000Y-98566335D01*
X132605147Y-98843574D01*
X132713320Y-99104727D01*
X132870363Y-99339759D01*
X133070241Y-99539637D01*
X133305273Y-99696680D01*
X133566426Y-99804853D01*
X133843665Y-99860000D01*
X134126335Y-99860000D01*
X134403574Y-99804853D01*
X134664727Y-99696680D01*
X134899759Y-99539637D01*
X135099637Y-99339759D01*
X135256680Y-99104727D01*
X135364853Y-98843574D01*
X135420000Y-98566335D01*
X135420000Y-98302517D01*
X135496285Y-98481646D01*
X135655500Y-98714895D01*
X135857161Y-98912601D01*
X136086741Y-99062735D01*
X135958899Y-99131068D01*
X135740392Y-99310392D01*
X135561068Y-99528899D01*
X135427818Y-99778192D01*
X135345764Y-100048691D01*
X135318057Y-100330000D01*
X135345764Y-100611309D01*
X135427818Y-100881808D01*
X135561068Y-101131101D01*
X135740392Y-101349608D01*
X135958899Y-101528932D01*
X136208192Y-101662182D01*
X136275000Y-101682448D01*
X136275001Y-102343751D01*
X136205241Y-102390363D01*
X136005363Y-102590241D01*
X135871308Y-102790869D01*
X135856671Y-102763486D01*
X135612702Y-102691903D01*
X134799605Y-103505000D01*
X135612702Y-104318097D01*
X135856671Y-104246514D01*
X135870324Y-104217659D01*
X136005363Y-104419759D01*
X136205241Y-104619637D01*
X136440273Y-104776680D01*
X136701426Y-104884853D01*
X136978665Y-104940000D01*
X137261335Y-104940000D01*
X137538574Y-104884853D01*
X137799727Y-104776680D01*
X138034759Y-104619637D01*
X138234637Y-104419759D01*
X138391680Y-104184727D01*
X138499853Y-103923574D01*
X138555000Y-103646335D01*
X138555000Y-103363665D01*
X138499853Y-103086426D01*
X138391680Y-102825273D01*
X138234637Y-102590241D01*
X138045000Y-102400604D01*
X138045000Y-101682448D01*
X138111808Y-101662182D01*
X138361101Y-101528932D01*
X138370028Y-101521606D01*
X138815001Y-101966580D01*
X138815000Y-107583421D01*
X138606439Y-107791983D01*
X138571335Y-107785000D01*
X138288665Y-107785000D01*
X138011426Y-107840147D01*
X137750273Y-107948320D01*
X137515241Y-108105363D01*
X137315363Y-108305241D01*
X137158320Y-108540273D01*
X137050147Y-108801426D01*
X136995000Y-109078665D01*
X136995000Y-109361335D01*
X137050147Y-109638574D01*
X137158320Y-109899727D01*
X137315363Y-110134759D01*
X137515241Y-110334637D01*
X137625001Y-110407976D01*
X137625000Y-114250241D01*
X137454866Y-114389866D01*
X137269294Y-114615986D01*
X137232405Y-114685000D01*
X133174521Y-114685000D01*
X133154637Y-114655241D01*
X132954759Y-114455363D01*
X132719727Y-114298320D01*
X132458574Y-114190147D01*
X132181335Y-114135000D01*
X131898665Y-114135000D01*
X131621426Y-114190147D01*
X131360273Y-114298320D01*
X131125241Y-114455363D01*
X130958661Y-114621943D01*
X130929502Y-114525820D01*
X130870537Y-114415506D01*
X130791185Y-114318815D01*
X130694494Y-114239463D01*
X130584180Y-114180498D01*
X130464482Y-114144188D01*
X130340000Y-114131928D01*
X129825750Y-114135000D01*
X129667000Y-114293750D01*
X129413000Y-114293750D01*
X129254250Y-114135000D01*
X128740000Y-114131928D01*
X128615518Y-114144188D01*
X128495820Y-114180498D01*
X128385506Y-114239463D01*
X128288815Y-114318815D01*
X128209463Y-114415506D01*
X128150498Y-114525820D01*
X128114188Y-114645518D01*
X128101928Y-114770000D01*
X118237000Y-114770000D01*
X118237000Y-109286553D01*
X124189009Y-109286553D01*
X124231603Y-109585907D01*
X124331778Y-109871199D01*
X124411739Y-110020792D01*
X124665920Y-110104475D01*
X125550395Y-109220000D01*
X124665920Y-108335525D01*
X124411739Y-108419208D01*
X124280842Y-108691775D01*
X124205635Y-108984642D01*
X124189009Y-109286553D01*
X118237000Y-109286553D01*
X118237000Y-108155920D01*
X124845525Y-108155920D01*
X125730000Y-109040395D01*
X125744143Y-109026253D01*
X125923748Y-109205858D01*
X125909605Y-109220000D01*
X125923748Y-109234143D01*
X125744143Y-109413748D01*
X125730000Y-109399605D01*
X124845525Y-110284080D01*
X124929208Y-110538261D01*
X125201775Y-110669158D01*
X125494642Y-110744365D01*
X125796553Y-110760991D01*
X126095907Y-110718397D01*
X126381199Y-110618222D01*
X126530792Y-110538261D01*
X126614474Y-110284082D01*
X126730422Y-110400030D01*
X126777187Y-110353265D01*
X126780498Y-110364180D01*
X126839463Y-110474494D01*
X126918815Y-110571185D01*
X127015506Y-110650537D01*
X127125820Y-110709502D01*
X127245518Y-110745812D01*
X127370000Y-110758072D01*
X129170000Y-110758072D01*
X129294482Y-110745812D01*
X129414180Y-110709502D01*
X129524494Y-110650537D01*
X129621185Y-110571185D01*
X129700537Y-110474494D01*
X129759502Y-110364180D01*
X129795812Y-110244482D01*
X129796643Y-110236039D01*
X129895241Y-110334637D01*
X130130273Y-110491680D01*
X130391426Y-110599853D01*
X130668665Y-110655000D01*
X130951335Y-110655000D01*
X131228574Y-110599853D01*
X131489727Y-110491680D01*
X131724759Y-110334637D01*
X131924637Y-110134759D01*
X132081680Y-109899727D01*
X132189853Y-109638574D01*
X132245000Y-109361335D01*
X132245000Y-109078665D01*
X132189853Y-108801426D01*
X132081680Y-108540273D01*
X131924637Y-108305241D01*
X131724759Y-108105363D01*
X131489727Y-107948320D01*
X131228574Y-107840147D01*
X130951335Y-107785000D01*
X130668665Y-107785000D01*
X130391426Y-107840147D01*
X130130273Y-107948320D01*
X129895241Y-108105363D01*
X129796643Y-108203961D01*
X129795812Y-108195518D01*
X129759502Y-108075820D01*
X129700537Y-107965506D01*
X129621185Y-107868815D01*
X129524494Y-107789463D01*
X129414180Y-107730498D01*
X129294482Y-107694188D01*
X129170000Y-107681928D01*
X127370000Y-107681928D01*
X127245518Y-107694188D01*
X127125820Y-107730498D01*
X127015506Y-107789463D01*
X126918815Y-107868815D01*
X126839463Y-107965506D01*
X126780498Y-108075820D01*
X126777187Y-108086735D01*
X126730422Y-108039970D01*
X126614474Y-108155918D01*
X126530792Y-107901739D01*
X126258225Y-107770842D01*
X125965358Y-107695635D01*
X125663447Y-107679009D01*
X125364093Y-107721603D01*
X125078801Y-107821778D01*
X124929208Y-107901739D01*
X124845525Y-108155920D01*
X118237000Y-108155920D01*
X118237000Y-104497702D01*
X133806903Y-104497702D01*
X133878486Y-104741671D01*
X134133996Y-104862571D01*
X134408184Y-104931300D01*
X134690512Y-104945217D01*
X134970130Y-104903787D01*
X135236292Y-104808603D01*
X135361514Y-104741671D01*
X135433097Y-104497702D01*
X134620000Y-103684605D01*
X133806903Y-104497702D01*
X118237000Y-104497702D01*
X118237000Y-102305512D01*
X125639783Y-102305512D01*
X125681213Y-102585130D01*
X125776397Y-102851292D01*
X125843329Y-102976514D01*
X126087298Y-103048097D01*
X126892889Y-102242506D01*
X126889783Y-102305512D01*
X126928408Y-102566197D01*
X126266903Y-103227702D01*
X126338486Y-103471671D01*
X126593996Y-103592571D01*
X126868184Y-103661300D01*
X127150512Y-103675217D01*
X127430130Y-103633787D01*
X127696292Y-103538603D01*
X127712092Y-103530158D01*
X127843996Y-103592571D01*
X128118184Y-103661300D01*
X128400512Y-103675217D01*
X128680130Y-103633787D01*
X128946292Y-103538603D01*
X129071514Y-103471671D01*
X129143097Y-103227702D01*
X128477421Y-102562026D01*
X128506300Y-102446816D01*
X128516406Y-102241801D01*
X129322702Y-103048097D01*
X129566671Y-102976514D01*
X129580324Y-102947659D01*
X129715363Y-103149759D01*
X129915241Y-103349637D01*
X130150273Y-103506680D01*
X130411426Y-103614853D01*
X130688665Y-103670000D01*
X130971335Y-103670000D01*
X131248574Y-103614853D01*
X131455000Y-103529349D01*
X131661426Y-103614853D01*
X131938665Y-103670000D01*
X132221335Y-103670000D01*
X132498574Y-103614853D01*
X132759727Y-103506680D01*
X132994759Y-103349637D01*
X133194637Y-103149759D01*
X133250673Y-103065895D01*
X133193700Y-103293184D01*
X133179783Y-103575512D01*
X133221213Y-103855130D01*
X133316397Y-104121292D01*
X133383329Y-104246514D01*
X133627298Y-104318097D01*
X134440395Y-103505000D01*
X133627298Y-102691903D01*
X133418614Y-102753133D01*
X133459853Y-102653574D01*
X133487954Y-102512298D01*
X133806903Y-102512298D01*
X134620000Y-103325395D01*
X135433097Y-102512298D01*
X135361514Y-102268329D01*
X135106004Y-102147429D01*
X134831816Y-102078700D01*
X134549488Y-102064783D01*
X134269870Y-102106213D01*
X134003708Y-102201397D01*
X133878486Y-102268329D01*
X133806903Y-102512298D01*
X133487954Y-102512298D01*
X133515000Y-102376335D01*
X133515000Y-102093665D01*
X133459853Y-101816426D01*
X133351680Y-101555273D01*
X133194637Y-101320241D01*
X132994759Y-101120363D01*
X132759727Y-100963320D01*
X132498574Y-100855147D01*
X132221335Y-100800000D01*
X131938665Y-100800000D01*
X131661426Y-100855147D01*
X131455000Y-100940651D01*
X131248574Y-100855147D01*
X130971335Y-100800000D01*
X130688665Y-100800000D01*
X130411426Y-100855147D01*
X130150273Y-100963320D01*
X129915241Y-101120363D01*
X129715363Y-101320241D01*
X129581308Y-101520869D01*
X129566671Y-101493486D01*
X129322702Y-101421903D01*
X128517111Y-102227494D01*
X128520217Y-102164488D01*
X128481592Y-101903803D01*
X129143097Y-101242298D01*
X129071514Y-100998329D01*
X128816004Y-100877429D01*
X128541816Y-100808700D01*
X128259488Y-100794783D01*
X127979870Y-100836213D01*
X127713708Y-100931397D01*
X127697908Y-100939842D01*
X127566004Y-100877429D01*
X127291816Y-100808700D01*
X127009488Y-100794783D01*
X126729870Y-100836213D01*
X126463708Y-100931397D01*
X126338486Y-100998329D01*
X126266903Y-101242298D01*
X126932579Y-101907974D01*
X126903700Y-102023184D01*
X126893594Y-102228199D01*
X126087298Y-101421903D01*
X125843329Y-101493486D01*
X125722429Y-101748996D01*
X125653700Y-102023184D01*
X125639783Y-102305512D01*
X118237000Y-102305512D01*
X118237000Y-97825000D01*
X119011928Y-97825000D01*
X119011928Y-99025000D01*
X119028992Y-99198254D01*
X119079528Y-99364850D01*
X119161595Y-99518386D01*
X119272038Y-99652962D01*
X119406614Y-99763405D01*
X119560150Y-99845472D01*
X119726746Y-99896008D01*
X119900000Y-99913072D01*
X121400000Y-99913072D01*
X121573254Y-99896008D01*
X121739850Y-99845472D01*
X121893386Y-99763405D01*
X122027962Y-99652962D01*
X122138405Y-99518386D01*
X122220472Y-99364850D01*
X122271008Y-99198254D01*
X122288072Y-99025000D01*
X122288072Y-98283665D01*
X124930000Y-98283665D01*
X124930000Y-98566335D01*
X124985147Y-98843574D01*
X125093320Y-99104727D01*
X125250363Y-99339759D01*
X125450241Y-99539637D01*
X125685273Y-99696680D01*
X125946426Y-99804853D01*
X126223665Y-99860000D01*
X126506335Y-99860000D01*
X126783574Y-99804853D01*
X127044727Y-99696680D01*
X127279759Y-99539637D01*
X127479637Y-99339759D01*
X127636680Y-99104727D01*
X127744853Y-98843574D01*
X127800000Y-98566335D01*
X127800000Y-98283665D01*
X127744853Y-98006426D01*
X127636680Y-97745273D01*
X127479637Y-97510241D01*
X127279759Y-97310363D01*
X127044727Y-97153320D01*
X126783574Y-97045147D01*
X126506335Y-96990000D01*
X126223665Y-96990000D01*
X125946426Y-97045147D01*
X125685273Y-97153320D01*
X125450241Y-97310363D01*
X125250363Y-97510241D01*
X125093320Y-97745273D01*
X124985147Y-98006426D01*
X124930000Y-98283665D01*
X122288072Y-98283665D01*
X122288072Y-97825000D01*
X122271008Y-97651746D01*
X122220472Y-97485150D01*
X122138405Y-97331614D01*
X122027962Y-97197038D01*
X121893386Y-97086595D01*
X121791407Y-97032086D01*
X121791795Y-97031802D01*
X121988664Y-96817046D01*
X122139854Y-96568009D01*
X122239554Y-96294261D01*
X122241476Y-96281890D01*
X122120155Y-96052000D01*
X120777000Y-96052000D01*
X120777000Y-96072000D01*
X120523000Y-96072000D01*
X120523000Y-96052000D01*
X119179845Y-96052000D01*
X119058524Y-96281890D01*
X119060446Y-96294261D01*
X119160146Y-96568009D01*
X119311336Y-96817046D01*
X119508205Y-97031802D01*
X119508593Y-97032086D01*
X119406614Y-97086595D01*
X119272038Y-97197038D01*
X119161595Y-97331614D01*
X119079528Y-97485150D01*
X119028992Y-97651746D01*
X119011928Y-97825000D01*
X118237000Y-97825000D01*
X118237000Y-95568110D01*
X119058524Y-95568110D01*
X119179845Y-95798000D01*
X120523000Y-95798000D01*
X120523000Y-94597768D01*
X120777000Y-94597768D01*
X120777000Y-95798000D01*
X122120155Y-95798000D01*
X122241476Y-95568110D01*
X122239554Y-95555739D01*
X122139854Y-95281991D01*
X122034629Y-95108665D01*
X124930000Y-95108665D01*
X124930000Y-95391335D01*
X124985147Y-95668574D01*
X125093320Y-95929727D01*
X125250363Y-96164759D01*
X125450241Y-96364637D01*
X125685273Y-96521680D01*
X125946426Y-96629853D01*
X126223665Y-96685000D01*
X126506335Y-96685000D01*
X126783574Y-96629853D01*
X127044727Y-96521680D01*
X127279759Y-96364637D01*
X127479637Y-96164759D01*
X127636680Y-95929727D01*
X127744853Y-95668574D01*
X127800000Y-95391335D01*
X127800000Y-95108665D01*
X127744853Y-94831426D01*
X127636680Y-94570273D01*
X127479637Y-94335241D01*
X127279759Y-94135363D01*
X127044727Y-93978320D01*
X126783574Y-93870147D01*
X126506335Y-93815000D01*
X126223665Y-93815000D01*
X125946426Y-93870147D01*
X125685273Y-93978320D01*
X125450241Y-94135363D01*
X125250363Y-94335241D01*
X125093320Y-94570273D01*
X124985147Y-94831426D01*
X124930000Y-95108665D01*
X122034629Y-95108665D01*
X121988664Y-95032954D01*
X121791795Y-94818198D01*
X121556812Y-94645975D01*
X121292745Y-94522904D01*
X121009742Y-94453715D01*
X120777000Y-94597768D01*
X120523000Y-94597768D01*
X120290258Y-94453715D01*
X120007255Y-94522904D01*
X119743188Y-94645975D01*
X119508205Y-94818198D01*
X119311336Y-95032954D01*
X119160146Y-95281991D01*
X119060446Y-95555739D01*
X119058524Y-95568110D01*
X118237000Y-95568110D01*
X118237000Y-91933665D01*
X124930000Y-91933665D01*
X124930000Y-92216335D01*
X124985147Y-92493574D01*
X125093320Y-92754727D01*
X125250363Y-92989759D01*
X125450241Y-93189637D01*
X125685273Y-93346680D01*
X125946426Y-93454853D01*
X126223665Y-93510000D01*
X126506335Y-93510000D01*
X126783574Y-93454853D01*
X127044727Y-93346680D01*
X127279759Y-93189637D01*
X127479637Y-92989759D01*
X127636680Y-92754727D01*
X127744853Y-92493574D01*
X127800000Y-92216335D01*
X127800000Y-91933665D01*
X127744853Y-91656426D01*
X127636680Y-91395273D01*
X127479637Y-91160241D01*
X127279759Y-90960363D01*
X127044727Y-90803320D01*
X126783574Y-90695147D01*
X126506335Y-90640000D01*
X126223665Y-90640000D01*
X125946426Y-90695147D01*
X125685273Y-90803320D01*
X125450241Y-90960363D01*
X125250363Y-91160241D01*
X125093320Y-91395273D01*
X124985147Y-91656426D01*
X124930000Y-91933665D01*
X118237000Y-91933665D01*
X118237000Y-88123665D01*
X127550000Y-88123665D01*
X127550000Y-88406335D01*
X127605147Y-88683574D01*
X127713320Y-88944727D01*
X127870363Y-89179759D01*
X128070241Y-89379637D01*
X128305273Y-89536680D01*
X128566426Y-89644853D01*
X128843665Y-89700000D01*
X129126335Y-89700000D01*
X129403574Y-89644853D01*
X129610000Y-89559349D01*
X129816426Y-89644853D01*
X130093665Y-89700000D01*
X130376335Y-89700000D01*
X130653574Y-89644853D01*
X130914727Y-89536680D01*
X131149759Y-89379637D01*
X131349637Y-89179759D01*
X131485000Y-88977173D01*
X131620363Y-89179759D01*
X131820241Y-89379637D01*
X132055273Y-89536680D01*
X132316426Y-89644853D01*
X132593665Y-89700000D01*
X132876335Y-89700000D01*
X133153574Y-89644853D01*
X133360000Y-89559349D01*
X133566426Y-89644853D01*
X133843665Y-89700000D01*
X134126335Y-89700000D01*
X134403574Y-89644853D01*
X134664727Y-89536680D01*
X134899759Y-89379637D01*
X135099637Y-89179759D01*
X135256680Y-88944727D01*
X135364853Y-88683574D01*
X135420000Y-88406335D01*
X135420000Y-88123665D01*
X135364853Y-87846426D01*
X135256680Y-87585273D01*
X135099637Y-87350241D01*
X134899759Y-87150363D01*
X134664727Y-86993320D01*
X134403574Y-86885147D01*
X134126335Y-86830000D01*
X133843665Y-86830000D01*
X133566426Y-86885147D01*
X133360000Y-86970651D01*
X133153574Y-86885147D01*
X132876335Y-86830000D01*
X132593665Y-86830000D01*
X132316426Y-86885147D01*
X132055273Y-86993320D01*
X131820241Y-87150363D01*
X131620363Y-87350241D01*
X131485000Y-87552827D01*
X131349637Y-87350241D01*
X131149759Y-87150363D01*
X130914727Y-86993320D01*
X130653574Y-86885147D01*
X130376335Y-86830000D01*
X130093665Y-86830000D01*
X129816426Y-86885147D01*
X129610000Y-86970651D01*
X129403574Y-86885147D01*
X129126335Y-86830000D01*
X128843665Y-86830000D01*
X128566426Y-86885147D01*
X128305273Y-86993320D01*
X128070241Y-87150363D01*
X127870363Y-87350241D01*
X127713320Y-87585273D01*
X127605147Y-87846426D01*
X127550000Y-88123665D01*
X118237000Y-88123665D01*
X118237000Y-84177702D01*
X133806903Y-84177702D01*
X133878486Y-84421671D01*
X134133996Y-84542571D01*
X134408184Y-84611300D01*
X134690512Y-84625217D01*
X134970130Y-84583787D01*
X135236292Y-84488603D01*
X135361514Y-84421671D01*
X135433097Y-84177702D01*
X134620000Y-83364605D01*
X133806903Y-84177702D01*
X118237000Y-84177702D01*
X118237000Y-81985512D01*
X125639783Y-81985512D01*
X125681213Y-82265130D01*
X125776397Y-82531292D01*
X125843329Y-82656514D01*
X126087298Y-82728097D01*
X126892889Y-81922506D01*
X126889783Y-81985512D01*
X126928408Y-82246197D01*
X126266903Y-82907702D01*
X126338486Y-83151671D01*
X126593996Y-83272571D01*
X126868184Y-83341300D01*
X127150512Y-83355217D01*
X127430130Y-83313787D01*
X127696292Y-83218603D01*
X127712092Y-83210158D01*
X127843996Y-83272571D01*
X128118184Y-83341300D01*
X128400512Y-83355217D01*
X128680130Y-83313787D01*
X128946292Y-83218603D01*
X129071514Y-83151671D01*
X129143097Y-82907702D01*
X128477421Y-82242026D01*
X128506300Y-82126816D01*
X128516406Y-81921801D01*
X129322702Y-82728097D01*
X129566671Y-82656514D01*
X129580324Y-82627659D01*
X129715363Y-82829759D01*
X129915241Y-83029637D01*
X130150273Y-83186680D01*
X130411426Y-83294853D01*
X130688665Y-83350000D01*
X130971335Y-83350000D01*
X131248574Y-83294853D01*
X131455000Y-83209349D01*
X131661426Y-83294853D01*
X131938665Y-83350000D01*
X132221335Y-83350000D01*
X132498574Y-83294853D01*
X132759727Y-83186680D01*
X132994759Y-83029637D01*
X133194637Y-82829759D01*
X133250673Y-82745895D01*
X133193700Y-82973184D01*
X133179783Y-83255512D01*
X133221213Y-83535130D01*
X133316397Y-83801292D01*
X133383329Y-83926514D01*
X133627298Y-83998097D01*
X134440395Y-83185000D01*
X133627298Y-82371903D01*
X133418614Y-82433133D01*
X133459853Y-82333574D01*
X133487954Y-82192298D01*
X133806903Y-82192298D01*
X134620000Y-83005395D01*
X135433097Y-82192298D01*
X135361514Y-81948329D01*
X135106004Y-81827429D01*
X134831816Y-81758700D01*
X134549488Y-81744783D01*
X134269870Y-81786213D01*
X134003708Y-81881397D01*
X133878486Y-81948329D01*
X133806903Y-82192298D01*
X133487954Y-82192298D01*
X133515000Y-82056335D01*
X133515000Y-81773665D01*
X133459853Y-81496426D01*
X133351680Y-81235273D01*
X133194637Y-81000241D01*
X132994759Y-80800363D01*
X132759727Y-80643320D01*
X132498574Y-80535147D01*
X132221335Y-80480000D01*
X131938665Y-80480000D01*
X131661426Y-80535147D01*
X131455000Y-80620651D01*
X131248574Y-80535147D01*
X130971335Y-80480000D01*
X130688665Y-80480000D01*
X130411426Y-80535147D01*
X130150273Y-80643320D01*
X129915241Y-80800363D01*
X129715363Y-81000241D01*
X129581308Y-81200869D01*
X129566671Y-81173486D01*
X129322702Y-81101903D01*
X128517111Y-81907494D01*
X128520217Y-81844488D01*
X128481592Y-81583803D01*
X129143097Y-80922298D01*
X129071514Y-80678329D01*
X128816004Y-80557429D01*
X128541816Y-80488700D01*
X128259488Y-80474783D01*
X127979870Y-80516213D01*
X127713708Y-80611397D01*
X127697908Y-80619842D01*
X127566004Y-80557429D01*
X127291816Y-80488700D01*
X127009488Y-80474783D01*
X126729870Y-80516213D01*
X126463708Y-80611397D01*
X126338486Y-80678329D01*
X126266903Y-80922298D01*
X126932579Y-81587974D01*
X126903700Y-81703184D01*
X126893594Y-81908199D01*
X126087298Y-81101903D01*
X125843329Y-81173486D01*
X125722429Y-81428996D01*
X125653700Y-81703184D01*
X125639783Y-81985512D01*
X118237000Y-81985512D01*
X118237000Y-77963665D01*
X124930000Y-77963665D01*
X124930000Y-78246335D01*
X124985147Y-78523574D01*
X125093320Y-78784727D01*
X125250363Y-79019759D01*
X125450241Y-79219637D01*
X125685273Y-79376680D01*
X125946426Y-79484853D01*
X126223665Y-79540000D01*
X126506335Y-79540000D01*
X126783574Y-79484853D01*
X127044727Y-79376680D01*
X127279759Y-79219637D01*
X127479637Y-79019759D01*
X127636680Y-78784727D01*
X127744853Y-78523574D01*
X127800000Y-78246335D01*
X127800000Y-77963665D01*
X127744853Y-77686426D01*
X127636680Y-77425273D01*
X127479637Y-77190241D01*
X127279759Y-76990363D01*
X127044727Y-76833320D01*
X126783574Y-76725147D01*
X126506335Y-76670000D01*
X126223665Y-76670000D01*
X125946426Y-76725147D01*
X125685273Y-76833320D01*
X125450241Y-76990363D01*
X125250363Y-77190241D01*
X125093320Y-77425273D01*
X124985147Y-77686426D01*
X124930000Y-77963665D01*
X118237000Y-77963665D01*
X118237000Y-74788665D01*
X124930000Y-74788665D01*
X124930000Y-75071335D01*
X124985147Y-75348574D01*
X125093320Y-75609727D01*
X125250363Y-75844759D01*
X125450241Y-76044637D01*
X125685273Y-76201680D01*
X125946426Y-76309853D01*
X126223665Y-76365000D01*
X126506335Y-76365000D01*
X126783574Y-76309853D01*
X127044727Y-76201680D01*
X127279759Y-76044637D01*
X127479637Y-75844759D01*
X127636680Y-75609727D01*
X127744853Y-75348574D01*
X127800000Y-75071335D01*
X127800000Y-74788665D01*
X127744853Y-74511426D01*
X127636680Y-74250273D01*
X127479637Y-74015241D01*
X127279759Y-73815363D01*
X127044727Y-73658320D01*
X126783574Y-73550147D01*
X126506335Y-73495000D01*
X126223665Y-73495000D01*
X125946426Y-73550147D01*
X125685273Y-73658320D01*
X125450241Y-73815363D01*
X125250363Y-74015241D01*
X125093320Y-74250273D01*
X124985147Y-74511426D01*
X124930000Y-74788665D01*
X118237000Y-74788665D01*
X118237000Y-71613665D01*
X124930000Y-71613665D01*
X124930000Y-71896335D01*
X124985147Y-72173574D01*
X125093320Y-72434727D01*
X125250363Y-72669759D01*
X125450241Y-72869637D01*
X125685273Y-73026680D01*
X125946426Y-73134853D01*
X126223665Y-73190000D01*
X126506335Y-73190000D01*
X126783574Y-73134853D01*
X127044727Y-73026680D01*
X127279759Y-72869637D01*
X127479637Y-72669759D01*
X127636680Y-72434727D01*
X127744853Y-72173574D01*
X127800000Y-71896335D01*
X127800000Y-71613665D01*
X132550000Y-71613665D01*
X132550000Y-71896335D01*
X132605147Y-72173574D01*
X132713320Y-72434727D01*
X132870363Y-72669759D01*
X133070241Y-72869637D01*
X133305273Y-73026680D01*
X133566426Y-73134853D01*
X133843665Y-73190000D01*
X134126335Y-73190000D01*
X134403574Y-73134853D01*
X134664727Y-73026680D01*
X134899759Y-72869637D01*
X135099637Y-72669759D01*
X135256680Y-72434727D01*
X135321928Y-72277204D01*
X135321928Y-73190000D01*
X135334188Y-73314482D01*
X135370498Y-73434180D01*
X135429463Y-73544494D01*
X135508815Y-73641185D01*
X135605506Y-73720537D01*
X135715820Y-73779502D01*
X135835518Y-73815812D01*
X135853482Y-73817581D01*
X135740392Y-73910392D01*
X135561068Y-74128899D01*
X135427818Y-74378192D01*
X135373783Y-74556322D01*
X135364853Y-74511426D01*
X135256680Y-74250273D01*
X135099637Y-74015241D01*
X134899759Y-73815363D01*
X134664727Y-73658320D01*
X134403574Y-73550147D01*
X134126335Y-73495000D01*
X133843665Y-73495000D01*
X133566426Y-73550147D01*
X133305273Y-73658320D01*
X133070241Y-73815363D01*
X132870363Y-74015241D01*
X132713320Y-74250273D01*
X132605147Y-74511426D01*
X132550000Y-74788665D01*
X132550000Y-75071335D01*
X132605147Y-75348574D01*
X132713320Y-75609727D01*
X132870363Y-75844759D01*
X133070241Y-76044637D01*
X133305273Y-76201680D01*
X133566426Y-76309853D01*
X133843665Y-76365000D01*
X134126335Y-76365000D01*
X134403574Y-76309853D01*
X134664727Y-76201680D01*
X134899759Y-76044637D01*
X135099637Y-75844759D01*
X135256680Y-75609727D01*
X135364853Y-75348574D01*
X135373783Y-75303678D01*
X135427818Y-75481808D01*
X135561068Y-75731101D01*
X135740392Y-75949608D01*
X135958899Y-76128932D01*
X136086741Y-76197265D01*
X135857161Y-76347399D01*
X135655500Y-76545105D01*
X135496285Y-76778354D01*
X135385633Y-77038182D01*
X135368096Y-77120961D01*
X135490085Y-77343000D01*
X137033000Y-77343000D01*
X137033000Y-77323000D01*
X137287000Y-77323000D01*
X137287000Y-77343000D01*
X138829915Y-77343000D01*
X138951904Y-77120961D01*
X138934367Y-77038182D01*
X138823715Y-76778354D01*
X138664500Y-76545105D01*
X138462839Y-76347399D01*
X138233259Y-76197265D01*
X138361101Y-76128932D01*
X138579608Y-75949608D01*
X138758932Y-75731101D01*
X138892182Y-75481808D01*
X138974236Y-75211309D01*
X139001943Y-74930000D01*
X138974236Y-74648691D01*
X138892182Y-74378192D01*
X138758932Y-74128899D01*
X138579608Y-73910392D01*
X138466518Y-73817581D01*
X138484482Y-73815812D01*
X138604180Y-73779502D01*
X138714494Y-73720537D01*
X138811185Y-73641185D01*
X138890537Y-73544494D01*
X138949502Y-73434180D01*
X138985812Y-73314482D01*
X138998072Y-73190000D01*
X138998072Y-71590000D01*
X138985812Y-71465518D01*
X138949502Y-71345820D01*
X138890537Y-71235506D01*
X138811185Y-71138815D01*
X138714494Y-71059463D01*
X138604180Y-71000498D01*
X138484482Y-70964188D01*
X138360000Y-70951928D01*
X135960000Y-70951928D01*
X135835518Y-70964188D01*
X135715820Y-71000498D01*
X135605506Y-71059463D01*
X135508815Y-71138815D01*
X135429463Y-71235506D01*
X135370498Y-71345820D01*
X135368217Y-71353339D01*
X135364853Y-71336426D01*
X135256680Y-71075273D01*
X135099637Y-70840241D01*
X134899759Y-70640363D01*
X134664727Y-70483320D01*
X134403574Y-70375147D01*
X134126335Y-70320000D01*
X133843665Y-70320000D01*
X133566426Y-70375147D01*
X133305273Y-70483320D01*
X133070241Y-70640363D01*
X132870363Y-70840241D01*
X132713320Y-71075273D01*
X132605147Y-71336426D01*
X132550000Y-71613665D01*
X127800000Y-71613665D01*
X127744853Y-71336426D01*
X127636680Y-71075273D01*
X127479637Y-70840241D01*
X127279759Y-70640363D01*
X127044727Y-70483320D01*
X126783574Y-70375147D01*
X126506335Y-70320000D01*
X126223665Y-70320000D01*
X125946426Y-70375147D01*
X125685273Y-70483320D01*
X125450241Y-70640363D01*
X125250363Y-70840241D01*
X125093320Y-71075273D01*
X124985147Y-71336426D01*
X124930000Y-71613665D01*
X118237000Y-71613665D01*
X118237000Y-69234283D01*
X118321331Y-69290631D01*
X118728075Y-69459110D01*
X119159872Y-69545000D01*
X119600128Y-69545000D01*
X120031925Y-69459110D01*
X120438669Y-69290631D01*
X120804729Y-69046038D01*
X121116038Y-68734729D01*
X121360631Y-68368669D01*
X121529110Y-67961925D01*
X121560589Y-67803665D01*
X127550000Y-67803665D01*
X127550000Y-68086335D01*
X127605147Y-68363574D01*
X127713320Y-68624727D01*
X127870363Y-68859759D01*
X128070241Y-69059637D01*
X128305273Y-69216680D01*
X128566426Y-69324853D01*
X128843665Y-69380000D01*
X129126335Y-69380000D01*
X129403574Y-69324853D01*
X129610000Y-69239349D01*
X129816426Y-69324853D01*
X130093665Y-69380000D01*
X130376335Y-69380000D01*
X130653574Y-69324853D01*
X130914727Y-69216680D01*
X131149759Y-69059637D01*
X131349637Y-68859759D01*
X131485000Y-68657173D01*
X131620363Y-68859759D01*
X131820241Y-69059637D01*
X132055273Y-69216680D01*
X132316426Y-69324853D01*
X132593665Y-69380000D01*
X132876335Y-69380000D01*
X133153574Y-69324853D01*
X133360000Y-69239349D01*
X133566426Y-69324853D01*
X133843665Y-69380000D01*
X134126335Y-69380000D01*
X134403574Y-69324853D01*
X134664727Y-69216680D01*
X134899759Y-69059637D01*
X135099637Y-68859759D01*
X135256680Y-68624727D01*
X135364853Y-68363574D01*
X135420000Y-68086335D01*
X135420000Y-67803665D01*
X135364853Y-67526426D01*
X135256680Y-67265273D01*
X135099637Y-67030241D01*
X134899759Y-66830363D01*
X134664727Y-66673320D01*
X134403574Y-66565147D01*
X134126335Y-66510000D01*
X133843665Y-66510000D01*
X133566426Y-66565147D01*
X133360000Y-66650651D01*
X133153574Y-66565147D01*
X132876335Y-66510000D01*
X132593665Y-66510000D01*
X132316426Y-66565147D01*
X132055273Y-66673320D01*
X131820241Y-66830363D01*
X131620363Y-67030241D01*
X131485000Y-67232827D01*
X131349637Y-67030241D01*
X131149759Y-66830363D01*
X130914727Y-66673320D01*
X130653574Y-66565147D01*
X130376335Y-66510000D01*
X130093665Y-66510000D01*
X129816426Y-66565147D01*
X129610000Y-66650651D01*
X129403574Y-66565147D01*
X129126335Y-66510000D01*
X128843665Y-66510000D01*
X128566426Y-66565147D01*
X128305273Y-66673320D01*
X128070241Y-66830363D01*
X127870363Y-67030241D01*
X127713320Y-67265273D01*
X127605147Y-67526426D01*
X127550000Y-67803665D01*
X121560589Y-67803665D01*
X121615000Y-67530128D01*
X121615000Y-67089872D01*
X121529110Y-66658075D01*
X121360631Y-66251331D01*
X121304283Y-66167000D01*
X179685717Y-66167000D01*
X179629369Y-66251331D01*
G04 #@! TD*
M02*
